<?xml version="1.0" encoding="utf-8"?>
<!-- Generator: Adobe Illustrator 18.1.1, SVG Export Plug-In . SVG Version: 6.00 Build 0)  -->
<!DOCTYPE svg PUBLIC "-//W3C//DTD SVG 1.1//EN" "http://www.w3.org/Graphics/SVG/1.1/DTD/svg11.dtd">
<svg version="1.1" xmlns="http://www.w3.org/2000/svg" xmlns:xlink="http://www.w3.org/1999/xlink" x="0px" y="0px"
	 viewBox="0 0 1680 1280" enable-background="new 0 0 1680 1280" xml:space="preserve">
<g id="FLOW01" display="none">
	<circle display="inline" fill="none" stroke="#F65A5B" stroke-miterlimit="10" cx="640" cy="400" r="150"/>
	<circle display="inline" fill="none" stroke="#F65A5B" stroke-miterlimit="10" cx="640" cy="250" r="100"/>
	<circle display="inline" fill="none" stroke="#F65A5B" stroke-miterlimit="10" cx="423.5" cy="525" r="100"/>
	<circle display="inline" fill="none" stroke="#F65A5B" stroke-miterlimit="10" cx="460.1" cy="388.4" r="100"/>
	<circle display="inline" fill="none" stroke="#F65A5B" stroke-miterlimit="10" cx="560.1" cy="561.6" r="100"/>
	<path display="inline" fill="#BDBFBF" d="M663.5,96.2c-9.2-2.1-17.7-4-13.6-11.8c12.6-23.7,3.3-36.4-10-36.4
		c-13.6,0-22.6,13.2-10,36.4c4.3,7.8-4.6,9.7-13.6,11.8c-7.6,1.8-8.4,5.4-8.5,11.7c0,2.2,1.8,4,4,4h56c2.2,0,4-1.8,4-4
		C671.9,101.6,671.2,98,663.5,96.2z"/>
	<path display="inline" fill="#FBCB44" d="M123.6,275H89c11,0,20,9,20,20c0,3.6-1,7-2.7,10l0,0L89,335c22.1,0,40-17.9,40-40
		C129,287.7,127,280.9,123.6,275z"/>
	<path display="inline" fill="#34B67A" d="M89,315c-7.4,0-13.8-4-17.3-10l0,0l-17.3-30c-3.4,5.9-5.4,12.7-5.4,20
		c0,22.1,17.9,40,40,40l17.3-30l0,0C102.8,311,96.4,315,89,315z"/>
	<path display="inline" fill="#DC4437" d="M69,295c0-11,9-20,20-20h34.6c-6.9-12-19.8-20-34.6-20c-14.8,0-27.7,8-34.6,20l17.3,30
		l0,0C70,302,69,298.6,69,295z"/>
	<circle display="inline" fill="#4385F5" cx="89" cy="295" r="15"/>
	<g display="inline">
		<rect x="1007.5" y="649.5" opacity="0.15" fill="#59A1C9" width="199" height="49"/>
		<path fill="#59A1C9" d="M1206,650v48h-198v-48H1206 M1207,649h-200v50h200V649L1207,649z"/>
	</g>
	<text transform="matrix(1 0 0 1 1058.8521 680)" display="inline" fill="#59A1C9" font-family="'Oxygen-Light'" font-size="18">Rails Router</text>
	<g display="inline">
		<rect x="49.5" y="681.5" opacity="0.15" fill="#59A1C9" width="199" height="49"/>
		<path fill="#59A1C9" d="M248,682v48H50v-48H248 M249,681H49v50h200V681L249,681z"/>
	</g>
	<text transform="matrix(1 0 0 1 108.6607 712)" display="inline" fill="#59A1C9" font-family="'Oxygen-Light'" font-size="18">Controller</text>
	<g display="inline">
		<rect x="240.5" y="861.5" opacity="0.15" fill="#59A1C9" width="199" height="49"/>
		<path fill="#59A1C9" d="M439,862v48H241v-48H439 M440,861H240v50h200V861L440,861z"/>
	</g>
	<text transform="matrix(1 0 0 1 314.2871 892)" display="inline" fill="#59A1C9" font-family="'Oxygen-Light'" font-size="18">Model</text>
	<g display="inline">
		<rect x="540.5" y="861.5" opacity="0.15" fill="#59A1C9" width="199" height="49"/>
		<path fill="#59A1C9" d="M739,862v48H541v-48H739 M740,861H540v50h200V861L740,861z"/>
	</g>
	<text transform="matrix(1 0 0 1 621.0982 892)" display="inline" fill="#59A1C9" font-family="'Oxygen-Light'" font-size="18">View</text>
</g>
<g id="STATIC_x5F_RAILS" display="none">
	<g display="inline">
		<g>
			<path fill="none" stroke="#204056" stroke-miterlimit="10" d="M492.5,680.2c-1.7-9-2.5-18.2-2.5-27.7c0-65,41.4-120.4,99.3-141.2
				"/>
			<g>
				<polygon fill="#204056" points="587.6,516.3 586.7,515.8 588.9,511.4 584.4,509.6 584.8,508.6 590.3,510.9 				"/>
			</g>
		</g>
	</g>
	<g display="inline">
		<g>
			<path fill="none" stroke="#204056" stroke-miterlimit="10" d="M738,766c-26.3,22.7-60.6,36.5-98,36.5
				c-36.3,0-69.6-12.9-95.5-34.4"/>
			<g>
				<polygon fill="#204056" points="549.6,767 549.7,768 544.8,768.4 545.5,773.2 544.5,773.4 543.6,767.4 				"/>
			</g>
		</g>
	</g>
	<g display="inline">
		<g>
			<path fill="none" stroke="#204056" stroke-miterlimit="10" d="M689,510.7c58.8,20.3,101,76.1,101,141.8c0,9.1-0.8,17.9-2.3,26.5"
				/>
			<g>
				<polygon fill="#204056" points="784.1,675.1 785,674.5 787.7,678.6 791.6,675.6 792.2,676.4 787.5,680.1 				"/>
			</g>
		</g>
	</g>
	<path display="inline" fill="#BDBFBF" d="M663.5,318.7c-9.2-2.1-17.7-4-13.6-11.8c12.6-23.7,3.3-36.4-10-36.4
		c-13.6,0-22.6,13.2-10,36.4c4.3,7.8-4.6,9.7-13.6,11.8c-7.6,1.8-8.4,5.4-8.5,11.7c0,2.2,1.8,4,4,4h56c2.2,0,4-1.8,4-4
		C671.9,324.1,671.2,320.5,663.5,318.7z"/>
	<path display="inline" fill="#FBCB44" d="M674.6,482.5H640c11,0,20,9,20,20c0,3.6-1,7-2.7,10l0,0l-17.3,30c22.1,0,40-17.9,40-40
		C680,495.2,678,488.4,674.6,482.5z"/>
	<path display="inline" fill="#34B67A" d="M640,522.5c-7.4,0-13.8-4-17.3-10l0,0l-17.3-30c-3.4,5.9-5.4,12.7-5.4,20
		c0,22.1,17.9,40,40,40l17.3-30l0,0C653.8,518.5,647.4,522.5,640,522.5z"/>
	<path display="inline" fill="#DC4437" d="M620,502.5c0-11,9-20,20-20h34.6c-6.9-12-19.8-20-34.6-20c-14.8,0-27.7,8-34.6,20l17.3,30
		l0,0C621,509.5,620,506.1,620,502.5z"/>
	<circle display="inline" fill="#4385F5" cx="640" cy="502.5" r="15"/>
	<g display="inline">
		<rect x="430.6" y="703" opacity="0.15" fill="#59A1C9" width="159" height="49"/>
		<path fill="#59A1C9" d="M589.1,703.5v48h-158v-48H589.1 M590.1,702.5h-160v50h160V702.5L590.1,702.5z"/>
	</g>
	
		<text transform="matrix(1 0 0 1 469.7583 733.4916)" display="inline" fill="#59A1C9" font-family="'Oxygen-Light'" font-size="18">Controller</text>
	<text transform="matrix(1 0 0 1 676.9854 408.6357)" display="inline" fill="#F65A5B" font-family="'Oxygen-Bold'" font-size="18">1</text>
	<g display="inline">
		<rect x="690.4" y="703" opacity="0.15" fill="#59A1C9" width="159" height="49"/>
		<path fill="#59A1C9" d="M848.9,703.5v48h-158v-48H848.9 M849.9,702.5h-160v50h160V702.5L849.9,702.5z"/>
	</g>
	
		<text transform="matrix(1 0 0 1 721.7573 733.4916)" display="inline" fill="#59A1C9" font-family="'Oxygen-Light'" font-size="18">Rails Router</text>
	<text transform="matrix(1 0 0 1 791.2527 568.6361)" display="inline" fill="#F65A5B" font-family="'Oxygen-Bold'" font-size="18">2</text>
	<text transform="matrix(1 0 0 1 635.2627 828.6361)" display="inline" fill="#F65A5B" font-family="'Oxygen-Bold'" font-size="18">3</text>
	<text transform="matrix(1 0 0 1 379.5865 778.6357)" display="inline" fill="#F65A5B" font-family="'Oxygen-Bold'" font-size="18">4</text>
	<text transform="matrix(1 0 0 1 380.0914 688.6357)" display="inline" fill="#F65A5B" font-family="'Oxygen-Bold'" font-size="18">5</text>
	<text transform="matrix(1 0 0 1 477.8205 568.6361)" display="inline" fill="#F65A5B" font-family="'Oxygen-Bold'" font-size="18">6</text>
	<text transform="matrix(1 0 0 1 607.1324 567.492)" display="inline" fill="#4385F5" font-family="'Oxygen-Light'" font-size="18">Browser</text>
	<g display="inline">
		<g>
			<line fill="none" stroke="#204056" stroke-miterlimit="10" x1="660" y1="441.4" x2="660" y2="354.5"/>
			<g>
				<polygon fill="#204056" points="664.1,438.1 663.4,437.4 660,441 656.6,437.4 655.9,438.1 660,442.5 				"/>
			</g>
		</g>
	</g>
	<g display="inline">
		<g>
			<line fill="none" stroke="#204056" stroke-miterlimit="10" x1="620" y1="442.5" x2="620" y2="355.5"/>
			<g>
				<polygon fill="#204056" points="624.1,358.9 623.4,359.5 620,355.9 616.6,359.5 615.9,358.9 620,354.5 				"/>
			</g>
		</g>
	</g>
	<g display="inline">
		<rect x="180.6" y="703" opacity="0.15" fill="#59A1C9" width="159" height="49"/>
		<path fill="#59A1C9" d="M339.1,703.5v48h-158v-48H339.1 M340.1,702.5h-160v50h160V702.5L340.1,702.5z"/>
	</g>
	
		<text transform="matrix(1 0 0 1 241.1881 733.4916)" display="inline" fill="#59A1C9" font-family="'Oxygen-Light'" font-size="18">View</text>
	<g display="inline">
		<g>
			<line fill="none" stroke="#204056" stroke-miterlimit="10" x1="360.1" y1="712.5" x2="409" y2="712.5"/>
			<g>
				<polygon fill="#204056" points="405.7,716.6 405,715.8 408.6,712.5 405,709.1 405.7,708.4 410.1,712.5 				"/>
			</g>
		</g>
	</g>
	<g display="inline">
		<g>
			<line fill="none" stroke="#204056" stroke-miterlimit="10" x1="361.2" y1="742.5" x2="410.1" y2="742.5"/>
			<g>
				<polygon fill="#204056" points="364.5,746.6 365.2,745.8 361.6,742.5 365.2,739.1 364.5,738.4 360.1,742.5 				"/>
			</g>
		</g>
	</g>
</g>
<g id="DYNAMIC_x5F_RAILS" display="none">
	<g display="inline">
		<rect x="430.6" y="903" opacity="0.15" fill="#59A1C9" width="159" height="49"/>
		<path fill="#59A1C9" d="M589.1,903.5v48h-158v-48H589.1 M590.1,902.5h-160v50h160V902.5L590.1,902.5z"/>
	</g>
	<text transform="matrix(1 0 0 1 484.3833 933.475)" display="inline" fill="#59A1C9" font-family="'Oxygen-Light'" font-size="18">Model</text>
	<text transform="matrix(1 0 0 1 773.0025 933.475)" display="inline" fill="#4A4A4C" font-family="'Oxygen-Light'" font-size="18">Database</text>
	<g display="inline">
		<path opacity="0.15" fill="#4A4A4C" d="M718,880c-19.3,0-35,4.5-35,10v75c0,5.5,15.7,10,35,10s35-4.5,35-10v-75
			C753,884.5,737.3,880,718,880z"/>
		<ellipse fill="none" stroke="#4A4A4C" stroke-miterlimit="10" cx="718" cy="890" rx="35" ry="10"/>
		<path fill="none" stroke="#4A4A4C" stroke-miterlimit="10" d="M753,915c0,5.5-15.7,10-35,10s-35-4.5-35-10"/>
		<path fill="none" stroke="#4A4A4C" stroke-miterlimit="10" d="M753,940c0,5.5-15.7,10-35,10s-35-4.5-35-10"/>
		<path fill="none" stroke="#4A4A4C" stroke-miterlimit="10" d="M683,890v75c0,5.5,15.7,10,35,10s35-4.5,35-10v-75"/>
	</g>
	<g display="inline">
		<g>
			<path fill="none" stroke="#204056" stroke-miterlimit="10" d="M492.5,680.2c-1.7-9-2.5-18.2-2.5-27.7c0-65,41.4-120.4,99.3-141.2
				"/>
			<g>
				<polygon fill="#204056" points="587.6,516.3 586.7,515.8 588.9,511.4 584.4,509.6 584.8,508.6 590.3,510.9 				"/>
			</g>
		</g>
	</g>
	<g display="inline">
		<g>
			<path fill="none" stroke="#204056" stroke-miterlimit="10" d="M738,766c-26.3,22.7-60.6,36.5-98,36.5
				c-36.3,0-69.6-12.9-95.5-34.4"/>
			<g>
				<polygon fill="#204056" points="549.6,767 549.7,768 544.8,768.4 545.5,773.2 544.5,773.4 543.6,767.4 				"/>
			</g>
		</g>
	</g>
	<g display="inline">
		<g>
			<path fill="none" stroke="#204056" stroke-miterlimit="10" d="M689,510.7c58.8,20.3,101,76.1,101,141.8c0,9.1-0.8,17.9-2.3,26.5"
				/>
			<g>
				<polygon fill="#204056" points="784.1,675.1 785,674.5 787.7,678.6 791.6,675.6 792.2,676.4 787.5,680.1 				"/>
			</g>
		</g>
	</g>
	<path display="inline" fill="#BDBFBF" d="M663.5,318.7c-9.2-2.1-17.7-4-13.6-11.8c12.6-23.7,3.3-36.4-10-36.4
		c-13.6,0-22.6,13.2-10,36.4c4.3,7.8-4.6,9.7-13.6,11.8c-7.6,1.8-8.4,5.4-8.5,11.7c0,2.2,1.8,4,4,4h56c2.2,0,4-1.8,4-4
		C671.9,324.1,671.2,320.5,663.5,318.7z"/>
	<path display="inline" fill="#FBCB44" d="M674.6,482.5H640c11,0,20,9,20,20c0,3.6-1,7-2.7,10l0,0l-17.3,30c22.1,0,40-17.9,40-40
		C680,495.2,678,488.4,674.6,482.5z"/>
	<path display="inline" fill="#34B67A" d="M640,522.5c-7.4,0-13.8-4-17.3-10l0,0l-17.3-30c-3.4,5.9-5.4,12.7-5.4,20
		c0,22.1,17.9,40,40,40l17.3-30l0,0C653.8,518.5,647.4,522.5,640,522.5z"/>
	<path display="inline" fill="#DC4437" d="M620,502.5c0-11,9-20,20-20h34.6c-6.9-12-19.8-20-34.6-20c-14.8,0-27.7,8-34.6,20l17.3,30
		l0,0C621,509.5,620,506.1,620,502.5z"/>
	<circle display="inline" fill="#4385F5" cx="640" cy="502.5" r="15"/>
	<g display="inline">
		<rect x="430.6" y="703" opacity="0.15" fill="#59A1C9" width="159" height="49"/>
		<path fill="#59A1C9" d="M589.1,703.5v48h-158v-48H589.1 M590.1,702.5h-160v50h160V702.5L590.1,702.5z"/>
	</g>
	
		<text transform="matrix(1 0 0 1 469.7583 733.4916)" display="inline" fill="#59A1C9" font-family="'Oxygen-Light'" font-size="18">Controller</text>
	<text transform="matrix(1 0 0 1 676.9854 408.6357)" display="inline" fill="#F65A5B" font-family="'Oxygen-Bold'" font-size="18">1</text>
	<g display="inline">
		<rect x="690.4" y="703" opacity="0.15" fill="#59A1C9" width="159" height="49"/>
		<path fill="#59A1C9" d="M848.9,703.5v48h-158v-48H848.9 M849.9,702.5h-160v50h160V702.5L849.9,702.5z"/>
	</g>
	
		<text transform="matrix(1 0 0 1 721.7573 733.4916)" display="inline" fill="#59A1C9" font-family="'Oxygen-Light'" font-size="18">Rails Router</text>
	<text transform="matrix(1 0 0 1 791.2527 568.6361)" display="inline" fill="#F65A5B" font-family="'Oxygen-Bold'" font-size="18">2</text>
	<text transform="matrix(1 0 0 1 635.2627 778.6361)" display="inline" fill="#F65A5B" font-family="'Oxygen-Bold'" font-size="18">3</text>
	<text transform="matrix(1 0 0 1 379.7974 778.6357)" display="inline" fill="#F65A5B" font-family="'Oxygen-Bold'" font-size="18">6</text>
	<text transform="matrix(1 0 0 1 380.5396 693.6357)" display="inline" fill="#F65A5B" font-family="'Oxygen-Bold'" font-size="18">7</text>
	<text transform="matrix(1 0 0 1 478.0568 568.6361)" display="inline" fill="#F65A5B" font-family="'Oxygen-Bold'" font-size="18">8</text>
	<text transform="matrix(1 0 0 1 607.1324 567.492)" display="inline" fill="#4385F5" font-family="'Oxygen-Light'" font-size="18">Browser</text>
	<g display="inline">
		<g>
			<line fill="none" stroke="#204056" stroke-miterlimit="10" x1="660" y1="441.4" x2="660" y2="354.5"/>
			<g>
				<polygon fill="#204056" points="664.1,438.1 663.4,437.4 660,441 656.6,437.4 655.9,438.1 660,442.5 				"/>
			</g>
		</g>
	</g>
	<g display="inline">
		<g>
			<line fill="none" stroke="#204056" stroke-miterlimit="10" x1="620" y1="442.5" x2="620" y2="355.5"/>
			<g>
				<polygon fill="#204056" points="624.1,358.9 623.4,359.5 620,355.9 616.6,359.5 615.9,358.9 620,354.5 				"/>
			</g>
		</g>
	</g>
	<text transform="matrix(1 0 0 1 544.4941 838.6357)" display="inline" fill="#F65A5B" font-family="'Oxygen-Bold'" font-size="18">4</text>
	<text transform="matrix(1 0 0 1 464.999 838.6357)" display="inline" fill="#F65A5B" font-family="'Oxygen-Bold'" font-size="18">5</text>
	<g display="inline">
		<g>
			<line fill="none" stroke="#204056" stroke-miterlimit="10" x1="530" y1="871.4" x2="530" y2="784.5"/>
			<g>
				<polygon fill="#204056" points="534.1,868.1 533.4,867.4 530,871 526.6,867.4 525.9,868.1 530,872.5 				"/>
			</g>
		</g>
	</g>
	<g display="inline">
		<g>
			<line fill="none" stroke="#204056" stroke-miterlimit="10" x1="490" y1="872.5" x2="490" y2="785.5"/>
			<g>
				<polygon fill="#204056" points="494.1,788.9 493.4,789.5 490,785.9 486.6,789.5 485.9,788.9 490,784.5 				"/>
			</g>
		</g>
	</g>
	<g display="inline">
		<rect x="180.6" y="703" opacity="0.15" fill="#59A1C9" width="159" height="49"/>
		<path fill="#59A1C9" d="M339.1,703.5v48h-158v-48H339.1 M340.1,702.5h-160v50h160V702.5L340.1,702.5z"/>
	</g>
	
		<text transform="matrix(1 0 0 1 241.1881 733.4916)" display="inline" fill="#59A1C9" font-family="'Oxygen-Light'" font-size="18">View</text>
	<g display="inline">
		<g>
			<line fill="none" stroke="#204056" stroke-miterlimit="10" x1="360.1" y1="712.5" x2="409" y2="712.5"/>
			<g>
				<polygon fill="#204056" points="405.7,716.6 405,715.8 408.6,712.5 405,709.1 405.7,708.4 410.1,712.5 				"/>
			</g>
		</g>
	</g>
	<g display="inline">
		<g>
			<line fill="none" stroke="#204056" stroke-miterlimit="10" x1="361.2" y1="742.5" x2="410.1" y2="742.5"/>
			<g>
				<polygon fill="#204056" points="364.5,746.6 365.2,745.8 361.6,742.5 365.2,739.1 364.5,738.4 360.1,742.5 				"/>
			</g>
		</g>
	</g>
	<g display="inline">
		<g>
			<line fill="none" stroke="#204056" stroke-miterlimit="10" x1="610.1" y1="912.5" x2="659" y2="912.5"/>
			<g>
				<polygon fill="#204056" points="655.7,916.6 655,915.8 658.6,912.5 655,909.1 655.7,908.4 660.1,912.5 				"/>
			</g>
		</g>
	</g>
	<g display="inline">
		<g>
			<line fill="none" stroke="#204056" stroke-miterlimit="10" x1="611.2" y1="942.5" x2="660.1" y2="942.5"/>
			<g>
				<polygon fill="#204056" points="614.5,946.6 615.2,945.8 611.6,942.5 615.2,939.1 614.5,938.4 610.1,942.5 				"/>
			</g>
		</g>
	</g>
</g>
<g id="_x32_.1_x2F_2.2">
	<g>
		<g>
			<path fill="none" stroke="#204056" stroke-miterlimit="10" d="M392.5,680.2c-1.7-9-2.5-18.2-2.5-27.7c0-65,41.4-120.4,99.3-141.2
				"/>
			<g>
				<polygon fill="#204056" points="487.6,516.3 486.7,515.8 488.9,511.4 484.4,509.6 484.8,508.6 490.3,510.9 				"/>
			</g>
		</g>
	</g>
	<g>
		<g>
			<path fill="none" stroke="#204056" stroke-miterlimit="10" d="M638,766c-26.3,22.7-60.6,36.5-98,36.5
				c-36.3,0-69.6-12.9-95.5-34.4"/>
			<g>
				<polygon fill="#204056" points="449.6,767 449.7,768 444.8,768.4 445.5,773.2 444.5,773.4 443.6,767.4 				"/>
			</g>
		</g>
	</g>
	<g>
		<g>
			<path fill="none" stroke="#204056" stroke-miterlimit="10" d="M589,510.7c58.8,20.3,101,76.1,101,141.8c0,9.1-0.8,17.9-2.3,26.5"
				/>
			<g>
				<polygon fill="#204056" points="684.1,675.1 685,674.5 687.7,678.6 691.6,675.6 692.2,676.4 687.5,680.1 				"/>
			</g>
		</g>
	</g>
	<g>
		<g>
			<path fill="none" stroke="#204056" stroke-miterlimit="10" d="M1439.1,510.7c58.8,20.3,101,76.1,101,141.8
				c0,9.1-0.8,17.9-2.3,26.5"/>
			<g>
				<polygon fill="#204056" points="1534.2,675.1 1535.1,674.5 1537.8,678.6 1541.7,675.6 1542.3,676.4 1537.6,680.1 				"/>
			</g>
		</g>
	</g>
	<path fill="#BDBFBF" d="M563.5,318.7c-9.2-2.1-17.7-4-13.6-11.8c12.6-23.7,3.3-36.4-10-36.4c-13.6,0-22.6,13.2-10,36.4
		c4.3,7.8-4.6,9.7-13.6,11.8c-7.6,1.8-8.4,5.4-8.5,11.7c0,2.2,1.8,4,4,4h56c2.2,0,4-1.8,4-4C571.9,324.1,571.2,320.5,563.5,318.7z"
		/>
	<path fill="#FBCB44" d="M574.6,482.5H540c11,0,20,9,20,20c0,3.6-1,7-2.7,10l0,0l-17.3,30c22.1,0,40-17.9,40-40
		C580,495.2,578,488.4,574.6,482.5z"/>
	<path fill="#34B67A" d="M540,522.5c-7.4,0-13.8-4-17.3-10l0,0l-17.3-30c-3.4,5.9-5.4,12.7-5.4,20c0,22.1,17.9,40,40,40l17.3-30l0,0
		C553.8,518.5,547.4,522.5,540,522.5z"/>
	<path fill="#DC4437" d="M520,502.5c0-11,9-20,20-20h34.6c-6.9-12-19.8-20-34.6-20c-14.8,0-27.7,8-34.6,20l17.3,30l0,0
		C521,509.5,520,506.1,520,502.5z"/>
	<circle fill="#4385F5" cx="540" cy="502.5" r="15"/>
	<g>
		<rect x="330.6" y="703" opacity="0.15" fill="#59A1C9" width="159" height="49"/>
		<path fill="#59A1C9" d="M489.1,703.5v48h-158v-48H489.1 M490.1,702.5h-160v50h160V702.5L490.1,702.5z"/>
	</g>
	<g>
		<path fill="#59A1C9" d="M377,733.7c-1,0-1.9-0.2-2.7-0.5s-1.4-0.8-1.9-1.4c-0.5-0.6-0.9-1.3-1.1-2.1c-0.3-0.8-0.4-1.7-0.4-2.7
			c0-1.3,0.2-2.5,0.7-3.5c0.5-1,1.2-1.8,2.1-2.4s2.1-0.9,3.4-0.9c1.4,0,2.6,0.3,3.6,0.9l-0.5,0.9c-0.9-0.6-1.9-0.8-3.1-0.8
			c-0.8,0-1.5,0.2-2.2,0.5s-1.2,0.7-1.6,1.3s-0.7,1.2-0.9,1.9s-0.3,1.5-0.3,2.3c0,0.8,0.1,1.5,0.3,2.2c0.2,0.7,0.5,1.3,0.9,1.8
			c0.4,0.5,0.9,1,1.6,1.3s1.4,0.5,2.3,0.5c0.9,0,1.9-0.3,3.1-0.8l0.2,0.9C379.6,733.4,378.4,733.7,377,733.7z"/>
		<path fill="#59A1C9" d="M386.3,733.7c-0.9,0-1.6-0.2-2.3-0.7c-0.7-0.4-1.2-1-1.5-1.8s-0.5-1.6-0.5-2.6c0-0.7,0.1-1.4,0.3-2
			c0.2-0.6,0.5-1.1,0.9-1.6s0.8-0.8,1.4-1.1s1.2-0.4,1.9-0.4c0.9,0,1.7,0.2,2.3,0.7s1.2,1,1.5,1.8s0.5,1.6,0.5,2.6
			c0,1-0.2,1.8-0.5,2.6s-0.8,1.3-1.5,1.8S387.3,733.7,386.3,733.7z M386.4,732.8c0.7,0,1.3-0.2,1.8-0.6c0.5-0.4,0.8-0.9,1.1-1.5
			c0.2-0.6,0.3-1.3,0.3-2.1c0-1.2-0.3-2.2-0.8-3s-1.3-1.1-2.4-1.1c-0.7,0-1.3,0.2-1.8,0.6s-0.9,0.9-1.1,1.5s-0.3,1.3-0.3,2.1
			c0,1.2,0.3,2.2,0.8,3C384.6,732.4,385.4,732.8,386.4,732.8z"/>
		<path fill="#59A1C9" d="M392.9,733.5v-9.6h0.9l0.1,1.5c0.3-0.5,0.8-0.9,1.4-1.2s1.2-0.4,1.9-0.4c1.1,0,1.9,0.3,2.4,0.9
			s0.8,1.6,0.8,2.9v6h-1.1V727c0-0.9-0.2-1.5-0.5-1.8s-0.9-0.6-1.6-0.6c-0.9,0-1.6,0.2-2.1,0.7c-0.6,0.4-0.9,1-1,1.7
			c0,0.3,0,0.6,0,0.9v5.7H392.9z"/>
		<path fill="#59A1C9" d="M405.7,733.7c-0.8,0-1.4-0.2-1.8-0.5s-0.6-1-0.6-1.8v-6.7H402l0.1-0.7l1.3-0.1l0.3-2.2l0.8-0.1v2.2h2.8
			v0.8h-2.8v6.5c0,0.7,0.1,1.1,0.3,1.4s0.6,0.3,1.2,0.3c0.4,0,0.8-0.1,1.4-0.2l0,0.8C406.7,733.6,406.1,733.7,405.7,733.7z"/>
		<path fill="#59A1C9" d="M409,733.5c0-5.7,0-8.9,0-9.6h0.9l0.1,1.9c0.3-0.6,0.8-1,1.3-1.4s1.1-0.5,1.7-0.5c0.2,0,0.5,0,0.8,0.1
			l-0.1,0.9c-0.2,0-0.4-0.1-0.7-0.1c-0.8,0-1.5,0.3-2.1,1c-0.6,0.6-0.8,1.4-0.8,2.3v5.5H409z"/>
		<path fill="#59A1C9" d="M419,733.7c-0.9,0-1.6-0.2-2.3-0.7c-0.7-0.4-1.2-1-1.5-1.8s-0.5-1.6-0.5-2.6c0-0.7,0.1-1.4,0.3-2
			c0.2-0.6,0.5-1.1,0.9-1.6s0.8-0.8,1.4-1.1s1.2-0.4,1.9-0.4c0.9,0,1.7,0.2,2.3,0.7s1.2,1,1.5,1.8s0.5,1.6,0.5,2.6
			c0,1-0.2,1.8-0.5,2.6s-0.8,1.3-1.5,1.8S419.9,733.7,419,733.7z M419.1,732.8c0.7,0,1.3-0.2,1.8-0.6c0.5-0.4,0.8-0.9,1.1-1.5
			c0.2-0.6,0.3-1.3,0.3-2.1c0-1.2-0.3-2.2-0.8-3s-1.3-1.1-2.4-1.1c-0.7,0-1.3,0.2-1.8,0.6s-0.9,0.9-1.1,1.5s-0.3,1.3-0.3,2.1
			c0,1.2,0.3,2.2,0.8,3C417.2,732.4,418,732.8,419.1,732.8z"/>
		<path fill="#59A1C9" d="M428,733.7c-0.8,0-1.4-0.2-1.8-0.5s-0.6-1-0.6-1.8v-11.2l1.1-0.1v11.3c0,0.6,0.1,1,0.3,1.2
			c0.2,0.2,0.5,0.3,1,0.3c0.4,0,0.8-0.1,1.3-0.2l0,0.8C428.8,733.6,428.3,733.7,428,733.7z"/>
		<path fill="#59A1C9" d="M433.1,733.7c-0.8,0-1.4-0.2-1.8-0.5s-0.6-1-0.6-1.8v-11.2l1.1-0.1v11.3c0,0.6,0.1,1,0.3,1.2
			c0.2,0.2,0.5,0.3,1,0.3c0.4,0,0.8-0.1,1.3-0.2l0,0.8C433.9,733.6,433.4,733.7,433.1,733.7z"/>
		<path fill="#59A1C9" d="M439.7,733.7c-1.3,0-2.4-0.4-3.2-1.3c-0.8-0.9-1.2-2.1-1.2-3.6c0-1.5,0.4-2.7,1.1-3.6
			c0.8-0.9,1.8-1.4,3-1.5c1.1,0,2,0.4,2.7,1.2s1,1.9,1,3.3c0,0.1,0,0.2,0,0.3c0,0.2,0,0.3,0,0.3h-6.7c0,1.2,0.3,2.2,0.9,2.9
			s1.4,1.1,2.3,1.1c0.6,0,1.2-0.1,1.6-0.2s0.9-0.4,1.5-0.6l0.2,0.8C442,733.4,440.9,733.7,439.7,733.7z M436.5,727.9h5.5
			c0-1.1-0.2-1.9-0.7-2.5s-1.1-0.9-1.9-0.9c-0.8,0-1.5,0.3-2,0.9S436.6,726.9,436.5,727.9z"/>
		<path fill="#59A1C9" d="M445.4,733.5c0-5.7,0-8.9,0-9.6h0.9l0.1,1.9c0.3-0.6,0.8-1,1.3-1.4s1.1-0.5,1.7-0.5c0.2,0,0.5,0,0.8,0.1
			l-0.1,0.9c-0.2,0-0.4-0.1-0.7-0.1c-0.8,0-1.5,0.3-2.1,1c-0.6,0.6-0.8,1.4-0.8,2.3v5.5H445.4z"/>
	</g>
	<g>
		<path fill="#F65A5B" d="M559.6,408.6v-10.7c-0.1,0.1-0.5,0.2-1.1,0.5c-0.7,0.3-1.1,0.4-1.1,0.5v-1.8c0.1-0.1,0.6-0.3,1.3-0.7
			s1.2-0.6,1.2-0.6h1.9v12.8H559.6z"/>
	</g>
	<g>
		<path fill="#F65A5B" d="M121.4,334.4v-12.9h7.6l-0.1,1.9h-5.2v3.7h4.9v1.9h-4.9v5.5H121.4z"/>
		<path fill="#F65A5B" d="M130.9,323.4v-2h2.3v2H130.9z M130.9,334.4v-9.7h2.3v9.7H130.9z"/>
		<path fill="#F65A5B" d="M135.6,334.4v-9.7h1.9l0.3,1.5c0.6-1,1.5-1.5,2.8-1.5c0.3,0,0.5,0,0.6,0l0,1.9c-0.2,0-0.5-0.1-0.7-0.1
			c-0.8,0-1.5,0.2-1.9,0.7c-0.4,0.5-0.6,1.1-0.6,1.9v5.2H135.6z"/>
		<path fill="#F65A5B" d="M145.7,334.6c-1.4,0-2.6-0.2-3.4-0.7l0.2-1.7c0.4,0.2,0.9,0.4,1.5,0.6s1.1,0.3,1.6,0.3
			c0.5,0,0.9-0.1,1.2-0.3c0.3-0.2,0.4-0.5,0.4-0.8c0-0.3-0.1-0.6-0.4-0.8c-0.3-0.2-0.8-0.4-1.5-0.7c-0.3-0.1-0.4-0.2-0.5-0.2
			c-0.9-0.3-1.5-0.7-1.9-1.2s-0.6-1-0.6-1.7c0-0.9,0.3-1.6,1-2c0.6-0.5,1.5-0.7,2.7-0.7c1.2,0,2.3,0.2,3.2,0.7l-0.6,1.6
			c-0.9-0.4-1.8-0.6-2.6-0.6c-0.5,0-0.8,0.1-1.1,0.2c-0.3,0.2-0.4,0.4-0.4,0.7c0,0.3,0.1,0.5,0.4,0.7s0.7,0.4,1.5,0.7
			c0,0,0.1,0,0.2,0.1s0.2,0.1,0.3,0.1c0.9,0.3,1.5,0.7,2,1.2s0.6,1,0.6,1.8c0,1-0.3,1.7-1,2.2S146.9,334.6,145.7,334.6z"/>
		<path fill="#F65A5B" d="M155.1,334.6c-0.7,0-1.2-0.1-1.6-0.2c-0.4-0.2-0.8-0.4-1-0.7s-0.4-0.7-0.5-1.2c-0.1-0.5-0.2-1-0.2-1.7
			v-4.6h-1.6l0.1-1.2l1.7-0.1l0.7-2.6l1.4,0v2.6h2.4v1.4h-2.4v4.6c0,0.7,0.1,1.3,0.3,1.6s0.6,0.5,1.2,0.5c0.3,0,0.7,0,1.1-0.1
			l0.1,1.7c0,0-0.1,0-0.2,0c-0.1,0-0.3,0-0.4,0.1s-0.3,0-0.5,0.1S155.3,334.6,155.1,334.6z"/>
		<path fill="#F65A5B" d="M165.8,334.4v-11H162v-1.9h9.9v1.9h-3.7v11H165.8z"/>
		<path fill="#F65A5B" d="M180.1,333.7c-0.8,0.6-1.8,0.9-3,0.9s-2.3-0.3-3-0.9c-0.8-0.6-1.1-1.5-1.1-2.8v-6.1h2.3v6.1
			c0,0.7,0.2,1.2,0.5,1.6s0.8,0.5,1.4,0.5c0.6,0,1.1-0.2,1.4-0.5s0.4-0.8,0.4-1.6v-6.1h2.3v6.1C181.2,332.1,180.9,333,180.1,333.7z"
			/>
		<path fill="#F65A5B" d="M183.4,334.4v-9.7h1.9l0.3,1.5c0.6-1,1.5-1.5,2.8-1.5c0.3,0,0.5,0,0.6,0l0,1.9c-0.2,0-0.5-0.1-0.7-0.1
			c-0.8,0-1.5,0.2-1.9,0.7c-0.4,0.5-0.6,1.1-0.6,1.9v5.2H183.4z"/>
		<path fill="#F65A5B" d="M190.4,334.4v-9.7h1.9l0.3,1.2c1-1,2.1-1.5,3.3-1.5c1.1,0,2,0.3,2.5,1c0.6,0.6,0.8,1.6,0.8,2.8v6.1h-2.3
			v-5.8c0-0.8-0.1-1.4-0.4-1.7s-0.7-0.6-1.3-0.6c-0.5,0-1,0.1-1.4,0.4c-0.4,0.3-0.7,0.6-0.9,1c-0.1,0.5-0.2,1.2-0.2,2.1v4.7H190.4z"
			/>
	</g>
	<g>
		<path fill="#F65A5B" d="M962.5,334.6c-1.6,0-2.9-0.4-4.2-1.1l0.6-1.9c0.6,0.3,1.1,0.6,1.8,0.7s1.3,0.3,1.9,0.3
			c0.8,0,1.3-0.2,1.7-0.5s0.6-0.8,0.6-1.4c0-0.8-0.5-1.4-1.6-1.7c-0.1,0-0.3-0.1-0.6-0.2s-0.7-0.2-1-0.3c-0.3-0.1-0.5-0.2-0.7-0.2
			c-1.7-0.6-2.6-1.7-2.6-3.4c0-1.2,0.4-2.1,1.2-2.7s1.9-0.9,3.3-0.9c1.6,0,2.9,0.3,4,1l-0.7,1.7c-1.1-0.5-2.2-0.8-3.2-0.8
			c-0.7,0-1.2,0.1-1.6,0.4c-0.4,0.2-0.6,0.7-0.6,1.2c0,0.7,0.4,1.2,1.1,1.4c0.1,0.1,0.5,0.2,1,0.3s0.9,0.3,1.1,0.3
			c1.2,0.4,2,0.9,2.5,1.4c0.5,0.6,0.8,1.4,0.8,2.4c0,1.2-0.4,2.2-1.3,2.8S964,334.6,962.5,334.6z"/>
		<path fill="#F65A5B" d="M973.6,334.6c-1.6,0-2.8-0.4-3.6-1.3s-1.3-2.1-1.3-3.7c0-1.5,0.4-2.8,1.2-3.7s1.9-1.4,3.3-1.4
			c1.3,0,2.4,0.4,3.1,1.2c0.7,0.8,1.1,1.9,1.1,3.3c0,0.1,0,0.3,0,0.5s0,0.4,0,0.5H971c0,0.9,0.3,1.6,0.7,2.1
			c0.5,0.5,1.1,0.7,1.9,0.7c1.1,0,2.1-0.3,3-0.8l0.3,1.6C976.1,334.3,975,334.6,973.6,334.6z M971.1,328.6h4.2
			c0-0.8-0.2-1.4-0.5-1.8s-0.9-0.6-1.5-0.6c-0.6,0-1.1,0.2-1.5,0.6C971.4,327.2,971.1,327.8,971.1,328.6z"/>
		<path fill="#F65A5B" d="M983.5,334.6c-1.5,0-2.6-0.4-3.4-1.3c-0.8-0.9-1.2-2.1-1.2-3.8c0-1.6,0.4-2.8,1.3-3.7s2-1.3,3.4-1.3
			c1.1,0,2.1,0.2,2.9,0.7l-0.5,1.6c-0.8-0.4-1.5-0.6-2.2-0.6c-0.8,0-1.4,0.3-1.8,0.8c-0.4,0.6-0.7,1.4-0.7,2.4
			c0,1.1,0.2,1.9,0.7,2.5c0.4,0.6,1.1,0.8,1.9,0.8c0.8,0,1.7-0.2,2.4-0.7l0.2,1.7c-0.4,0.3-0.8,0.5-1.3,0.6S984.1,334.6,983.5,334.6
			z"/>
		<path fill="#F65A5B" d="M992.3,334.6c-1.4,0-2.6-0.5-3.4-1.4s-1.2-2.1-1.2-3.7c0-1.6,0.4-2.8,1.2-3.7s2-1.3,3.5-1.3
			c1.4,0,2.6,0.5,3.4,1.4c0.8,0.9,1.2,2.1,1.2,3.7c0,1.5-0.4,2.8-1.2,3.7S993.7,334.6,992.3,334.6z M992.3,332.9
			c0.8,0,1.4-0.3,1.8-0.9s0.6-1.4,0.6-2.4c0-1.1-0.2-1.9-0.6-2.5s-1-0.8-1.8-0.8c-0.8,0-1.4,0.3-1.8,0.8c-0.4,0.6-0.6,1.4-0.6,2.5
			c0,1.1,0.2,1.9,0.6,2.4S991.5,332.9,992.3,332.9z"/>
		<path fill="#F65A5B" d="M998.9,334.4v-9.7h1.9l0.3,1.2c1-1,2.1-1.5,3.3-1.5c1.1,0,2,0.3,2.5,1c0.6,0.6,0.8,1.6,0.8,2.8v6.1h-2.3
			v-5.8c0-0.8-0.1-1.4-0.4-1.7s-0.7-0.6-1.3-0.6c-0.5,0-1,0.1-1.4,0.4c-0.4,0.3-0.7,0.6-0.9,1c-0.1,0.5-0.2,1.2-0.2,2.1v4.7H998.9z"
			/>
		<path fill="#F65A5B" d="M1013.5,334.6c-1.3,0-2.2-0.5-3-1.4s-1.1-2.2-1.1-3.7c0-1.5,0.4-2.7,1.1-3.6c0.7-0.9,1.7-1.4,3-1.4
			c1.4,0,2.3,0.5,2.9,1.5c-0.1-0.6-0.1-1.1-0.1-1.7v-3.1l2.3-0.1v13.4h-2l-0.3-1.3c-0.1,0.2-0.2,0.3-0.3,0.4s-0.2,0.2-0.4,0.4
			s-0.3,0.3-0.5,0.4c-0.2,0.1-0.4,0.2-0.7,0.2C1014.1,334.6,1013.8,334.6,1013.5,334.6z M1014,332.9c1.5,0,2.3-1.1,2.4-3.2
			c0-1.2-0.2-2.1-0.6-2.6s-1-0.8-1.8-0.8c-0.7,0-1.2,0.3-1.7,0.8c-0.4,0.6-0.6,1.4-0.6,2.4c0,1.1,0.2,1.9,0.6,2.5
			C1012.7,332.6,1013.3,332.9,1014,332.9z"/>
		<path fill="#F65A5B" d="M1028.4,334.4v-11h-3.8v-1.9h9.9v1.9h-3.7v11H1028.4z"/>
		<path fill="#F65A5B" d="M1042.7,333.7c-0.8,0.6-1.8,0.9-3,0.9s-2.3-0.3-3-0.9c-0.8-0.6-1.1-1.5-1.1-2.8v-6.1h2.3v6.1
			c0,0.7,0.2,1.2,0.5,1.6s0.8,0.5,1.4,0.5c0.6,0,1.1-0.2,1.4-0.5s0.4-0.8,0.4-1.6v-6.1h2.3v6.1
			C1043.9,332.1,1043.5,333,1042.7,333.7z"/>
		<path fill="#F65A5B" d="M1046,334.4v-9.7h1.9l0.3,1.5c0.6-1,1.5-1.5,2.8-1.5c0.3,0,0.5,0,0.6,0l0,1.9c-0.2,0-0.5-0.1-0.7-0.1
			c-0.8,0-1.5,0.2-1.9,0.7c-0.4,0.5-0.6,1.1-0.6,1.9v5.2H1046z"/>
		<path fill="#F65A5B" d="M1053,334.4v-9.7h1.9l0.3,1.2c1-1,2.1-1.5,3.3-1.5c1.1,0,2,0.3,2.5,1c0.6,0.6,0.8,1.6,0.8,2.8v6.1h-2.3
			v-5.8c0-0.8-0.1-1.4-0.4-1.7s-0.7-0.6-1.3-0.6c-0.5,0-1,0.1-1.4,0.4c-0.4,0.3-0.7,0.6-0.9,1c-0.1,0.5-0.2,1.2-0.2,2.1v4.7H1053z"
			/>
	</g>
	<g>
		<rect x="590.4" y="703" opacity="0.15" fill="#59A1C9" width="159" height="49"/>
		<path fill="#59A1C9" d="M748.9,703.5v48h-158v-48H748.9 M749.9,702.5h-160v50h160V702.5L749.9,702.5z"/>
	</g>
	<g>
		<path fill="#59A1C9" d="M623.4,733.5v-13.1h3.7c0.5,0,0.9,0,1.2,0s0.7,0.1,1.1,0.1s0.7,0.1,0.9,0.2c0.3,0.1,0.5,0.2,0.7,0.4
			s0.4,0.4,0.6,0.6s0.2,0.5,0.3,0.8c0.1,0.3,0.1,0.7,0.1,1.1c0,0.8-0.2,1.5-0.6,2.1s-1,1-1.8,1.2c0.4,0.7,0.6,1.3,0.8,1.6l2.1,4.9
			h-1.3l-1.8-4.5c-0.1-0.3-0.4-0.9-0.8-1.9c-0.1,0-0.6,0-1.3,0l-2.8-0.1v6.4H623.4z M627.8,726.2c1.2,0,2-0.2,2.4-0.6s0.7-1,0.7-1.9
			c0-0.8-0.2-1.3-0.6-1.8s-1.1-0.6-2.1-0.6h-3.7v4.8C625.9,726.2,627,726.2,627.8,726.2z"/>
		<path fill="#59A1C9" d="M637.3,733.7c-0.9,0-1.6-0.2-2.2-0.7s-0.8-1.1-0.8-2c0-0.5,0.1-0.9,0.3-1.3s0.5-0.7,0.9-0.9
			c0.4-0.2,0.9-0.4,1.4-0.5s1.1-0.2,1.9-0.3c0.8,0,1.3-0.1,1.7-0.1v-1.1c0-0.7-0.2-1.3-0.5-1.7c-0.3-0.4-0.9-0.6-1.6-0.6
			c-1,0-2,0.2-2.9,0.7c0-0.1-0.1-0.2-0.2-0.4c-0.1-0.2-0.1-0.3-0.2-0.5c0.4-0.2,0.8-0.4,1.4-0.6s1.2-0.2,1.7-0.2
			c1.2,0,2,0.2,2.5,0.7c0.5,0.5,0.8,1.4,0.8,2.6v6.4h-0.9c0-0.1-0.1-0.4-0.1-0.8s-0.1-0.6-0.1-0.6
			C639.8,733.2,638.7,733.7,637.3,733.7z M637.4,732.8c0.8,0,1.4-0.2,2-0.7c0.6-0.4,1-1.1,1.1-1.8v-1.6c-0.8,0.1-1.3,0.1-1.3,0.1
			c-1.4,0.1-2.4,0.4-3,0.7s-0.8,0.9-0.8,1.6c0,0.6,0.2,1,0.5,1.3C636.3,732.7,636.8,732.8,637.4,732.8z"/>
		<path fill="#59A1C9" d="M644.3,721.9v-1.5h1.1v1.5H644.3z M644.3,733.5v-9.6h1.1v9.6H644.3z"/>
		<path fill="#59A1C9" d="M650.6,733.7c-0.8,0-1.4-0.2-1.8-0.5s-0.6-1-0.6-1.8v-11.2l1.1-0.1v11.3c0,0.6,0.1,1,0.3,1.2
			c0.2,0.2,0.5,0.3,1,0.3c0.4,0,0.8-0.1,1.3-0.2l0,0.8C651.4,733.6,650.9,733.7,650.6,733.7z"/>
		<path fill="#59A1C9" d="M656.1,733.7c-0.6,0-1.2-0.1-1.7-0.2s-1-0.3-1.3-0.5l0.2-0.9c1,0.5,1.9,0.8,2.8,0.8c1.6,0,2.4-0.6,2.5-1.8
			c0-0.5-0.2-0.9-0.5-1.2c-0.3-0.3-1-0.6-1.9-0.9c-0.5-0.2-0.8-0.3-0.8-0.3c-1.5-0.5-2.3-1.3-2.3-2.4c0-0.7,0.3-1.3,0.9-1.8
			c0.6-0.5,1.4-0.8,2.4-0.8s2,0.2,2.9,0.6l-0.4,0.8c-0.9-0.3-1.7-0.5-2.5-0.5c-0.7,0-1.2,0.2-1.6,0.5c-0.4,0.3-0.6,0.7-0.6,1.2
			c0,0.4,0.1,0.8,0.4,1c0.3,0.2,0.8,0.5,1.5,0.7c0.1,0,0.2,0.1,0.5,0.2c0.2,0.1,0.3,0.1,0.4,0.1c1,0.3,1.7,0.7,2.1,1.1
			c0.4,0.4,0.6,1,0.6,1.7c0,0.8-0.3,1.5-0.9,2C657.9,733.5,657.1,733.7,656.1,733.7z"/>
		<path fill="#59A1C9" d="M665.9,733.5v-13.1h3.7c0.5,0,0.9,0,1.2,0c0.3,0,0.7,0.1,1.1,0.1s0.7,0.1,0.9,0.2c0.3,0.1,0.5,0.2,0.7,0.4
			c0.2,0.2,0.4,0.4,0.6,0.6s0.2,0.5,0.3,0.8c0.1,0.3,0.1,0.7,0.1,1.1c0,0.8-0.2,1.5-0.6,2.1s-1,1-1.8,1.2c0.4,0.7,0.6,1.3,0.8,1.6
			l2.1,4.9h-1.3L672,729c-0.1-0.3-0.4-0.9-0.8-1.9c-0.1,0-0.6,0-1.3,0l-2.8-0.1v6.4H665.9z M670.4,726.2c1.2,0,2-0.2,2.4-0.6
			s0.7-1,0.7-1.9c0-0.8-0.2-1.3-0.6-1.8c-0.4-0.4-1.1-0.6-2.1-0.6H667v4.8C668.4,726.2,669.5,726.2,670.4,726.2z"/>
		<path fill="#59A1C9" d="M681.2,733.7c-0.9,0-1.6-0.2-2.3-0.7c-0.7-0.4-1.2-1-1.5-1.8c-0.3-0.8-0.5-1.6-0.5-2.6
			c0-0.7,0.1-1.4,0.3-2c0.2-0.6,0.5-1.1,0.9-1.6s0.8-0.8,1.4-1.1s1.2-0.4,1.9-0.4c0.9,0,1.7,0.2,2.3,0.7s1.2,1,1.5,1.8
			c0.3,0.7,0.5,1.6,0.5,2.6c0,1-0.2,1.8-0.5,2.6s-0.8,1.3-1.5,1.8S682.2,733.7,681.2,733.7z M681.3,732.8c0.7,0,1.3-0.2,1.8-0.6
			c0.5-0.4,0.8-0.9,1.1-1.5c0.2-0.6,0.3-1.3,0.3-2.1c0-1.2-0.3-2.2-0.8-3s-1.3-1.1-2.4-1.1c-0.7,0-1.3,0.2-1.8,0.6
			c-0.5,0.4-0.9,0.9-1.1,1.5s-0.3,1.3-0.3,2.1c0,1.2,0.3,2.2,0.8,3C679.5,732.4,680.3,732.8,681.3,732.8z"/>
		<path fill="#59A1C9" d="M691.4,733.7c-0.5,0-1-0.1-1.4-0.2c-0.4-0.1-0.8-0.3-1.2-0.5s-0.7-0.6-0.9-1c-0.2-0.4-0.3-1-0.3-1.6v-6.6
			h1.1v6.6c0,0.5,0.1,0.8,0.2,1.2s0.3,0.6,0.6,0.7s0.5,0.3,0.8,0.3s0.6,0.1,1,0.1c0.4,0,0.7,0,1-0.1s0.6-0.2,0.8-0.3
			s0.5-0.4,0.6-0.7c0.1-0.3,0.2-0.7,0.2-1.1v-6.6h1.1v6.6c0,0.5-0.1,0.9-0.2,1.3s-0.3,0.7-0.6,0.9s-0.5,0.5-0.8,0.6
			c-0.3,0.2-0.7,0.3-1,0.3C692.1,733.7,691.8,733.7,691.4,733.7z"/>
		<path fill="#59A1C9" d="M700.2,733.7c-0.8,0-1.4-0.2-1.8-0.5s-0.6-1-0.6-1.8v-6.7h-1.4l0.1-0.7l1.3-0.1l0.3-2.2l0.8-0.1v2.2h2.8
			v0.8H699v6.5c0,0.7,0.1,1.1,0.3,1.4s0.6,0.3,1.2,0.3c0.4,0,0.8-0.1,1.4-0.2l0,0.8C701.2,733.6,700.6,733.7,700.2,733.7z"/>
		<path fill="#59A1C9" d="M707.4,733.7c-1.3,0-2.4-0.4-3.2-1.3c-0.8-0.9-1.2-2.1-1.2-3.6c0-1.5,0.4-2.7,1.1-3.6
			c0.8-0.9,1.8-1.4,3-1.5c1.1,0,2,0.4,2.7,1.2s1,1.9,1,3.3c0,0.1,0,0.2,0,0.3c0,0.2,0,0.3,0,0.3h-6.7c0,1.2,0.3,2.2,0.9,2.9
			s1.4,1.1,2.3,1.1c0.6,0,1.2-0.1,1.6-0.2s0.9-0.4,1.4-0.6l0.2,0.8C709.7,733.4,708.6,733.7,707.4,733.7z M704.2,727.9h5.5
			c0-1.1-0.2-1.9-0.7-2.5s-1.1-0.9-1.9-0.9c-0.8,0-1.5,0.3-2,0.9S704.3,726.9,704.2,727.9z"/>
		<path fill="#59A1C9" d="M713.1,733.5c0-5.7,0-8.9,0-9.6h0.9l0.1,1.9c0.3-0.6,0.8-1,1.3-1.4s1.1-0.5,1.7-0.5c0.2,0,0.5,0,0.8,0.1
			l-0.1,0.9c-0.2,0-0.4-0.1-0.7-0.1c-0.8,0-1.5,0.3-2.1,1c-0.6,0.6-0.8,1.4-0.8,2.3v5.5H713.1z"/>
	</g>
	<g>
		<path fill="#F65A5B" d="M692,568.6l-0.1-1.9l4.1-4.6c0.5-0.5,0.9-1,1.1-1.5c0.2-0.5,0.3-0.9,0.3-1.4c0-0.6-0.2-1-0.5-1.3
			s-0.8-0.5-1.4-0.5c-0.5,0-1.1,0.1-1.6,0.3s-1,0.5-1.3,0.8l-0.7-1.7c0.9-0.8,2.1-1.2,3.7-1.2c1.3,0,2.3,0.3,3.1,1s1.2,1.5,1.2,2.7
			c0,0.8-0.2,1.6-0.7,2.3c-0.4,0.7-1,1.5-1.8,2.3l-2.9,3.1h5.2l-0.2,1.7H692z"/>
	</g>
	<g>
		<path fill="#F65A5B" d="M539.5,778.8c-0.8,0-1.5-0.1-2.1-0.3s-1.2-0.5-1.6-0.8l0.6-1.7c0.3,0.3,0.8,0.5,1.3,0.7s1.2,0.3,1.7,0.3
			c0.7,0,1.2-0.2,1.6-0.5c0.4-0.4,0.6-0.8,0.6-1.4c0-0.4-0.1-0.7-0.2-0.9c-0.1-0.3-0.3-0.5-0.5-0.6s-0.4-0.3-0.8-0.4
			c-0.3-0.1-0.6-0.2-1-0.2s-0.7-0.1-1.2-0.1c0,0-0.1,0-0.3,0s-0.2,0-0.3,0V771h0.5c0.5,0,0.9,0,1.3-0.1s0.7-0.1,1-0.3
			s0.6-0.3,0.7-0.6c0.2-0.3,0.2-0.6,0.2-0.9c0-0.5-0.2-0.9-0.6-1.3s-0.9-0.5-1.6-0.5c-1.1,0-2.1,0.3-2.9,0.8l-0.6-1.7
			c1.1-0.7,2.3-1,3.8-1c1.2,0,2.2,0.3,3,1c0.8,0.6,1.2,1.5,1.2,2.5c0,0.7-0.2,1.3-0.5,1.8c-0.4,0.5-0.9,0.9-1.6,1.1
			c0.8,0.2,1.4,0.5,1.8,1.1c0.4,0.6,0.6,1.3,0.6,2.1c0,0.8-0.2,1.5-0.6,2s-1,1-1.7,1.3S540.4,778.8,539.5,778.8z"/>
	</g>
	<g>
		<path fill="#F65A5B" d="M286.2,778.6v-2.9h-5.8v-1.6l5.2-8.4h2.9v8.2h1.6l-0.1,1.7h-1.5v2.9H286.2z M282.7,774h3.5v-6L282.7,774z"
			/>
	</g>
	<g>
		<path fill="#F65A5B" d="M284.9,693.8c-0.6,0-1.2-0.1-1.8-0.3s-1.1-0.4-1.4-0.5s-0.5-0.3-0.6-0.4l0.7-1.7c0.1,0.1,0.3,0.2,0.5,0.3
			s0.6,0.3,1,0.5s0.9,0.3,1.4,0.3c0.8,0,1.4-0.2,1.9-0.7s0.6-1.1,0.6-1.8c0-0.7-0.2-1.3-0.6-1.7c-0.4-0.4-0.9-0.6-1.5-0.6
			c-0.7,0-1.4,0.3-2,0.9l-1.5-0.3l0.3-7h7l-0.1,1.8h-4.8c0,0.1,0,0.6-0.1,1.6s-0.1,1.5-0.1,1.6c0.5-0.3,1.1-0.4,1.6-0.4
			c1.2,0,2.1,0.4,2.9,1.1c0.7,0.8,1.1,1.8,1.1,3c0,1.3-0.4,2.3-1.2,3.1C287.4,693.4,286.3,693.8,284.9,693.8z"/>
	</g>
	<g>
		<path fill="#F65A5B" d="M383.2,568.8c-1.4,0-2.6-0.4-3.5-1.2s-1.3-1.8-1.3-3.1c0-0.4,0-0.8,0.1-1.2s0.2-0.7,0.4-1.1
			s0.4-0.7,0.5-0.9s0.4-0.6,0.7-1l3.7-4.6h2.7l-4,5c0.4-0.1,0.8-0.2,1.1-0.2c1.3,0,2.3,0.4,3.1,1.1s1.2,1.7,1.2,2.9
			c0,1.3-0.4,2.3-1.3,3S384.6,568.8,383.2,568.8z M383.1,567.1c0.8,0,1.4-0.2,1.8-0.7c0.4-0.4,0.7-1,0.7-1.7c0-0.8-0.2-1.4-0.6-1.8
			s-1-0.7-1.8-0.7c-0.8,0-1.4,0.2-1.8,0.7s-0.6,1-0.6,1.8c0,0.7,0.2,1.3,0.6,1.7S382.4,567.1,383.1,567.1z"/>
	</g>
	<g>
		<path fill="#4385F5" d="M508.9,567.5v-13.1h3.6c1.6,0,2.8,0.3,3.6,0.8c0.7,0.5,1.1,1.4,1.1,2.5c0,0.1,0,0.2,0,0.3
			c0,0.1,0,0.2,0,0.4s-0.1,0.4-0.1,0.5s-0.1,0.3-0.2,0.5s-0.2,0.4-0.4,0.5c-0.1,0.1-0.3,0.3-0.6,0.4s-0.5,0.3-0.8,0.4
			c0.9,0.1,1.6,0.5,2.1,1.1s0.7,1.3,0.7,2.1c0,1.2-0.4,2.1-1.1,2.7s-1.9,1-3.4,1H508.9z M510,560.2h3c0.5,0,0.9,0,1.2-0.1
			s0.6-0.2,0.9-0.4c0.3-0.2,0.5-0.4,0.6-0.8s0.2-0.7,0.2-1.2c0-0.9-0.3-1.5-0.8-1.9c-0.6-0.4-1.5-0.5-2.7-0.5H510V560.2z M510,566.6
			h3c2.4,0,3.6-0.9,3.6-2.8c0-1-0.3-1.7-1-2.1s-1.7-0.6-3.1-0.6H510V566.6z"/>
		<path fill="#4385F5" d="M519.7,567.5c0-5.7,0-8.9,0-9.6h0.9l0.1,1.9c0.3-0.6,0.8-1,1.3-1.4s1.1-0.5,1.7-0.5c0.2,0,0.5,0,0.8,0.1
			l-0.1,0.9c-0.2,0-0.4-0.1-0.7-0.1c-0.8,0-1.5,0.3-2.1,1c-0.6,0.6-0.8,1.4-0.8,2.3v5.5H519.7z"/>
		<path fill="#4385F5" d="M529.7,567.7c-0.9,0-1.6-0.2-2.3-0.7c-0.7-0.4-1.2-1-1.5-1.8s-0.5-1.6-0.5-2.6c0-0.7,0.1-1.4,0.3-2
			c0.2-0.6,0.5-1.1,0.9-1.6s0.8-0.8,1.4-1.1s1.2-0.4,1.9-0.4c0.9,0,1.7,0.2,2.3,0.7s1.2,1,1.5,1.8s0.5,1.6,0.5,2.6
			c0,1-0.2,1.8-0.5,2.6s-0.8,1.3-1.5,1.8S530.6,567.7,529.7,567.7z M529.8,566.8c0.7,0,1.3-0.2,1.8-0.6c0.5-0.4,0.8-0.9,1.1-1.5
			c0.2-0.6,0.3-1.3,0.3-2.1c0-1.2-0.3-2.2-0.8-3s-1.3-1.1-2.4-1.1c-0.7,0-1.3,0.2-1.8,0.6s-0.9,0.9-1.1,1.5s-0.3,1.3-0.3,2.1
			c0,1.2,0.3,2.2,0.8,3C527.9,566.4,528.7,566.8,529.8,566.8z"/>
		<path fill="#4385F5" d="M537.7,567.5l-2.7-9.6h1.1l2.2,8.6c1.6-5.1,2.5-8,2.7-8.6h1.3c1.8,5.7,2.6,8.6,2.7,8.6l2.1-8.6h1.1
			l-2.6,9.6h-1.3c0,0-0.4-1.3-1.2-4.1s-1.3-4.3-1.4-4.8c-0.1,0.3-0.3,1.2-0.8,2.7s-0.9,2.9-1.3,4.2s-0.6,2-0.7,2H537.7z"/>
		<path fill="#4385F5" d="M552.6,567.7c-0.6,0-1.2-0.1-1.7-0.2s-1-0.3-1.3-0.5l0.2-0.9c1,0.5,1.9,0.8,2.8,0.8c1.6,0,2.4-0.6,2.5-1.8
			c0-0.5-0.2-0.9-0.5-1.2c-0.3-0.3-1-0.6-1.9-0.9c-0.5-0.2-0.8-0.3-0.8-0.3c-1.5-0.5-2.3-1.3-2.3-2.4c0-0.7,0.3-1.3,0.9-1.8
			s1.4-0.8,2.4-0.8s2,0.2,2.9,0.6l-0.4,0.8c-0.9-0.3-1.7-0.5-2.5-0.5c-0.7,0-1.2,0.2-1.6,0.5c-0.4,0.3-0.6,0.7-0.6,1.2
			c0,0.4,0.1,0.8,0.4,1c0.3,0.2,0.8,0.5,1.5,0.7c0.1,0,0.2,0.1,0.5,0.2c0.2,0.1,0.3,0.1,0.4,0.1c1,0.3,1.7,0.7,2.1,1.1
			c0.4,0.4,0.6,1,0.6,1.7c0,0.8-0.3,1.5-0.9,2S553.6,567.7,552.6,567.7z"/>
		<path fill="#4385F5" d="M562,567.7c-1.3,0-2.4-0.4-3.2-1.3c-0.8-0.9-1.2-2.1-1.2-3.6c0-1.5,0.4-2.7,1.1-3.6c0.8-0.9,1.8-1.4,3-1.5
			c1.1,0,2,0.4,2.7,1.2s1,1.9,1,3.3c0,0.1,0,0.2,0,0.3c0,0.2,0,0.3,0,0.3h-6.7c0,1.2,0.3,2.2,0.9,2.9s1.4,1.1,2.3,1.1
			c0.6,0,1.2-0.1,1.6-0.2s0.9-0.4,1.5-0.6l0.2,0.8C564.3,567.4,563.2,567.7,562,567.7z M558.9,561.9h5.5c0-1.1-0.2-1.9-0.7-2.5
			s-1.1-0.9-1.9-0.9c-0.8,0-1.5,0.3-2,0.9S559,560.9,558.9,561.9z"/>
		<path fill="#4385F5" d="M567.7,567.5c0-5.7,0-8.9,0-9.6h0.9l0.1,1.9c0.3-0.6,0.8-1,1.3-1.4s1.1-0.5,1.7-0.5c0.2,0,0.5,0,0.8,0.1
			l-0.1,0.9c-0.2,0-0.4-0.1-0.7-0.1c-0.8,0-1.5,0.3-2.1,1c-0.6,0.6-0.8,1.4-0.8,2.3v5.5H567.7z"/>
	</g>
	<g>
		<g>
			<line fill="none" stroke="#204056" stroke-miterlimit="10" x1="540" y1="441.4" x2="540" y2="354.5"/>
			<g>
				<polygon fill="#204056" points="544.1,438.1 543.4,437.4 540,441 536.6,437.4 535.9,438.1 540,442.5 				"/>
			</g>
		</g>
	</g>
	<g>
		<rect x="80.6" y="703" opacity="0.15" fill="#59A1C9" width="159" height="49"/>
		<path fill="#59A1C9" d="M239.1,703.5v48h-158v-48H239.1 M240.1,702.5h-160v50h160V702.5L240.1,702.5z"/>
	</g>
	<g>
		<path fill="#59A1C9" d="M145.9,733.5l-4.7-13.1h1.2l3,8.4c0.1,0.4,0.2,0.8,0.4,1.2c0.1,0.4,0.3,0.8,0.4,1.1s0.2,0.7,0.3,1.2
			c0-0.2,0.1-0.4,0.2-0.7c0.1-0.2,0.2-0.6,0.4-1.2c0.2-0.5,0.4-1.1,0.5-1.6c0.4-1.4,0.9-2.8,1.5-4.3s1.1-2.9,1.5-4.1h1.3l-4.8,13.1
			H145.9z"/>
		<path fill="#59A1C9" d="M153.2,721.9v-1.5h1.1v1.5H153.2z M153.2,733.5v-9.6h1.1v9.6H153.2z"/>
		<path fill="#59A1C9" d="M160.9,733.7c-1.3,0-2.4-0.4-3.2-1.3c-0.8-0.9-1.2-2.1-1.2-3.6c0-1.5,0.4-2.7,1.1-3.6
			c0.8-0.9,1.8-1.4,3-1.5c1.1,0,2,0.4,2.7,1.2s1,1.9,1,3.3c0,0.1,0,0.2,0,0.3c0,0.2,0,0.3,0,0.3h-6.7c0,1.2,0.3,2.2,0.9,2.9
			s1.4,1.1,2.3,1.1c0.6,0,1.2-0.1,1.6-0.2s0.9-0.4,1.5-0.6l0.2,0.8C163.2,733.4,162.1,733.7,160.9,733.7z M157.7,727.9h5.5
			c0-1.1-0.2-1.9-0.7-2.5s-1.1-0.9-1.9-0.9c-0.8,0-1.5,0.3-2,0.9S157.8,726.9,157.7,727.9z"/>
		<path fill="#59A1C9" d="M168.2,733.5l-2.7-9.6h1.1l2.2,8.6c1.6-5.1,2.5-8,2.7-8.6h1.3c1.8,5.7,2.6,8.6,2.7,8.6l2.1-8.6h1.1
			l-2.6,9.6h-1.3c0,0-0.4-1.3-1.2-4.1s-1.3-4.3-1.4-4.8c-0.1,0.3-0.3,1.2-0.8,2.7s-0.9,2.9-1.3,4.2s-0.6,2-0.7,2H168.2z"/>
	</g>
	<g>
		<g>
			<line fill="none" stroke="#204056" stroke-miterlimit="10" x1="260.1" y1="712.5" x2="309" y2="712.5"/>
			<g>
				<polygon fill="#204056" points="305.7,716.6 305,715.8 308.6,712.5 305,709.1 305.7,708.4 310.1,712.5 				"/>
			</g>
		</g>
	</g>
	<g>
		<g>
			<line fill="none" stroke="#204056" stroke-miterlimit="10" x1="261.2" y1="742.5" x2="310.1" y2="742.5"/>
			<g>
				<polygon fill="#204056" points="264.5,746.6 265.2,745.8 261.6,742.5 265.2,739.1 264.5,738.4 260.1,742.5 				"/>
			</g>
		</g>
	</g>
	<g opacity="0.5">
		<g>
			<rect x="330.6" y="903" opacity="0.15" fill="#59A1C9" width="159" height="49"/>
			<path fill="#59A1C9" d="M489.1,903.5v48h-158v-48H489.1 M490.1,902.5h-160v50h160V902.5L490.1,902.5z"/>
		</g>
		<g>
			<path fill="#59A1C9" d="M386,933.5v-13.1h1.6l4.8,11l4.7-11h1.5v13.1h-1.1v-8.8l0.1-3l-0.3,1.1l-4.3,10h-1.2l-4.4-10l-0.3-1.1
				l0.1,3v8.8H386z"/>
			<path fill="#59A1C9" d="M405.4,933.7c-0.9,0-1.6-0.2-2.3-0.7c-0.7-0.4-1.2-1-1.5-1.8s-0.5-1.6-0.5-2.6c0-0.7,0.1-1.4,0.3-2
				c0.2-0.6,0.5-1.1,0.9-1.6s0.8-0.8,1.4-1.1s1.2-0.4,1.9-0.4c0.9,0,1.7,0.2,2.3,0.7s1.2,1,1.5,1.8s0.5,1.6,0.5,2.6
				c0,1-0.2,1.8-0.5,2.6s-0.8,1.3-1.5,1.8S406.4,933.7,405.4,933.7z M405.5,932.8c0.7,0,1.3-0.2,1.8-0.6c0.5-0.4,0.8-0.9,1.1-1.5
				c0.2-0.6,0.3-1.3,0.3-2.1c0-1.2-0.3-2.2-0.8-3s-1.3-1.1-2.4-1.1c-0.7,0-1.3,0.2-1.8,0.6s-0.9,0.9-1.1,1.5s-0.3,1.3-0.3,2.1
				c0,1.2,0.3,2.2,0.8,3C403.7,932.4,404.5,932.8,405.5,932.8z"/>
			<path fill="#59A1C9" d="M415.6,933.7c-1.3,0-2.3-0.4-3-1.3c-0.7-0.9-1.1-2.1-1.1-3.7c0-1.5,0.4-2.7,1.1-3.6
				c0.7-0.9,1.7-1.4,2.9-1.4c0.6,0,1.2,0.1,1.8,0.4s1.1,0.7,1.4,1.2V925v-4.9l1.1-0.1v13.5h-0.9l-0.2-1.5c-0.3,0.5-0.8,1-1.4,1.2
				C416.8,933.5,416.2,933.7,415.6,933.7z M415.6,932.8c0.5,0,1-0.1,1.4-0.3s0.7-0.5,1-0.8s0.4-0.8,0.5-1.3c0.1-0.5,0.2-1,0.2-1.6
				c0-2.9-1.1-4.3-3.2-4.3c-0.5,0-0.9,0.1-1.3,0.4s-0.7,0.6-0.9,1c-0.2,0.4-0.4,0.8-0.5,1.3s-0.2,1-0.2,1.5c0,0.5,0,0.9,0.1,1.3
				s0.2,0.8,0.3,1.1s0.3,0.7,0.5,0.9s0.5,0.5,0.8,0.6S415.2,932.8,415.6,932.8z"/>
			<path fill="#59A1C9" d="M426.3,933.7c-1.3,0-2.4-0.4-3.2-1.3c-0.8-0.9-1.2-2.1-1.2-3.6c0-1.5,0.4-2.7,1.1-3.6
				c0.8-0.9,1.8-1.4,3-1.5c1.1,0,2,0.4,2.7,1.2s1,1.9,1,3.3c0,0.1,0,0.2,0,0.3c0,0.2,0,0.3,0,0.3h-6.7c0,1.2,0.3,2.2,0.9,2.9
				s1.4,1.1,2.3,1.1c0.6,0,1.2-0.1,1.6-0.2s0.9-0.4,1.5-0.6l0.2,0.8C428.6,933.4,427.5,933.7,426.3,933.7z M423.1,927.9h5.5
				c0-1.1-0.2-1.9-0.7-2.5s-1.1-0.9-1.9-0.9c-0.8,0-1.5,0.3-2,0.9S423.2,926.9,423.1,927.9z"/>
			<path fill="#59A1C9" d="M434.4,933.7c-0.8,0-1.4-0.2-1.8-0.5s-0.6-1-0.6-1.8v-11.2l1.1-0.1v11.3c0,0.6,0.1,1,0.3,1.2
				c0.2,0.2,0.5,0.3,1,0.3c0.4,0,0.8-0.1,1.3-0.2l0,0.8C435.2,933.6,434.8,933.7,434.4,933.7z"/>
		</g>
		<g>
			<path fill="#4A4A4C" d="M674.6,933.5v-13.1h3.5c1.1,0,2,0.1,2.9,0.4s1.6,0.6,2.2,1.2s1.1,1.2,1.4,2s0.5,1.8,0.5,3
				c0,2.1-0.6,3.8-1.8,4.9s-2.8,1.7-4.9,1.7H674.6z M675.7,932.5h2.6c1.8,0,3.2-0.5,4.2-1.4s1.4-2.3,1.4-4.2c0-1-0.1-1.9-0.4-2.6
				c-0.3-0.7-0.7-1.3-1.2-1.8s-1.1-0.8-1.8-1s-1.5-0.3-2.4-0.3h-2.3V932.5z"/>
			<path fill="#4A4A4C" d="M690,933.7c-0.9,0-1.6-0.2-2.2-0.7s-0.8-1.1-0.8-2c0-0.5,0.1-0.9,0.3-1.3s0.5-0.7,0.9-0.9
				c0.4-0.2,0.9-0.4,1.4-0.5s1.1-0.2,1.9-0.3c0.8,0,1.3-0.1,1.7-0.1v-1.1c0-0.7-0.2-1.3-0.5-1.7c-0.3-0.4-0.9-0.6-1.6-0.6
				c-1,0-2,0.2-2.9,0.7c0-0.1-0.1-0.2-0.2-0.4c-0.1-0.2-0.1-0.3-0.2-0.5c0.4-0.2,0.8-0.4,1.4-0.6s1.2-0.2,1.7-0.2
				c1.2,0,2,0.2,2.5,0.7s0.8,1.4,0.8,2.6v6.4h-0.9c0-0.1-0.1-0.4-0.1-0.8s-0.1-0.6-0.1-0.6C692.5,933.1,691.4,933.7,690,933.7z
				 M690.1,932.8c0.8,0,1.4-0.2,2-0.7c0.6-0.4,1-1.1,1.1-1.8v-1.6c-0.8,0.1-1.3,0.1-1.3,0.1c-1.4,0.1-2.4,0.4-3,0.7
				s-0.8,0.9-0.8,1.6c0,0.6,0.2,1,0.5,1.3C689,932.7,689.5,932.8,690.1,932.8z"/>
			<path fill="#4A4A4C" d="M699.6,933.7c-0.8,0-1.4-0.2-1.8-0.5s-0.6-1-0.6-1.8v-6.7h-1.4l0.1-0.7l1.3-0.1l0.3-2.2l0.8-0.1v2.2h2.8
				v0.8h-2.8v6.5c0,0.7,0.1,1.1,0.3,1.4s0.6,0.3,1.2,0.3c0.4,0,0.8-0.1,1.4-0.2l0,0.8C700.6,933.6,700,933.7,699.6,933.7z"/>
			<path fill="#4A4A4C" d="M705.4,933.7c-0.9,0-1.6-0.2-2.2-0.7s-0.8-1.1-0.8-2c0-0.5,0.1-0.9,0.3-1.3s0.5-0.7,0.9-0.9
				c0.4-0.2,0.9-0.4,1.4-0.5s1.1-0.2,1.9-0.3c0.8,0,1.3-0.1,1.7-0.1v-1.1c0-0.7-0.2-1.3-0.5-1.7c-0.3-0.4-0.9-0.6-1.6-0.6
				c-1,0-2,0.2-2.9,0.7c0-0.1-0.1-0.2-0.2-0.4c-0.1-0.2-0.1-0.3-0.2-0.5c0.4-0.2,0.8-0.4,1.4-0.6s1.2-0.2,1.7-0.2
				c1.2,0,2,0.2,2.5,0.7s0.8,1.4,0.8,2.6v6.4h-0.9c0-0.1-0.1-0.4-0.1-0.8s-0.1-0.6-0.1-0.6C707.9,933.1,706.8,933.7,705.4,933.7z
				 M705.5,932.8c0.8,0,1.4-0.2,2-0.7c0.6-0.4,1-1.1,1.1-1.8v-1.6c-0.8,0.1-1.3,0.1-1.3,0.1c-1.4,0.1-2.4,0.4-3,0.7
				s-0.8,0.9-0.8,1.6c0,0.6,0.2,1,0.5,1.3C704.4,932.7,704.9,932.8,705.5,932.8z"/>
			<path fill="#4A4A4C" d="M716.5,933.7c-1.3,0-2.3-0.5-3.1-1.6l-0.1,1.4h-0.9v-13.4l1.1-0.1v3.2c0,1,0,1.7,0,2
				c0.4-0.6,0.8-1,1.4-1.2c0.6-0.3,1.1-0.4,1.7-0.4c1.3,0,2.3,0.5,3,1.4c0.7,0.9,1.1,2.1,1.1,3.6c0,1-0.2,1.9-0.5,2.6
				s-0.8,1.3-1.4,1.8S717.4,933.7,716.5,933.7z M716.5,932.8c0.5,0,1-0.1,1.4-0.3c0.4-0.2,0.7-0.5,0.9-0.9s0.4-0.8,0.5-1.3
				c0.1-0.5,0.1-1,0.1-1.5c0-0.4,0-0.8-0.1-1.2s-0.2-0.8-0.3-1.1s-0.3-0.7-0.5-0.9c-0.2-0.3-0.5-0.5-0.8-0.6
				c-0.3-0.2-0.7-0.2-1.2-0.2c-1,0-1.8,0.4-2.3,1.1c-0.5,0.7-0.8,1.8-0.8,3.1c0,0.6,0.1,1.2,0.2,1.6c0.1,0.5,0.3,0.9,0.5,1.3
				s0.6,0.6,1,0.8S716,932.8,716.5,932.8z"/>
			<path fill="#4A4A4C" d="M725.2,933.7c-0.9,0-1.6-0.2-2.2-0.7s-0.8-1.1-0.8-2c0-0.5,0.1-0.9,0.3-1.3s0.5-0.7,0.9-0.9
				c0.4-0.2,0.9-0.4,1.4-0.5s1.1-0.2,1.9-0.3c0.8,0,1.3-0.1,1.7-0.1v-1.1c0-0.7-0.2-1.3-0.5-1.7c-0.3-0.4-0.9-0.6-1.6-0.6
				c-1,0-2,0.2-2.9,0.7c0-0.1-0.1-0.2-0.2-0.4c-0.1-0.2-0.1-0.3-0.2-0.5c0.4-0.2,0.8-0.4,1.4-0.6s1.2-0.2,1.7-0.2
				c1.2,0,2,0.2,2.5,0.7s0.8,1.4,0.8,2.6v6.4h-0.9c0-0.1-0.1-0.4-0.1-0.8s-0.1-0.6-0.1-0.6C727.7,933.1,726.6,933.7,725.2,933.7z
				 M725.3,932.8c0.8,0,1.4-0.2,2-0.7c0.6-0.4,1-1.1,1.1-1.8v-1.6c-0.8,0.1-1.3,0.1-1.3,0.1c-1.4,0.1-2.4,0.4-3,0.7
				s-0.8,0.9-0.8,1.6c0,0.6,0.2,1,0.5,1.3C724.2,932.7,724.7,932.8,725.3,932.8z"/>
			<path fill="#4A4A4C" d="M734.9,933.7c-0.6,0-1.2-0.1-1.7-0.2s-1-0.3-1.3-0.5l0.2-0.9c1,0.5,1.9,0.8,2.8,0.8
				c1.6,0,2.4-0.6,2.5-1.8c0-0.5-0.2-0.9-0.5-1.2c-0.3-0.3-1-0.6-1.9-0.9c-0.5-0.2-0.8-0.3-0.8-0.3c-1.5-0.5-2.3-1.3-2.3-2.4
				c0-0.7,0.3-1.3,0.9-1.8s1.4-0.8,2.4-0.8s2,0.2,2.9,0.6l-0.4,0.8c-0.9-0.3-1.7-0.5-2.5-0.5c-0.7,0-1.2,0.2-1.6,0.5
				c-0.4,0.3-0.6,0.7-0.6,1.2c0,0.4,0.1,0.8,0.4,1c0.3,0.2,0.8,0.5,1.5,0.7c0.1,0,0.2,0.1,0.5,0.2c0.2,0.1,0.3,0.1,0.4,0.1
				c1,0.3,1.7,0.7,2.1,1.1c0.4,0.4,0.6,1,0.6,1.7c0,0.8-0.3,1.5-0.9,2S736,933.7,734.9,933.7z"/>
			<path fill="#4A4A4C" d="M744.3,933.7c-1.3,0-2.4-0.4-3.2-1.3c-0.8-0.9-1.2-2.1-1.2-3.6c0-1.5,0.4-2.7,1.1-3.6
				c0.8-0.9,1.8-1.4,3-1.5c1.1,0,2,0.4,2.7,1.2s1,1.9,1,3.3c0,0.1,0,0.2,0,0.3c0,0.2,0,0.3,0,0.3h-6.7c0,1.2,0.3,2.2,0.9,2.9
				s1.4,1.1,2.3,1.1c0.6,0,1.2-0.1,1.6-0.2s0.9-0.4,1.5-0.6l0.2,0.8C746.7,933.4,745.6,933.7,744.3,933.7z M741.2,927.9h5.5
				c0-1.1-0.2-1.9-0.7-2.5s-1.1-0.9-1.9-0.9c-0.8,0-1.5,0.3-2,0.9S741.3,926.9,741.2,927.9z"/>
		</g>
		<g>
			<path opacity="0.15" fill="#4A4A4C" d="M618,880c-19.3,0-35,4.5-35,10v75c0,5.5,15.7,10,35,10s35-4.5,35-10v-75
				C653,884.5,637.3,880,618,880z"/>
			<ellipse fill="none" stroke="#4A4A4C" stroke-miterlimit="10" cx="618" cy="890" rx="35" ry="10"/>
			<path fill="none" stroke="#4A4A4C" stroke-miterlimit="10" d="M653,915c0,5.5-15.7,10-35,10s-35-4.5-35-10"/>
			<path fill="none" stroke="#4A4A4C" stroke-miterlimit="10" d="M653,940c0,5.5-15.7,10-35,10s-35-4.5-35-10"/>
			<path fill="none" stroke="#4A4A4C" stroke-miterlimit="10" d="M583,890v75c0,5.5,15.7,10,35,10s35-4.5,35-10v-75"/>
		</g>
		<g>
			<g>
				<line fill="none" stroke="#204056" stroke-miterlimit="10" x1="510.1" y1="912.5" x2="559" y2="912.5"/>
				<g>
					<polygon fill="#204056" points="555.7,916.6 555,915.8 558.6,912.5 555,909.1 555.7,908.4 560.1,912.5 					"/>
				</g>
			</g>
		</g>
		<g>
			<g>
				<line fill="none" stroke="#204056" stroke-miterlimit="10" x1="511.2" y1="942.5" x2="560.1" y2="942.5"/>
				<g>
					<polygon fill="#204056" points="514.5,946.6 515.2,945.8 511.6,942.5 515.2,939.1 514.5,938.4 510.1,942.5 					"/>
				</g>
			</g>
		</g>
	</g>
	<g>
		<rect x="1180.7" y="903" opacity="0.15" fill="#59A1C9" width="159" height="49"/>
		<path fill="#59A1C9" d="M1339.2,903.5v48h-158v-48H1339.2 M1340.2,902.5h-160v50h160V902.5L1340.2,902.5z"/>
	</g>
	<g>
		<path fill="#59A1C9" d="M1236.1,933.5v-13.1h1.6l4.8,11l4.7-11h1.5v13.1h-1.1v-8.8l0.1-3l-0.3,1.1l-4.3,10h-1.2l-4.4-10l-0.3-1.1
			l0.1,3v8.8H1236.1z"/>
		<path fill="#59A1C9" d="M1255.5,933.7c-0.9,0-1.6-0.2-2.3-0.7c-0.7-0.4-1.2-1-1.5-1.8s-0.5-1.6-0.5-2.6c0-0.7,0.1-1.4,0.3-2
			c0.2-0.6,0.5-1.1,0.9-1.6s0.8-0.8,1.4-1.1s1.2-0.4,1.9-0.4c0.9,0,1.7,0.2,2.3,0.7s1.2,1,1.5,1.8s0.5,1.6,0.5,2.6
			c0,1-0.2,1.8-0.5,2.6s-0.8,1.3-1.5,1.8S1256.4,933.7,1255.5,933.7z M1255.6,932.8c0.7,0,1.3-0.2,1.8-0.6c0.5-0.4,0.8-0.9,1.1-1.5
			c0.2-0.6,0.3-1.3,0.3-2.1c0-1.2-0.3-2.2-0.8-3s-1.3-1.1-2.4-1.1c-0.7,0-1.3,0.2-1.8,0.6s-0.9,0.9-1.1,1.5s-0.3,1.3-0.3,2.1
			c0,1.2,0.3,2.2,0.8,3C1253.8,932.4,1254.6,932.8,1255.6,932.8z"/>
		<path fill="#59A1C9" d="M1265.7,933.7c-1.3,0-2.3-0.4-3-1.3c-0.7-0.9-1.1-2.1-1.1-3.7c0-1.5,0.4-2.7,1.1-3.6
			c0.7-0.9,1.7-1.4,2.9-1.4c0.6,0,1.2,0.1,1.8,0.4s1.1,0.7,1.4,1.2V925v-4.9l1.1-0.1v13.5h-0.9l-0.2-1.5c-0.3,0.5-0.8,1-1.4,1.2
			C1266.9,933.5,1266.3,933.7,1265.7,933.7z M1265.7,932.8c0.5,0,1-0.1,1.4-0.3s0.7-0.5,1-0.8s0.4-0.8,0.5-1.3
			c0.1-0.5,0.2-1,0.2-1.6c0-2.9-1.1-4.3-3.2-4.3c-0.5,0-0.9,0.1-1.3,0.4s-0.7,0.6-0.9,1c-0.2,0.4-0.4,0.8-0.5,1.3s-0.2,1-0.2,1.5
			c0,0.5,0,0.9,0.1,1.3s0.2,0.8,0.3,1.1s0.3,0.7,0.5,0.9s0.5,0.5,0.8,0.6S1265.3,932.8,1265.7,932.8z"/>
		<path fill="#59A1C9" d="M1276.4,933.7c-1.3,0-2.4-0.4-3.2-1.3c-0.8-0.9-1.2-2.1-1.2-3.6c0-1.5,0.4-2.7,1.1-3.6
			c0.8-0.9,1.8-1.4,3-1.5c1.1,0,2,0.4,2.7,1.2s1,1.9,1,3.3c0,0.1,0,0.2,0,0.3c0,0.2,0,0.3,0,0.3h-6.7c0,1.2,0.3,2.2,0.9,2.9
			s1.4,1.1,2.3,1.1c0.6,0,1.2-0.1,1.6-0.2s0.9-0.4,1.5-0.6l0.2,0.8C1278.7,933.4,1277.6,933.7,1276.4,933.7z M1273.2,927.9h5.5
			c0-1.1-0.2-1.9-0.7-2.5s-1.1-0.9-1.9-0.9c-0.8,0-1.5,0.3-2,0.9S1273.3,926.9,1273.2,927.9z"/>
		<path fill="#59A1C9" d="M1284.5,933.7c-0.8,0-1.4-0.2-1.8-0.5s-0.6-1-0.6-1.8v-11.2l1.1-0.1v11.3c0,0.6,0.1,1,0.3,1.2
			c0.2,0.2,0.5,0.3,1,0.3c0.4,0,0.8-0.1,1.3-0.2l0,0.8C1285.3,933.6,1284.9,933.7,1284.5,933.7z"/>
	</g>
	<g>
		<path fill="#4A4A4C" d="M1524.7,933.5v-13.1h3.5c1.1,0,2,0.1,2.9,0.4s1.6,0.6,2.2,1.2s1.1,1.2,1.4,2s0.5,1.8,0.5,3
			c0,2.1-0.6,3.8-1.8,4.9s-2.8,1.7-4.9,1.7H1524.7z M1525.8,932.5h2.6c1.8,0,3.2-0.5,4.2-1.4s1.4-2.3,1.4-4.2c0-1-0.1-1.9-0.4-2.6
			c-0.3-0.7-0.7-1.3-1.2-1.8s-1.1-0.8-1.8-1s-1.5-0.3-2.4-0.3h-2.3V932.5z"/>
		<path fill="#4A4A4C" d="M1540.1,933.7c-0.9,0-1.6-0.2-2.2-0.7s-0.8-1.1-0.8-2c0-0.5,0.1-0.9,0.3-1.3s0.5-0.7,0.9-0.9
			c0.4-0.2,0.9-0.4,1.4-0.5s1.1-0.2,1.9-0.3c0.8,0,1.3-0.1,1.7-0.1v-1.1c0-0.7-0.2-1.3-0.5-1.7c-0.3-0.4-0.9-0.6-1.6-0.6
			c-1,0-2,0.2-2.9,0.7c0-0.1-0.1-0.2-0.2-0.4c-0.1-0.2-0.1-0.3-0.2-0.5c0.4-0.2,0.8-0.4,1.4-0.6s1.2-0.2,1.7-0.2
			c1.2,0,2,0.2,2.5,0.7s0.8,1.4,0.8,2.6v6.4h-0.9c0-0.1-0.1-0.4-0.1-0.8s-0.1-0.6-0.1-0.6C1542.6,933.1,1541.5,933.7,1540.1,933.7z
			 M1540.2,932.8c0.8,0,1.4-0.2,2-0.7c0.6-0.4,1-1.1,1.1-1.8v-1.6c-0.8,0.1-1.3,0.1-1.3,0.1c-1.4,0.1-2.4,0.4-3,0.7
			s-0.8,0.9-0.8,1.6c0,0.6,0.2,1,0.5,1.3C1539.1,932.7,1539.6,932.8,1540.2,932.8z"/>
		<path fill="#4A4A4C" d="M1549.7,933.7c-0.8,0-1.4-0.2-1.8-0.5s-0.6-1-0.6-1.8v-6.7h-1.4l0.1-0.7l1.3-0.1l0.3-2.2l0.8-0.1v2.2h2.8
			v0.8h-2.8v6.5c0,0.7,0.1,1.1,0.3,1.4s0.6,0.3,1.2,0.3c0.4,0,0.8-0.1,1.4-0.2l0,0.8C1550.7,933.6,1550.1,933.7,1549.7,933.7z"/>
		<path fill="#4A4A4C" d="M1555.5,933.7c-0.9,0-1.6-0.2-2.2-0.7s-0.8-1.1-0.8-2c0-0.5,0.1-0.9,0.3-1.3s0.5-0.7,0.9-0.9
			c0.4-0.2,0.9-0.4,1.4-0.5s1.1-0.2,1.9-0.3c0.8,0,1.3-0.1,1.7-0.1v-1.1c0-0.7-0.2-1.3-0.5-1.7c-0.3-0.4-0.9-0.6-1.6-0.6
			c-1,0-2,0.2-2.9,0.7c0-0.1-0.1-0.2-0.2-0.4c-0.1-0.2-0.1-0.3-0.2-0.5c0.4-0.2,0.8-0.4,1.4-0.6s1.2-0.2,1.7-0.2
			c1.2,0,2,0.2,2.5,0.7s0.8,1.4,0.8,2.6v6.4h-0.9c0-0.1-0.1-0.4-0.1-0.8s-0.1-0.6-0.1-0.6C1558,933.1,1556.9,933.7,1555.5,933.7z
			 M1555.6,932.8c0.8,0,1.4-0.2,2-0.7c0.6-0.4,1-1.1,1.1-1.8v-1.6c-0.8,0.1-1.3,0.1-1.3,0.1c-1.4,0.1-2.4,0.4-3,0.7
			s-0.8,0.9-0.8,1.6c0,0.6,0.2,1,0.5,1.3C1554.5,932.7,1555,932.8,1555.6,932.8z"/>
		<path fill="#4A4A4C" d="M1566.6,933.7c-1.3,0-2.3-0.5-3.1-1.6l-0.1,1.4h-0.9v-13.4l1.1-0.1v3.2c0,1,0,1.7,0,2
			c0.4-0.6,0.8-1,1.4-1.2c0.6-0.3,1.1-0.4,1.7-0.4c1.3,0,2.3,0.5,3,1.4c0.7,0.9,1.1,2.1,1.1,3.6c0,1-0.2,1.9-0.5,2.6
			s-0.8,1.3-1.4,1.8S1567.5,933.7,1566.6,933.7z M1566.6,932.8c0.5,0,1-0.1,1.4-0.3c0.4-0.2,0.7-0.5,0.9-0.9s0.4-0.8,0.5-1.3
			c0.1-0.5,0.1-1,0.1-1.5c0-0.4,0-0.8-0.1-1.2s-0.2-0.8-0.3-1.1s-0.3-0.7-0.5-0.9c-0.2-0.3-0.5-0.5-0.8-0.6
			c-0.3-0.2-0.7-0.2-1.2-0.2c-1,0-1.8,0.4-2.3,1.1c-0.5,0.7-0.8,1.8-0.8,3.1c0,0.6,0.1,1.2,0.2,1.6c0.1,0.5,0.3,0.9,0.5,1.3
			s0.6,0.6,1,0.8S1566.1,932.8,1566.6,932.8z"/>
		<path fill="#4A4A4C" d="M1575.3,933.7c-0.9,0-1.6-0.2-2.2-0.7s-0.8-1.1-0.8-2c0-0.5,0.1-0.9,0.3-1.3s0.5-0.7,0.9-0.9
			c0.4-0.2,0.9-0.4,1.4-0.5s1.1-0.2,1.9-0.3c0.8,0,1.3-0.1,1.7-0.1v-1.1c0-0.7-0.2-1.3-0.5-1.7c-0.3-0.4-0.9-0.6-1.6-0.6
			c-1,0-2,0.2-2.9,0.7c0-0.1-0.1-0.2-0.2-0.4c-0.1-0.2-0.1-0.3-0.2-0.5c0.4-0.2,0.8-0.4,1.4-0.6s1.2-0.2,1.7-0.2
			c1.2,0,2,0.2,2.5,0.7s0.8,1.4,0.8,2.6v6.4h-0.9c0-0.1-0.1-0.4-0.1-0.8s-0.1-0.6-0.1-0.6C1577.8,933.1,1576.7,933.7,1575.3,933.7z
			 M1575.4,932.8c0.8,0,1.4-0.2,2-0.7c0.6-0.4,1-1.1,1.1-1.8v-1.6c-0.8,0.1-1.3,0.1-1.3,0.1c-1.4,0.1-2.4,0.4-3,0.7
			s-0.8,0.9-0.8,1.6c0,0.6,0.2,1,0.5,1.3C1574.3,932.7,1574.8,932.8,1575.4,932.8z"/>
		<path fill="#4A4A4C" d="M1585,933.7c-0.6,0-1.2-0.1-1.7-0.2s-1-0.3-1.3-0.5l0.2-0.9c1,0.5,1.9,0.8,2.8,0.8c1.6,0,2.4-0.6,2.5-1.8
			c0-0.5-0.2-0.9-0.5-1.2c-0.3-0.3-1-0.6-1.9-0.9c-0.5-0.2-0.8-0.3-0.8-0.3c-1.5-0.5-2.3-1.3-2.3-2.4c0-0.7,0.3-1.3,0.9-1.8
			s1.4-0.8,2.4-0.8s2,0.2,2.9,0.6l-0.4,0.8c-0.9-0.3-1.7-0.5-2.5-0.5c-0.7,0-1.2,0.2-1.6,0.5c-0.4,0.3-0.6,0.7-0.6,1.2
			c0,0.4,0.1,0.8,0.4,1c0.3,0.2,0.8,0.5,1.5,0.7c0.1,0,0.2,0.1,0.5,0.2c0.2,0.1,0.3,0.1,0.4,0.1c1,0.3,1.7,0.7,2.1,1.1
			c0.4,0.4,0.6,1,0.6,1.7c0,0.8-0.3,1.5-0.9,2S1586.1,933.7,1585,933.7z"/>
		<path fill="#4A4A4C" d="M1594.4,933.7c-1.3,0-2.4-0.4-3.2-1.3c-0.8-0.9-1.2-2.1-1.2-3.6c0-1.5,0.4-2.7,1.1-3.6
			c0.8-0.9,1.8-1.4,3-1.5c1.1,0,2,0.4,2.7,1.2s1,1.9,1,3.3c0,0.1,0,0.2,0,0.3c0,0.2,0,0.3,0,0.3h-6.7c0,1.2,0.3,2.2,0.9,2.9
			s1.4,1.1,2.3,1.1c0.6,0,1.2-0.1,1.6-0.2s0.9-0.4,1.5-0.6l0.2,0.8C1596.8,933.4,1595.7,933.7,1594.4,933.7z M1591.3,927.9h5.5
			c0-1.1-0.2-1.9-0.7-2.5s-1.1-0.9-1.9-0.9c-0.8,0-1.5,0.3-2,0.9S1591.4,926.9,1591.3,927.9z"/>
	</g>
	<g>
		<path opacity="0.15" fill="#4A4A4C" d="M1468.1,880c-19.3,0-35,4.5-35,10v75c0,5.5,15.7,10,35,10c19.3,0,35-4.5,35-10v-75
			C1503.1,884.5,1487.4,880,1468.1,880z"/>
		<ellipse fill="none" stroke="#4A4A4C" stroke-miterlimit="10" cx="1468.1" cy="890" rx="35" ry="10"/>
		<path fill="none" stroke="#4A4A4C" stroke-miterlimit="10" d="M1503.1,915c0,5.5-15.7,10-35,10c-19.3,0-35-4.5-35-10"/>
		<path fill="none" stroke="#4A4A4C" stroke-miterlimit="10" d="M1503.1,940c0,5.5-15.7,10-35,10c-19.3,0-35-4.5-35-10"/>
		<path fill="none" stroke="#4A4A4C" stroke-miterlimit="10" d="M1433.1,890v75c0,5.5,15.7,10,35,10c19.3,0,35-4.5,35-10v-75"/>
	</g>
	<g>
		<g>
			<path fill="none" stroke="#204056" stroke-miterlimit="10" d="M1242.6,680.2c-1.7-9-2.5-18.2-2.5-27.7
				c0-65,41.4-120.4,99.3-141.2"/>
			<g>
				<polygon fill="#204056" points="1337.7,516.3 1336.8,515.8 1339,511.4 1334.5,509.6 1334.9,508.6 1340.4,510.9 				"/>
			</g>
		</g>
	</g>
	<g>
		<g>
			<path fill="none" stroke="#204056" stroke-miterlimit="10" d="M1488.1,766c-26.3,22.7-60.6,36.5-98,36.5
				c-36.3,0-69.6-12.9-95.5-34.4"/>
			<g>
				<polygon fill="#204056" points="1299.7,767 1299.8,768 1294.9,768.4 1295.6,773.2 1294.6,773.4 1293.7,767.4 				"/>
			</g>
		</g>
	</g>
	<path fill="#BDBFBF" d="M1413.6,318.7c-9.2-2.1-17.7-4-13.6-11.8c12.6-23.7,3.3-36.4-10-36.4c-13.6,0-22.6,13.2-10,36.4
		c4.3,7.8-4.6,9.7-13.6,11.8c-7.6,1.8-8.4,5.4-8.5,11.7c0,2.2,1.8,4,4,4h56c2.2,0,4-1.8,4-4C1422,324.1,1421.3,320.5,1413.6,318.7z"
		/>
	<path fill="#FBCB44" d="M1424.7,482.5h-34.6c11,0,20,9,20,20c0,3.6-1,7-2.7,10l0,0l-17.3,30c22.1,0,40-17.9,40-40
		C1430.1,495.2,1428.1,488.4,1424.7,482.5z"/>
	<path fill="#34B67A" d="M1390.1,522.5c-7.4,0-13.8-4-17.3-10l0,0l-17.3-30c-3.4,5.9-5.4,12.7-5.4,20c0,22.1,17.9,40,40,40l17.3-30
		l0,0C1403.9,518.5,1397.5,522.5,1390.1,522.5z"/>
	<path fill="#DC4437" d="M1370.1,502.5c0-11,9-20,20-20h34.6c-6.9-12-19.8-20-34.6-20c-14.8,0-27.7,8-34.6,20l17.3,30l0,0
		C1371.1,509.5,1370.1,506.1,1370.1,502.5z"/>
	<circle fill="#4385F5" cx="1390.1" cy="502.5" r="15"/>
	<g>
		<rect x="1180.7" y="703" opacity="0.15" fill="#59A1C9" width="159" height="49"/>
		<path fill="#59A1C9" d="M1339.2,703.5v48h-158v-48H1339.2 M1340.2,702.5h-160v50h160V702.5L1340.2,702.5z"/>
	</g>
	<g>
		<path fill="#59A1C9" d="M1227.1,733.7c-1,0-1.9-0.2-2.7-0.5s-1.4-0.8-1.9-1.4c-0.5-0.6-0.9-1.3-1.1-2.1c-0.3-0.8-0.4-1.7-0.4-2.7
			c0-1.3,0.2-2.5,0.7-3.5c0.5-1,1.2-1.8,2.1-2.4s2.1-0.9,3.4-0.9c1.4,0,2.6,0.3,3.6,0.9l-0.5,0.9c-0.9-0.6-1.9-0.8-3.1-0.8
			c-0.8,0-1.5,0.2-2.2,0.5s-1.2,0.7-1.6,1.3s-0.7,1.2-0.9,1.9s-0.3,1.5-0.3,2.3c0,0.8,0.1,1.5,0.3,2.2c0.2,0.7,0.5,1.3,0.9,1.8
			c0.4,0.5,0.9,1,1.6,1.3s1.4,0.5,2.3,0.5c0.9,0,1.9-0.3,3.1-0.8l0.2,0.9C1229.7,733.4,1228.5,733.7,1227.1,733.7z"/>
		<path fill="#59A1C9" d="M1236.4,733.7c-0.9,0-1.6-0.2-2.3-0.7c-0.7-0.4-1.2-1-1.5-1.8s-0.5-1.6-0.5-2.6c0-0.7,0.1-1.4,0.3-2
			c0.2-0.6,0.5-1.1,0.9-1.6s0.8-0.8,1.4-1.1s1.2-0.4,1.9-0.4c0.9,0,1.7,0.2,2.3,0.7s1.2,1,1.5,1.8s0.5,1.6,0.5,2.6
			c0,1-0.2,1.8-0.5,2.6s-0.8,1.3-1.5,1.8S1237.4,733.7,1236.4,733.7z M1236.5,732.8c0.7,0,1.3-0.2,1.8-0.6c0.5-0.4,0.8-0.9,1.1-1.5
			c0.2-0.6,0.3-1.3,0.3-2.1c0-1.2-0.3-2.2-0.8-3s-1.3-1.1-2.4-1.1c-0.7,0-1.3,0.2-1.8,0.6s-0.9,0.9-1.1,1.5s-0.3,1.3-0.3,2.1
			c0,1.2,0.3,2.2,0.8,3C1234.7,732.4,1235.5,732.8,1236.5,732.8z"/>
		<path fill="#59A1C9" d="M1243,733.5v-9.6h0.9l0.1,1.5c0.3-0.5,0.8-0.9,1.4-1.2s1.2-0.4,1.9-0.4c1.1,0,1.9,0.3,2.4,0.9
			s0.8,1.6,0.8,2.9v6h-1.1V727c0-0.9-0.2-1.5-0.5-1.8s-0.9-0.6-1.6-0.6c-0.9,0-1.6,0.2-2.1,0.7c-0.6,0.4-0.9,1-1,1.7
			c0,0.3,0,0.6,0,0.9v5.7H1243z"/>
		<path fill="#59A1C9" d="M1255.8,733.7c-0.8,0-1.4-0.2-1.8-0.5s-0.6-1-0.6-1.8v-6.7h-1.4l0.1-0.7l1.3-0.1l0.3-2.2l0.8-0.1v2.2h2.8
			v0.8h-2.8v6.5c0,0.7,0.1,1.1,0.3,1.4s0.6,0.3,1.2,0.3c0.4,0,0.8-0.1,1.4-0.2l0,0.8C1256.8,733.6,1256.2,733.7,1255.8,733.7z"/>
		<path fill="#59A1C9" d="M1259.1,733.5c0-5.7,0-8.9,0-9.6h0.9l0.1,1.9c0.3-0.6,0.8-1,1.3-1.4s1.1-0.5,1.7-0.5c0.2,0,0.5,0,0.8,0.1
			l-0.1,0.9c-0.2,0-0.4-0.1-0.7-0.1c-0.8,0-1.5,0.3-2.1,1c-0.6,0.6-0.8,1.4-0.8,2.3v5.5H1259.1z"/>
		<path fill="#59A1C9" d="M1269.1,733.7c-0.9,0-1.6-0.2-2.3-0.7c-0.7-0.4-1.2-1-1.5-1.8s-0.5-1.6-0.5-2.6c0-0.7,0.1-1.4,0.3-2
			c0.2-0.6,0.5-1.1,0.9-1.6s0.8-0.8,1.4-1.1s1.2-0.4,1.9-0.4c0.9,0,1.7,0.2,2.3,0.7s1.2,1,1.5,1.8s0.5,1.6,0.5,2.6
			c0,1-0.2,1.8-0.5,2.6s-0.8,1.3-1.5,1.8S1270,733.7,1269.1,733.7z M1269.2,732.8c0.7,0,1.3-0.2,1.8-0.6c0.5-0.4,0.8-0.9,1.1-1.5
			c0.2-0.6,0.3-1.3,0.3-2.1c0-1.2-0.3-2.2-0.8-3s-1.3-1.1-2.4-1.1c-0.7,0-1.3,0.2-1.8,0.6s-0.9,0.9-1.1,1.5s-0.3,1.3-0.3,2.1
			c0,1.2,0.3,2.2,0.8,3C1267.3,732.4,1268.1,732.8,1269.2,732.8z"/>
		<path fill="#59A1C9" d="M1278.1,733.7c-0.8,0-1.4-0.2-1.8-0.5s-0.6-1-0.6-1.8v-11.2l1.1-0.1v11.3c0,0.6,0.1,1,0.3,1.2
			c0.2,0.2,0.5,0.3,1,0.3c0.4,0,0.8-0.1,1.3-0.2l0,0.8C1278.9,733.6,1278.4,733.7,1278.1,733.7z"/>
		<path fill="#59A1C9" d="M1283.2,733.7c-0.8,0-1.4-0.2-1.8-0.5s-0.6-1-0.6-1.8v-11.2l1.1-0.1v11.3c0,0.6,0.1,1,0.3,1.2
			c0.2,0.2,0.5,0.3,1,0.3c0.4,0,0.8-0.1,1.3-0.2l0,0.8C1284,733.6,1283.5,733.7,1283.2,733.7z"/>
		<path fill="#59A1C9" d="M1289.8,733.7c-1.3,0-2.4-0.4-3.2-1.3c-0.8-0.9-1.2-2.1-1.2-3.6c0-1.5,0.4-2.7,1.1-3.6
			c0.8-0.9,1.8-1.4,3-1.5c1.1,0,2,0.4,2.7,1.2s1,1.9,1,3.3c0,0.1,0,0.2,0,0.3c0,0.2,0,0.3,0,0.3h-6.7c0,1.2,0.3,2.2,0.9,2.9
			s1.4,1.1,2.3,1.1c0.6,0,1.2-0.1,1.6-0.2s0.9-0.4,1.5-0.6l0.2,0.8C1292.1,733.4,1291,733.7,1289.8,733.7z M1286.6,727.9h5.5
			c0-1.1-0.2-1.9-0.7-2.5s-1.1-0.9-1.9-0.9c-0.8,0-1.5,0.3-2,0.9S1286.7,726.9,1286.6,727.9z"/>
		<path fill="#59A1C9" d="M1295.5,733.5c0-5.7,0-8.9,0-9.6h0.9l0.1,1.9c0.3-0.6,0.8-1,1.3-1.4s1.1-0.5,1.7-0.5c0.2,0,0.5,0,0.8,0.1
			l-0.1,0.9c-0.2,0-0.4-0.1-0.7-0.1c-0.8,0-1.5,0.3-2.1,1c-0.6,0.6-0.8,1.4-0.8,2.3v5.5H1295.5z"/>
	</g>
	<g>
		<path fill="#F65A5B" d="M1409.7,408.6v-10.7c-0.1,0.1-0.5,0.2-1.1,0.5c-0.7,0.3-1.1,0.4-1.1,0.5v-1.8c0.1-0.1,0.6-0.3,1.3-0.7
			s1.2-0.6,1.2-0.6h1.9v12.8H1409.7z"/>
	</g>
	<g>
		<rect x="1440.5" y="703" opacity="0.15" fill="#59A1C9" width="159" height="49"/>
		<path fill="#59A1C9" d="M1599,703.5v48h-158v-48H1599 M1600,702.5h-160v50h160V702.5L1600,702.5z"/>
	</g>
	<g>
		<path fill="#59A1C9" d="M1473.5,733.5v-13.1h3.7c0.5,0,0.9,0,1.2,0s0.7,0.1,1.1,0.1s0.7,0.1,0.9,0.2c0.3,0.1,0.5,0.2,0.7,0.4
			s0.4,0.4,0.6,0.6s0.2,0.5,0.3,0.8c0.1,0.3,0.1,0.7,0.1,1.1c0,0.8-0.2,1.5-0.6,2.1s-1,1-1.8,1.2c0.4,0.7,0.6,1.3,0.8,1.6l2.1,4.9
			h-1.3l-1.8-4.5c-0.1-0.3-0.4-0.9-0.8-1.9c-0.1,0-0.6,0-1.3,0l-2.8-0.1v6.4H1473.5z M1477.9,726.2c1.2,0,2-0.2,2.4-0.6
			s0.7-1,0.7-1.9c0-0.8-0.2-1.3-0.6-1.8s-1.1-0.6-2.1-0.6h-3.7v4.8C1476,726.2,1477.1,726.2,1477.9,726.2z"/>
		<path fill="#59A1C9" d="M1487.4,733.7c-0.9,0-1.6-0.2-2.2-0.7s-0.8-1.1-0.8-2c0-0.5,0.1-0.9,0.3-1.3s0.5-0.7,0.9-0.9
			c0.4-0.2,0.9-0.4,1.4-0.5s1.1-0.2,1.9-0.3c0.8,0,1.3-0.1,1.7-0.1v-1.1c0-0.7-0.2-1.3-0.5-1.7c-0.3-0.4-0.9-0.6-1.6-0.6
			c-1,0-2,0.2-2.9,0.7c0-0.1-0.1-0.2-0.2-0.4c-0.1-0.2-0.1-0.3-0.2-0.5c0.4-0.2,0.8-0.4,1.4-0.6s1.2-0.2,1.7-0.2
			c1.2,0,2,0.2,2.5,0.7s0.8,1.4,0.8,2.6v6.4h-0.9c0-0.1-0.1-0.4-0.1-0.8s-0.1-0.6-0.1-0.6C1489.9,733.2,1488.8,733.7,1487.4,733.7z
			 M1487.5,732.8c0.8,0,1.4-0.2,2-0.7c0.6-0.4,1-1.1,1.1-1.8v-1.6c-0.8,0.1-1.3,0.1-1.3,0.1c-1.4,0.1-2.4,0.4-3,0.7
			s-0.8,0.9-0.8,1.6c0,0.6,0.2,1,0.5,1.3C1486.4,732.7,1486.9,732.8,1487.5,732.8z"/>
		<path fill="#59A1C9" d="M1494.4,721.9v-1.5h1.1v1.5H1494.4z M1494.4,733.5v-9.6h1.1v9.6H1494.4z"/>
		<path fill="#59A1C9" d="M1500.7,733.7c-0.8,0-1.4-0.2-1.8-0.5s-0.6-1-0.6-1.8v-11.2l1.1-0.1v11.3c0,0.6,0.1,1,0.3,1.2
			c0.2,0.2,0.5,0.3,1,0.3c0.4,0,0.8-0.1,1.3-0.2l0,0.8C1501.5,733.6,1501,733.7,1500.7,733.7z"/>
		<path fill="#59A1C9" d="M1506.2,733.7c-0.6,0-1.2-0.1-1.7-0.2s-1-0.3-1.3-0.5l0.2-0.9c1,0.5,1.9,0.8,2.8,0.8
			c1.6,0,2.4-0.6,2.5-1.8c0-0.5-0.2-0.9-0.5-1.2c-0.3-0.3-1-0.6-1.9-0.9c-0.5-0.2-0.8-0.3-0.8-0.3c-1.5-0.5-2.3-1.3-2.3-2.4
			c0-0.7,0.3-1.3,0.9-1.8s1.4-0.8,2.4-0.8s2,0.2,2.9,0.6l-0.4,0.8c-0.9-0.3-1.7-0.5-2.5-0.5c-0.7,0-1.2,0.2-1.6,0.5
			c-0.4,0.3-0.6,0.7-0.6,1.2c0,0.4,0.1,0.8,0.4,1c0.3,0.2,0.8,0.5,1.5,0.7c0.1,0,0.2,0.1,0.5,0.2c0.2,0.1,0.3,0.1,0.4,0.1
			c1,0.3,1.7,0.7,2.1,1.1c0.4,0.4,0.6,1,0.6,1.7c0,0.8-0.3,1.5-0.9,2S1507.2,733.7,1506.2,733.7z"/>
		<path fill="#59A1C9" d="M1516,733.5v-13.1h3.7c0.5,0,0.9,0,1.2,0s0.7,0.1,1.1,0.1s0.7,0.1,0.9,0.2c0.3,0.1,0.5,0.2,0.7,0.4
			s0.4,0.4,0.6,0.6s0.2,0.5,0.3,0.8c0.1,0.3,0.1,0.7,0.1,1.1c0,0.8-0.2,1.5-0.6,2.1s-1,1-1.8,1.2c0.4,0.7,0.6,1.3,0.8,1.6l2.1,4.9
			h-1.3l-1.8-4.5c-0.1-0.3-0.4-0.9-0.8-1.9c-0.1,0-0.6,0-1.3,0l-2.8-0.1v6.4H1516z M1520.5,726.2c1.2,0,2-0.2,2.4-0.6s0.7-1,0.7-1.9
			c0-0.8-0.2-1.3-0.6-1.8s-1.1-0.6-2.1-0.6h-3.7v4.8C1518.5,726.2,1519.6,726.2,1520.5,726.2z"/>
		<path fill="#59A1C9" d="M1531.3,733.7c-0.9,0-1.6-0.2-2.3-0.7c-0.7-0.4-1.2-1-1.5-1.8s-0.5-1.6-0.5-2.6c0-0.7,0.1-1.4,0.3-2
			c0.2-0.6,0.5-1.1,0.9-1.6s0.8-0.8,1.4-1.1s1.2-0.4,1.9-0.4c0.9,0,1.7,0.2,2.3,0.7s1.2,1,1.5,1.8s0.5,1.6,0.5,2.6
			c0,1-0.2,1.8-0.5,2.6s-0.8,1.3-1.5,1.8S1532.2,733.7,1531.3,733.7z M1531.4,732.8c0.7,0,1.3-0.2,1.8-0.6c0.5-0.4,0.8-0.9,1.1-1.5
			c0.2-0.6,0.3-1.3,0.3-2.1c0-1.2-0.3-2.2-0.8-3s-1.3-1.1-2.4-1.1c-0.7,0-1.3,0.2-1.8,0.6s-0.9,0.9-1.1,1.5s-0.3,1.3-0.3,2.1
			c0,1.2,0.3,2.2,0.8,3C1529.6,732.4,1530.4,732.8,1531.4,732.8z"/>
		<path fill="#59A1C9" d="M1541.5,733.7c-0.5,0-1-0.1-1.4-0.2c-0.4-0.1-0.8-0.3-1.2-0.5s-0.7-0.6-0.9-1c-0.2-0.4-0.3-1-0.3-1.6v-6.6
			h1.1v6.6c0,0.5,0.1,0.8,0.2,1.2s0.3,0.6,0.6,0.7s0.5,0.3,0.8,0.3s0.6,0.1,1,0.1c0.4,0,0.7,0,1-0.1s0.6-0.2,0.8-0.3
			s0.5-0.4,0.6-0.7c0.1-0.3,0.2-0.7,0.2-1.1v-6.6h1.1v6.6c0,0.5-0.1,0.9-0.2,1.3s-0.3,0.7-0.6,0.9s-0.5,0.5-0.8,0.6s-0.7,0.3-1,0.3
			S1541.9,733.7,1541.5,733.7z"/>
		<path fill="#59A1C9" d="M1550.3,733.7c-0.8,0-1.4-0.2-1.8-0.5s-0.6-1-0.6-1.8v-6.7h-1.4l0.1-0.7l1.3-0.1l0.3-2.2l0.8-0.1v2.2h2.8
			v0.8h-2.8v6.5c0,0.7,0.1,1.1,0.3,1.4s0.6,0.3,1.2,0.3c0.4,0,0.8-0.1,1.4-0.2l0,0.8C1551.3,733.6,1550.7,733.7,1550.3,733.7z"/>
		<path fill="#59A1C9" d="M1557.5,733.7c-1.3,0-2.4-0.4-3.2-1.3c-0.8-0.9-1.2-2.1-1.2-3.6c0-1.5,0.4-2.7,1.1-3.6
			c0.8-0.9,1.8-1.4,3-1.5c1.1,0,2,0.4,2.7,1.2s1,1.9,1,3.3c0,0.1,0,0.2,0,0.3c0,0.2,0,0.3,0,0.3h-6.7c0,1.2,0.3,2.2,0.9,2.9
			s1.4,1.1,2.3,1.1c0.6,0,1.2-0.1,1.6-0.2s0.9-0.4,1.5-0.6l0.2,0.8C1559.8,733.4,1558.7,733.7,1557.5,733.7z M1554.3,727.9h5.5
			c0-1.1-0.2-1.9-0.7-2.5s-1.1-0.9-1.9-0.9c-0.8,0-1.5,0.3-2,0.9S1554.4,726.9,1554.3,727.9z"/>
		<path fill="#59A1C9" d="M1563.2,733.5c0-5.7,0-8.9,0-9.6h0.9l0.1,1.9c0.3-0.6,0.8-1,1.3-1.4s1.1-0.5,1.7-0.5c0.2,0,0.5,0,0.8,0.1
			l-0.1,0.9c-0.2,0-0.4-0.1-0.7-0.1c-0.8,0-1.5,0.3-2.1,1c-0.6,0.6-0.8,1.4-0.8,2.3v5.5H1563.2z"/>
	</g>
	<g>
		<path fill="#F65A5B" d="M1542.1,568.6l-0.1-1.9l4.1-4.6c0.5-0.5,0.9-1,1.1-1.5c0.2-0.5,0.3-0.9,0.3-1.4c0-0.6-0.2-1-0.5-1.3
			s-0.8-0.5-1.4-0.5c-0.5,0-1.1,0.1-1.6,0.3s-1,0.5-1.3,0.8l-0.7-1.7c0.9-0.8,2.1-1.2,3.7-1.2c1.3,0,2.3,0.3,3.1,1s1.2,1.5,1.2,2.7
			c0,0.8-0.2,1.6-0.7,2.3c-0.4,0.7-1,1.5-1.8,2.3l-2.9,3.1h5.2l-0.2,1.7H1542.1z"/>
	</g>
	<g>
		<path fill="#F65A5B" d="M1389.6,778.8c-0.8,0-1.5-0.1-2.1-0.3c-0.7-0.2-1.2-0.5-1.6-0.8l0.6-1.7c0.3,0.3,0.8,0.5,1.3,0.7
			s1.2,0.3,1.8,0.3c0.7,0,1.2-0.2,1.6-0.5c0.4-0.4,0.6-0.8,0.6-1.4c0-0.4-0.1-0.7-0.2-0.9c-0.1-0.3-0.3-0.5-0.5-0.6
			s-0.4-0.3-0.8-0.4c-0.3-0.1-0.6-0.2-1-0.2s-0.7-0.1-1.2-0.1c0,0-0.1,0-0.3,0s-0.2,0-0.3,0V771h0.5c0.5,0,0.9,0,1.3-0.1
			c0.4-0.1,0.7-0.1,1-0.3c0.3-0.1,0.6-0.3,0.7-0.6c0.2-0.3,0.2-0.6,0.2-0.9c0-0.5-0.2-0.9-0.6-1.3s-0.9-0.5-1.6-0.5
			c-1.1,0-2.1,0.3-2.9,0.8l-0.6-1.7c1.1-0.7,2.3-1,3.8-1c1.2,0,2.2,0.3,3,1c0.8,0.6,1.2,1.5,1.2,2.5c0,0.7-0.2,1.3-0.5,1.8
			c-0.4,0.5-0.9,0.9-1.6,1.1c0.8,0.2,1.4,0.5,1.8,1.1c0.4,0.6,0.6,1.3,0.6,2.1c0,0.8-0.2,1.5-0.6,2s-1,1-1.7,1.3
			S1390.5,778.8,1389.6,778.8z"/>
	</g>
	<g>
		<path fill="#F65A5B" d="M1135.3,778.8c-1.4,0-2.6-0.4-3.5-1.2s-1.3-1.8-1.3-3.1c0-0.4,0-0.8,0.1-1.2s0.2-0.7,0.4-1.1
			s0.4-0.7,0.5-0.9s0.4-0.6,0.7-1l3.7-4.6h2.7l-4,5c0.4-0.1,0.8-0.2,1.1-0.2c1.3,0,2.3,0.4,3.1,1.1s1.2,1.7,1.2,2.9
			c0,1.3-0.4,2.3-1.3,3S1136.7,778.8,1135.3,778.8z M1135.2,777.1c0.8,0,1.4-0.2,1.8-0.7c0.4-0.4,0.7-1,0.7-1.7
			c0-0.8-0.2-1.4-0.6-1.8s-1-0.7-1.8-0.7c-0.8,0-1.4,0.2-1.8,0.7s-0.6,1-0.6,1.8c0,0.7,0.2,1.3,0.6,1.7S1134.4,777.1,1135.2,777.1z"
			/>
	</g>
	<g>
		<path fill="#F65A5B" d="M1132.7,693.6l3.9-11.1h-5.3l0-1.8h7.9v1.4l-4.1,11.4H1132.7z"/>
	</g>
	<g>
		<path fill="#F65A5B" d="M1233.2,568.8c-0.8,0-1.6-0.1-2.3-0.4s-1.2-0.7-1.6-1.2s-0.6-1.2-0.6-2c0-1.5,0.8-2.6,2.3-3.3
			c-1.4-0.6-2-1.7-2-3c0-0.5,0.1-1,0.3-1.5s0.5-0.8,0.9-1.1s0.8-0.5,1.4-0.6s1.1-0.2,1.7-0.2c1.2,0,2.3,0.3,3.1,0.9
			c0.8,0.6,1.2,1.4,1.2,2.5c0,1.4-0.6,2.4-1.9,3c1.4,0.7,2.1,1.8,2.1,3.3c0,0.8-0.2,1.4-0.6,2c-0.4,0.6-1,1-1.6,1.2
			S1234.1,568.8,1233.2,568.8z M1231.5,566.7c0.4,0.4,1,0.5,1.7,0.5s1.3-0.2,1.7-0.5s0.6-0.9,0.6-1.5c0-0.6-0.2-1.2-0.7-1.6
			s-1-0.7-1.7-0.9c-0.7,0.2-1.3,0.5-1.7,0.9c-0.4,0.4-0.6,1-0.6,1.6C1230.9,565.8,1231.1,566.3,1231.5,566.7z M1233.2,561.3
			c0.7-0.2,1.3-0.4,1.7-0.9s0.6-0.9,0.6-1.6c0-0.5-0.2-1-0.6-1.3s-1-0.5-1.6-0.5c-0.6,0-1.2,0.2-1.6,0.5s-0.6,0.7-0.6,1.3
			c0,0.6,0.2,1.2,0.6,1.6S1232.5,561.1,1233.2,561.3z"/>
	</g>
	<g>
		<path fill="#4385F5" d="M1359,567.5v-13.1h3.6c1.6,0,2.8,0.3,3.6,0.8c0.7,0.5,1.1,1.4,1.1,2.5c0,0.1,0,0.2,0,0.3
			c0,0.1,0,0.2,0,0.4s-0.1,0.4-0.1,0.5s-0.1,0.3-0.2,0.5s-0.2,0.4-0.4,0.5c-0.1,0.1-0.3,0.3-0.6,0.4s-0.5,0.3-0.8,0.4
			c0.9,0.1,1.6,0.5,2.1,1.1s0.7,1.3,0.7,2.1c0,1.2-0.4,2.1-1.1,2.7s-1.9,1-3.4,1H1359z M1360.1,560.2h3c0.5,0,0.9,0,1.2-0.1
			s0.6-0.2,0.9-0.4c0.3-0.2,0.5-0.4,0.6-0.8s0.2-0.7,0.2-1.2c0-0.9-0.3-1.5-0.8-1.9c-0.6-0.4-1.5-0.5-2.7-0.5h-2.4V560.2z
			 M1360.1,566.6h3c2.4,0,3.6-0.9,3.6-2.8c0-1-0.3-1.7-1-2.1s-1.7-0.6-3.1-0.6h-2.5V566.6z"/>
		<path fill="#4385F5" d="M1369.8,567.5c0-5.7,0-8.9,0-9.6h0.9l0.1,1.9c0.3-0.6,0.8-1,1.3-1.4s1.1-0.5,1.7-0.5c0.2,0,0.5,0,0.8,0.1
			l-0.1,0.9c-0.2,0-0.4-0.1-0.7-0.1c-0.8,0-1.5,0.3-2.1,1c-0.6,0.6-0.8,1.4-0.8,2.3v5.5H1369.8z"/>
		<path fill="#4385F5" d="M1379.8,567.7c-0.9,0-1.6-0.2-2.3-0.7c-0.7-0.4-1.2-1-1.5-1.8s-0.5-1.6-0.5-2.6c0-0.7,0.1-1.4,0.3-2
			c0.2-0.6,0.5-1.1,0.9-1.6s0.8-0.8,1.4-1.1s1.2-0.4,1.9-0.4c0.9,0,1.7,0.2,2.3,0.7s1.2,1,1.5,1.8s0.5,1.6,0.5,2.6
			c0,1-0.2,1.8-0.5,2.6s-0.8,1.3-1.5,1.8S1380.7,567.7,1379.8,567.7z M1379.9,566.8c0.7,0,1.3-0.2,1.8-0.6c0.5-0.4,0.8-0.9,1.1-1.5
			c0.2-0.6,0.3-1.3,0.3-2.1c0-1.2-0.3-2.2-0.8-3s-1.3-1.1-2.4-1.1c-0.7,0-1.3,0.2-1.8,0.6s-0.9,0.9-1.1,1.5s-0.3,1.3-0.3,2.1
			c0,1.2,0.3,2.2,0.8,3C1378,566.4,1378.8,566.8,1379.9,566.8z"/>
		<path fill="#4385F5" d="M1387.8,567.5l-2.7-9.6h1.1l2.2,8.6c1.6-5.1,2.5-8,2.7-8.6h1.3c1.8,5.7,2.6,8.6,2.7,8.6l2.1-8.6h1.1
			l-2.6,9.6h-1.3c0,0-0.4-1.3-1.2-4.1s-1.3-4.3-1.4-4.8c-0.1,0.3-0.3,1.2-0.8,2.7s-0.9,2.9-1.3,4.2s-0.6,2-0.7,2H1387.8z"/>
		<path fill="#4385F5" d="M1402.7,567.7c-0.6,0-1.2-0.1-1.7-0.2s-1-0.3-1.3-0.5l0.2-0.9c1,0.5,1.9,0.8,2.8,0.8
			c1.6,0,2.4-0.6,2.5-1.8c0-0.5-0.2-0.9-0.5-1.2c-0.3-0.3-1-0.6-1.9-0.9c-0.5-0.2-0.8-0.3-0.8-0.3c-1.5-0.5-2.3-1.3-2.3-2.4
			c0-0.7,0.3-1.3,0.9-1.8s1.4-0.8,2.4-0.8s2,0.2,2.9,0.6l-0.4,0.8c-0.9-0.3-1.7-0.5-2.5-0.5c-0.7,0-1.2,0.2-1.6,0.5
			c-0.4,0.3-0.6,0.7-0.6,1.2c0,0.4,0.1,0.8,0.4,1c0.3,0.2,0.8,0.5,1.5,0.7c0.1,0,0.2,0.1,0.5,0.2c0.2,0.1,0.3,0.1,0.4,0.1
			c1,0.3,1.7,0.7,2.1,1.1c0.4,0.4,0.6,1,0.6,1.7c0,0.8-0.3,1.5-0.9,2S1403.7,567.7,1402.7,567.7z"/>
		<path fill="#4385F5" d="M1412.1,567.7c-1.3,0-2.4-0.4-3.2-1.3c-0.8-0.9-1.2-2.1-1.2-3.6c0-1.5,0.4-2.7,1.1-3.6
			c0.8-0.9,1.8-1.4,3-1.5c1.1,0,2,0.4,2.7,1.2s1,1.9,1,3.3c0,0.1,0,0.2,0,0.3c0,0.2,0,0.3,0,0.3h-6.7c0,1.2,0.3,2.2,0.9,2.9
			s1.4,1.1,2.3,1.1c0.6,0,1.2-0.1,1.6-0.2s0.9-0.4,1.5-0.6l0.2,0.8C1414.4,567.4,1413.3,567.7,1412.1,567.7z M1409,561.9h5.5
			c0-1.1-0.2-1.9-0.7-2.5s-1.1-0.9-1.9-0.9c-0.8,0-1.5,0.3-2,0.9S1409.1,560.9,1409,561.9z"/>
		<path fill="#4385F5" d="M1417.8,567.5c0-5.7,0-8.9,0-9.6h0.9l0.1,1.9c0.3-0.6,0.8-1,1.3-1.4s1.1-0.5,1.7-0.5c0.2,0,0.5,0,0.8,0.1
			l-0.1,0.9c-0.2,0-0.4-0.1-0.7-0.1c-0.8,0-1.5,0.3-2.1,1c-0.6,0.6-0.8,1.4-0.8,2.3v5.5H1417.8z"/>
	</g>
	<g>
		<g>
			<line fill="none" stroke="#204056" stroke-miterlimit="10" x1="1390.1" y1="441.4" x2="1390.1" y2="354.5"/>
			<g>
				<polygon fill="#204056" points="1394.2,438.1 1393.5,437.4 1390.1,441 1386.7,437.4 1386,438.1 1390.1,442.5 				"/>
			</g>
		</g>
	</g>
	<g>
		<path fill="#F65A5B" d="M1301.2,838.6v-2.9h-5.8v-1.6l5.2-8.4h2.9v8.2h1.6l-0.1,1.7h-1.5v2.9H1301.2z M1297.7,834h3.5v-6
			L1297.7,834z"/>
	</g>
	<g>
		<path fill="#F65A5B" d="M1219.9,838.8c-0.6,0-1.2-0.1-1.8-0.3s-1.1-0.4-1.4-0.5s-0.5-0.3-0.6-0.4l0.7-1.7c0.1,0.1,0.3,0.2,0.5,0.3
			c0.2,0.1,0.6,0.3,1,0.5c0.5,0.2,0.9,0.3,1.4,0.3c0.8,0,1.4-0.2,1.9-0.7s0.6-1.1,0.6-1.8c0-0.7-0.2-1.3-0.6-1.7
			c-0.4-0.4-0.9-0.6-1.5-0.6c-0.7,0-1.4,0.3-2,0.9l-1.5-0.3l0.3-7h7l-0.1,1.8h-4.8c0,0.1,0,0.6-0.1,1.6c0,1-0.1,1.5-0.1,1.6
			c0.5-0.3,1.1-0.4,1.6-0.4c1.2,0,2.1,0.4,2.9,1.1c0.7,0.8,1.1,1.8,1.1,3c0,1.3-0.4,2.3-1.2,3.1
			C1222.4,838.4,1221.3,838.8,1219.9,838.8z"/>
	</g>
	<g>
		<g>
			<line fill="none" stroke="#204056" stroke-miterlimit="10" x1="1280.1" y1="871.4" x2="1280.1" y2="784.5"/>
			<g>
				<polygon fill="#204056" points="1284.2,868.1 1283.5,867.4 1280.1,871 1276.7,867.4 1276,868.1 1280.1,872.5 				"/>
			</g>
		</g>
	</g>
	<g>
		<g>
			<line fill="none" stroke="#204056" stroke-miterlimit="10" x1="1240.1" y1="872.5" x2="1240.1" y2="785.5"/>
			<g>
				<polygon fill="#204056" points="1244.2,788.9 1243.5,789.5 1240.1,785.9 1236.7,789.5 1236,788.9 1240.1,784.5 				"/>
			</g>
		</g>
	</g>
	<g>
		<rect x="930.7" y="703" opacity="0.15" fill="#59A1C9" width="159" height="49"/>
		<path fill="#59A1C9" d="M1089.2,703.5v48h-158v-48H1089.2 M1090.2,702.5h-160v50h160V702.5L1090.2,702.5z"/>
	</g>
	<g>
		<path fill="#59A1C9" d="M996,733.5l-4.7-13.1h1.2l3,8.4c0.1,0.4,0.2,0.8,0.4,1.2c0.1,0.4,0.3,0.8,0.4,1.1s0.2,0.7,0.3,1.2
			c0-0.2,0.1-0.4,0.2-0.7c0.1-0.2,0.2-0.6,0.4-1.2c0.2-0.5,0.4-1.1,0.5-1.6c0.4-1.4,0.9-2.8,1.5-4.3s1.1-2.9,1.5-4.1h1.3l-4.8,13.1
			H996z"/>
		<path fill="#59A1C9" d="M1003.3,721.9v-1.5h1.1v1.5H1003.3z M1003.3,733.5v-9.6h1.1v9.6H1003.3z"/>
		<path fill="#59A1C9" d="M1011,733.7c-1.3,0-2.4-0.4-3.2-1.3c-0.8-0.9-1.2-2.1-1.2-3.6c0-1.5,0.4-2.7,1.1-3.6
			c0.8-0.9,1.8-1.4,3-1.5c1.1,0,2,0.4,2.7,1.2s1,1.9,1,3.3c0,0.1,0,0.2,0,0.3c0,0.2,0,0.3,0,0.3h-6.7c0,1.2,0.3,2.2,0.9,2.9
			s1.4,1.1,2.3,1.1c0.6,0,1.2-0.1,1.6-0.2s0.9-0.4,1.5-0.6l0.2,0.8C1013.3,733.4,1012.2,733.7,1011,733.7z M1007.8,727.9h5.5
			c0-1.1-0.2-1.9-0.7-2.5s-1.1-0.9-1.9-0.9c-0.8,0-1.5,0.3-2,0.9S1007.9,726.9,1007.8,727.9z"/>
		<path fill="#59A1C9" d="M1018.3,733.5l-2.7-9.6h1.1l2.2,8.6c1.6-5.1,2.5-8,2.7-8.6h1.3c1.8,5.7,2.6,8.6,2.7,8.6l2.1-8.6h1.1
			l-2.6,9.6h-1.3c0,0-0.4-1.3-1.2-4.1s-1.3-4.3-1.4-4.8c-0.1,0.3-0.3,1.2-0.8,2.7s-0.9,2.9-1.3,4.2s-0.6,2-0.7,2H1018.3z"/>
	</g>
	<g>
		<g>
			<line fill="none" stroke="#204056" stroke-miterlimit="10" x1="1110.2" y1="712.5" x2="1159.1" y2="712.5"/>
			<g>
				<polygon fill="#204056" points="1155.8,716.6 1155.1,715.8 1158.7,712.5 1155.1,709.1 1155.8,708.4 1160.2,712.5 				"/>
			</g>
		</g>
	</g>
	<g>
		<g>
			<line fill="none" stroke="#204056" stroke-miterlimit="10" x1="1111.3" y1="742.5" x2="1160.2" y2="742.5"/>
			<g>
				<polygon fill="#204056" points="1114.6,746.6 1115.3,745.8 1111.7,742.5 1115.3,739.1 1114.6,738.4 1110.2,742.5 				"/>
			</g>
		</g>
	</g>
	<g>
		<g>
			<line fill="none" stroke="#204056" stroke-miterlimit="10" x1="1360.2" y1="912.5" x2="1409.1" y2="912.5"/>
			<g>
				<polygon fill="#204056" points="1405.8,916.6 1405.1,915.8 1408.7,912.5 1405.1,909.1 1405.8,908.4 1410.2,912.5 				"/>
			</g>
		</g>
	</g>
	<g>
		<g>
			<line fill="none" stroke="#204056" stroke-miterlimit="10" x1="1361.3" y1="942.5" x2="1410.2" y2="942.5"/>
			<g>
				<polygon fill="#204056" points="1364.6,946.6 1365.3,945.8 1361.7,942.5 1365.3,939.1 1364.6,938.4 1360.2,942.5 				"/>
			</g>
		</g>
	</g>
	<line fill="none" stroke="#204056" stroke-miterlimit="10" x1="840" y1="223" x2="840" y2="1023"/>
	<g>
		<path fill="#204056" d="M627.8,608.6c-0.8,0-1.5-0.1-2.2-0.3s-1.2-0.5-1.7-0.9s-0.9-0.9-1.2-1.4s-0.6-1.2-0.8-1.8
			s-0.3-1.4-0.3-2.1c0-1.3,0.2-2.5,0.7-3.5s1.2-1.8,2.2-2.4s2.1-0.9,3.5-0.9c1.5,0,2.8,0.3,3.9,1l-0.5,0.9c-0.5-0.3-1-0.5-1.6-0.7
			s-1.2-0.3-1.8-0.3c-0.9,0-1.6,0.2-2.3,0.5s-1.2,0.7-1.6,1.3s-0.7,1.2-0.9,1.9s-0.3,1.5-0.3,2.3c0,0.9,0.1,1.7,0.3,2.4
			s0.5,1.3,1,1.8s1,0.9,1.7,1.2s1.5,0.4,2.4,0.4c0.9,0,1.9-0.2,3-0.7v-4.2h-3.2l0.1-1h4.2v5.8c-0.7,0.4-1.4,0.6-2.1,0.8
			S628.7,608.6,627.8,608.6z"/>
		<path fill="#204056" d="M635.1,608.4v-13.1h7.3l0,0.9h-6.1v4.9h5.8v1h-5.8v5.3h6.3l-0.1,0.9H635.1z"/>
		<path fill="#204056" d="M647.7,608.4v-12.1h-4.1v-1h9.4v1h-4.1v12.1H647.7z"/>
	</g>
	<g>
		<path fill="#204056" d="M1458.2,608.4v-13.1h4c0.6,0,1.1,0.1,1.5,0.2s0.9,0.3,1.3,0.6s0.7,0.6,0.9,1s0.3,0.9,0.3,1.5
			c0,0.3,0,0.6,0,0.9s-0.1,0.5-0.2,0.8s-0.2,0.5-0.4,0.7s-0.3,0.4-0.6,0.6s-0.5,0.4-0.9,0.5s-0.7,0.2-1.2,0.3s-1,0.1-1.6,0.1
			c-0.6,0-1.3,0-2-0.1v6H1458.2z M1461.5,601.5c0.7,0,1.3-0.1,1.7-0.2s0.8-0.3,1.1-0.5s0.4-0.4,0.5-0.7s0.2-0.6,0.2-0.7s0-0.5,0-0.8
			c0,0,0,0,0-0.1c0-0.8-0.3-1.3-0.8-1.7s-1.2-0.6-2-0.6h-2.9v5.1C1459.9,601.5,1460.6,601.5,1461.5,601.5z"/>
		<path fill="#204056" d="M1474.1,608.6c-1,0-1.9-0.2-2.7-0.5s-1.4-0.8-1.9-1.4s-0.9-1.3-1.1-2.1s-0.4-1.7-0.4-2.7
			c0-2.1,0.5-3.7,1.6-4.9s2.6-1.8,4.5-1.8c1.9,0,3.4,0.6,4.5,1.8s1.6,2.9,1.6,4.9c0,1-0.1,1.9-0.4,2.7s-0.6,1.5-1.1,2.1
			s-1.1,1.1-1.9,1.4S1475,608.6,1474.1,608.6z M1474.1,607.7c1.1,0,2-0.2,2.7-0.7s1.3-1.2,1.6-2s0.5-1.9,0.5-3.1
			c0-1.9-0.4-3.3-1.2-4.3s-2-1.5-3.6-1.5c-1.6,0-2.8,0.5-3.7,1.5s-1.3,2.4-1.3,4.3c0,1.8,0.4,3.2,1.2,4.3S1472.4,607.7,1474.1,607.7
			z"/>
		<path fill="#204056" d="M1487,608.6c-1.1,0-2.1-0.1-2.9-0.4s-1.5-0.5-2-0.8l0.4-0.8c1.2,0.7,2.8,1,4.6,1c1,0,1.8-0.3,2.3-0.8
			s0.8-1.3,0.8-2.2c0-0.4,0-0.6-0.1-0.9s-0.2-0.5-0.4-0.7s-0.4-0.4-0.8-0.6s-0.8-0.3-1.3-0.4l-2.1-0.4c-1.2-0.2-2.1-0.6-2.7-1.1
			s-0.9-1.2-0.9-2.2c0-0.6,0.1-1.1,0.4-1.6s0.6-0.8,1-1.1s1-0.5,1.5-0.6s1.2-0.2,2-0.2c0.7,0,1.5,0.1,2.2,0.3s1.3,0.4,1.7,0.6
			l-0.3,0.9c-0.3-0.2-0.9-0.4-1.5-0.5s-1.4-0.3-2.1-0.3c-1.2,0-2.2,0.2-2.8,0.6s-0.9,1.1-0.9,2c0,0.6,0.2,1,0.6,1.3s1,0.6,1.7,0.8
			l2.4,0.5c0.6,0.1,1.1,0.3,1.5,0.4s0.8,0.4,1.1,0.7s0.5,0.6,0.7,1s0.2,0.9,0.2,1.4c0,1.2-0.4,2.2-1.2,2.9S1488.3,608.6,1487,608.6z
			"/>
		<path fill="#204056" d="M1496.3,608.4v-12.1h-4.1v-1h9.4v1h-4.1v12.1H1496.3z"/>
	</g>
</g>
<g id="_x32_.3" display="none">
	<g display="inline">
		<g>
			<path fill="none" stroke="#204056" stroke-miterlimit="10" d="M392.5,680.2c-1.7-9-2.5-18.2-2.5-27.7c0-65,41.4-120.4,99.3-141.2
				"/>
			<g>
				<polygon fill="#204056" points="487.6,516.3 486.7,515.8 488.9,511.4 484.4,509.6 484.8,508.6 490.3,510.9 				"/>
			</g>
		</g>
	</g>
	<g display="inline">
		<g>
			<path fill="none" stroke="#204056" stroke-miterlimit="10" d="M638,766c-26.3,22.7-60.6,36.5-98,36.5
				c-36.3,0-69.6-12.9-95.5-34.4"/>
			<g>
				<polygon fill="#204056" points="449.6,767 449.7,768 444.8,768.4 445.5,773.2 444.5,773.4 443.6,767.4 				"/>
			</g>
		</g>
	</g>
	<g display="inline">
		<g>
			<path fill="none" stroke="#204056" stroke-miterlimit="10" d="M589,510.7c58.8,20.3,101,76.1,101,141.8c0,9.1-0.8,17.9-2.3,26.5"
				/>
			<g>
				<polygon fill="#204056" points="684.1,675.1 685,674.5 687.7,678.6 691.6,675.6 692.2,676.4 687.5,680.1 				"/>
			</g>
		</g>
	</g>
	<g display="inline">
		<g>
			<path fill="none" stroke="#204056" stroke-miterlimit="10" d="M1439.1,510.7c58.8,20.3,101,76.1,101,141.8
				c0,9.1-0.8,17.9-2.3,26.5"/>
			<g>
				<polygon fill="#204056" points="1534.2,675.1 1535.1,674.5 1537.8,678.6 1541.7,675.6 1542.3,676.4 1537.6,680.1 				"/>
			</g>
		</g>
	</g>
	<path display="inline" fill="#BDBFBF" d="M563.5,318.7c-9.2-2.1-17.7-4-13.6-11.8c12.6-23.7,3.3-36.4-10-36.4
		c-13.6,0-22.6,13.2-10,36.4c4.3,7.8-4.6,9.7-13.6,11.8c-7.6,1.8-8.4,5.4-8.5,11.7c0,2.2,1.8,4,4,4h56c2.2,0,4-1.8,4-4
		C571.9,324.1,571.2,320.5,563.5,318.7z"/>
	<path display="inline" fill="#FBCB44" d="M574.6,482.5H540c11,0,20,9,20,20c0,3.6-1,7-2.7,10l0,0l-17.3,30c22.1,0,40-17.9,40-40
		C580,495.2,578,488.4,574.6,482.5z"/>
	<path display="inline" fill="#34B67A" d="M540,522.5c-7.4,0-13.8-4-17.3-10l0,0l-17.3-30c-3.4,5.9-5.4,12.7-5.4,20
		c0,22.1,17.9,40,40,40l17.3-30l0,0C553.8,518.5,547.4,522.5,540,522.5z"/>
	<path display="inline" fill="#DC4437" d="M520,502.5c0-11,9-20,20-20h34.6c-6.9-12-19.8-20-34.6-20c-14.8,0-27.7,8-34.6,20l17.3,30
		l0,0C521,509.5,520,506.1,520,502.5z"/>
	<circle display="inline" fill="#4385F5" cx="540" cy="502.5" r="15"/>
	<g display="inline">
		<rect x="330.6" y="703" opacity="0.15" fill="#59A1C9" width="159" height="49"/>
		<path fill="#59A1C9" d="M489.1,703.5v48h-158v-48H489.1 M490.1,702.5h-160v50h160V702.5L490.1,702.5z"/>
	</g>
	
		<text transform="matrix(1 0 0 1 369.7583 733.4916)" display="inline" fill="#59A1C9" font-family="'Oxygen-Light'" font-size="18">Controller</text>
	<text transform="matrix(1 0 0 1 556.9854 408.6357)" display="inline" fill="#F65A5B" font-family="'Oxygen-Bold'" font-size="18">1</text>
	<text transform="matrix(1 0 0 1 119.9313 334.4382)" display="inline" fill="#F65A5B" font-family="'Oxygen-Bold'" font-size="18">First Turn</text>
	<text transform="matrix(1 0 0 1 957.4641 334.4382)" display="inline" fill="#F65A5B" font-family="'Oxygen-Bold'" font-size="18">Second Turn</text>
	<g display="inline">
		<rect x="590.4" y="703" opacity="0.15" fill="#59A1C9" width="159" height="49"/>
		<path fill="#59A1C9" d="M748.9,703.5v48h-158v-48H748.9 M749.9,702.5h-160v50h160V702.5L749.9,702.5z"/>
	</g>
	
		<text transform="matrix(1 0 0 1 621.7573 733.4916)" display="inline" fill="#59A1C9" font-family="'Oxygen-Light'" font-size="18">Rails Router</text>
	<text transform="matrix(1 0 0 1 691.2527 568.6361)" display="inline" fill="#F65A5B" font-family="'Oxygen-Bold'" font-size="18">2</text>
	<text transform="matrix(1 0 0 1 535.2627 778.6361)" display="inline" fill="#F65A5B" font-family="'Oxygen-Bold'" font-size="18">3</text>
	<text transform="matrix(1 0 0 1 279.5865 778.6357)" display="inline" fill="#F65A5B" font-family="'Oxygen-Bold'" font-size="18">4</text>
	<text transform="matrix(1 0 0 1 280.0914 693.6357)" display="inline" fill="#F65A5B" font-family="'Oxygen-Bold'" font-size="18">5</text>
	<text transform="matrix(1 0 0 1 377.8205 568.6361)" display="inline" fill="#F65A5B" font-family="'Oxygen-Bold'" font-size="18">6</text>
	<text transform="matrix(1 0 0 1 507.1324 567.492)" display="inline" fill="#4385F5" font-family="'Oxygen-Light'" font-size="18">Browser</text>
	<g display="inline">
		<g>
			<line fill="none" stroke="#204056" stroke-miterlimit="10" x1="540" y1="441.4" x2="540" y2="354.5"/>
			<g>
				<polygon fill="#204056" points="544.1,438.1 543.4,437.4 540,441 536.6,437.4 535.9,438.1 540,442.5 				"/>
			</g>
		</g>
	</g>
	<g display="inline">
		<rect x="80.6" y="703" opacity="0.15" fill="#59A1C9" width="159" height="49"/>
		<path fill="#59A1C9" d="M239.1,703.5v48h-158v-48H239.1 M240.1,702.5h-160v50h160V702.5L240.1,702.5z"/>
	</g>
	
		<text transform="matrix(1 0 0 1 141.1881 733.4916)" display="inline" fill="#59A1C9" font-family="'Oxygen-Light'" font-size="18">View</text>
	<g display="inline">
		<g>
			<line fill="none" stroke="#204056" stroke-miterlimit="10" x1="260.1" y1="712.5" x2="309" y2="712.5"/>
			<g>
				<polygon fill="#204056" points="305.7,716.6 305,715.8 308.6,712.5 305,709.1 305.7,708.4 310.1,712.5 				"/>
			</g>
		</g>
	</g>
	<g display="inline">
		<g>
			<line fill="none" stroke="#204056" stroke-miterlimit="10" x1="261.2" y1="742.5" x2="310.1" y2="742.5"/>
			<g>
				<polygon fill="#204056" points="264.5,746.6 265.2,745.8 261.6,742.5 265.2,739.1 264.5,738.4 260.1,742.5 				"/>
			</g>
		</g>
	</g>
	<g display="inline" opacity="0.5">
		<g>
			<rect x="330.6" y="903" opacity="0.15" fill="#59A1C9" width="159" height="49"/>
			<path fill="#59A1C9" d="M489.1,903.5v48h-158v-48H489.1 M490.1,902.5h-160v50h160V902.5L490.1,902.5z"/>
		</g>
		<text transform="matrix(1 0 0 1 384.3833 933.475)" fill="#59A1C9" font-family="'Oxygen-Light'" font-size="18">Model</text>
		<text transform="matrix(1 0 0 1 673.0025 933.475)" fill="#4A4A4C" font-family="'Oxygen-Light'" font-size="18">Database</text>
		<g>
			<path opacity="0.15" fill="#4A4A4C" d="M618,880c-19.3,0-35,4.5-35,10v75c0,5.5,15.7,10,35,10s35-4.5,35-10v-75
				C653,884.5,637.3,880,618,880z"/>
			<ellipse fill="none" stroke="#4A4A4C" stroke-miterlimit="10" cx="618" cy="890" rx="35" ry="10"/>
			<path fill="none" stroke="#4A4A4C" stroke-miterlimit="10" d="M653,915c0,5.5-15.7,10-35,10s-35-4.5-35-10"/>
			<path fill="none" stroke="#4A4A4C" stroke-miterlimit="10" d="M653,940c0,5.5-15.7,10-35,10s-35-4.5-35-10"/>
			<path fill="none" stroke="#4A4A4C" stroke-miterlimit="10" d="M583,890v75c0,5.5,15.7,10,35,10s35-4.5,35-10v-75"/>
		</g>
		<g>
			<g>
				<line fill="none" stroke="#204056" stroke-miterlimit="10" x1="510.1" y1="912.5" x2="559" y2="912.5"/>
				<g>
					<polygon fill="#204056" points="555.7,916.6 555,915.8 558.6,912.5 555,909.1 555.7,908.4 560.1,912.5 					"/>
				</g>
			</g>
		</g>
		<g>
			<g>
				<line fill="none" stroke="#204056" stroke-miterlimit="10" x1="511.2" y1="942.5" x2="560.1" y2="942.5"/>
				<g>
					<polygon fill="#204056" points="514.5,946.6 515.2,945.8 511.6,942.5 515.2,939.1 514.5,938.4 510.1,942.5 					"/>
				</g>
			</g>
		</g>
	</g>
	<g display="inline">
		<rect x="1180.7" y="903" opacity="0.15" fill="#59A1C9" width="159" height="49"/>
		<path fill="#59A1C9" d="M1339.2,903.5v48h-158v-48H1339.2 M1340.2,902.5h-160v50h160V902.5L1340.2,902.5z"/>
	</g>
	
		<text transform="matrix(1 0 0 1 1234.4795 933.475)" display="inline" fill="#59A1C9" font-family="'Oxygen-Light'" font-size="18">Model</text>
	
		<text transform="matrix(1 0 0 1 1523.0986 933.475)" display="inline" fill="#4A4A4C" font-family="'Oxygen-Light'" font-size="18">Database</text>
	<g display="inline">
		<path opacity="0.15" fill="#4A4A4C" d="M1468.1,880c-19.3,0-35,4.5-35,10v75c0,5.5,15.7,10,35,10c19.3,0,35-4.5,35-10v-75
			C1503.1,884.5,1487.4,880,1468.1,880z"/>
		<ellipse fill="none" stroke="#4A4A4C" stroke-miterlimit="10" cx="1468.1" cy="890" rx="35" ry="10"/>
		<path fill="none" stroke="#4A4A4C" stroke-miterlimit="10" d="M1503.1,915c0,5.5-15.7,10-35,10c-19.3,0-35-4.5-35-10"/>
		<path fill="none" stroke="#4A4A4C" stroke-miterlimit="10" d="M1503.1,940c0,5.5-15.7,10-35,10c-19.3,0-35-4.5-35-10"/>
		<path fill="none" stroke="#4A4A4C" stroke-miterlimit="10" d="M1433.1,890v75c0,5.5,15.7,10,35,10c19.3,0,35-4.5,35-10v-75"/>
	</g>
	<g display="inline">
		<g>
			<path fill="none" stroke="#204056" stroke-miterlimit="10" d="M1242.6,680.2c-1.7-9-2.5-18.2-2.5-27.7
				c0-65,41.4-120.4,99.3-141.2"/>
			<g>
				<polygon fill="#204056" points="1337.7,516.3 1336.8,515.8 1339,511.4 1334.5,509.6 1334.9,508.6 1340.4,510.9 				"/>
			</g>
		</g>
	</g>
	<g display="inline">
		<g>
			<path fill="none" stroke="#204056" stroke-miterlimit="10" d="M1488.1,766c-26.3,22.7-60.6,36.5-98,36.5
				c-36.3,0-69.6-12.9-95.5-34.4"/>
			<g>
				<polygon fill="#204056" points="1299.7,767 1299.8,768 1294.9,768.4 1295.6,773.2 1294.6,773.4 1293.7,767.4 				"/>
			</g>
		</g>
	</g>
	<path display="inline" fill="#BDBFBF" d="M1413.6,318.7c-9.2-2.1-17.7-4-13.6-11.8c12.6-23.7,3.3-36.4-10-36.4
		c-13.6,0-22.6,13.2-10,36.4c4.3,7.8-4.6,9.7-13.6,11.8c-7.6,1.8-8.4,5.4-8.5,11.7c0,2.2,1.8,4,4,4h56c2.2,0,4-1.8,4-4
		C1422,324.1,1421.3,320.5,1413.6,318.7z"/>
	<path display="inline" fill="#FBCB44" d="M1424.7,482.5h-34.6c11,0,20,9,20,20c0,3.6-1,7-2.7,10l0,0l-17.3,30c22.1,0,40-17.9,40-40
		C1430.1,495.2,1428.1,488.4,1424.7,482.5z"/>
	<path display="inline" fill="#34B67A" d="M1390.1,522.5c-7.4,0-13.8-4-17.3-10l0,0l-17.3-30c-3.4,5.9-5.4,12.7-5.4,20
		c0,22.1,17.9,40,40,40l17.3-30l0,0C1403.9,518.5,1397.5,522.5,1390.1,522.5z"/>
	<path display="inline" fill="#DC4437" d="M1370.1,502.5c0-11,9-20,20-20h34.6c-6.9-12-19.8-20-34.6-20c-14.8,0-27.7,8-34.6,20
		l17.3,30l0,0C1371.1,509.5,1370.1,506.1,1370.1,502.5z"/>
	<circle display="inline" fill="#4385F5" cx="1390.1" cy="502.5" r="15"/>
	<g display="inline">
		<rect x="1180.7" y="703" opacity="0.15" fill="#59A1C9" width="159" height="49"/>
		<path fill="#59A1C9" d="M1339.2,703.5v48h-158v-48H1339.2 M1340.2,702.5h-160v50h160V702.5L1340.2,702.5z"/>
	</g>
	
		<text transform="matrix(1 0 0 1 1219.8545 733.4916)" display="inline" fill="#59A1C9" font-family="'Oxygen-Light'" font-size="18">Controller</text>
	
		<text transform="matrix(1 0 0 1 1407.0815 408.6357)" display="inline" fill="#F65A5B" font-family="'Oxygen-Bold'" font-size="18">1</text>
	<g display="inline">
		<rect x="1440.5" y="703" opacity="0.15" fill="#59A1C9" width="159" height="49"/>
		<path fill="#59A1C9" d="M1599,703.5v48h-158v-48H1599 M1600,702.5h-160v50h160V702.5L1600,702.5z"/>
	</g>
	
		<text transform="matrix(1 0 0 1 1471.8535 733.4916)" display="inline" fill="#59A1C9" font-family="'Oxygen-Light'" font-size="18">Rails Router</text>
	
		<text transform="matrix(1 0 0 1 1541.3489 568.6361)" display="inline" fill="#F65A5B" font-family="'Oxygen-Bold'" font-size="18">2</text>
	
		<text transform="matrix(1 0 0 1 1385.3589 778.6361)" display="inline" fill="#F65A5B" font-family="'Oxygen-Bold'" font-size="18">3</text>
	
		<text transform="matrix(1 0 0 1 1129.8936 778.6357)" display="inline" fill="#F65A5B" font-family="'Oxygen-Bold'" font-size="18">6</text>
	
		<text transform="matrix(1 0 0 1 1130.6357 693.6357)" display="inline" fill="#F65A5B" font-family="'Oxygen-Bold'" font-size="18">7</text>
	
		<text transform="matrix(1 0 0 1 1228.1531 568.6361)" display="inline" fill="#F65A5B" font-family="'Oxygen-Bold'" font-size="18">8</text>
	
		<text transform="matrix(1 0 0 1 1357.2285 567.492)" display="inline" fill="#4385F5" font-family="'Oxygen-Light'" font-size="18">Browser</text>
	<g display="inline">
		<g>
			<line fill="none" stroke="#204056" stroke-miterlimit="10" x1="1390.1" y1="441.4" x2="1390.1" y2="354.5"/>
			<g>
				<polygon fill="#204056" points="1394.2,438.1 1393.5,437.4 1390.1,441 1386.7,437.4 1386,438.1 1390.1,442.5 				"/>
			</g>
		</g>
	</g>
	
		<text transform="matrix(1 0 0 1 1294.5903 838.6357)" display="inline" fill="#F65A5B" font-family="'Oxygen-Bold'" font-size="18">4</text>
	
		<text transform="matrix(1 0 0 1 1215.0952 838.6357)" display="inline" fill="#F65A5B" font-family="'Oxygen-Bold'" font-size="18">5</text>
	<g display="inline">
		<g>
			<line fill="none" stroke="#204056" stroke-miterlimit="10" x1="1280.1" y1="871.4" x2="1280.1" y2="784.5"/>
			<g>
				<polygon fill="#204056" points="1284.2,868.1 1283.5,867.4 1280.1,871 1276.7,867.4 1276,868.1 1280.1,872.5 				"/>
			</g>
		</g>
	</g>
	<g display="inline">
		<g>
			<line fill="none" stroke="#204056" stroke-miterlimit="10" x1="1240.1" y1="872.5" x2="1240.1" y2="785.5"/>
			<g>
				<polygon fill="#204056" points="1244.2,788.9 1243.5,789.5 1240.1,785.9 1236.7,789.5 1236,788.9 1240.1,784.5 				"/>
			</g>
		</g>
	</g>
	<g display="inline">
		<rect x="930.7" y="703" opacity="0.15" fill="#59A1C9" width="159" height="49"/>
		<path fill="#59A1C9" d="M1089.2,703.5v48h-158v-48H1089.2 M1090.2,702.5h-160v50h160V702.5L1090.2,702.5z"/>
	</g>
	
		<text transform="matrix(1 0 0 1 991.2843 733.4916)" display="inline" fill="#59A1C9" font-family="'Oxygen-Light'" font-size="18">View</text>
	<g display="inline">
		<g>
			<line fill="none" stroke="#204056" stroke-miterlimit="10" x1="1110.2" y1="712.5" x2="1159.1" y2="712.5"/>
			<g>
				<polygon fill="#204056" points="1155.8,716.6 1155.1,715.8 1158.7,712.5 1155.1,709.1 1155.8,708.4 1160.2,712.5 				"/>
			</g>
		</g>
	</g>
	<g display="inline">
		<g>
			<line fill="none" stroke="#204056" stroke-miterlimit="10" x1="1111.3" y1="742.5" x2="1160.2" y2="742.5"/>
			<g>
				<polygon fill="#204056" points="1114.6,746.6 1115.3,745.8 1111.7,742.5 1115.3,739.1 1114.6,738.4 1110.2,742.5 				"/>
			</g>
		</g>
	</g>
	<g display="inline">
		<g>
			<line fill="none" stroke="#204056" stroke-miterlimit="10" x1="1360.2" y1="912.5" x2="1409.1" y2="912.5"/>
			<g>
				<polygon fill="#204056" points="1405.8,916.6 1405.1,915.8 1408.7,912.5 1405.1,909.1 1405.8,908.4 1410.2,912.5 				"/>
			</g>
		</g>
	</g>
	<g display="inline">
		<g>
			<line fill="none" stroke="#204056" stroke-miterlimit="10" x1="1361.3" y1="942.5" x2="1410.2" y2="942.5"/>
			<g>
				<polygon fill="#204056" points="1364.6,946.6 1365.3,945.8 1361.7,942.5 1365.3,939.1 1364.6,938.4 1360.2,942.5 				"/>
			</g>
		</g>
	</g>
	<line display="inline" fill="none" stroke="#204056" stroke-miterlimit="10" x1="840" y1="223" x2="840" y2="1023"/>
	
		<text transform="matrix(1 0 0 1 620.5443 608.3813)" display="inline" fill="#204056" font-family="'Oxygen-Light'" font-size="18">GET</text>
	
		<text transform="matrix(1 0 0 1 1469.5161 608.3813)" display="inline" fill="#204056" font-family="'Oxygen-Light'" font-size="18">PUT</text>
</g>
</svg>
