<?xml version="1.0" encoding="utf-8"?>
<!-- Generator: Adobe Illustrator 18.1.1, SVG Export Plug-In . SVG Version: 6.00 Build 0)  -->
<!DOCTYPE svg PUBLIC "-//W3C//DTD SVG 1.1//EN" "http://www.w3.org/Graphics/SVG/1.1/DTD/svg11.dtd">
<svg version="1.1" xmlns="http://www.w3.org/2000/svg" xmlns:xlink="http://www.w3.org/1999/xlink" x="0px" y="0px"
	 viewBox="0 0 670 560" enable-background="new 0 0 670 560" xml:space="preserve">
<g id="FLOW01" display="none">
	<circle display="inline" fill="none" stroke="#F65A5B" stroke-miterlimit="10" cx="460" cy="130.4" r="150"/>
	<circle display="inline" fill="none" stroke="#F65A5B" stroke-miterlimit="10" cx="460" cy="-19.6" r="100"/>
	<circle display="inline" fill="none" stroke="#F65A5B" stroke-miterlimit="10" cx="243.5" cy="255.4" r="100"/>
	<circle display="inline" fill="none" stroke="#F65A5B" stroke-miterlimit="10" cx="280.1" cy="118.8" r="100"/>
	<circle display="inline" fill="none" stroke="#F65A5B" stroke-miterlimit="10" cx="380.1" cy="292" r="100"/>
	<g display="inline">
		<rect x="-130.5" y="411.9" opacity="0.15" fill="#59A1C9" width="199" height="49"/>
		<path fill="#59A1C9" d="M68,412.4v48h-198v-48H68 M69,411.4h-200v50H69V411.4L69,411.4z"/>
	</g>
	
		<text transform="matrix(1 0 0 1 -71.3354 442.4094)" display="inline" fill="#59A1C9" font-family="'Oxygen-Light'" font-size="18">Controller</text>
</g>
<g id="STATIC_x5F_RAILS">
	<g>
		<g>
			<path fill="none" stroke="#204056" stroke-miterlimit="10" d="M312.6,410.6c-1.7-9-2.5-18.2-2.5-27.7c0-65,41.4-120.4,99.3-141.2
				"/>
			<g>
				<polygon fill="#204056" points="407.6,246.7 406.7,246.2 408.9,241.8 404.4,240 404.8,239 410.3,241.3 				"/>
			</g>
		</g>
	</g>
	<g>
		<g>
			<path fill="none" stroke="#204056" stroke-miterlimit="10" d="M558,496.4c-26.3,22.7-60.6,36.5-98,36.5
				c-36.3,0-69.6-12.9-95.5-34.4"/>
			<g>
				<polygon fill="#204056" points="369.6,497.4 369.7,498.4 364.8,498.8 365.5,503.6 364.5,503.8 363.6,497.8 				"/>
			</g>
		</g>
	</g>
	<g>
		<g>
			<path fill="none" stroke="#204056" stroke-miterlimit="10" d="M509,241.1c58.8,20.3,101,76.1,101,141.8c0,9.1-0.8,17.9-2.3,26.5"
				/>
			<g>
				<polygon fill="#204056" points="604.1,405.5 605,404.9 607.7,409 611.6,406 612.2,406.8 607.5,410.5 				"/>
			</g>
		</g>
	</g>
	<path fill="#BDBFBF" d="M483.5,49.1c-9.2-2.1-17.7-4-13.6-11.8C482.5,13.6,473.3,1,460,1c-13.6,0-22.6,13.2-10,36.4
		c4.3,7.8-4.6,9.7-13.6,11.8c-7.6,1.8-8.4,5.4-8.5,11.7c0,2.2,1.8,4,4,4h56c2.2,0,4-1.8,4-4C492,54.5,491.2,50.9,483.5,49.1z"/>
	<path fill="#FBCB44" d="M494.6,212.9H460c11,0,20,9,20,20c0,3.6-1,7-2.7,10l0,0l-17.3,30c22.1,0,40-17.9,40-40
		C500,225.6,498,218.8,494.6,212.9z"/>
	<path fill="#34B67A" d="M460,252.9c-7.4,0-13.8-4-17.3-10l0,0l-17.3-30c-3.4,5.9-5.4,12.7-5.4,20c0,22.1,17.9,40,40,40l17.3-30l0,0
		C473.9,248.9,467.4,252.9,460,252.9z"/>
	<path fill="#DC4437" d="M440,232.9c0-11,9-20,20-20h34.6c-6.9-12-19.8-20-34.6-20c-14.8,0-27.7,8-34.6,20l17.3,30l0,0
		C441,240,440,236.5,440,232.9z"/>
	<circle fill="#4385F5" cx="460" cy="232.9" r="15"/>
	<g>
		<rect x="250.6" y="433.4" opacity="0.15" fill="#59A1C9" width="159" height="49"/>
		<path fill="#59A1C9" d="M409.1,433.9v48h-158v-48H409.1 M410.1,432.9h-160v50h160V432.9L410.1,432.9z"/>
	</g>
	<g>
		<path fill="#59A1C9" d="M297,464.1c-1,0-1.9-0.2-2.7-0.5s-1.4-0.8-1.9-1.4c-0.5-0.6-0.9-1.3-1.1-2.1c-0.3-0.8-0.4-1.7-0.4-2.7
			c0-1.3,0.2-2.5,0.7-3.5c0.5-1,1.2-1.8,2.1-2.4s2.1-0.9,3.4-0.9c1.4,0,2.6,0.3,3.6,0.9l-0.5,0.9c-0.9-0.6-1.9-0.8-3.1-0.8
			c-0.8,0-1.5,0.2-2.2,0.5s-1.2,0.7-1.6,1.3s-0.7,1.2-0.9,1.9s-0.3,1.5-0.3,2.3c0,0.8,0.1,1.5,0.3,2.2c0.2,0.7,0.5,1.3,0.9,1.8
			c0.4,0.5,0.9,1,1.6,1.3s1.4,0.5,2.3,0.5c0.9,0,1.9-0.3,3.1-0.8l0.2,0.9C299.6,463.8,298.5,464.1,297,464.1z"/>
		<path fill="#59A1C9" d="M306.4,464.1c-0.9,0-1.6-0.2-2.3-0.7c-0.7-0.4-1.2-1-1.5-1.8s-0.5-1.6-0.5-2.6c0-0.7,0.1-1.4,0.3-2
			c0.2-0.6,0.5-1.1,0.9-1.6s0.8-0.8,1.4-1.1s1.2-0.4,1.9-0.4c0.9,0,1.7,0.2,2.3,0.7s1.2,1,1.5,1.8s0.5,1.6,0.5,2.6
			c0,1-0.2,1.8-0.5,2.6s-0.8,1.3-1.5,1.8S307.3,464.1,306.4,464.1z M306.4,463.2c0.7,0,1.3-0.2,1.8-0.6c0.5-0.4,0.8-0.9,1.1-1.5
			c0.2-0.6,0.3-1.3,0.3-2.1c0-1.2-0.3-2.2-0.8-3s-1.3-1.1-2.4-1.1c-0.7,0-1.3,0.2-1.8,0.6s-0.9,0.9-1.1,1.5s-0.3,1.3-0.3,2.1
			c0,1.2,0.3,2.2,0.8,3C304.6,462.9,305.4,463.2,306.4,463.2z"/>
		<path fill="#59A1C9" d="M312.9,463.9v-9.6h0.9l0.1,1.5c0.3-0.5,0.8-0.9,1.4-1.2s1.2-0.4,1.9-0.4c1.1,0,1.9,0.3,2.4,0.9
			s0.8,1.6,0.8,2.9v6h-1.1v-6.5c0-0.9-0.2-1.5-0.5-1.8s-0.9-0.6-1.6-0.6c-0.9,0-1.6,0.2-2.1,0.7c-0.6,0.4-0.9,1-1,1.7
			c0,0.3,0,0.6,0,0.9v5.7H312.9z"/>
		<path fill="#59A1C9" d="M325.7,464.1c-0.8,0-1.4-0.2-1.8-0.5s-0.6-1-0.6-1.8v-6.7H322l0.1-0.7l1.3-0.1l0.3-2.2l0.8-0.1v2.2h2.8
			v0.8h-2.8v6.5c0,0.7,0.1,1.1,0.3,1.4s0.6,0.3,1.2,0.3c0.4,0,0.8-0.1,1.4-0.2l0,0.8C326.7,464,326.1,464.1,325.7,464.1z"/>
		<path fill="#59A1C9" d="M329,463.9c0-5.7,0-8.9,0-9.6h0.9l0.1,1.9c0.3-0.6,0.8-1,1.3-1.4s1.1-0.5,1.7-0.5c0.2,0,0.5,0,0.8,0.1
			l-0.1,0.9c-0.2,0-0.4-0.1-0.7-0.1c-0.8,0-1.5,0.3-2.1,1c-0.6,0.6-0.8,1.4-0.8,2.3v5.5H329z"/>
		<path fill="#59A1C9" d="M339,464.1c-0.9,0-1.6-0.2-2.3-0.7c-0.7-0.4-1.2-1-1.5-1.8s-0.5-1.6-0.5-2.6c0-0.7,0.1-1.4,0.3-2
			c0.2-0.6,0.5-1.1,0.9-1.6s0.8-0.8,1.4-1.1s1.2-0.4,1.9-0.4c0.9,0,1.7,0.2,2.3,0.7s1.2,1,1.5,1.8s0.5,1.6,0.5,2.6
			c0,1-0.2,1.8-0.5,2.6s-0.8,1.3-1.5,1.8S339.9,464.1,339,464.1z M339.1,463.2c0.7,0,1.3-0.2,1.8-0.6c0.5-0.4,0.8-0.9,1.1-1.5
			c0.2-0.6,0.3-1.3,0.3-2.1c0-1.2-0.3-2.2-0.8-3s-1.3-1.1-2.4-1.1c-0.7,0-1.3,0.2-1.8,0.6s-0.9,0.9-1.1,1.5s-0.3,1.3-0.3,2.1
			c0,1.2,0.3,2.2,0.8,3C337.2,462.9,338,463.2,339.1,463.2z"/>
		<path fill="#59A1C9" d="M348,464.1c-0.8,0-1.4-0.2-1.8-0.5s-0.6-1-0.6-1.8v-11.2l1.1-0.1v11.3c0,0.6,0.1,1,0.3,1.2
			c0.2,0.2,0.5,0.3,1,0.3c0.4,0,0.8-0.1,1.3-0.2l0,0.8C348.8,464,348.3,464.1,348,464.1z"/>
		<path fill="#59A1C9" d="M353.1,464.1c-0.8,0-1.4-0.2-1.8-0.5s-0.6-1-0.6-1.8v-11.2l1.1-0.1v11.3c0,0.6,0.1,1,0.3,1.2
			c0.2,0.2,0.5,0.3,1,0.3c0.4,0,0.8-0.1,1.3-0.2l0,0.8C353.9,464,353.4,464.1,353.1,464.1z"/>
		<path fill="#59A1C9" d="M359.7,464.1c-1.3,0-2.4-0.4-3.2-1.3c-0.8-0.9-1.2-2.1-1.2-3.6c0-1.5,0.4-2.7,1.1-3.6
			c0.8-0.9,1.8-1.4,3-1.5c1.1,0,2,0.4,2.7,1.2s1,1.9,1,3.3c0,0.1,0,0.2,0,0.3c0,0.2,0,0.3,0,0.3h-6.7c0,1.2,0.3,2.2,0.9,2.9
			s1.4,1.1,2.3,1.1c0.6,0,1.2-0.1,1.6-0.2s0.9-0.4,1.5-0.6l0.2,0.8C362,463.8,360.9,464.1,359.7,464.1z M356.5,458.3h5.5
			c0-1.1-0.2-1.9-0.7-2.5s-1.1-0.9-1.9-0.9c-0.8,0-1.5,0.3-2,0.9S356.6,457.3,356.5,458.3z"/>
		<path fill="#59A1C9" d="M365.4,463.9c0-5.7,0-8.9,0-9.6h0.9l0.1,1.9c0.3-0.6,0.8-1,1.3-1.4s1.1-0.5,1.7-0.5c0.2,0,0.5,0,0.8,0.1
			l-0.1,0.9c-0.2,0-0.4-0.1-0.7-0.1c-0.8,0-1.5,0.3-2.1,1c-0.6,0.6-0.8,1.4-0.8,2.3v5.5H365.4z"/>
	</g>
	<g>
		<path fill="#F65A5B" d="M499.7,139v-10.7c-0.1,0.1-0.5,0.2-1.1,0.5c-0.7,0.3-1.1,0.4-1.1,0.5v-1.8c0.1-0.1,0.6-0.3,1.3-0.7
			s1.2-0.6,1.2-0.6h1.9V139H499.7z"/>
	</g>
	<g>
		<rect x="510.4" y="433.4" opacity="0.15" fill="#59A1C9" width="159" height="49"/>
		<path fill="#59A1C9" d="M668.9,433.9v48h-158v-48H668.9 M669.9,432.9h-160v50h160V432.9L669.9,432.9z"/>
	</g>
	<g>
		<path fill="#59A1C9" d="M543.4,463.9v-13.1h3.7c0.5,0,0.9,0,1.2,0c0.3,0,0.7,0.1,1.1,0.1s0.7,0.1,0.9,0.2c0.3,0.1,0.5,0.2,0.7,0.4
			c0.2,0.2,0.4,0.4,0.6,0.6s0.2,0.5,0.3,0.8c0.1,0.3,0.1,0.7,0.1,1.1c0,0.8-0.2,1.5-0.6,2.1s-1,1-1.8,1.2c0.4,0.7,0.6,1.3,0.8,1.6
			l2.1,4.9h-1.3l-1.8-4.5c-0.1-0.3-0.4-0.9-0.8-1.9c-0.1,0-0.6,0-1.3,0l-2.8-0.1v6.4H543.4z M547.8,456.6c1.2,0,2-0.2,2.4-0.6
			s0.7-1,0.7-1.9c0-0.8-0.2-1.3-0.6-1.8c-0.4-0.4-1.1-0.6-2.1-0.6h-3.7v4.8C545.9,456.6,547,456.6,547.8,456.6z"/>
		<path fill="#59A1C9" d="M557.3,464.1c-0.9,0-1.6-0.2-2.2-0.7s-0.8-1.1-0.8-2c0-0.5,0.1-0.9,0.3-1.3s0.5-0.7,0.9-0.9
			c0.4-0.2,0.9-0.4,1.4-0.5c0.5-0.1,1.1-0.2,1.9-0.3c0.8,0,1.3-0.1,1.7-0.1v-1.1c0-0.7-0.2-1.3-0.5-1.7c-0.3-0.4-0.9-0.6-1.6-0.6
			c-1,0-2,0.2-2.9,0.7c0-0.1-0.1-0.2-0.2-0.4c-0.1-0.2-0.1-0.3-0.2-0.5c0.4-0.2,0.8-0.4,1.4-0.6s1.2-0.2,1.7-0.2
			c1.2,0,2,0.2,2.5,0.7s0.8,1.4,0.8,2.6v6.4h-0.9c0-0.1-0.1-0.4-0.1-0.8c-0.1-0.4-0.1-0.6-0.1-0.6
			C559.8,463.6,558.7,464.1,557.3,464.1z M557.4,463.2c0.8,0,1.4-0.2,2-0.7c0.6-0.4,1-1.1,1.1-1.8v-1.6c-0.8,0.1-1.3,0.1-1.3,0.1
			c-1.4,0.1-2.4,0.4-3,0.7s-0.8,0.9-0.8,1.6c0,0.6,0.2,1,0.5,1.3C556.3,463.1,556.8,463.2,557.4,463.2z"/>
		<path fill="#59A1C9" d="M564.3,452.3v-1.5h1.1v1.5H564.3z M564.3,463.9v-9.6h1.1v9.6H564.3z"/>
		<path fill="#59A1C9" d="M570.6,464.1c-0.8,0-1.4-0.2-1.8-0.5s-0.6-1-0.6-1.8v-11.2l1.1-0.1v11.3c0,0.6,0.1,1,0.3,1.2
			c0.2,0.2,0.5,0.3,1,0.3c0.4,0,0.8-0.1,1.3-0.2l0,0.8C571.4,464,570.9,464.1,570.6,464.1z"/>
		<path fill="#59A1C9" d="M576.1,464.1c-0.6,0-1.2-0.1-1.7-0.2s-1-0.3-1.3-0.5l0.2-0.9c1,0.5,1.9,0.8,2.8,0.8c1.6,0,2.4-0.6,2.5-1.8
			c0-0.5-0.2-0.9-0.5-1.2c-0.3-0.3-1-0.6-1.9-0.9c-0.5-0.2-0.8-0.3-0.8-0.3c-1.5-0.5-2.3-1.3-2.3-2.4c0-0.7,0.3-1.3,0.9-1.8
			c0.6-0.5,1.4-0.8,2.4-0.8s2,0.2,2.9,0.6l-0.4,0.8c-0.9-0.3-1.7-0.5-2.5-0.5c-0.7,0-1.2,0.2-1.6,0.5c-0.4,0.3-0.6,0.7-0.6,1.2
			c0,0.4,0.1,0.8,0.4,1c0.3,0.2,0.8,0.5,1.5,0.7c0.1,0,0.2,0.1,0.5,0.2c0.2,0.1,0.3,0.1,0.4,0.1c1,0.3,1.7,0.7,2.1,1.1
			c0.4,0.4,0.6,1,0.6,1.7c0,0.8-0.3,1.5-0.9,2C577.9,463.9,577.1,464.1,576.1,464.1z"/>
		<path fill="#59A1C9" d="M585.9,463.9v-13.1h3.7c0.5,0,0.9,0,1.2,0c0.3,0,0.7,0.1,1.1,0.1s0.7,0.1,0.9,0.2c0.3,0.1,0.5,0.2,0.7,0.4
			c0.2,0.2,0.4,0.4,0.6,0.6s0.2,0.5,0.3,0.8c0.1,0.3,0.1,0.7,0.1,1.1c0,0.8-0.2,1.5-0.6,2.1s-1,1-1.8,1.2c0.4,0.7,0.6,1.3,0.8,1.6
			l2.1,4.9h-1.3l-1.8-4.5c-0.1-0.3-0.4-0.9-0.8-1.9c-0.1,0-0.6,0-1.3,0l-2.8-0.1v6.4H585.9z M590.4,456.6c1.2,0,2-0.2,2.4-0.6
			s0.7-1,0.7-1.9c0-0.8-0.2-1.3-0.6-1.8c-0.4-0.4-1.1-0.6-2.1-0.6h-3.7v4.8C588.4,456.6,589.5,456.6,590.4,456.6z"/>
		<path fill="#59A1C9" d="M601.2,464.1c-0.9,0-1.6-0.2-2.3-0.7c-0.7-0.4-1.2-1-1.5-1.8c-0.3-0.8-0.5-1.6-0.5-2.6
			c0-0.7,0.1-1.4,0.3-2c0.2-0.6,0.5-1.1,0.9-1.6s0.8-0.8,1.4-1.1s1.2-0.4,1.9-0.4c0.9,0,1.7,0.2,2.3,0.7s1.2,1,1.5,1.8
			c0.3,0.7,0.5,1.6,0.5,2.6c0,1-0.2,1.8-0.5,2.6s-0.8,1.3-1.5,1.8S602.2,464.1,601.2,464.1z M601.3,463.2c0.7,0,1.3-0.2,1.8-0.6
			c0.5-0.4,0.8-0.9,1.1-1.5c0.2-0.6,0.3-1.3,0.3-2.1c0-1.2-0.3-2.2-0.8-3s-1.3-1.1-2.4-1.1c-0.7,0-1.3,0.2-1.8,0.6
			c-0.5,0.4-0.9,0.9-1.1,1.5s-0.3,1.3-0.3,2.1c0,1.2,0.3,2.2,0.8,3C599.5,462.9,600.3,463.2,601.3,463.2z"/>
		<path fill="#59A1C9" d="M611.4,464.1c-0.5,0-1-0.1-1.4-0.2c-0.4-0.1-0.8-0.3-1.2-0.5s-0.7-0.6-0.9-1c-0.2-0.4-0.3-1-0.3-1.6v-6.6
			h1.1v6.6c0,0.5,0.1,0.8,0.2,1.2s0.3,0.6,0.6,0.7s0.5,0.3,0.8,0.3s0.6,0.1,1,0.1c0.4,0,0.7,0,1-0.1s0.6-0.2,0.8-0.3
			s0.5-0.4,0.6-0.7c0.1-0.3,0.2-0.7,0.2-1.1v-6.6h1.1v6.6c0,0.5-0.1,0.9-0.2,1.3s-0.3,0.7-0.6,0.9s-0.5,0.5-0.8,0.6
			c-0.3,0.2-0.7,0.3-1,0.3C612.2,464.1,611.8,464.1,611.4,464.1z"/>
		<path fill="#59A1C9" d="M620.2,464.1c-0.8,0-1.4-0.2-1.8-0.5s-0.6-1-0.6-1.8v-6.7h-1.4l0.1-0.7l1.3-0.1l0.3-2.2l0.8-0.1v2.2h2.8
			v0.8H619v6.5c0,0.7,0.1,1.1,0.3,1.4s0.6,0.3,1.2,0.3c0.4,0,0.8-0.1,1.4-0.2l0,0.8C621.2,464,620.6,464.1,620.2,464.1z"/>
		<path fill="#59A1C9" d="M627.4,464.1c-1.3,0-2.4-0.4-3.2-1.3c-0.8-0.9-1.2-2.1-1.2-3.6c0-1.5,0.4-2.7,1.1-3.6
			c0.8-0.9,1.8-1.4,3-1.5c1.1,0,2,0.4,2.7,1.2s1,1.9,1,3.3c0,0.1,0,0.2,0,0.3c0,0.2,0,0.3,0,0.3h-6.7c0,1.2,0.3,2.2,0.9,2.9
			s1.4,1.1,2.3,1.1c0.6,0,1.2-0.1,1.6-0.2s0.9-0.4,1.4-0.6l0.2,0.8C629.7,463.8,628.6,464.1,627.4,464.1z M624.2,458.3h5.5
			c0-1.1-0.2-1.9-0.7-2.5s-1.1-0.9-1.9-0.9c-0.8,0-1.5,0.3-2,0.9S624.3,457.3,624.2,458.3z"/>
		<path fill="#59A1C9" d="M633.1,463.9c0-5.7,0-8.9,0-9.6h0.9l0.1,1.9c0.3-0.6,0.8-1,1.3-1.4s1.1-0.5,1.7-0.5c0.2,0,0.5,0,0.8,0.1
			l-0.1,0.9c-0.2,0-0.4-0.1-0.7-0.1c-0.8,0-1.5,0.3-2.1,1c-0.6,0.6-0.8,1.4-0.8,2.3v5.5H633.1z"/>
	</g>
	<g>
		<path fill="#F65A5B" d="M612,299l-0.1-1.9l4.1-4.6c0.5-0.5,0.9-1,1.1-1.5c0.2-0.5,0.3-0.9,0.3-1.4c0-0.6-0.2-1-0.5-1.3
			s-0.8-0.5-1.4-0.5c-0.5,0-1.1,0.1-1.6,0.3s-1,0.5-1.3,0.8l-0.7-1.7c0.9-0.8,2.1-1.2,3.7-1.2c1.3,0,2.3,0.3,3.1,1s1.2,1.5,1.2,2.7
			c0,0.8-0.2,1.6-0.7,2.3c-0.4,0.7-1,1.5-1.8,2.3l-2.9,3.1h5.2l-0.2,1.7H612z"/>
	</g>
	<g>
		<path fill="#F65A5B" d="M459.5,559.2c-0.8,0-1.5-0.1-2.1-0.3s-1.2-0.5-1.6-0.8l0.6-1.7c0.3,0.3,0.8,0.5,1.3,0.7s1.2,0.3,1.7,0.3
			c0.7,0,1.2-0.2,1.6-0.5c0.4-0.4,0.6-0.8,0.6-1.4c0-0.4-0.1-0.7-0.2-0.9c-0.1-0.3-0.3-0.5-0.5-0.6s-0.4-0.3-0.8-0.4
			c-0.3-0.1-0.6-0.2-1-0.2s-0.7-0.1-1.2-0.1c0,0-0.1,0-0.3,0s-0.2,0-0.3,0v-1.8h0.5c0.5,0,0.9,0,1.3-0.1s0.7-0.1,1-0.3
			s0.6-0.3,0.7-0.6c0.2-0.3,0.2-0.6,0.2-0.9c0-0.5-0.2-0.9-0.6-1.3s-0.9-0.5-1.6-0.5c-1.1,0-2.1,0.3-2.9,0.8l-0.6-1.7
			c1.1-0.7,2.3-1,3.8-1c1.2,0,2.2,0.3,3,1c0.8,0.6,1.2,1.5,1.2,2.5c0,0.7-0.2,1.3-0.5,1.8c-0.4,0.5-0.9,0.9-1.6,1.1
			c0.8,0.2,1.4,0.5,1.8,1.1c0.4,0.6,0.6,1.3,0.6,2.1c0,0.8-0.2,1.5-0.6,2s-1,1-1.7,1.3S460.4,559.2,459.5,559.2z"/>
	</g>
	<g>
		<path fill="#F65A5B" d="M206.2,509v-2.9h-5.8v-1.6l5.2-8.4h2.9v8.2h1.6l-0.1,1.7h-1.5v2.9H206.2z M202.7,504.5h3.5v-6L202.7,504.5
			z"/>
	</g>
	<g>
		<path fill="#F65A5B" d="M204.9,419.2c-0.6,0-1.2-0.1-1.8-0.3s-1.1-0.4-1.4-0.5s-0.5-0.3-0.6-0.4l0.7-1.7c0.1,0.1,0.3,0.2,0.5,0.3
			s0.6,0.3,1,0.5s0.9,0.3,1.4,0.3c0.8,0,1.4-0.2,1.9-0.7s0.6-1.1,0.6-1.8c0-0.7-0.2-1.3-0.6-1.7c-0.4-0.4-0.9-0.6-1.5-0.6
			c-0.7,0-1.4,0.3-2,0.9l-1.5-0.3l0.3-7h7l-0.1,1.8h-4.8c0,0.1,0,0.6-0.1,1.6s-0.1,1.5-0.1,1.6c0.5-0.3,1.1-0.4,1.6-0.4
			c1.2,0,2.1,0.4,2.9,1.1c0.7,0.8,1.1,1.8,1.1,3c0,1.3-0.4,2.3-1.2,3.1C207.4,418.8,206.3,419.2,204.9,419.2z"/>
	</g>
	<g>
		<path fill="#F65A5B" d="M303.2,299.2c-1.4,0-2.6-0.4-3.5-1.2s-1.3-1.8-1.3-3.1c0-0.4,0-0.8,0.1-1.2s0.2-0.7,0.4-1.1
			s0.4-0.7,0.5-0.9s0.4-0.6,0.7-1l3.7-4.6h2.7l-4,5c0.4-0.1,0.8-0.2,1.1-0.2c1.3,0,2.3,0.4,3.1,1.1s1.2,1.7,1.2,2.9
			c0,1.3-0.4,2.3-1.3,3S304.6,299.2,303.2,299.2z M303.1,297.5c0.8,0,1.4-0.2,1.8-0.7c0.4-0.4,0.7-1,0.7-1.7c0-0.8-0.2-1.4-0.6-1.8
			s-1-0.7-1.8-0.7c-0.8,0-1.4,0.2-1.8,0.7s-0.6,1-0.6,1.8c0,0.7,0.2,1.3,0.6,1.7S302.4,297.5,303.1,297.5z"/>
	</g>
	<g>
		<path fill="#4385F5" d="M428.9,297.9v-13.1h3.6c1.6,0,2.8,0.3,3.6,0.8c0.7,0.5,1.1,1.4,1.1,2.5c0,0.1,0,0.2,0,0.3
			c0,0.1,0,0.2,0,0.4s-0.1,0.4-0.1,0.5s-0.1,0.3-0.2,0.5s-0.2,0.4-0.4,0.5c-0.1,0.1-0.3,0.3-0.6,0.4s-0.5,0.3-0.8,0.4
			c0.9,0.1,1.6,0.5,2.1,1.1s0.7,1.3,0.7,2.1c0,1.2-0.4,2.1-1.1,2.7s-1.9,1-3.4,1H428.9z M430,290.7h3c0.5,0,0.9,0,1.2-0.1
			s0.6-0.2,0.9-0.4c0.3-0.2,0.5-0.4,0.6-0.8s0.2-0.7,0.2-1.2c0-0.9-0.3-1.5-0.8-1.9c-0.6-0.4-1.5-0.5-2.7-0.5H430V290.7z M430,297h3
			c2.4,0,3.6-0.9,3.6-2.8c0-1-0.3-1.7-1-2.1s-1.7-0.6-3.1-0.6H430V297z"/>
		<path fill="#4385F5" d="M439.7,297.9c0-5.7,0-8.9,0-9.6h0.9l0.1,1.9c0.3-0.6,0.8-1,1.3-1.4s1.1-0.5,1.7-0.5c0.2,0,0.5,0,0.8,0.1
			l-0.1,0.9c-0.2,0-0.4-0.1-0.7-0.1c-0.8,0-1.5,0.3-2.1,1c-0.6,0.6-0.8,1.4-0.8,2.3v5.5H439.7z"/>
		<path fill="#4385F5" d="M449.7,298.1c-0.9,0-1.6-0.2-2.3-0.7c-0.7-0.4-1.2-1-1.5-1.8s-0.5-1.6-0.5-2.6c0-0.7,0.1-1.4,0.3-2
			c0.2-0.6,0.5-1.1,0.9-1.6s0.8-0.8,1.4-1.1s1.2-0.4,1.9-0.4c0.9,0,1.7,0.2,2.3,0.7s1.2,1,1.5,1.8s0.5,1.6,0.5,2.6
			c0,1-0.2,1.8-0.5,2.6s-0.8,1.3-1.5,1.8S450.6,298.1,449.7,298.1z M449.8,297.2c0.7,0,1.3-0.2,1.8-0.6c0.5-0.4,0.8-0.9,1.1-1.5
			c0.2-0.6,0.3-1.3,0.3-2.1c0-1.2-0.3-2.2-0.8-3s-1.3-1.1-2.4-1.1c-0.7,0-1.3,0.2-1.8,0.6s-0.9,0.9-1.1,1.5s-0.3,1.3-0.3,2.1
			c0,1.2,0.3,2.2,0.8,3C447.9,296.9,448.7,297.2,449.8,297.2z"/>
		<path fill="#4385F5" d="M457.7,297.9l-2.7-9.6h1.1l2.2,8.6c1.6-5.1,2.5-8,2.7-8.6h1.3c1.8,5.7,2.6,8.6,2.7,8.6l2.1-8.6h1.1
			l-2.6,9.6h-1.3c0,0-0.4-1.3-1.2-4.1s-1.3-4.3-1.4-4.8c-0.1,0.3-0.3,1.2-0.8,2.7c-0.5,1.5-0.9,2.9-1.3,4.2s-0.6,2-0.7,2H457.7z"/>
		<path fill="#4385F5" d="M472.6,298.1c-0.6,0-1.2-0.1-1.7-0.2s-1-0.3-1.3-0.5l0.2-0.9c1,0.5,1.9,0.8,2.8,0.8c1.6,0,2.4-0.6,2.5-1.8
			c0-0.5-0.2-0.9-0.5-1.2c-0.3-0.3-1-0.6-1.9-0.9c-0.5-0.2-0.8-0.3-0.8-0.3c-1.5-0.5-2.3-1.3-2.3-2.4c0-0.7,0.3-1.3,0.9-1.8
			s1.4-0.8,2.4-0.8s2,0.2,2.9,0.6l-0.4,0.8c-0.9-0.3-1.7-0.5-2.5-0.5c-0.7,0-1.2,0.2-1.6,0.5c-0.4,0.3-0.6,0.7-0.6,1.2
			c0,0.4,0.1,0.8,0.4,1c0.3,0.2,0.8,0.5,1.5,0.7c0.1,0,0.2,0.1,0.5,0.2c0.2,0.1,0.3,0.1,0.4,0.1c1,0.3,1.7,0.7,2.1,1.1
			c0.4,0.4,0.6,1,0.6,1.7c0,0.8-0.3,1.5-0.9,2S473.7,298.1,472.6,298.1z"/>
		<path fill="#4385F5" d="M482,298.1c-1.3,0-2.4-0.4-3.2-1.3c-0.8-0.9-1.2-2.1-1.2-3.6c0-1.5,0.4-2.7,1.1-3.6c0.8-0.9,1.8-1.4,3-1.5
			c1.1,0,2,0.4,2.7,1.2s1,1.9,1,3.3c0,0.1,0,0.2,0,0.3c0,0.2,0,0.3,0,0.3h-6.7c0,1.2,0.3,2.2,0.9,2.9s1.4,1.1,2.3,1.1
			c0.6,0,1.2-0.1,1.6-0.2s0.9-0.4,1.5-0.6l0.2,0.8C484.3,297.8,483.2,298.1,482,298.1z M478.9,292.3h5.5c0-1.1-0.2-1.9-0.7-2.5
			s-1.1-0.9-1.9-0.9c-0.8,0-1.5,0.3-2,0.9S479,291.3,478.9,292.3z"/>
		<path fill="#4385F5" d="M487.7,297.9c0-5.7,0-8.9,0-9.6h0.9l0.1,1.9c0.3-0.6,0.8-1,1.3-1.4s1.1-0.5,1.7-0.5c0.2,0,0.5,0,0.8,0.1
			l-0.1,0.9c-0.2,0-0.4-0.1-0.7-0.1c-0.8,0-1.5,0.3-2.1,1c-0.6,0.6-0.8,1.4-0.8,2.3v5.5H487.7z"/>
	</g>
	<g>
		<g>
			<line fill="none" stroke="#204056" stroke-miterlimit="10" x1="480" y1="171.8" x2="480" y2="84.9"/>
			<g>
				<polygon fill="#204056" points="484.1,168.5 483.4,167.8 480,171.4 476.6,167.8 475.9,168.5 480,172.9 				"/>
			</g>
		</g>
	</g>
	<g>
		<g>
			<line fill="none" stroke="#204056" stroke-miterlimit="10" x1="440" y1="172.9" x2="440" y2="86"/>
			<g>
				<polygon fill="#204056" points="444.1,89.3 443.4,90 440,86.3 436.6,90 435.9,89.3 440,84.9 				"/>
			</g>
		</g>
	</g>
	<g>
		<rect x="0.6" y="433.4" opacity="0.15" fill="#59A1C9" width="159" height="49"/>
		<path fill="#59A1C9" d="M159.1,433.9v48H1.1v-48H159.1 M160.1,432.9H0.1v50h160V432.9L160.1,432.9z"/>
	</g>
	<g>
		<path fill="#59A1C9" d="M65.9,463.9l-4.7-13.1h1.2l3,8.4c0.1,0.4,0.2,0.8,0.4,1.2c0.1,0.4,0.3,0.8,0.4,1.1s0.2,0.7,0.3,1.2
			c0-0.2,0.1-0.4,0.2-0.7c0.1-0.2,0.2-0.6,0.4-1.2c0.2-0.5,0.4-1.1,0.5-1.6c0.4-1.4,0.9-2.8,1.5-4.3s1.1-2.9,1.5-4.1h1.3l-4.8,13.1
			H65.9z"/>
		<path fill="#59A1C9" d="M73.2,452.3v-1.5h1.1v1.5H73.2z M73.2,463.9v-9.6h1.1v9.6H73.2z"/>
		<path fill="#59A1C9" d="M80.9,464.1c-1.3,0-2.4-0.4-3.2-1.3c-0.8-0.9-1.2-2.1-1.2-3.6c0-1.5,0.4-2.7,1.1-3.6
			c0.8-0.9,1.8-1.4,3-1.5c1.1,0,2,0.4,2.7,1.2s1,1.9,1,3.3c0,0.1,0,0.2,0,0.3c0,0.2,0,0.3,0,0.3h-6.7c0,1.2,0.3,2.2,0.9,2.9
			s1.4,1.1,2.3,1.1c0.6,0,1.2-0.1,1.6-0.2s0.9-0.4,1.5-0.6l0.2,0.8C83.2,463.8,82.1,464.1,80.9,464.1z M77.7,458.3h5.5
			c0-1.1-0.2-1.9-0.7-2.5s-1.1-0.9-1.9-0.9c-0.8,0-1.5,0.3-2,0.9S77.8,457.3,77.7,458.3z"/>
		<path fill="#59A1C9" d="M88.2,463.9l-2.7-9.6h1.1l2.2,8.6c1.6-5.1,2.5-8,2.7-8.6h1.3c1.8,5.7,2.6,8.6,2.7,8.6l2.1-8.6h1.1
			l-2.6,9.6h-1.3c0,0-0.4-1.3-1.2-4.1s-1.3-4.3-1.4-4.8c-0.1,0.3-0.3,1.2-0.8,2.7s-0.9,2.9-1.3,4.2s-0.6,2-0.7,2H88.2z"/>
	</g>
	<g>
		<g>
			<line fill="none" stroke="#204056" stroke-miterlimit="10" x1="180.1" y1="442.9" x2="229" y2="442.9"/>
			<g>
				<polygon fill="#204056" points="225.7,447 225,446.3 228.6,442.9 225,439.5 225.7,438.8 230.1,442.9 				"/>
			</g>
		</g>
	</g>
	<g>
		<g>
			<line fill="none" stroke="#204056" stroke-miterlimit="10" x1="181.2" y1="472.9" x2="230.1" y2="472.9"/>
			<g>
				<polygon fill="#204056" points="184.5,477 185.2,476.3 181.6,472.9 185.2,469.5 184.5,468.8 180.1,472.9 				"/>
			</g>
		</g>
	</g>
</g>
<g id="DYNAMIC_x5F_RAILS" display="none">
	<g display="inline">
		<g>
			<path fill="none" stroke="#204056" stroke-miterlimit="10" d="M312.6,410.6c-1.7-9-2.5-18.2-2.5-27.7c0-65,41.4-120.4,99.3-141.2
				"/>
			<g>
				<polygon fill="#204056" points="407.6,246.7 406.7,246.2 408.9,241.8 404.4,240 404.8,239 410.3,241.3 				"/>
			</g>
		</g>
	</g>
	<g display="inline">
		<g>
			<path fill="none" stroke="#204056" stroke-miterlimit="10" d="M558,496.4c-26.3,22.7-60.6,36.5-98,36.5
				c-36.3,0-69.6-12.9-95.5-34.4"/>
			<g>
				<polygon fill="#204056" points="369.6,497.4 369.7,498.4 364.8,498.8 365.5,503.6 364.5,503.8 363.6,497.8 				"/>
			</g>
		</g>
	</g>
	<g display="inline">
		<g>
			<path fill="none" stroke="#204056" stroke-miterlimit="10" d="M509,241.1c58.8,20.3,101,76.1,101,141.8c0,9.1-0.8,17.9-2.3,26.5"
				/>
			<g>
				<polygon fill="#204056" points="604.1,405.5 605,404.9 607.7,409 611.6,406 612.2,406.8 607.5,410.5 				"/>
			</g>
		</g>
	</g>
	<path display="inline" fill="#BDBFBF" d="M483.5,49.1c-9.2-2.1-17.7-4-13.6-11.8C482.5,13.6,473.3,1,460,1
		c-13.6,0-22.6,13.2-10,36.4c4.3,7.8-4.6,9.7-13.6,11.8c-7.6,1.8-8.4,5.4-8.5,11.7c0,2.2,1.8,4,4,4h56c2.2,0,4-1.8,4-4
		C492,54.5,491.2,50.9,483.5,49.1z"/>
	<path display="inline" fill="#FBCB44" d="M494.6,212.9H460c11,0,20,9,20,20c0,3.6-1,7-2.7,10l0,0l-17.3,30c22.1,0,40-17.9,40-40
		C500,225.6,498,218.8,494.6,212.9z"/>
	<path display="inline" fill="#34B67A" d="M460,252.9c-7.4,0-13.8-4-17.3-10l0,0l-17.3-30c-3.4,5.9-5.4,12.7-5.4,20
		c0,22.1,17.9,40,40,40l17.3-30l0,0C473.9,248.9,467.4,252.9,460,252.9z"/>
	<path display="inline" fill="#DC4437" d="M440,232.9c0-11,9-20,20-20h34.6c-6.9-12-19.8-20-34.6-20c-14.8,0-27.7,8-34.6,20l17.3,30
		l0,0C441,240,440,236.5,440,232.9z"/>
	<circle display="inline" fill="#4385F5" cx="460" cy="232.9" r="15"/>
	<g display="inline">
		<rect x="250.6" y="433.4" opacity="0.15" fill="#59A1C9" width="159" height="49"/>
		<path fill="#59A1C9" d="M409.1,433.9v48h-158v-48H409.1 M410.1,432.9h-160v50h160V432.9L410.1,432.9z"/>
	</g>
	<text transform="matrix(1 0 0 1 289.7621 463.901)" display="inline" fill="#59A1C9" font-family="'Oxygen-Light'" font-size="18">Controller</text>
	<text transform="matrix(1 0 0 1 496.9892 139.0451)" display="inline" fill="#F65A5B" font-family="'Oxygen-Bold'" font-size="18">1</text>
	<g display="inline">
		<rect x="510.4" y="433.4" opacity="0.15" fill="#59A1C9" width="159" height="49"/>
		<path fill="#59A1C9" d="M668.9,433.9v48h-158v-48H668.9 M669.9,432.9h-160v50h160V432.9L669.9,432.9z"/>
	</g>
	<text transform="matrix(1 0 0 1 541.7612 463.901)" display="inline" fill="#59A1C9" font-family="'Oxygen-Light'" font-size="18">Rails Router</text>
	<text transform="matrix(1 0 0 1 611.2566 299.0455)" display="inline" fill="#F65A5B" font-family="'Oxygen-Bold'" font-size="18">2</text>
	<text transform="matrix(1 0 0 1 455.2665 509.0455)" display="inline" fill="#F65A5B" font-family="'Oxygen-Bold'" font-size="18">3</text>
	<text transform="matrix(1 0 0 1 199.8013 509.0451)" display="inline" fill="#F65A5B" font-family="'Oxygen-Bold'" font-size="18">6</text>
	<text transform="matrix(1 0 0 1 200.5435 424.0451)" display="inline" fill="#F65A5B" font-family="'Oxygen-Bold'" font-size="18">7</text>
	<text transform="matrix(1 0 0 1 298.0607 299.0455)" display="inline" fill="#F65A5B" font-family="'Oxygen-Bold'" font-size="18">8</text>
	
		<text transform="matrix(1 0 0 1 427.1363 297.9014)" display="inline" fill="#4385F5" font-family="'Oxygen-Light'" font-size="18">Browser</text>
	<g display="inline">
		<g>
			<line fill="none" stroke="#204056" stroke-miterlimit="10" x1="480" y1="171.8" x2="480" y2="84.9"/>
			<g>
				<polygon fill="#204056" points="484.1,168.5 483.4,167.8 480,171.4 476.6,167.8 475.9,168.5 480,172.9 				"/>
			</g>
		</g>
	</g>
	<g display="inline">
		<g>
			<line fill="none" stroke="#204056" stroke-miterlimit="10" x1="440" y1="172.9" x2="440" y2="86"/>
			<g>
				<polygon fill="#204056" points="444.1,89.3 443.4,90 440,86.3 436.6,90 435.9,89.3 440,84.9 				"/>
			</g>
		</g>
	</g>
	<text transform="matrix(1 0 0 1 364.498 569.0451)" display="inline" fill="#F65A5B" font-family="'Oxygen-Bold'" font-size="18">4</text>
	<text transform="matrix(1 0 0 1 285.0029 569.0451)" display="inline" fill="#F65A5B" font-family="'Oxygen-Bold'" font-size="18">5</text>
	<g display="inline">
		<g>
			<line fill="none" stroke="#204056" stroke-miterlimit="10" x1="350" y1="601.8" x2="350" y2="514.9"/>
		</g>
	</g>
	<g display="inline">
		<g>
			<line fill="none" stroke="#204056" stroke-miterlimit="10" x1="310" y1="602.9" x2="310" y2="516"/>
			<g>
				<polygon fill="#204056" points="314.1,519.3 313.4,520 310,516.3 306.6,520 305.9,519.3 310,514.9 				"/>
			</g>
		</g>
	</g>
	<g display="inline">
		<rect x="0.6" y="433.4" opacity="0.15" fill="#59A1C9" width="159" height="49"/>
		<path fill="#59A1C9" d="M159.1,433.9v48H1.1v-48H159.1 M160.1,432.9H0.1v50h160V432.9L160.1,432.9z"/>
	</g>
	<text transform="matrix(1 0 0 1 61.1919 463.901)" display="inline" fill="#59A1C9" font-family="'Oxygen-Light'" font-size="18">View</text>
	<g display="inline">
		<g>
			<line fill="none" stroke="#204056" stroke-miterlimit="10" x1="180.1" y1="442.9" x2="229" y2="442.9"/>
			<g>
				<polygon fill="#204056" points="225.7,447 225,446.3 228.6,442.9 225,439.5 225.7,438.8 230.1,442.9 				"/>
			</g>
		</g>
	</g>
	<g display="inline">
		<g>
			<line fill="none" stroke="#204056" stroke-miterlimit="10" x1="181.2" y1="472.9" x2="230.1" y2="472.9"/>
			<g>
				<polygon fill="#204056" points="184.5,477 185.2,476.3 181.6,472.9 185.2,469.5 184.5,468.8 180.1,472.9 				"/>
			</g>
		</g>
	</g>
</g>
<g id="_x32_.1_x2F_2.2" display="none">
	<g display="inline">
		<g>
			<path fill="none" stroke="#204056" stroke-miterlimit="10" d="M212.6,410.6c-1.7-9-2.5-18.2-2.5-27.7c0-65,41.4-120.4,99.3-141.2
				"/>
			<g>
				<polygon fill="#204056" points="307.6,246.7 306.7,246.2 308.9,241.8 304.4,240 304.8,239 310.3,241.3 				"/>
			</g>
		</g>
	</g>
	<g display="inline">
		<g>
			<path fill="none" stroke="#204056" stroke-miterlimit="10" d="M458,496.4c-26.3,22.7-60.6,36.5-98,36.5
				c-36.3,0-69.6-12.9-95.5-34.4"/>
			<g>
				<polygon fill="#204056" points="269.6,497.4 269.7,498.4 264.8,498.8 265.5,503.6 264.5,503.8 263.6,497.8 				"/>
			</g>
		</g>
	</g>
	<g display="inline">
		<g>
			<path fill="none" stroke="#204056" stroke-miterlimit="10" d="M409,241.1c58.8,20.3,101,76.1,101,141.8c0,9.1-0.8,17.9-2.3,26.5"
				/>
			<g>
				<polygon fill="#204056" points="504.1,405.5 505,404.9 507.7,409 511.6,406 512.2,406.8 507.5,410.5 				"/>
			</g>
		</g>
	</g>
	<path display="inline" fill="#BDBFBF" d="M383.5,49.1c-9.2-2.1-17.7-4-13.6-11.8C382.5,13.6,373.3,1,360,1
		c-13.6,0-22.6,13.2-10,36.4c4.3,7.8-4.6,9.7-13.6,11.8c-7.6,1.8-8.4,5.4-8.5,11.7c0,2.2,1.8,4,4,4h56c2.2,0,4-1.8,4-4
		C392,54.5,391.2,50.9,383.5,49.1z"/>
	<path display="inline" fill="#FBCB44" d="M394.6,212.9H360c11,0,20,9,20,20c0,3.6-1,7-2.7,10l0,0l-17.3,30c22.1,0,40-17.9,40-40
		C400,225.6,398,218.8,394.6,212.9z"/>
	<path display="inline" fill="#34B67A" d="M360,252.9c-7.4,0-13.8-4-17.3-10l0,0l-17.3-30c-3.4,5.9-5.4,12.7-5.4,20
		c0,22.1,17.9,40,40,40l17.3-30l0,0C373.9,248.9,367.4,252.9,360,252.9z"/>
	<path display="inline" fill="#DC4437" d="M340,232.9c0-11,9-20,20-20h34.6c-6.9-12-19.8-20-34.6-20c-14.8,0-27.7,8-34.6,20l17.3,30
		l0,0C341,240,340,236.5,340,232.9z"/>
	<circle display="inline" fill="#4385F5" cx="360" cy="232.9" r="15"/>
	<g display="inline">
		<rect x="150.6" y="433.4" opacity="0.15" fill="#59A1C9" width="159" height="49"/>
		<path fill="#59A1C9" d="M309.1,433.9v48h-158v-48H309.1 M310.1,432.9h-160v50h160V432.9L310.1,432.9z"/>
	</g>
	<text transform="matrix(1 0 0 1 189.7622 463.901)" display="inline" fill="#59A1C9" font-family="'Oxygen-Light'" font-size="18">Controller</text>
	<text transform="matrix(1 0 0 1 376.9892 139.0451)" display="inline" fill="#F65A5B" font-family="'Oxygen-Bold'" font-size="18">1</text>
	<text transform="matrix(1 0 0 1 -60.0649 64.8475)" display="inline" fill="#F65A5B" font-family="'Oxygen-Bold'" font-size="18">First Turn</text>
	<g display="inline">
		<rect x="410.4" y="433.4" opacity="0.15" fill="#59A1C9" width="159" height="49"/>
		<path fill="#59A1C9" d="M568.9,433.9v48h-158v-48H568.9 M569.9,432.9h-160v50h160V432.9L569.9,432.9z"/>
	</g>
	<text transform="matrix(1 0 0 1 441.7612 463.901)" display="inline" fill="#59A1C9" font-family="'Oxygen-Light'" font-size="18">Rails Router</text>
	<text transform="matrix(1 0 0 1 511.2566 299.0455)" display="inline" fill="#F65A5B" font-family="'Oxygen-Bold'" font-size="18">2</text>
	<text transform="matrix(1 0 0 1 355.2665 509.0455)" display="inline" fill="#F65A5B" font-family="'Oxygen-Bold'" font-size="18">3</text>
	<text transform="matrix(1 0 0 1 99.5903 509.0451)" display="inline" fill="#F65A5B" font-family="'Oxygen-Bold'" font-size="18">4</text>
	<text transform="matrix(1 0 0 1 100.0952 424.0451)" display="inline" fill="#F65A5B" font-family="'Oxygen-Bold'" font-size="18">5</text>
	<text transform="matrix(1 0 0 1 197.8244 299.0455)" display="inline" fill="#F65A5B" font-family="'Oxygen-Bold'" font-size="18">6</text>
	
		<text transform="matrix(1 0 0 1 327.1362 297.9014)" display="inline" fill="#4385F5" font-family="'Oxygen-Light'" font-size="18">Browser</text>
	<g display="inline">
		<g>
			<line fill="none" stroke="#204056" stroke-miterlimit="10" x1="360" y1="171.8" x2="360" y2="84.9"/>
			<g>
				<polygon fill="#204056" points="364.1,168.5 363.4,167.8 360,171.4 356.6,167.8 355.9,168.5 360,172.9 				"/>
			</g>
		</g>
	</g>
	<g display="inline">
		<rect x="-99.4" y="433.4" opacity="0.15" fill="#59A1C9" width="159" height="49"/>
		<path fill="#59A1C9" d="M59.1,433.9v48h-158v-48H59.1 M60.1,432.9h-160v50h160V432.9L60.1,432.9z"/>
	</g>
	<g display="inline">
		<g>
			<line fill="none" stroke="#204056" stroke-miterlimit="10" x1="80.1" y1="442.9" x2="129" y2="442.9"/>
			<g>
				<polygon fill="#204056" points="125.7,447 125,446.3 128.6,442.9 125,439.5 125.7,438.8 130.1,442.9 				"/>
			</g>
		</g>
	</g>
	<g display="inline">
		<g>
			<line fill="none" stroke="#204056" stroke-miterlimit="10" x1="81.2" y1="472.9" x2="130.1" y2="472.9"/>
			<g>
				<polygon fill="#204056" points="84.5,477 85.2,476.3 81.6,472.9 85.2,469.5 84.5,468.8 80.1,472.9 				"/>
			</g>
		</g>
	</g>
	<line display="inline" fill="none" stroke="#204056" stroke-miterlimit="10" x1="660" y1="-46.6" x2="660" y2="753.4"/>
	
		<text transform="matrix(1 0 0 1 440.5482 338.7906)" display="inline" fill="#204056" font-family="'Oxygen-Light'" font-size="18">GET</text>
</g>
<g id="_x32_.3" display="none">
	<g display="inline">
		<g>
			<path fill="none" stroke="#204056" stroke-miterlimit="10" d="M212.6,410.6c-1.7-9-2.5-18.2-2.5-27.7c0-65,41.4-120.4,99.3-141.2
				"/>
			<g>
				<polygon fill="#204056" points="307.6,246.7 306.7,246.2 308.9,241.8 304.4,240 304.8,239 310.3,241.3 				"/>
			</g>
		</g>
	</g>
	<g display="inline">
		<g>
			<path fill="none" stroke="#204056" stroke-miterlimit="10" d="M458,496.4c-26.3,22.7-60.6,36.5-98,36.5
				c-36.3,0-69.6-12.9-95.5-34.4"/>
			<g>
				<polygon fill="#204056" points="269.6,497.4 269.7,498.4 264.8,498.8 265.5,503.6 264.5,503.8 263.6,497.8 				"/>
			</g>
		</g>
	</g>
	<g display="inline">
		<g>
			<path fill="none" stroke="#204056" stroke-miterlimit="10" d="M409,241.1c58.8,20.3,101,76.1,101,141.8c0,9.1-0.8,17.9-2.3,26.5"
				/>
			<g>
				<polygon fill="#204056" points="504.1,405.5 505,404.9 507.7,409 511.6,406 512.2,406.8 507.5,410.5 				"/>
			</g>
		</g>
	</g>
	<path display="inline" fill="#BDBFBF" d="M383.5,49.1c-9.2-2.1-17.7-4-13.6-11.8C382.5,13.6,373.3,1,360,1
		c-13.6,0-22.6,13.2-10,36.4c4.3,7.8-4.6,9.7-13.6,11.8c-7.6,1.8-8.4,5.4-8.5,11.7c0,2.2,1.8,4,4,4h56c2.2,0,4-1.8,4-4
		C392,54.5,391.2,50.9,383.5,49.1z"/>
	<path display="inline" fill="#FBCB44" d="M394.6,212.9H360c11,0,20,9,20,20c0,3.6-1,7-2.7,10l0,0l-17.3,30c22.1,0,40-17.9,40-40
		C400,225.6,398,218.8,394.6,212.9z"/>
	<path display="inline" fill="#34B67A" d="M360,252.9c-7.4,0-13.8-4-17.3-10l0,0l-17.3-30c-3.4,5.9-5.4,12.7-5.4,20
		c0,22.1,17.9,40,40,40l17.3-30l0,0C373.9,248.9,367.4,252.9,360,252.9z"/>
	<path display="inline" fill="#DC4437" d="M340,232.9c0-11,9-20,20-20h34.6c-6.9-12-19.8-20-34.6-20c-14.8,0-27.7,8-34.6,20l17.3,30
		l0,0C341,240,340,236.5,340,232.9z"/>
	<circle display="inline" fill="#4385F5" cx="360" cy="232.9" r="15"/>
	<g display="inline">
		<rect x="150.6" y="433.4" opacity="0.15" fill="#59A1C9" width="159" height="49"/>
		<path fill="#59A1C9" d="M309.1,433.9v48h-158v-48H309.1 M310.1,432.9h-160v50h160V432.9L310.1,432.9z"/>
	</g>
	<text transform="matrix(1 0 0 1 189.7622 463.901)" display="inline" fill="#59A1C9" font-family="'Oxygen-Light'" font-size="18">Controller</text>
	<text transform="matrix(1 0 0 1 376.9892 139.0451)" display="inline" fill="#F65A5B" font-family="'Oxygen-Bold'" font-size="18">1</text>
	<text transform="matrix(1 0 0 1 -60.0649 64.8475)" display="inline" fill="#F65A5B" font-family="'Oxygen-Bold'" font-size="18">First Turn</text>
	<g display="inline">
		<rect x="410.4" y="433.4" opacity="0.15" fill="#59A1C9" width="159" height="49"/>
		<path fill="#59A1C9" d="M568.9,433.9v48h-158v-48H568.9 M569.9,432.9h-160v50h160V432.9L569.9,432.9z"/>
	</g>
	<text transform="matrix(1 0 0 1 441.7612 463.901)" display="inline" fill="#59A1C9" font-family="'Oxygen-Light'" font-size="18">Rails Router</text>
	<text transform="matrix(1 0 0 1 511.2566 299.0455)" display="inline" fill="#F65A5B" font-family="'Oxygen-Bold'" font-size="18">2</text>
	<text transform="matrix(1 0 0 1 355.2665 509.0455)" display="inline" fill="#F65A5B" font-family="'Oxygen-Bold'" font-size="18">3</text>
	<text transform="matrix(1 0 0 1 99.5903 509.0451)" display="inline" fill="#F65A5B" font-family="'Oxygen-Bold'" font-size="18">4</text>
	<text transform="matrix(1 0 0 1 100.0952 424.0451)" display="inline" fill="#F65A5B" font-family="'Oxygen-Bold'" font-size="18">5</text>
	<text transform="matrix(1 0 0 1 197.8244 299.0455)" display="inline" fill="#F65A5B" font-family="'Oxygen-Bold'" font-size="18">6</text>
	
		<text transform="matrix(1 0 0 1 327.1362 297.9014)" display="inline" fill="#4385F5" font-family="'Oxygen-Light'" font-size="18">Browser</text>
	<g display="inline">
		<g>
			<line fill="none" stroke="#204056" stroke-miterlimit="10" x1="360" y1="171.8" x2="360" y2="84.9"/>
			<g>
				<polygon fill="#204056" points="364.1,168.5 363.4,167.8 360,171.4 356.6,167.8 355.9,168.5 360,172.9 				"/>
			</g>
		</g>
	</g>
	<g display="inline">
		<rect x="-99.4" y="433.4" opacity="0.15" fill="#59A1C9" width="159" height="49"/>
		<path fill="#59A1C9" d="M59.1,433.9v48h-158v-48H59.1 M60.1,432.9h-160v50h160V432.9L60.1,432.9z"/>
	</g>
	<g display="inline">
		<g>
			<line fill="none" stroke="#204056" stroke-miterlimit="10" x1="80.1" y1="442.9" x2="129" y2="442.9"/>
			<g>
				<polygon fill="#204056" points="125.7,447 125,446.3 128.6,442.9 125,439.5 125.7,438.8 130.1,442.9 				"/>
			</g>
		</g>
	</g>
	<g display="inline">
		<g>
			<line fill="none" stroke="#204056" stroke-miterlimit="10" x1="81.2" y1="472.9" x2="130.1" y2="472.9"/>
			<g>
				<polygon fill="#204056" points="84.5,477 85.2,476.3 81.6,472.9 85.2,469.5 84.5,468.8 80.1,472.9 				"/>
			</g>
		</g>
	</g>
	<line display="inline" fill="none" stroke="#204056" stroke-miterlimit="10" x1="660" y1="-46.6" x2="660" y2="753.4"/>
	
		<text transform="matrix(1 0 0 1 440.5482 338.7906)" display="inline" fill="#204056" font-family="'Oxygen-Light'" font-size="18">GET</text>
</g>
</svg>
