<?xml version="1.0" encoding="utf-8"?>
<!-- Generator: Adobe Illustrator 18.1.1, SVG Export Plug-In . SVG Version: 6.00 Build 0)  -->
<!DOCTYPE svg PUBLIC "-//W3C//DTD SVG 1.1//EN" "http://www.w3.org/Graphics/SVG/1.1/DTD/svg11.dtd">
<svg version="1.1" id="Layer_1" xmlns="http://www.w3.org/2000/svg" xmlns:xlink="http://www.w3.org/1999/xlink" x="0px" y="0px"
	 viewBox="0 0 588 690.6" enable-background="new 0 0 588 690.6" xml:space="preserve">
<g>
	<rect fill="#E6E7E8" width="260" height="60"/>
	<g>
		<path fill="#204056" d="M107.7,23.7v-10h2.2l3,7.2l3-7.2h2.2v10h-1.7v-4.9l0.1-2.8l-0.3,0.8l-2.6,6.4H112l-2.5-6.4l-0.3-0.8
			l0.1,2.9v4.9H107.7z"/>
		<path fill="#204056" d="M123.3,23.9c-1.1,0-2-0.4-2.6-1.1s-1-1.7-1-2.8c0-1.2,0.3-2.2,1-2.9s1.5-1,2.7-1c1.1,0,2,0.4,2.6,1.1
			c0.6,0.7,1,1.7,1,2.8c0,1.2-0.3,2.2-1,2.9S124.4,23.9,123.3,23.9z M123.3,22.5c0.6,0,1.1-0.2,1.4-0.7s0.5-1.1,0.5-1.9
			c0-0.8-0.2-1.5-0.5-1.9s-0.8-0.7-1.4-0.7c-0.6,0-1.1,0.2-1.4,0.7c-0.3,0.4-0.5,1.1-0.5,1.9c0,0.8,0.2,1.5,0.5,1.9
			S122.7,22.5,123.3,22.5z"/>
		<path fill="#204056" d="M130.4,23.7l-3-7.5h1.9c0.1,0.2,0.3,0.8,0.7,1.9c0.4,1.1,0.6,1.8,0.8,2.2c0.3,0.8,0.4,1.3,0.6,1.7
			c0,0,0-0.2,0.1-0.4s0.2-0.6,0.2-0.8c0.1-0.3,0.1-0.4,0.1-0.5c0,0,0.2-0.6,0.6-1.9c0.4-1.2,0.7-2,0.7-2.2h1.9l-2.8,7.5H130.4z"/>
		<path fill="#204056" d="M136,15.1v-1.5h1.8v1.5H136z M136,23.7v-7.5h1.8v7.5H136z"/>
		<path fill="#204056" d="M143.2,23.9c-1.2,0-2.1-0.3-2.8-1c-0.7-0.7-1-1.7-1-2.9c0-1.2,0.3-2.1,1-2.9s1.5-1.1,2.6-1.1
			c1,0,1.8,0.3,2.4,1c0.6,0.6,0.9,1.5,0.9,2.6c0,0.1,0,0.2,0,0.4c0,0.2,0,0.3,0,0.4h-5c0,0.7,0.2,1.2,0.6,1.6
			c0.4,0.4,0.9,0.6,1.5,0.6c0.8,0,1.6-0.2,2.4-0.6l0.3,1.3C145.1,23.6,144.2,23.9,143.2,23.9z M141.2,19.2h3.3
			c0-0.6-0.1-1.1-0.4-1.4s-0.7-0.5-1.2-0.5c-0.5,0-0.8,0.2-1.2,0.5C141.4,18.1,141.2,18.6,141.2,19.2z"/>
		<path fill="#204056" d="M150,23.9c-1.1,0-2-0.2-2.7-0.6l0.2-1.3c0.3,0.2,0.7,0.3,1.1,0.4s0.9,0.2,1.3,0.2c0.4,0,0.7-0.1,0.9-0.2
			c0.2-0.1,0.3-0.4,0.3-0.7c0-0.3-0.1-0.5-0.3-0.6c-0.2-0.2-0.6-0.3-1.2-0.6c-0.2-0.1-0.3-0.1-0.4-0.1c-0.7-0.3-1.2-0.6-1.5-0.9
			s-0.5-0.8-0.5-1.3c0-0.7,0.2-1.2,0.7-1.6c0.5-0.4,1.2-0.5,2.1-0.5c1,0,1.8,0.2,2.5,0.5l-0.4,1.2c-0.7-0.3-1.4-0.5-2-0.5
			c-0.4,0-0.6,0.1-0.8,0.2c-0.2,0.1-0.3,0.3-0.3,0.6c0,0.2,0.1,0.4,0.3,0.5s0.6,0.3,1.1,0.5c0,0,0.1,0,0.2,0.1s0.2,0.1,0.2,0.1
			c0.7,0.3,1.2,0.6,1.5,0.9s0.5,0.8,0.5,1.4c0,0.8-0.3,1.3-0.8,1.7S150.9,23.9,150,23.9z"/>
		<path fill="#4A4A4C" d="M88.9,40.5c0-4.5,0-7,0-7.5h0.7l0.1,1.1c0.2-0.4,0.5-0.7,1-0.9c0.4-0.2,0.9-0.4,1.4-0.4
			c1.2,0,2,0.5,2.3,1.4c0.5-0.9,1.4-1.4,2.5-1.4c0.8,0,1.4,0.2,1.8,0.7c0.4,0.5,0.6,1.2,0.6,2.1v4.8h-0.8v-3.7c0-0.3,0-0.6,0-0.9
			s0-0.5-0.1-0.8c0-0.3-0.1-0.5-0.2-0.7c-0.1-0.2-0.2-0.3-0.3-0.5s-0.3-0.3-0.4-0.3s-0.4-0.1-0.6-0.1c-0.6,0-1.1,0.2-1.5,0.5
			c-0.4,0.3-0.7,0.8-0.8,1.4c0,0.5,0,0.8,0,1.1v3.9h-0.8v-3.8c0-0.4,0-0.7,0-1s-0.1-0.6-0.1-0.8s-0.2-0.5-0.3-0.7
			c-0.1-0.2-0.3-0.3-0.5-0.4c-0.2-0.1-0.4-0.2-0.7-0.2c-0.6,0-1.1,0.2-1.6,0.5c-0.4,0.3-0.7,0.8-0.8,1.4c0,0.2,0,0.5,0,0.8v4.3H88.9
			z"/>
		<path fill="#4A4A4C" d="M104.2,40.7c-0.7,0-1.3-0.2-1.8-0.5c-0.5-0.3-0.9-0.8-1.2-1.4c-0.3-0.6-0.4-1.2-0.4-2
			c0-0.6,0.1-1.1,0.2-1.5c0.2-0.5,0.4-0.9,0.7-1.2s0.7-0.6,1.1-0.8s0.9-0.3,1.4-0.3c0.7,0,1.3,0.2,1.8,0.5s0.9,0.8,1.2,1.4
			c0.3,0.6,0.4,1.2,0.4,2c0,0.7-0.1,1.4-0.4,2s-0.7,1-1.2,1.4S105,40.7,104.2,40.7z M104.3,40c0.5,0,1-0.1,1.4-0.4
			c0.4-0.3,0.7-0.7,0.8-1.1c0.2-0.5,0.3-1,0.3-1.6c0-1-0.2-1.7-0.6-2.3s-1-0.9-1.9-0.9c-0.5,0-1,0.1-1.4,0.4
			c-0.4,0.3-0.7,0.7-0.8,1.2s-0.3,1-0.3,1.6c0,0.9,0.2,1.7,0.7,2.3C102.9,39.7,103.5,40,104.3,40z"/>
		<path fill="#4A4A4C" d="M112.2,40.7c-1,0-1.8-0.3-2.3-1c-0.6-0.7-0.8-1.6-0.8-2.9c0-1.1,0.3-2.1,0.9-2.8c0.6-0.7,1.3-1.1,2.3-1.1
			c0.5,0,0.9,0.1,1.4,0.3s0.8,0.5,1.1,0.9v-0.2v-3.8l0.8-0.1v10.5h-0.7l-0.1-1.1c-0.3,0.4-0.6,0.7-1.1,1
			C113.1,40.6,112.6,40.7,112.2,40.7z M112.1,40c0.4,0,0.8-0.1,1.1-0.2s0.6-0.4,0.8-0.7s0.3-0.6,0.4-1c0.1-0.4,0.1-0.8,0.1-1.2
			c0-2.2-0.8-3.3-2.5-3.3c-0.4,0-0.7,0.1-1,0.3s-0.5,0.4-0.7,0.7c-0.2,0.3-0.3,0.7-0.4,1s-0.1,0.8-0.1,1.2c0,0.4,0,0.7,0.1,1
			s0.1,0.6,0.2,0.9s0.3,0.5,0.4,0.7s0.4,0.4,0.6,0.5S111.8,40,112.1,40z"/>
		<path fill="#4A4A4C" d="M120.5,40.7c-1,0-1.9-0.3-2.5-1c-0.6-0.7-0.9-1.6-0.9-2.8c0-1.1,0.3-2.1,0.9-2.8c0.6-0.7,1.4-1.1,2.3-1.1
			c0.9,0,1.6,0.3,2.1,0.9s0.8,1.5,0.8,2.5c0,0,0,0.1,0,0.2c0,0.1,0,0.2,0,0.3H118c0,1,0.2,1.7,0.7,2.3s1.1,0.8,1.8,0.8
			c0.5,0,0.9-0.1,1.3-0.2s0.7-0.3,1.1-0.5L123,40C122.3,40.5,121.4,40.7,120.5,40.7z M118,36.2h4.3c0-0.8-0.2-1.5-0.5-1.9
			s-0.9-0.7-1.5-0.7c-0.6,0-1.2,0.2-1.5,0.7S118.1,35.4,118,36.2z"/>
		<path fill="#4A4A4C" d="M126.8,40.7c-0.6,0-1.1-0.1-1.4-0.4s-0.4-0.7-0.4-1.4v-8.7l0.8-0.1v8.8c0,0.5,0.1,0.8,0.2,0.9
			c0.2,0.2,0.4,0.3,0.8,0.3c0.3,0,0.6-0.1,1-0.2l0,0.7C127.4,40.6,127.1,40.7,126.8,40.7z"/>
		<path fill="#4A4A4C" d="M129,34.2v-1.4h1.2v1.4H129z M129,40.8v-1.4h1.2v1.4H129z"/>
		<path fill="#4A4A4C" d="M135.5,40.5c0-4.5,0-7,0-7.5h0.7l0.1,1.1c0.2-0.4,0.5-0.7,1-0.9c0.4-0.2,0.9-0.4,1.4-0.4
			c1.2,0,2,0.5,2.3,1.4c0.5-0.9,1.4-1.4,2.5-1.4c0.8,0,1.4,0.2,1.8,0.7c0.4,0.5,0.6,1.2,0.6,2.1v4.8H145v-3.7c0-0.3,0-0.6,0-0.9
			s0-0.5-0.1-0.8c0-0.3-0.1-0.5-0.2-0.7c-0.1-0.2-0.2-0.3-0.3-0.5s-0.3-0.3-0.4-0.3s-0.4-0.1-0.6-0.1c-0.6,0-1.1,0.2-1.5,0.5
			c-0.4,0.3-0.7,0.8-0.8,1.4c0,0.5,0,0.8,0,1.1v3.9h-0.8v-3.8c0-0.4,0-0.7,0-1s-0.1-0.6-0.1-0.8s-0.2-0.5-0.3-0.7
			c-0.1-0.2-0.3-0.3-0.5-0.4c-0.2-0.1-0.4-0.2-0.7-0.2c-0.6,0-1.1,0.2-1.6,0.5c-0.4,0.3-0.7,0.8-0.8,1.4c0,0.2,0,0.5,0,0.8v4.3
			H135.5z"/>
		<path fill="#4A4A4C" d="M150.9,40.7c-0.7,0-1.3-0.2-1.8-0.5c-0.5-0.3-0.9-0.8-1.2-1.4c-0.3-0.6-0.4-1.2-0.4-2
			c0-0.6,0.1-1.1,0.2-1.5c0.2-0.5,0.4-0.9,0.7-1.2s0.7-0.6,1.1-0.8s0.9-0.3,1.4-0.3c0.7,0,1.3,0.2,1.8,0.5s0.9,0.8,1.2,1.4
			c0.3,0.6,0.4,1.2,0.4,2c0,0.7-0.1,1.4-0.4,2s-0.7,1-1.2,1.4S151.6,40.7,150.9,40.7z M151,40c0.5,0,1-0.1,1.4-0.4
			c0.4-0.3,0.7-0.7,0.8-1.1c0.2-0.5,0.3-1,0.3-1.6c0-1-0.2-1.7-0.6-2.3s-1-0.9-1.9-0.9c-0.5,0-1,0.1-1.4,0.4
			c-0.4,0.3-0.7,0.7-0.8,1.2s-0.3,1-0.3,1.6c0,0.9,0.2,1.7,0.7,2.3C149.5,39.7,150.1,40,151,40z"/>
		<path fill="#4A4A4C" d="M157.7,40.5l-2.9-7.5h0.9l1.7,4.7c0.1,0.3,0.2,0.6,0.3,0.9c0.1,0.3,0.2,0.6,0.3,0.8l0.1,0.3
			c0.1-0.3,0.2-0.6,0.3-0.9c0.1-0.3,0.3-0.7,0.4-1c0.1-0.4,0.3-1,0.7-1.8s0.7-1.8,1.1-3h0.9l-2.9,7.5H157.7z"/>
		<path fill="#4A4A4C" d="M162.7,31.5v-1.1h0.8v1.1H162.7z M162.7,40.5V33h0.9v7.5H162.7z"/>
		<path fill="#4A4A4C" d="M168.7,40.7c-1,0-1.9-0.3-2.5-1c-0.6-0.7-0.9-1.6-0.9-2.8c0-1.1,0.3-2.1,0.9-2.8c0.6-0.7,1.4-1.1,2.3-1.1
			c0.9,0,1.6,0.3,2.1,0.9s0.8,1.5,0.8,2.5c0,0,0,0.1,0,0.2c0,0.1,0,0.2,0,0.3h-5.2c0,1,0.2,1.7,0.7,2.3s1.1,0.8,1.8,0.8
			c0.5,0,0.9-0.1,1.3-0.2s0.7-0.3,1.1-0.5l0.1,0.6C170.5,40.5,169.7,40.7,168.7,40.7z M166.3,36.2h4.3c0-0.8-0.2-1.5-0.5-1.9
			s-0.9-0.7-1.5-0.7c-0.6,0-1.2,0.2-1.5,0.7S166.3,35.4,166.3,36.2z"/>
	</g>
	<g>
		<g>
			<path fill="#4A4A4C" d="M60.5,77.3v-1.1h0.8v1.1H60.5z M60.5,86.3v-7.5h0.9v7.5H60.5z"/>
			<path fill="#4A4A4C" d="M66.3,86.5c-1,0-1.8-0.3-2.3-1c-0.6-0.7-0.8-1.6-0.8-2.9c0-1.1,0.3-2.1,0.9-2.8c0.6-0.7,1.3-1.1,2.3-1.1
				c0.5,0,0.9,0.1,1.4,0.3s0.8,0.5,1.1,0.9v-0.2v-3.8l0.8-0.1v10.5h-0.7l-0.1-1.1c-0.3,0.4-0.6,0.7-1.1,1
				C67.2,86.4,66.8,86.5,66.3,86.5z M66.3,85.8c0.4,0,0.8-0.1,1.1-0.2s0.6-0.4,0.8-0.7s0.3-0.6,0.4-1c0.1-0.4,0.1-0.8,0.1-1.2
				c0-2.2-0.8-3.3-2.5-3.3c-0.4,0-0.7,0.1-1,0.3s-0.5,0.4-0.7,0.7c-0.2,0.3-0.3,0.7-0.4,1S64,82.2,64,82.6c0,0.4,0,0.7,0.1,1
				s0.1,0.6,0.2,0.9s0.3,0.5,0.4,0.7s0.4,0.4,0.6,0.5S66,85.8,66.3,85.8z"/>
		</g>
	</g>
	<g>
		<g>
			<path fill="#4A4A4C" d="M174.4,77.3v-1.1h0.8v1.1H174.4z M174.4,86.3v-7.5h0.9v7.5H174.4z"/>
			<path fill="#4A4A4C" d="M177.4,86.3v-7.5h0.7l0.1,1.2c0.3-0.4,0.6-0.7,1.1-0.9c0.5-0.2,0.9-0.3,1.5-0.3c0.9,0,1.5,0.2,1.9,0.7
				s0.6,1.2,0.6,2.3v4.6h-0.9v-5c0-0.7-0.2-1.1-0.4-1.4s-0.7-0.4-1.3-0.4c-0.7,0-1.2,0.2-1.7,0.5c-0.4,0.3-0.7,0.8-0.8,1.3
				c0,0.2,0,0.4,0,0.7v4.4H177.4z"/>
			<path fill="#4A4A4C" d="M187.3,86.5c-0.6,0-1.1-0.1-1.4-0.4s-0.4-0.7-0.4-1.4v-5.2h-1.1l0.1-0.5l1-0.1l0.2-1.7l0.6,0v1.7h2.2v0.6
				h-2.2v5c0,0.5,0.1,0.9,0.3,1.1s0.5,0.3,0.9,0.3c0.3,0,0.6-0.1,1.1-0.2l0,0.7C188.1,86.4,187.6,86.5,187.3,86.5z"/>
			<path fill="#4A4A4C" d="M192.9,86.5c-1,0-1.9-0.3-2.5-1c-0.6-0.7-0.9-1.6-0.9-2.8c0-1.1,0.3-2.1,0.9-2.8c0.6-0.7,1.4-1.1,2.3-1.1
				c0.9,0,1.6,0.3,2.1,0.9s0.8,1.5,0.8,2.5c0,0,0,0.1,0,0.2c0,0.1,0,0.2,0,0.3h-5.2c0,1,0.2,1.7,0.7,2.3s1.1,0.8,1.8,0.8
				c0.5,0,0.9-0.1,1.3-0.2s0.7-0.3,1.1-0.5l0.1,0.6C194.7,86.2,193.8,86.5,192.9,86.5z M190.4,82h4.3c0-0.8-0.2-1.5-0.5-1.9
				s-0.9-0.7-1.5-0.7c-0.6,0-1.2,0.2-1.5,0.7S190.5,81.2,190.4,82z"/>
			<path fill="#4A4A4C" d="M198.5,89.8l-0.1-0.8h1.6c0.4,0,0.7,0,0.9-0.1s0.5-0.1,0.7-0.2c0.2-0.1,0.3-0.2,0.5-0.4
				c0.1-0.2,0.2-0.3,0.3-0.5s0.1-0.4,0.2-0.7c0-0.3,0.1-0.5,0.1-0.8s0-0.5,0-0.9c0,0.1,0,0,0,0l0-0.5c-0.3,0.4-0.6,0.8-1,1
				s-0.9,0.4-1.4,0.4c-0.4,0-0.9-0.1-1.2-0.2c-0.4-0.2-0.7-0.4-0.9-0.6c-0.2-0.3-0.4-0.5-0.6-0.9s-0.3-0.7-0.3-1s-0.1-0.6-0.1-1
				c0-0.4,0-0.8,0.1-1.1c0.1-0.4,0.2-0.7,0.3-1.1s0.4-0.6,0.6-0.9s0.6-0.5,1-0.6s0.8-0.2,1.3-0.2c0.5,0,0.9,0.1,1.3,0.3
				c0.4,0.2,0.7,0.5,1,0.9l0.1-1.1h0.8v6.9c0,0.3,0,0.5,0,0.7c0,0.2,0,0.4-0.1,0.8c0,0.3-0.1,0.6-0.2,0.8c-0.1,0.2-0.2,0.4-0.4,0.7
				s-0.4,0.4-0.6,0.6c-0.2,0.1-0.6,0.3-0.9,0.4c-0.4,0.1-0.8,0.2-1.3,0.2H198.5z M200.2,85.6c0.3,0,0.6-0.1,0.9-0.2s0.5-0.2,0.7-0.4
				c0.2-0.2,0.3-0.4,0.4-0.6c0.1-0.2,0.2-0.5,0.3-0.7s0.1-0.5,0.1-0.8v-0.8c0-0.4,0-0.7-0.1-1s-0.2-0.6-0.4-0.9
				c-0.2-0.3-0.4-0.5-0.7-0.6s-0.7-0.2-1.1-0.2c-0.3,0-0.6,0.1-0.9,0.2c-0.3,0.1-0.5,0.3-0.7,0.5s-0.3,0.5-0.4,0.8s-0.2,0.6-0.2,0.9
				c0,0.3-0.1,0.6-0.1,0.9c0,0.3,0,0.5,0.1,0.8c0,0.3,0.1,0.5,0.2,0.8c0.1,0.3,0.3,0.5,0.4,0.7s0.4,0.4,0.7,0.5
				C199.5,85.6,199.9,85.6,200.2,85.6z"/>
			<path fill="#4A4A4C" d="M208.4,86.5c-1,0-1.9-0.3-2.5-1c-0.6-0.7-0.9-1.6-0.9-2.8c0-1.1,0.3-2.1,0.9-2.8c0.6-0.7,1.4-1.1,2.3-1.1
				c0.9,0,1.6,0.3,2.1,0.9s0.8,1.5,0.8,2.5c0,0,0,0.1,0,0.2c0,0.1,0,0.2,0,0.3h-5.2c0,1,0.2,1.7,0.7,2.3s1.1,0.8,1.8,0.8
				c0.5,0,0.9-0.1,1.3-0.2s0.7-0.3,1.1-0.5l0.1,0.6C210.2,86.2,209.3,86.5,208.4,86.5z M205.9,82h4.3c0-0.8-0.2-1.5-0.5-1.9
				s-0.9-0.7-1.5-0.7c-0.6,0-1.2,0.2-1.5,0.7S206,81.2,205.9,82z"/>
			<path fill="#4A4A4C" d="M212.8,86.3c0-4.4,0-6.9,0-7.5h0.7l0.1,1.5c0.3-0.4,0.6-0.8,1-1.1s0.8-0.4,1.3-0.4c0.2,0,0.4,0,0.6,0
				l-0.1,0.7c-0.2,0-0.3,0-0.5,0c-0.6,0-1.2,0.2-1.6,0.7c-0.4,0.5-0.6,1.1-0.6,1.8v4.3H212.8z"/>
		</g>
	</g>
	<g>
		<g>
			<path fill="#4A4A4C" d="M56.3,133.5c-0.6,0-1.1-0.1-1.4-0.4s-0.4-0.7-0.4-1.4v-5.2h-1.1l0.1-0.5l1-0.1l0.2-1.7l0.6,0v1.7h2.2v0.6
				h-2.2v5c0,0.5,0.1,0.9,0.3,1.1s0.5,0.3,0.9,0.3c0.3,0,0.6-0.1,1.1-0.2l0,0.7C57,133.4,56.6,133.5,56.3,133.5z"/>
			<path fill="#4A4A4C" d="M58.9,124.3v-1.1h0.8v1.1H58.9z M58.9,133.3v-7.5h0.9v7.5H58.9z"/>
			<path fill="#4A4A4C" d="M63.9,133.5c-0.6,0-1.1-0.1-1.4-0.4s-0.4-0.7-0.4-1.4v-5.2H61l0.1-0.5l1-0.1l0.2-1.7l0.6,0v1.7h2.2v0.6
				h-2.2v5c0,0.5,0.1,0.9,0.3,1.1s0.5,0.3,0.9,0.3c0.3,0,0.6-0.1,1.1-0.2l0,0.7C64.6,133.4,64.2,133.5,63.9,133.5z"/>
			<path fill="#4A4A4C" d="M68.3,133.5c-0.6,0-1.1-0.1-1.4-0.4s-0.4-0.7-0.4-1.4v-8.7l0.8-0.1v8.8c0,0.5,0.1,0.8,0.2,0.9
				c0.2,0.2,0.4,0.3,0.8,0.3c0.3,0,0.6-0.1,1-0.2l0,0.7C68.9,133.4,68.6,133.5,68.3,133.5z"/>
			<path fill="#4A4A4C" d="M73.4,133.5c-1,0-1.9-0.3-2.5-1c-0.6-0.7-0.9-1.6-0.9-2.8c0-1.1,0.3-2.1,0.9-2.8c0.6-0.7,1.4-1.1,2.3-1.1
				c0.9,0,1.6,0.3,2.1,0.9s0.8,1.5,0.8,2.5c0,0,0,0.1,0,0.2c0,0.1,0,0.2,0,0.3H71c0,1,0.2,1.7,0.7,2.3s1.1,0.8,1.8,0.8
				c0.5,0,0.9-0.1,1.3-0.2s0.7-0.3,1.1-0.5l0.1,0.6C75.2,133.2,74.4,133.5,73.4,133.5z M71,129h4.3c0-0.8-0.2-1.5-0.5-1.9
				s-0.9-0.7-1.5-0.7c-0.6,0-1.2,0.2-1.5,0.7S71.1,128.2,71,129z"/>
		</g>
	</g>
	<g>
		<g>
			<path fill="#4A4A4C" d="M180.7,133.5c-0.5,0-0.9-0.1-1.4-0.2s-0.8-0.3-1-0.4l0.1-0.7c0.8,0.4,1.5,0.6,2.2,0.6
				c1.2,0,1.9-0.5,1.9-1.4c0-0.4-0.1-0.7-0.4-0.9c-0.2-0.2-0.7-0.4-1.5-0.7c-0.4-0.1-0.6-0.2-0.6-0.2c-1.2-0.4-1.8-1-1.8-1.9
				c0-0.5,0.2-1,0.7-1.4c0.5-0.4,1.1-0.6,1.9-0.6s1.5,0.2,2.2,0.5l-0.3,0.6c-0.7-0.3-1.4-0.4-2-0.4c-0.5,0-0.9,0.1-1.2,0.4
				c-0.3,0.2-0.5,0.6-0.5,1c0,0.3,0.1,0.6,0.3,0.8c0.2,0.2,0.6,0.4,1.2,0.5c0.1,0,0.2,0.1,0.4,0.1c0.2,0.1,0.3,0.1,0.3,0.1
				c0.8,0.2,1.3,0.5,1.7,0.9c0.3,0.3,0.5,0.8,0.5,1.4c0,0.7-0.3,1.2-0.7,1.5C182.2,133.3,181.5,133.5,180.7,133.5z"/>
			<path fill="#4A4A4C" d="M187.1,133.5c-0.6,0-1.1-0.1-1.4-0.4s-0.4-0.7-0.4-1.4v-5.2h-1.1l0.1-0.5l1-0.1l0.2-1.7l0.6,0v1.7h2.2
				v0.6h-2.2v5c0,0.5,0.1,0.9,0.3,1.1s0.5,0.3,0.9,0.3c0.3,0,0.6-0.1,1.1-0.2l0,0.7C187.8,133.4,187.4,133.5,187.1,133.5z"/>
			<path fill="#4A4A4C" d="M189.6,133.3c0-4.4,0-6.9,0-7.5h0.7l0.1,1.5c0.3-0.4,0.6-0.8,1-1.1s0.8-0.4,1.3-0.4c0.2,0,0.4,0,0.6,0
				l-0.1,0.7c-0.2,0-0.3,0-0.5,0c-0.6,0-1.2,0.2-1.6,0.7c-0.4,0.5-0.6,1.1-0.6,1.8v4.3H189.6z"/>
			<path fill="#4A4A4C" d="M194.6,124.3v-1.1h0.8v1.1H194.6z M194.6,133.3v-7.5h0.9v7.5H194.6z"/>
			<path fill="#4A4A4C" d="M197.6,133.3v-7.5h0.7l0.1,1.2c0.3-0.4,0.6-0.7,1.1-0.9c0.5-0.2,0.9-0.3,1.5-0.3c0.9,0,1.5,0.2,1.9,0.7
				s0.6,1.2,0.6,2.3v4.6h-0.9v-5c0-0.7-0.2-1.1-0.4-1.4s-0.7-0.4-1.3-0.4c-0.7,0-1.2,0.2-1.7,0.5c-0.4,0.3-0.7,0.8-0.8,1.3
				c0,0.2,0,0.4,0,0.7v4.4H197.6z"/>
			<path fill="#4A4A4C" d="M206.6,136.8l-0.1-0.8h1.6c0.4,0,0.7,0,0.9-0.1s0.5-0.1,0.7-0.2c0.2-0.1,0.3-0.2,0.5-0.4
				c0.1-0.2,0.2-0.3,0.3-0.5s0.1-0.4,0.2-0.7c0-0.3,0.1-0.5,0.1-0.8s0-0.5,0-0.9c0,0.1,0,0,0,0l0-0.5c-0.3,0.4-0.6,0.8-1,1
				s-0.9,0.4-1.4,0.4c-0.4,0-0.9-0.1-1.2-0.2c-0.4-0.2-0.7-0.4-0.9-0.6c-0.2-0.3-0.4-0.5-0.6-0.9s-0.3-0.7-0.3-1s-0.1-0.6-0.1-1
				c0-0.4,0-0.8,0.1-1.1c0.1-0.4,0.2-0.7,0.3-1.1s0.4-0.6,0.6-0.9s0.6-0.5,1-0.6s0.8-0.2,1.3-0.2c0.5,0,0.9,0.1,1.3,0.3
				c0.4,0.2,0.7,0.5,1,0.9l0.1-1.1h0.8v6.9c0,0.3,0,0.5,0,0.7c0,0.2,0,0.4-0.1,0.8c0,0.3-0.1,0.6-0.2,0.8c-0.1,0.2-0.2,0.4-0.4,0.7
				s-0.4,0.4-0.6,0.6c-0.2,0.1-0.6,0.3-0.9,0.4c-0.4,0.1-0.8,0.2-1.3,0.2H206.6z M208.3,132.6c0.3,0,0.6-0.1,0.9-0.2
				s0.5-0.2,0.7-0.4c0.2-0.2,0.3-0.4,0.4-0.6c0.1-0.2,0.2-0.5,0.3-0.7s0.1-0.5,0.1-0.8v-0.8c0-0.4,0-0.7-0.1-1s-0.2-0.6-0.4-0.9
				c-0.2-0.3-0.4-0.5-0.7-0.6s-0.7-0.2-1.1-0.2c-0.3,0-0.6,0.1-0.9,0.2c-0.3,0.1-0.5,0.3-0.7,0.5s-0.3,0.5-0.4,0.8s-0.2,0.6-0.2,0.9
				c0,0.3-0.1,0.6-0.1,0.9c0,0.3,0,0.5,0.1,0.8c0,0.3,0.1,0.5,0.2,0.8c0.1,0.3,0.3,0.5,0.4,0.7s0.4,0.4,0.7,0.5
				C207.6,132.6,208,132.6,208.3,132.6z"/>
		</g>
	</g>
	<g>
		<g>
			<path fill="#4A4A4C" d="M47,172.3v-1.1h0.8v1.1H47z M47,181.3v-7.5h0.9v7.5H47z"/>
			<path fill="#4A4A4C" d="M50,181.3c0-4.5,0-7,0-7.5h0.7l0.1,1.1c0.2-0.4,0.5-0.7,1-0.9c0.4-0.2,0.9-0.4,1.4-0.4
				c1.2,0,2,0.5,2.3,1.4c0.5-0.9,1.4-1.4,2.5-1.4c0.8,0,1.4,0.2,1.8,0.7c0.4,0.5,0.6,1.2,0.6,2.1v4.8h-0.8v-3.7c0-0.3,0-0.6,0-0.9
				s0-0.5-0.1-0.8c0-0.3-0.1-0.5-0.2-0.7c-0.1-0.2-0.2-0.3-0.3-0.5s-0.3-0.3-0.4-0.3s-0.4-0.1-0.6-0.1c-0.6,0-1.1,0.2-1.5,0.5
				c-0.4,0.3-0.7,0.8-0.8,1.4c0,0.5,0,0.8,0,1.1v3.9h-0.8v-3.8c0-0.4,0-0.7,0-1s-0.1-0.6-0.1-0.8s-0.2-0.5-0.3-0.7
				c-0.1-0.2-0.3-0.3-0.5-0.4c-0.2-0.1-0.4-0.2-0.7-0.2c-0.6,0-1.1,0.2-1.6,0.5c-0.4,0.3-0.7,0.8-0.8,1.4c0,0.2,0,0.5,0,0.8v4.3H50z
				"/>
			<path fill="#4A4A4C" d="M64.3,181.5c-0.7,0-1.3-0.2-1.7-0.5s-0.6-0.9-0.6-1.5c0-0.4,0.1-0.7,0.3-1s0.4-0.5,0.7-0.7
				c0.3-0.2,0.7-0.3,1.1-0.4c0.4-0.1,0.9-0.2,1.4-0.2c0.6,0,1-0.1,1.3-0.1v-0.8c0-0.6-0.1-1-0.4-1.3c-0.3-0.3-0.7-0.4-1.3-0.4
				c-0.8,0-1.5,0.2-2.2,0.6c0,0-0.1-0.1-0.1-0.3c-0.1-0.2-0.1-0.3-0.1-0.4c0.3-0.2,0.7-0.3,1.1-0.5s0.9-0.2,1.3-0.2
				c0.9,0,1.5,0.2,1.9,0.6s0.6,1.1,0.6,2v5h-0.7c0-0.1-0.1-0.3-0.1-0.6c0-0.3-0.1-0.5-0.1-0.5C66.2,181,65.3,181.5,64.3,181.5z
				 M64.3,180.8c0.6,0,1.1-0.2,1.6-0.5c0.5-0.3,0.8-0.8,0.9-1.4v-1.3c-0.7,0.1-1,0.1-1,0.1c-1.1,0.1-1.9,0.3-2.3,0.5
				s-0.6,0.7-0.6,1.2c0,0.5,0.1,0.8,0.4,1C63.5,180.7,63.8,180.8,64.3,180.8z"/>
			<path fill="#4A4A4C" d="M70.8,184.8l-0.1-0.8h1.6c0.4,0,0.7,0,0.9-0.1s0.5-0.1,0.7-0.2c0.2-0.1,0.3-0.2,0.5-0.4
				c0.1-0.2,0.2-0.3,0.3-0.5s0.1-0.4,0.2-0.7c0-0.3,0.1-0.5,0.1-0.8s0-0.5,0-0.9c0,0.1,0,0,0,0l0-0.5c-0.3,0.4-0.6,0.8-1,1
				s-0.9,0.4-1.4,0.4c-0.4,0-0.9-0.1-1.2-0.2c-0.4-0.2-0.7-0.4-0.9-0.6c-0.2-0.3-0.4-0.5-0.6-0.9s-0.3-0.7-0.3-1s-0.1-0.6-0.1-1
				c0-0.4,0-0.8,0.1-1.1c0.1-0.4,0.2-0.7,0.3-1.1s0.4-0.6,0.6-0.9s0.6-0.5,1-0.6s0.8-0.2,1.3-0.2c0.5,0,0.9,0.1,1.3,0.3
				c0.4,0.2,0.7,0.5,1,0.9l0.1-1.1h0.8v6.9c0,0.3,0,0.5,0,0.7c0,0.2,0,0.4-0.1,0.8c0,0.3-0.1,0.6-0.2,0.8c-0.1,0.2-0.2,0.4-0.4,0.7
				s-0.4,0.4-0.6,0.6c-0.2,0.1-0.6,0.3-0.9,0.4c-0.4,0.1-0.8,0.2-1.3,0.2H70.8z M72.5,180.6c0.3,0,0.6-0.1,0.9-0.2s0.5-0.2,0.7-0.4
				c0.2-0.2,0.3-0.4,0.4-0.6c0.1-0.2,0.2-0.5,0.3-0.7s0.1-0.5,0.1-0.8v-0.8c0-0.4,0-0.7-0.1-1s-0.2-0.6-0.4-0.9
				c-0.2-0.3-0.4-0.5-0.7-0.6s-0.7-0.2-1.1-0.2c-0.3,0-0.6,0.1-0.9,0.2c-0.3,0.1-0.5,0.3-0.7,0.5s-0.3,0.5-0.4,0.8s-0.2,0.6-0.2,0.9
				c0,0.3-0.1,0.6-0.1,0.9c0,0.3,0,0.5,0.1,0.8c0,0.3,0.1,0.5,0.2,0.8c0.1,0.3,0.3,0.5,0.4,0.7s0.4,0.4,0.7,0.5
				C71.8,180.6,72.2,180.6,72.5,180.6z"/>
			<path fill="#4A4A4C" d="M80.7,181.5c-1,0-1.9-0.3-2.5-1c-0.6-0.7-0.9-1.6-0.9-2.8c0-1.1,0.3-2.1,0.9-2.8c0.6-0.7,1.4-1.1,2.3-1.1
				c0.9,0,1.6,0.3,2.1,0.9s0.8,1.5,0.8,2.5c0,0,0,0.1,0,0.2c0,0.1,0,0.2,0,0.3h-5.2c0,1,0.2,1.7,0.7,2.3s1.1,0.8,1.8,0.8
				c0.5,0,0.9-0.1,1.3-0.2s0.7-0.3,1.1-0.5l0.1,0.6C82.5,181.2,81.6,181.5,80.7,181.5z M78.2,177h4.3c0-0.8-0.2-1.5-0.5-1.9
				s-0.9-0.7-1.5-0.7c-0.6,0-1.2,0.2-1.5,0.7S78.3,176.2,78.2,177z"/>
		</g>
	</g>
	<g>
		<g>
			<path fill="#4A4A4C" d="M180.7,181.5c-0.5,0-0.9-0.1-1.4-0.2s-0.8-0.3-1-0.4l0.1-0.7c0.8,0.4,1.5,0.6,2.2,0.6
				c1.2,0,1.9-0.5,1.9-1.4c0-0.4-0.1-0.7-0.4-0.9c-0.2-0.2-0.7-0.4-1.5-0.7c-0.4-0.1-0.6-0.2-0.6-0.2c-1.2-0.4-1.8-1-1.8-1.9
				c0-0.5,0.2-1,0.7-1.4c0.5-0.4,1.1-0.6,1.9-0.6s1.5,0.2,2.2,0.5l-0.3,0.6c-0.7-0.3-1.4-0.4-2-0.4c-0.5,0-0.9,0.1-1.2,0.4
				c-0.3,0.2-0.5,0.6-0.5,1c0,0.3,0.1,0.6,0.3,0.8c0.2,0.2,0.6,0.4,1.2,0.5c0.1,0,0.2,0.1,0.4,0.1c0.2,0.1,0.3,0.1,0.3,0.1
				c0.8,0.2,1.3,0.5,1.7,0.9c0.3,0.3,0.5,0.8,0.5,1.4c0,0.7-0.3,1.2-0.7,1.5C182.2,181.3,181.5,181.5,180.7,181.5z"/>
			<path fill="#4A4A4C" d="M187.1,181.5c-0.6,0-1.1-0.1-1.4-0.4s-0.4-0.7-0.4-1.4v-5.2h-1.1l0.1-0.5l1-0.1l0.2-1.7l0.6,0v1.7h2.2
				v0.6h-2.2v5c0,0.5,0.1,0.9,0.3,1.1s0.5,0.3,0.9,0.3c0.3,0,0.6-0.1,1.1-0.2l0,0.7C187.8,181.4,187.4,181.5,187.1,181.5z"/>
			<path fill="#4A4A4C" d="M189.6,181.3c0-4.4,0-6.9,0-7.5h0.7l0.1,1.5c0.3-0.4,0.6-0.8,1-1.1s0.8-0.4,1.3-0.4c0.2,0,0.4,0,0.6,0
				l-0.1,0.7c-0.2,0-0.3,0-0.5,0c-0.6,0-1.2,0.2-1.6,0.7c-0.4,0.5-0.6,1.1-0.6,1.8v4.3H189.6z"/>
			<path fill="#4A4A4C" d="M194.6,172.3v-1.1h0.8v1.1H194.6z M194.6,181.3v-7.5h0.9v7.5H194.6z"/>
			<path fill="#4A4A4C" d="M197.6,181.3v-7.5h0.7l0.1,1.2c0.3-0.4,0.6-0.7,1.1-0.9c0.5-0.2,0.9-0.3,1.5-0.3c0.9,0,1.5,0.2,1.9,0.7
				s0.6,1.2,0.6,2.3v4.6h-0.9v-5c0-0.7-0.2-1.1-0.4-1.4s-0.7-0.4-1.3-0.4c-0.7,0-1.2,0.2-1.7,0.5c-0.4,0.3-0.7,0.8-0.8,1.3
				c0,0.2,0,0.4,0,0.7v4.4H197.6z"/>
			<path fill="#4A4A4C" d="M206.6,184.8l-0.1-0.8h1.6c0.4,0,0.7,0,0.9-0.1s0.5-0.1,0.7-0.2c0.2-0.1,0.3-0.2,0.5-0.4
				c0.1-0.2,0.2-0.3,0.3-0.5s0.1-0.4,0.2-0.7c0-0.3,0.1-0.5,0.1-0.8s0-0.5,0-0.9c0,0.1,0,0,0,0l0-0.5c-0.3,0.4-0.6,0.8-1,1
				s-0.9,0.4-1.4,0.4c-0.4,0-0.9-0.1-1.2-0.2c-0.4-0.2-0.7-0.4-0.9-0.6c-0.2-0.3-0.4-0.5-0.6-0.9s-0.3-0.7-0.3-1s-0.1-0.6-0.1-1
				c0-0.4,0-0.8,0.1-1.1c0.1-0.4,0.2-0.7,0.3-1.1s0.4-0.6,0.6-0.9s0.6-0.5,1-0.6s0.8-0.2,1.3-0.2c0.5,0,0.9,0.1,1.3,0.3
				c0.4,0.2,0.7,0.5,1,0.9l0.1-1.1h0.8v6.9c0,0.3,0,0.5,0,0.7c0,0.2,0,0.4-0.1,0.8c0,0.3-0.1,0.6-0.2,0.8c-0.1,0.2-0.2,0.4-0.4,0.7
				s-0.4,0.4-0.6,0.6c-0.2,0.1-0.6,0.3-0.9,0.4c-0.4,0.1-0.8,0.2-1.3,0.2H206.6z M208.3,180.6c0.3,0,0.6-0.1,0.9-0.2
				s0.5-0.2,0.7-0.4c0.2-0.2,0.3-0.4,0.4-0.6c0.1-0.2,0.2-0.5,0.3-0.7s0.1-0.5,0.1-0.8v-0.8c0-0.4,0-0.7-0.1-1s-0.2-0.6-0.4-0.9
				c-0.2-0.3-0.4-0.5-0.7-0.6s-0.7-0.2-1.1-0.2c-0.3,0-0.6,0.1-0.9,0.2c-0.3,0.1-0.5,0.3-0.7,0.5s-0.3,0.5-0.4,0.8s-0.2,0.6-0.2,0.9
				c0,0.3-0.1,0.6-0.1,0.9c0,0.3,0,0.5,0.1,0.8c0,0.3,0.1,0.5,0.2,0.8c0.1,0.3,0.3,0.5,0.4,0.7s0.4,0.4,0.7,0.5
				C207.6,180.6,208,180.6,208.3,180.6z"/>
		</g>
	</g>
	<g>
		<g>
			<path fill="#4A4A4C" d="M26.8,223.3c0-4.4,0-6.9,0-7.5h0.7l0.1,1.5c0.3-0.4,0.6-0.8,1-1.1s0.8-0.4,1.3-0.4c0.2,0,0.4,0,0.6,0
				l-0.1,0.7c-0.2,0-0.3,0-0.5,0c-0.6,0-1.2,0.2-1.6,0.7c-0.4,0.5-0.6,1.1-0.6,1.8v4.3H26.8z"/>
			<path fill="#4A4A4C" d="M34.6,223.5c-1,0-1.9-0.3-2.5-1c-0.6-0.7-0.9-1.6-0.9-2.8c0-1.1,0.3-2.1,0.9-2.8c0.6-0.7,1.4-1.1,2.3-1.1
				c0.9,0,1.6,0.3,2.1,0.9s0.8,1.5,0.8,2.5c0,0,0,0.1,0,0.2c0,0.1,0,0.2,0,0.3h-5.2c0,1,0.2,1.7,0.7,2.3s1.1,0.8,1.8,0.8
				c0.5,0,0.9-0.1,1.3-0.2s0.7-0.3,1.1-0.5l0.1,0.6C36.4,223.2,35.6,223.5,34.6,223.5z M32.2,219h4.3c0-0.8-0.2-1.5-0.5-1.9
				s-0.9-0.7-1.5-0.7c-0.6,0-1.2,0.2-1.5,0.7S32.2,218.2,32.2,219z"/>
			<path fill="#4A4A4C" d="M40.9,223.5c-0.6,0-1.1-0.1-1.4-0.4s-0.4-0.7-0.4-1.4v-8.7l0.8-0.1v8.8c0,0.5,0.1,0.8,0.2,0.9
				c0.2,0.2,0.4,0.3,0.8,0.3c0.3,0,0.6-0.1,1-0.2l0,0.7C41.6,223.4,41.2,223.5,40.9,223.5z"/>
			<path fill="#4A4A4C" d="M46.1,223.5c-1,0-1.9-0.3-2.5-1c-0.6-0.7-0.9-1.6-0.9-2.8c0-1.1,0.3-2.1,0.9-2.8c0.6-0.7,1.4-1.1,2.3-1.1
				c0.9,0,1.6,0.3,2.1,0.9s0.8,1.5,0.8,2.5c0,0,0,0.1,0,0.2c0,0.1,0,0.2,0,0.3h-5.2c0,1,0.2,1.7,0.7,2.3s1.1,0.8,1.8,0.8
				c0.5,0,0.9-0.1,1.3-0.2s0.7-0.3,1.1-0.5l0.1,0.6C47.9,223.2,47,223.5,46.1,223.5z M43.6,219h4.3c0-0.8-0.2-1.5-0.5-1.9
				s-0.9-0.7-1.5-0.7c-0.6,0-1.2,0.2-1.5,0.7S43.7,218.2,43.6,219z"/>
			<path fill="#4A4A4C" d="M52.4,223.5c-0.7,0-1.3-0.2-1.7-0.5s-0.6-0.9-0.6-1.5c0-0.4,0.1-0.7,0.3-1s0.4-0.5,0.7-0.7
				c0.3-0.2,0.7-0.3,1.1-0.4c0.4-0.1,0.9-0.2,1.4-0.2c0.6,0,1-0.1,1.3-0.1v-0.8c0-0.6-0.1-1-0.4-1.3c-0.3-0.3-0.7-0.4-1.3-0.4
				c-0.8,0-1.5,0.2-2.2,0.6c0,0-0.1-0.1-0.1-0.3c-0.1-0.2-0.1-0.3-0.1-0.4c0.3-0.2,0.7-0.3,1.1-0.5s0.9-0.2,1.3-0.2
				c0.9,0,1.5,0.2,1.9,0.6s0.6,1.1,0.6,2v5h-0.7c0-0.1-0.1-0.3-0.1-0.6c0-0.3-0.1-0.5-0.1-0.5C54.3,223,53.5,223.5,52.4,223.5z
				 M52.4,222.8c0.6,0,1.1-0.2,1.6-0.5c0.5-0.3,0.8-0.8,0.9-1.4v-1.3c-0.7,0.1-1,0.1-1,0.1c-1.1,0.1-1.9,0.3-2.3,0.5
				s-0.6,0.7-0.6,1.2c0,0.5,0.1,0.8,0.4,1C51.6,222.7,52,222.8,52.4,222.8z"/>
			<path fill="#4A4A4C" d="M60,223.5c-0.5,0-0.9-0.1-1.4-0.2s-0.8-0.3-1-0.4l0.1-0.7c0.8,0.4,1.5,0.6,2.2,0.6c1.2,0,1.9-0.5,1.9-1.4
				c0-0.4-0.1-0.7-0.4-0.9c-0.2-0.2-0.7-0.4-1.5-0.7c-0.4-0.1-0.6-0.2-0.6-0.2c-1.2-0.4-1.8-1-1.8-1.9c0-0.5,0.2-1,0.7-1.4
				c0.5-0.4,1.1-0.6,1.9-0.6s1.5,0.2,2.2,0.5l-0.3,0.6c-0.7-0.3-1.4-0.4-2-0.4c-0.5,0-0.9,0.1-1.2,0.4c-0.3,0.2-0.5,0.6-0.5,1
				c0,0.3,0.1,0.6,0.3,0.8c0.2,0.2,0.6,0.4,1.2,0.5c0.1,0,0.2,0.1,0.4,0.1c0.2,0.1,0.3,0.1,0.3,0.1c0.8,0.2,1.3,0.5,1.7,0.9
				c0.3,0.3,0.5,0.8,0.5,1.4c0,0.7-0.3,1.2-0.7,1.5C61.4,223.3,60.7,223.5,60,223.5z"/>
			<path fill="#4A4A4C" d="M67.3,223.5c-1,0-1.9-0.3-2.5-1c-0.6-0.7-0.9-1.6-0.9-2.8c0-1.1,0.3-2.1,0.9-2.8c0.6-0.7,1.4-1.1,2.3-1.1
				c0.9,0,1.6,0.3,2.1,0.9s0.8,1.5,0.8,2.5c0,0,0,0.1,0,0.2c0,0.1,0,0.2,0,0.3h-5.2c0,1,0.2,1.7,0.7,2.3s1.1,0.8,1.8,0.8
				c0.5,0,0.9-0.1,1.3-0.2s0.7-0.3,1.1-0.5l0.1,0.6C69.1,223.2,68.2,223.5,67.3,223.5z M64.8,219h4.3c0-0.8-0.2-1.5-0.5-1.9
				s-0.9-0.7-1.5-0.7c-0.6,0-1.2,0.2-1.5,0.7S64.9,218.2,64.8,219z"/>
			<path fill="#4A4A4C" d="M71.2,224v-0.7h6.2v0.7H71.2z"/>
			<path fill="#4A4A4C" d="M78.6,226.9c-0.2,0-0.4,0-0.6-0.1l-0.1-0.7c0,0,0.1,0,0.2,0c0.1,0,0.2,0,0.3,0c0.6,0,1-0.1,1.3-0.3
				s0.5-0.6,0.8-1.1c0-0.1,0.1-0.3,0.2-0.6c0.1-0.3,0.2-0.6,0.3-0.7l-3-7.5h0.9l2.5,6.7l0.3-0.9c1.3-3.9,1.9-5.9,1.9-5.9
				c0,0,0,0,0,0.1h0.9c-2,5.6-3,8.5-3.1,8.8c-0.3,0.8-0.7,1.3-1.1,1.7S79.3,226.9,78.6,226.9z"/>
			<path fill="#4A4A4C" d="M88.6,223.5c-1,0-1.9-0.3-2.5-1c-0.6-0.7-0.9-1.6-0.9-2.8c0-1.1,0.3-2.1,0.9-2.8c0.6-0.7,1.4-1.1,2.3-1.1
				c0.9,0,1.6,0.3,2.1,0.9s0.8,1.5,0.8,2.5c0,0,0,0.1,0,0.2c0,0.1,0,0.2,0,0.3h-5.2c0,1,0.2,1.7,0.7,2.3s1.1,0.8,1.8,0.8
				c0.5,0,0.9-0.1,1.3-0.2s0.7-0.3,1.1-0.5l0.1,0.6C90.4,223.2,89.5,223.5,88.6,223.5z M86.1,219h4.3c0-0.8-0.2-1.5-0.5-1.9
				s-0.9-0.7-1.5-0.7c-0.6,0-1.2,0.2-1.5,0.7S86.2,218.2,86.1,219z"/>
			<path fill="#4A4A4C" d="M94.9,223.5c-0.7,0-1.3-0.2-1.7-0.5s-0.6-0.9-0.6-1.5c0-0.4,0.1-0.7,0.3-1s0.4-0.5,0.7-0.7
				c0.3-0.2,0.7-0.3,1.1-0.4c0.4-0.1,0.9-0.2,1.4-0.2c0.6,0,1-0.1,1.3-0.1v-0.8c0-0.6-0.1-1-0.4-1.3c-0.3-0.3-0.7-0.4-1.3-0.4
				c-0.8,0-1.5,0.2-2.2,0.6c0,0-0.1-0.1-0.1-0.3c-0.1-0.2-0.1-0.3-0.1-0.4c0.3-0.2,0.7-0.3,1.1-0.5s0.9-0.2,1.3-0.2
				c0.9,0,1.5,0.2,1.9,0.6s0.6,1.1,0.6,2v5h-0.7c0-0.1-0.1-0.3-0.1-0.6c0-0.3-0.1-0.5-0.1-0.5C96.8,223,96,223.5,94.9,223.5z
				 M95,222.8c0.6,0,1.1-0.2,1.6-0.5c0.5-0.3,0.8-0.8,0.9-1.4v-1.3c-0.7,0.1-1,0.1-1,0.1c-1.1,0.1-1.9,0.3-2.3,0.5s-0.6,0.7-0.6,1.2
				c0,0.5,0.1,0.8,0.4,1C94.1,222.7,94.5,222.8,95,222.8z"/>
			<path fill="#4A4A4C" d="M100.3,223.3c0-4.4,0-6.9,0-7.5h0.7l0.1,1.5c0.3-0.4,0.6-0.8,1-1.1s0.8-0.4,1.3-0.4c0.2,0,0.4,0,0.6,0
				l-0.1,0.7c-0.2,0-0.3,0-0.5,0c-0.6,0-1.2,0.2-1.6,0.7c-0.4,0.5-0.6,1.1-0.6,1.8v4.3H100.3z"/>
		</g>
	</g>
	<g>
		<g>
			<path fill="#4A4A4C" d="M180.7,223.5c-0.5,0-0.9-0.1-1.4-0.2s-0.8-0.3-1-0.4l0.1-0.7c0.8,0.4,1.5,0.6,2.2,0.6
				c1.2,0,1.9-0.5,1.9-1.4c0-0.4-0.1-0.7-0.4-0.9c-0.2-0.2-0.7-0.4-1.5-0.7c-0.4-0.1-0.6-0.2-0.6-0.2c-1.2-0.4-1.8-1-1.8-1.9
				c0-0.5,0.2-1,0.7-1.4c0.5-0.4,1.1-0.6,1.9-0.6s1.5,0.2,2.2,0.5l-0.3,0.6c-0.7-0.3-1.4-0.4-2-0.4c-0.5,0-0.9,0.1-1.2,0.4
				c-0.3,0.2-0.5,0.6-0.5,1c0,0.3,0.1,0.6,0.3,0.8c0.2,0.2,0.6,0.4,1.2,0.5c0.1,0,0.2,0.1,0.4,0.1c0.2,0.1,0.3,0.1,0.3,0.1
				c0.8,0.2,1.3,0.5,1.7,0.9c0.3,0.3,0.5,0.8,0.5,1.4c0,0.7-0.3,1.2-0.7,1.5C182.2,223.3,181.5,223.5,180.7,223.5z"/>
			<path fill="#4A4A4C" d="M187.1,223.5c-0.6,0-1.1-0.1-1.4-0.4s-0.4-0.7-0.4-1.4v-5.2h-1.1l0.1-0.5l1-0.1l0.2-1.7l0.6,0v1.7h2.2
				v0.6h-2.2v5c0,0.5,0.1,0.9,0.3,1.1s0.5,0.3,0.9,0.3c0.3,0,0.6-0.1,1.1-0.2l0,0.7C187.8,223.4,187.4,223.5,187.1,223.5z"/>
			<path fill="#4A4A4C" d="M189.6,223.3c0-4.4,0-6.9,0-7.5h0.7l0.1,1.5c0.3-0.4,0.6-0.8,1-1.1s0.8-0.4,1.3-0.4c0.2,0,0.4,0,0.6,0
				l-0.1,0.7c-0.2,0-0.3,0-0.5,0c-0.6,0-1.2,0.2-1.6,0.7c-0.4,0.5-0.6,1.1-0.6,1.8v4.3H189.6z"/>
			<path fill="#4A4A4C" d="M194.6,214.3v-1.1h0.8v1.1H194.6z M194.6,223.3v-7.5h0.9v7.5H194.6z"/>
			<path fill="#4A4A4C" d="M197.6,223.3v-7.5h0.7l0.1,1.2c0.3-0.4,0.6-0.7,1.1-0.9c0.5-0.2,0.9-0.3,1.5-0.3c0.9,0,1.5,0.2,1.9,0.7
				s0.6,1.2,0.6,2.3v4.6h-0.9v-5c0-0.7-0.2-1.1-0.4-1.4s-0.7-0.4-1.3-0.4c-0.7,0-1.2,0.2-1.7,0.5c-0.4,0.3-0.7,0.8-0.8,1.3
				c0,0.2,0,0.4,0,0.7v4.4H197.6z"/>
			<path fill="#4A4A4C" d="M206.6,226.8l-0.1-0.8h1.6c0.4,0,0.7,0,0.9-0.1s0.5-0.1,0.7-0.2c0.2-0.1,0.3-0.2,0.5-0.4
				c0.1-0.2,0.2-0.3,0.3-0.5s0.1-0.4,0.2-0.7c0-0.3,0.1-0.5,0.1-0.8s0-0.5,0-0.9c0,0.1,0,0,0,0l0-0.5c-0.3,0.4-0.6,0.8-1,1
				s-0.9,0.4-1.4,0.4c-0.4,0-0.9-0.1-1.2-0.2c-0.4-0.2-0.7-0.4-0.9-0.6c-0.2-0.3-0.4-0.5-0.6-0.9s-0.3-0.7-0.3-1s-0.1-0.6-0.1-1
				c0-0.4,0-0.8,0.1-1.1c0.1-0.4,0.2-0.7,0.3-1.1s0.4-0.6,0.6-0.9s0.6-0.5,1-0.6s0.8-0.2,1.3-0.2c0.5,0,0.9,0.1,1.3,0.3
				c0.4,0.2,0.7,0.5,1,0.9l0.1-1.1h0.8v6.9c0,0.3,0,0.5,0,0.7c0,0.2,0,0.4-0.1,0.8c0,0.3-0.1,0.6-0.2,0.8c-0.1,0.2-0.2,0.4-0.4,0.7
				s-0.4,0.4-0.6,0.6c-0.2,0.1-0.6,0.3-0.9,0.4c-0.4,0.1-0.8,0.2-1.3,0.2H206.6z M208.3,222.6c0.3,0,0.6-0.1,0.9-0.2
				s0.5-0.2,0.7-0.4c0.2-0.2,0.3-0.4,0.4-0.6c0.1-0.2,0.2-0.5,0.3-0.7s0.1-0.5,0.1-0.8v-0.8c0-0.4,0-0.7-0.1-1s-0.2-0.6-0.4-0.9
				c-0.2-0.3-0.4-0.5-0.7-0.6s-0.7-0.2-1.1-0.2c-0.3,0-0.6,0.1-0.9,0.2c-0.3,0.1-0.5,0.3-0.7,0.5s-0.3,0.5-0.4,0.8s-0.2,0.6-0.2,0.9
				c0,0.3-0.1,0.6-0.1,0.9c0,0.3,0,0.5,0.1,0.8c0,0.3,0.1,0.5,0.2,0.8c0.1,0.3,0.3,0.5,0.4,0.7s0.4,0.4,0.7,0.5
				C207.6,222.6,208,222.6,208.3,222.6z"/>
		</g>
	</g>
	<g>
		<g>
			<path fill="#4A4A4C" d="M53.6,274.6v-10.8h0.8l0.1,1.1c0.4-0.4,0.7-0.7,1.1-0.9c0.4-0.2,0.8-0.3,1.3-0.3c1.1,0,1.9,0.4,2.4,1.1
				c0.5,0.7,0.8,1.7,0.8,2.9c0,1.1-0.3,2-0.8,2.8s-1.3,1.1-2.3,1.1c-0.5,0-1-0.1-1.4-0.3s-0.8-0.5-1-0.9c0,0.6,0,1.1,0,1.7v2.7
				L53.6,274.6z M56.8,270.8c0.4,0,0.7-0.1,1-0.3s0.5-0.4,0.7-0.7s0.3-0.6,0.4-1c0.1-0.4,0.1-0.7,0.1-1.1c0-0.4,0-0.8-0.1-1.1
				s-0.2-0.7-0.4-1c-0.2-0.3-0.4-0.6-0.7-0.7s-0.7-0.3-1-0.3c-0.4,0-0.8,0.1-1.1,0.2c-0.3,0.2-0.6,0.4-0.7,0.7
				c-0.2,0.3-0.3,0.6-0.4,1s-0.1,0.8-0.1,1.2c0,0.5,0,1,0.1,1.4s0.2,0.7,0.4,1c0.2,0.3,0.4,0.5,0.7,0.7S56.4,270.8,56.8,270.8z"/>
			<path fill="#4A4A4C" d="M63.5,271.5c-0.6,0-1.1-0.1-1.4-0.4s-0.4-0.7-0.4-1.4v-8.7l0.8-0.1v8.8c0,0.5,0.1,0.8,0.2,0.9
				c0.2,0.2,0.4,0.3,0.8,0.3c0.3,0,0.6-0.1,1-0.2l0,0.7C64.2,271.4,63.8,271.5,63.5,271.5z"/>
			<path fill="#4A4A4C" d="M68.7,271.5c-0.7,0-1.3-0.2-1.8-0.5c-0.5-0.3-0.9-0.8-1.2-1.4c-0.3-0.6-0.4-1.2-0.4-2
				c0-0.6,0.1-1.1,0.2-1.5c0.2-0.5,0.4-0.9,0.7-1.2s0.7-0.6,1.1-0.8s0.9-0.3,1.4-0.3c0.7,0,1.3,0.2,1.8,0.5s0.9,0.8,1.2,1.4
				c0.3,0.6,0.4,1.2,0.4,2c0,0.7-0.1,1.4-0.4,2s-0.7,1-1.2,1.4S69.4,271.5,68.7,271.5z M68.7,270.8c0.5,0,1-0.1,1.4-0.4
				c0.4-0.3,0.7-0.7,0.8-1.1c0.2-0.5,0.3-1,0.3-1.6c0-1-0.2-1.7-0.6-2.3s-1-0.9-1.9-0.9c-0.5,0-1,0.1-1.4,0.4
				c-0.4,0.3-0.7,0.7-0.8,1.2s-0.3,1-0.3,1.6c0,0.9,0.2,1.7,0.7,2.3C67.3,270.5,67.9,270.8,68.7,270.8z"/>
			<path fill="#4A4A4C" d="M75.9,271.5c-0.6,0-1.1-0.1-1.4-0.4s-0.4-0.7-0.4-1.4v-5.2H73l0.1-0.5l1-0.1l0.2-1.7l0.6,0v1.7h2.2v0.6
				h-2.2v5c0,0.5,0.1,0.9,0.3,1.1s0.5,0.3,0.9,0.3c0.3,0,0.6-0.1,1.1-0.2l0,0.7C76.6,271.4,76.2,271.5,75.9,271.5z"/>
		</g>
	</g>
	<g>
		<g>
			<path fill="#4A4A4C" d="M180.7,271.5c-0.5,0-0.9-0.1-1.4-0.2s-0.8-0.3-1-0.4l0.1-0.7c0.8,0.4,1.5,0.6,2.2,0.6
				c1.2,0,1.9-0.5,1.9-1.4c0-0.4-0.1-0.7-0.4-0.9c-0.2-0.2-0.7-0.4-1.5-0.7c-0.4-0.1-0.6-0.2-0.6-0.2c-1.2-0.4-1.8-1-1.8-1.9
				c0-0.5,0.2-1,0.7-1.4c0.5-0.4,1.1-0.6,1.9-0.6s1.5,0.2,2.2,0.5l-0.3,0.6c-0.7-0.3-1.4-0.4-2-0.4c-0.5,0-0.9,0.1-1.2,0.4
				c-0.3,0.2-0.5,0.6-0.5,1c0,0.3,0.1,0.6,0.3,0.8c0.2,0.2,0.6,0.4,1.2,0.5c0.1,0,0.2,0.1,0.4,0.1c0.2,0.1,0.3,0.1,0.3,0.1
				c0.8,0.2,1.3,0.5,1.7,0.9c0.3,0.3,0.5,0.8,0.5,1.4c0,0.7-0.3,1.2-0.7,1.5C182.2,271.3,181.5,271.5,180.7,271.5z"/>
			<path fill="#4A4A4C" d="M187.1,271.5c-0.6,0-1.1-0.1-1.4-0.4s-0.4-0.7-0.4-1.4v-5.2h-1.1l0.1-0.5l1-0.1l0.2-1.7l0.6,0v1.7h2.2
				v0.6h-2.2v5c0,0.5,0.1,0.9,0.3,1.1s0.5,0.3,0.9,0.3c0.3,0,0.6-0.1,1.1-0.2l0,0.7C187.8,271.4,187.4,271.5,187.1,271.5z"/>
			<path fill="#4A4A4C" d="M189.6,271.3c0-4.4,0-6.9,0-7.5h0.7l0.1,1.5c0.3-0.4,0.6-0.8,1-1.1s0.8-0.4,1.3-0.4c0.2,0,0.4,0,0.6,0
				l-0.1,0.7c-0.2,0-0.3,0-0.5,0c-0.6,0-1.2,0.2-1.6,0.7c-0.4,0.5-0.6,1.1-0.6,1.8v4.3H189.6z"/>
			<path fill="#4A4A4C" d="M194.6,262.3v-1.1h0.8v1.1H194.6z M194.6,271.3v-7.5h0.9v7.5H194.6z"/>
			<path fill="#4A4A4C" d="M197.6,271.3v-7.5h0.7l0.1,1.2c0.3-0.4,0.6-0.7,1.1-0.9c0.5-0.2,0.9-0.3,1.5-0.3c0.9,0,1.5,0.2,1.9,0.7
				s0.6,1.2,0.6,2.3v4.6h-0.9v-5c0-0.7-0.2-1.1-0.4-1.4s-0.7-0.4-1.3-0.4c-0.7,0-1.2,0.2-1.7,0.5c-0.4,0.3-0.7,0.8-0.8,1.3
				c0,0.2,0,0.4,0,0.7v4.4H197.6z"/>
			<path fill="#4A4A4C" d="M206.6,274.8l-0.1-0.8h1.6c0.4,0,0.7,0,0.9-0.1s0.5-0.1,0.7-0.2c0.2-0.1,0.3-0.2,0.5-0.4
				c0.1-0.2,0.2-0.3,0.3-0.5s0.1-0.4,0.2-0.7c0-0.3,0.1-0.5,0.1-0.8s0-0.5,0-0.9c0,0.1,0,0,0,0l0-0.5c-0.3,0.4-0.6,0.8-1,1
				s-0.9,0.4-1.4,0.4c-0.4,0-0.9-0.1-1.2-0.2c-0.4-0.2-0.7-0.4-0.9-0.6c-0.2-0.3-0.4-0.5-0.6-0.9s-0.3-0.7-0.3-1s-0.1-0.6-0.1-1
				c0-0.4,0-0.8,0.1-1.1c0.1-0.4,0.2-0.7,0.3-1.1s0.4-0.6,0.6-0.9s0.6-0.5,1-0.6s0.8-0.2,1.3-0.2c0.5,0,0.9,0.1,1.3,0.3
				c0.4,0.2,0.7,0.5,1,0.9l0.1-1.1h0.8v6.9c0,0.3,0,0.5,0,0.7c0,0.2,0,0.4-0.1,0.8c0,0.3-0.1,0.6-0.2,0.8c-0.1,0.2-0.2,0.4-0.4,0.7
				s-0.4,0.4-0.6,0.6c-0.2,0.1-0.6,0.3-0.9,0.4c-0.4,0.1-0.8,0.2-1.3,0.2H206.6z M208.3,270.6c0.3,0,0.6-0.1,0.9-0.2
				s0.5-0.2,0.7-0.4c0.2-0.2,0.3-0.4,0.4-0.6c0.1-0.2,0.2-0.5,0.3-0.7s0.1-0.5,0.1-0.8v-0.8c0-0.4,0-0.7-0.1-1s-0.2-0.6-0.4-0.9
				c-0.2-0.3-0.4-0.5-0.7-0.6s-0.7-0.2-1.1-0.2c-0.3,0-0.6,0.1-0.9,0.2c-0.3,0.1-0.5,0.3-0.7,0.5s-0.3,0.5-0.4,0.8s-0.2,0.6-0.2,0.9
				c0,0.3-0.1,0.6-0.1,0.9c0,0.3,0,0.5,0.1,0.8c0,0.3,0.1,0.5,0.2,0.8c0.1,0.3,0.3,0.5,0.4,0.7s0.4,0.4,0.7,0.5
				C207.6,270.6,208,270.6,208.3,270.6z"/>
		</g>
	</g>
	<line fill="none" stroke="#BCBEC0" stroke-miterlimit="10" x1="0" y1="60" x2="260" y2="60"/>
	<line fill="none" stroke="#BCBEC0" stroke-miterlimit="10" x1="0" y1="241.9" x2="260" y2="241.9"/>
	<line fill="none" stroke="#BCBEC0" stroke-miterlimit="10" x1="0" y1="196.1" x2="260" y2="196.1"/>
	<line fill="none" stroke="#BCBEC0" stroke-miterlimit="10" x1="0" y1="150.4" x2="260" y2="150.4"/>
	<line fill="none" stroke="#BCBEC0" stroke-miterlimit="10" x1="0" y1="104.7" x2="260" y2="104.7"/>
	<rect fill="none" stroke="#BCBEC0" stroke-miterlimit="10" width="260" height="287.6"/>
	<line fill="none" stroke="#BCBEC0" stroke-miterlimit="10" x1="130" y1="60" x2="130" y2="287.6"/>
</g>
<g>
	<rect x="328" y="270.1" fill="#E6E7E8" width="260" height="60"/>
	<g>
		<path fill="#204056" d="M442.1,293.8v-10h3.3c0.8,0,1.5,0.1,2,0.3s1,0.5,1.3,1c0.3,0.5,0.5,1,0.5,1.7c0,0.5-0.1,0.9-0.2,1.3
			s-0.3,0.7-0.6,1s-0.7,0.5-1.2,0.7c-0.5,0.2-1.1,0.2-1.9,0.2c-0.6,0-1.1,0-1.5-0.1v3.9H442.1z M445.2,288.7c0.4,0,0.7,0,1-0.1
			c0.3-0.1,0.5-0.2,0.7-0.3c0.2-0.1,0.3-0.3,0.4-0.4c0.1-0.2,0.2-0.3,0.2-0.5c0-0.2,0-0.3,0-0.5c0-0.6-0.2-1-0.5-1.3
			s-0.9-0.4-1.5-0.4h-1.5v3.5C444,288.7,444.4,288.7,445.2,288.7z"/>
		<path fill="#204056" d="M452.3,293.9c-0.7,0-1.3-0.2-1.7-0.6c-0.4-0.4-0.6-0.9-0.6-1.7c0-0.8,0.3-1.4,0.8-1.7s1.3-0.6,2.3-0.7
			c0.1,0,0.3,0,0.5-0.1s0.3,0,0.6-0.1s0.4,0,0.5,0v-0.4c0-0.5-0.1-0.8-0.3-1s-0.5-0.3-1-0.3c-0.6,0-1.4,0.2-2.3,0.5
			c0,0-0.1-0.2-0.2-0.6s-0.2-0.6-0.2-0.6c0.9-0.4,1.8-0.6,2.9-0.6c1,0,1.7,0.2,2.2,0.7s0.7,1.2,0.7,2.1v4.9H455c0,0-0.1-0.2-0.2-0.5
			s-0.1-0.4-0.1-0.5c-0.4,0.4-0.7,0.6-1.1,0.8C453.3,293.9,452.8,293.9,452.3,293.9z M452.8,292.7c0.4,0,0.8-0.1,1.1-0.3
			c0.3-0.2,0.5-0.4,0.7-0.7v-1.4c0,0-0.1,0-0.4,0c-0.2,0-0.3,0-0.4,0c-0.7,0.1-1.3,0.2-1.6,0.4s-0.5,0.5-0.5,1
			c0,0.3,0.1,0.6,0.3,0.7S452.5,292.7,452.8,292.7z"/>
		<path fill="#204056" d="M458.2,293.8v-7.5h1.5l0.2,1.1c0.5-0.8,1.2-1.2,2.1-1.2c0.2,0,0.4,0,0.5,0l0,1.5c-0.2,0-0.4,0-0.6,0
			c-0.7,0-1.2,0.2-1.5,0.5c-0.3,0.4-0.5,0.8-0.5,1.5v4.1H458.2z"/>
		<path fill="#204056" d="M466.6,293.9c-0.5,0-0.9-0.1-1.3-0.2c-0.3-0.1-0.6-0.3-0.8-0.6s-0.3-0.6-0.4-0.9c-0.1-0.4-0.1-0.8-0.1-1.3
			v-3.5h-1.2l0.1-1l1.3-0.1l0.6-2l1.1,0v2h1.9v1.1h-1.9v3.6c0,0.6,0.1,1,0.2,1.2s0.5,0.4,0.9,0.4c0.3,0,0.5,0,0.8-0.1l0,1.3
			c0,0-0.1,0-0.2,0c-0.1,0-0.2,0-0.3,0.1c-0.1,0-0.2,0-0.4,0S466.7,293.9,466.6,293.9z"/>
		<path fill="#204056" d="M471.5,293.9c-1.1,0-2-0.2-2.7-0.6l0.2-1.3c0.3,0.2,0.7,0.3,1.1,0.4s0.9,0.2,1.3,0.2
			c0.4,0,0.7-0.1,0.9-0.2c0.2-0.1,0.3-0.4,0.3-0.7c0-0.3-0.1-0.5-0.3-0.6c-0.2-0.2-0.6-0.3-1.2-0.6c-0.2-0.1-0.3-0.1-0.4-0.1
			c-0.7-0.3-1.2-0.6-1.5-0.9s-0.5-0.8-0.5-1.3c0-0.7,0.2-1.2,0.7-1.6c0.5-0.4,1.2-0.5,2.1-0.5c1,0,1.8,0.2,2.5,0.5l-0.4,1.2
			c-0.7-0.3-1.4-0.5-2-0.5c-0.4,0-0.6,0.1-0.8,0.2c-0.2,0.1-0.3,0.3-0.3,0.6c0,0.2,0.1,0.4,0.3,0.5s0.6,0.3,1.1,0.5
			c0,0,0.1,0,0.2,0.1s0.2,0.1,0.2,0.1c0.7,0.3,1.2,0.6,1.5,0.9s0.5,0.8,0.5,1.4c0,0.8-0.3,1.3-0.8,1.7S472.4,293.9,471.5,293.9z"/>
		<path fill="#4A4A4C" d="M423.3,310.6c0-4.5,0-7,0-7.5h0.7l0.1,1.1c0.2-0.4,0.5-0.7,1-0.9c0.4-0.2,0.9-0.4,1.4-0.4
			c1.2,0,2,0.5,2.3,1.4c0.5-0.9,1.4-1.4,2.5-1.4c0.8,0,1.4,0.2,1.8,0.7c0.4,0.5,0.6,1.2,0.6,2.1v4.8h-0.8v-3.7c0-0.3,0-0.6,0-0.9
			s0-0.5-0.1-0.8c0-0.3-0.1-0.5-0.2-0.7c-0.1-0.2-0.2-0.3-0.3-0.5s-0.3-0.3-0.4-0.3s-0.4-0.1-0.6-0.1c-0.6,0-1.1,0.2-1.5,0.5
			c-0.4,0.3-0.7,0.8-0.8,1.4c0,0.5,0,0.8,0,1.1v3.9h-0.8v-3.8c0-0.4,0-0.7,0-1s-0.1-0.6-0.1-0.8s-0.2-0.5-0.3-0.7
			c-0.1-0.2-0.3-0.3-0.5-0.4c-0.2-0.1-0.4-0.2-0.7-0.2c-0.6,0-1.1,0.2-1.6,0.5c-0.4,0.3-0.7,0.8-0.8,1.4c0,0.2,0,0.5,0,0.8v4.3
			H423.3z"/>
		<path fill="#4A4A4C" d="M438.6,310.8c-0.7,0-1.3-0.2-1.8-0.5c-0.5-0.3-0.9-0.8-1.2-1.4c-0.3-0.6-0.4-1.2-0.4-2
			c0-0.6,0.1-1.1,0.2-1.5c0.2-0.5,0.4-0.9,0.7-1.2s0.7-0.6,1.1-0.8s0.9-0.3,1.4-0.3c0.7,0,1.3,0.2,1.8,0.5s0.9,0.8,1.2,1.4
			c0.3,0.6,0.4,1.2,0.4,2c0,0.7-0.1,1.4-0.4,2s-0.7,1-1.2,1.4S439.3,310.8,438.6,310.8z M438.7,310.1c0.5,0,1-0.1,1.4-0.4
			c0.4-0.3,0.7-0.7,0.8-1.1c0.2-0.5,0.3-1,0.3-1.6c0-1-0.2-1.7-0.6-2.3s-1-0.9-1.9-0.9c-0.5,0-1,0.1-1.4,0.4
			c-0.4,0.3-0.7,0.7-0.8,1.2s-0.3,1-0.3,1.6c0,0.9,0.2,1.7,0.7,2.3C437.3,309.8,437.9,310.1,438.7,310.1z"/>
		<path fill="#4A4A4C" d="M446.6,310.8c-1,0-1.8-0.3-2.3-1c-0.6-0.7-0.8-1.6-0.8-2.9c0-1.1,0.3-2.1,0.9-2.8c0.6-0.7,1.3-1.1,2.3-1.1
			c0.5,0,0.9,0.1,1.4,0.3s0.8,0.5,1.1,0.9V304v-3.8l0.8-0.1v10.5h-0.7l-0.1-1.1c-0.3,0.4-0.6,0.7-1.1,1
			C447.5,310.7,447,310.8,446.6,310.8z M446.5,310.1c0.4,0,0.8-0.1,1.1-0.2s0.6-0.4,0.8-0.7s0.3-0.6,0.4-1c0.1-0.4,0.1-0.8,0.1-1.2
			c0-2.2-0.8-3.3-2.5-3.3c-0.4,0-0.7,0.1-1,0.3s-0.5,0.4-0.7,0.7c-0.2,0.3-0.3,0.7-0.4,1s-0.1,0.8-0.1,1.2c0,0.4,0,0.7,0.1,1
			s0.1,0.6,0.2,0.9s0.3,0.5,0.4,0.7s0.4,0.4,0.6,0.5S446.2,310.1,446.5,310.1z"/>
		<path fill="#4A4A4C" d="M454.9,310.8c-1,0-1.9-0.3-2.5-1c-0.6-0.7-0.9-1.6-0.9-2.8c0-1.1,0.3-2.1,0.9-2.8c0.6-0.7,1.4-1.1,2.3-1.1
			c0.9,0,1.6,0.3,2.1,0.9s0.8,1.5,0.8,2.5c0,0,0,0.1,0,0.2c0,0.1,0,0.2,0,0.3h-5.2c0,1,0.2,1.7,0.7,2.3s1.1,0.8,1.8,0.8
			c0.5,0,0.9-0.1,1.3-0.2s0.7-0.3,1.1-0.5l0.1,0.6C456.7,310.5,455.8,310.8,454.9,310.8z M452.4,306.3h4.3c0-0.8-0.2-1.5-0.5-1.9
			s-0.9-0.7-1.5-0.7c-0.6,0-1.2,0.2-1.5,0.7S452.5,305.5,452.4,306.3z"/>
		<path fill="#4A4A4C" d="M461.2,310.8c-0.6,0-1.1-0.1-1.4-0.4s-0.4-0.7-0.4-1.4v-8.7l0.8-0.1v8.8c0,0.5,0.1,0.8,0.2,0.9
			c0.2,0.2,0.4,0.3,0.8,0.3c0.3,0,0.6-0.1,1-0.2l0,0.7C461.8,310.7,461.5,310.8,461.2,310.8z"/>
		<path fill="#4A4A4C" d="M463.4,304.3v-1.4h1.2v1.4H463.4z M463.4,310.9v-1.4h1.2v1.4H463.4z"/>
		<path fill="#4A4A4C" d="M469.9,313.9v-10.8h0.8l0.1,1.1c0.4-0.4,0.7-0.7,1.1-0.9c0.4-0.2,0.8-0.3,1.3-0.3c1.1,0,1.9,0.4,2.4,1.1
			c0.5,0.7,0.8,1.7,0.8,2.9c0,1.1-0.3,2-0.8,2.8s-1.3,1.1-2.3,1.1c-0.5,0-1-0.1-1.4-0.3s-0.8-0.5-1-0.9c0,0.6,0,1.1,0,1.7v2.7
			L469.9,313.9z M473.1,310.1c0.4,0,0.7-0.1,1-0.3s0.5-0.4,0.7-0.7s0.3-0.6,0.4-1c0.1-0.4,0.1-0.7,0.1-1.1c0-0.4,0-0.8-0.1-1.1
			s-0.2-0.7-0.4-1c-0.2-0.3-0.4-0.6-0.7-0.7s-0.7-0.3-1-0.3c-0.4,0-0.8,0.1-1.1,0.2c-0.3,0.2-0.6,0.4-0.7,0.7
			c-0.2,0.3-0.3,0.6-0.4,1s-0.1,0.8-0.1,1.2c0,0.5,0,1,0.1,1.4s0.2,0.7,0.4,1c0.2,0.3,0.4,0.5,0.7,0.7S472.7,310.1,473.1,310.1z"/>
		<path fill="#4A4A4C" d="M479.9,310.8c-0.7,0-1.3-0.2-1.7-0.5s-0.6-0.9-0.6-1.5c0-0.4,0.1-0.7,0.3-1s0.4-0.5,0.7-0.7
			c0.3-0.2,0.7-0.3,1.1-0.4c0.4-0.1,0.9-0.2,1.4-0.2c0.6,0,1-0.1,1.3-0.1v-0.8c0-0.6-0.1-1-0.4-1.3c-0.3-0.3-0.7-0.4-1.3-0.4
			c-0.8,0-1.5,0.2-2.2,0.6c0,0-0.1-0.1-0.1-0.3c-0.1-0.2-0.1-0.3-0.1-0.4c0.3-0.2,0.7-0.3,1.1-0.5s0.9-0.2,1.3-0.2
			c0.9,0,1.5,0.2,1.9,0.6s0.6,1.1,0.6,2v5h-0.7c0-0.1-0.1-0.3-0.1-0.6c0-0.3-0.1-0.5-0.1-0.5C481.8,310.3,481,310.8,479.9,310.8z
			 M479.9,310.1c0.6,0,1.1-0.2,1.6-0.5c0.5-0.3,0.8-0.8,0.9-1.4v-1.3c-0.7,0.1-1,0.1-1,0.1c-1.1,0.1-1.9,0.3-2.3,0.5
			s-0.6,0.7-0.6,1.2c0,0.5,0.1,0.8,0.4,1C479.1,310,479.4,310.1,479.9,310.1z"/>
		<path fill="#4A4A4C" d="M485.3,310.6c0-4.4,0-6.9,0-7.5h0.7l0.1,1.5c0.3-0.4,0.6-0.8,1-1.1s0.8-0.4,1.3-0.4c0.2,0,0.4,0,0.6,0
			l-0.1,0.7c-0.2,0-0.3,0-0.5,0c-0.6,0-1.2,0.2-1.6,0.7c-0.4,0.5-0.6,1.1-0.6,1.8v4.3H485.3z"/>
		<path fill="#4A4A4C" d="M492.2,310.8c-0.6,0-1.1-0.1-1.4-0.4s-0.4-0.7-0.4-1.4v-5.2h-1.1l0.1-0.5l1-0.1l0.2-1.7l0.6,0v1.7h2.2v0.6
			h-2.2v5c0,0.5,0.1,0.9,0.3,1.1s0.5,0.3,0.9,0.3c0.3,0,0.6-0.1,1.1-0.2l0,0.7C493,310.7,492.5,310.8,492.2,310.8z"/>
	</g>
	<g>
		<g>
			<path fill="#4A4A4C" d="M366,356.4c0-4.5,0-7,0-7.5h0.7l0.1,1.1c0.2-0.4,0.5-0.7,1-0.9c0.4-0.2,0.9-0.4,1.4-0.4
				c1.2,0,2,0.5,2.3,1.4c0.5-0.9,1.4-1.4,2.5-1.4c0.8,0,1.4,0.2,1.8,0.7c0.4,0.5,0.6,1.2,0.6,2.1v4.8h-0.8v-3.7c0-0.3,0-0.6,0-0.9
				s0-0.5-0.1-0.8c0-0.3-0.1-0.5-0.2-0.7c-0.1-0.2-0.2-0.3-0.3-0.5s-0.3-0.3-0.4-0.3s-0.4-0.1-0.6-0.1c-0.6,0-1.1,0.2-1.5,0.5
				c-0.4,0.3-0.7,0.8-0.8,1.4c0,0.5,0,0.8,0,1.1v3.9h-0.8v-3.8c0-0.4,0-0.7,0-1s-0.1-0.6-0.1-0.8s-0.2-0.5-0.3-0.7
				c-0.1-0.2-0.3-0.3-0.5-0.4c-0.2-0.1-0.4-0.2-0.7-0.2c-0.6,0-1.1,0.2-1.6,0.5c-0.4,0.3-0.7,0.8-0.8,1.4c0,0.2,0,0.5,0,0.8v4.3H366
				z"/>
			<path fill="#4A4A4C" d="M381.4,356.5c-0.7,0-1.3-0.2-1.8-0.5c-0.5-0.3-0.9-0.8-1.2-1.4c-0.3-0.6-0.4-1.2-0.4-2
				c0-0.6,0.1-1.1,0.2-1.5c0.2-0.5,0.4-0.9,0.7-1.2s0.7-0.6,1.1-0.8s0.9-0.3,1.4-0.3c0.7,0,1.3,0.2,1.8,0.5s0.9,0.8,1.2,1.4
				c0.3,0.6,0.4,1.2,0.4,2c0,0.7-0.1,1.4-0.4,2s-0.7,1-1.2,1.4S382.1,356.5,381.4,356.5z M381.5,355.9c0.5,0,1-0.1,1.4-0.4
				c0.4-0.3,0.7-0.7,0.8-1.1c0.2-0.5,0.3-1,0.3-1.6c0-1-0.2-1.7-0.6-2.3s-1-0.9-1.9-0.9c-0.5,0-1,0.1-1.4,0.4
				c-0.4,0.3-0.7,0.7-0.8,1.2s-0.3,1-0.3,1.6c0,0.9,0.2,1.7,0.7,2.3C380,355.6,380.7,355.9,381.5,355.9z"/>
			<path fill="#4A4A4C" d="M388.2,356.4l-2.9-7.5h0.9l1.7,4.7c0.1,0.3,0.2,0.6,0.3,0.9c0.1,0.3,0.2,0.6,0.3,0.8l0.1,0.3
				c0.1-0.3,0.2-0.6,0.3-0.9c0.1-0.3,0.3-0.7,0.4-1c0.1-0.4,0.3-1,0.7-1.8s0.7-1.8,1.1-3h0.9l-2.9,7.5H388.2z"/>
			<path fill="#4A4A4C" d="M393.2,347.4v-1.1h0.8v1.1H393.2z M393.2,356.4v-7.5h0.9v7.5H393.2z"/>
			<path fill="#4A4A4C" d="M399.2,356.5c-1,0-1.9-0.3-2.5-1c-0.6-0.7-0.9-1.6-0.9-2.8c0-1.1,0.3-2.1,0.9-2.8
				c0.6-0.7,1.4-1.1,2.3-1.1c0.9,0,1.6,0.3,2.1,0.9s0.8,1.5,0.8,2.5c0,0,0,0.1,0,0.2c0,0.1,0,0.2,0,0.3h-5.2c0,1,0.2,1.7,0.7,2.3
				s1.1,0.8,1.8,0.8c0.5,0,0.9-0.1,1.3-0.2s0.7-0.3,1.1-0.5l0.1,0.6C401,356.3,400.2,356.5,399.2,356.5z M396.8,352h4.3
				c0-0.8-0.2-1.5-0.5-1.9s-0.9-0.7-1.5-0.7c-0.6,0-1.2,0.2-1.5,0.7S396.8,351.3,396.8,352z"/>
			<path fill="#4A4A4C" d="M403.1,357.1v-0.7h6.2v0.7H403.1z"/>
			<path fill="#4A4A4C" d="M410.9,347.4v-1.1h0.8v1.1H410.9z M410.9,356.4v-7.5h0.9v7.5H410.9z"/>
			<path fill="#4A4A4C" d="M416.7,356.5c-1,0-1.8-0.3-2.3-1c-0.6-0.7-0.8-1.6-0.8-2.9c0-1.1,0.3-2.1,0.9-2.8
				c0.6-0.7,1.3-1.1,2.3-1.1c0.5,0,0.9,0.1,1.4,0.3s0.8,0.5,1.1,0.9v-0.2V346l0.8-0.1v10.5h-0.7l-0.1-1.1c-0.3,0.4-0.6,0.7-1.1,1
				C417.6,356.4,417.2,356.5,416.7,356.5z M416.7,355.9c0.4,0,0.8-0.1,1.1-0.2s0.6-0.4,0.8-0.7s0.3-0.6,0.4-1
				c0.1-0.4,0.1-0.8,0.1-1.2c0-2.2-0.8-3.3-2.5-3.3c-0.4,0-0.7,0.1-1,0.3s-0.5,0.4-0.7,0.7c-0.2,0.3-0.3,0.7-0.4,1s-0.1,0.8-0.1,1.2
				c0,0.4,0,0.7,0.1,1s0.1,0.6,0.2,0.9s0.3,0.5,0.4,0.7s0.4,0.4,0.6,0.5S416.4,355.9,416.7,355.9z"/>
		</g>
	</g>
	<g>
		<g>
			<path fill="#4A4A4C" d="M497.4,347.4v-1.1h0.8v1.1H497.4z M497.4,356.4v-7.5h0.9v7.5H497.4z"/>
			<path fill="#4A4A4C" d="M500.4,356.4v-7.5h0.7l0.1,1.2c0.3-0.4,0.6-0.7,1.1-0.9c0.5-0.2,0.9-0.3,1.5-0.3c0.9,0,1.5,0.2,1.9,0.7
				s0.6,1.2,0.6,2.3v4.6h-0.9v-5c0-0.7-0.2-1.1-0.4-1.4s-0.7-0.4-1.3-0.4c-0.7,0-1.2,0.2-1.7,0.5c-0.4,0.3-0.7,0.8-0.8,1.3
				c0,0.2,0,0.4,0,0.7v4.4H500.4z"/>
			<path fill="#4A4A4C" d="M510.3,356.5c-0.6,0-1.1-0.1-1.4-0.4s-0.4-0.7-0.4-1.4v-5.2h-1.1l0.1-0.5l1-0.1l0.2-1.7l0.6,0v1.7h2.2
				v0.6h-2.2v5c0,0.5,0.1,0.9,0.3,1.1s0.5,0.3,0.9,0.3c0.3,0,0.6-0.1,1.1-0.2l0,0.7C511.1,356.5,510.6,356.5,510.3,356.5z"/>
			<path fill="#4A4A4C" d="M515.9,356.5c-1,0-1.9-0.3-2.5-1c-0.6-0.7-0.9-1.6-0.9-2.8c0-1.1,0.3-2.1,0.9-2.8
				c0.6-0.7,1.4-1.1,2.3-1.1c0.9,0,1.6,0.3,2.1,0.9s0.8,1.5,0.8,2.5c0,0,0,0.1,0,0.2c0,0.1,0,0.2,0,0.3h-5.2c0,1,0.2,1.7,0.7,2.3
				s1.1,0.8,1.8,0.8c0.5,0,0.9-0.1,1.3-0.2s0.7-0.3,1.1-0.5l0.1,0.6C517.7,356.3,516.8,356.5,515.9,356.5z M513.4,352h4.3
				c0-0.8-0.2-1.5-0.5-1.9s-0.9-0.7-1.5-0.7c-0.6,0-1.2,0.2-1.5,0.7S513.5,351.3,513.4,352z"/>
			<path fill="#4A4A4C" d="M521.5,359.9l-0.1-0.8h1.6c0.4,0,0.7,0,0.9-0.1s0.5-0.1,0.7-0.2c0.2-0.1,0.3-0.2,0.5-0.4
				c0.1-0.2,0.2-0.3,0.3-0.5s0.1-0.4,0.2-0.7c0-0.3,0.1-0.5,0.1-0.8s0-0.5,0-0.9c0,0.1,0,0,0,0l0-0.5c-0.3,0.4-0.6,0.8-1,1
				s-0.9,0.4-1.4,0.4c-0.4,0-0.9-0.1-1.2-0.2c-0.4-0.2-0.7-0.4-0.9-0.6c-0.2-0.3-0.4-0.5-0.6-0.9s-0.3-0.7-0.3-1s-0.1-0.6-0.1-1
				c0-0.4,0-0.8,0.1-1.1c0.1-0.4,0.2-0.7,0.3-1.1s0.4-0.6,0.6-0.9s0.6-0.5,1-0.6s0.8-0.2,1.3-0.2c0.5,0,0.9,0.1,1.3,0.3
				c0.4,0.2,0.7,0.5,1,0.9l0.1-1.1h0.8v6.9c0,0.3,0,0.5,0,0.7c0,0.2,0,0.4-0.1,0.8c0,0.3-0.1,0.6-0.2,0.8c-0.1,0.2-0.2,0.4-0.4,0.7
				s-0.4,0.4-0.6,0.6c-0.2,0.1-0.6,0.3-0.9,0.4c-0.4,0.1-0.8,0.2-1.3,0.2H521.5z M523.2,355.7c0.3,0,0.6-0.1,0.9-0.2
				s0.5-0.2,0.7-0.4c0.2-0.2,0.3-0.4,0.4-0.6c0.1-0.2,0.2-0.5,0.3-0.7s0.1-0.5,0.1-0.8v-0.8c0-0.4,0-0.7-0.1-1s-0.2-0.6-0.4-0.9
				c-0.2-0.3-0.4-0.5-0.7-0.6s-0.7-0.2-1.1-0.2c-0.3,0-0.6,0.1-0.9,0.2c-0.3,0.1-0.5,0.3-0.7,0.5s-0.3,0.5-0.4,0.8s-0.2,0.6-0.2,0.9
				c0,0.3-0.1,0.6-0.1,0.9c0,0.3,0,0.5,0.1,0.8c0,0.3,0.1,0.5,0.2,0.8c0.1,0.3,0.3,0.5,0.4,0.7s0.4,0.4,0.7,0.5
				C522.5,355.6,522.9,355.7,523.2,355.7z"/>
			<path fill="#4A4A4C" d="M531.4,356.5c-1,0-1.9-0.3-2.5-1c-0.6-0.7-0.9-1.6-0.9-2.8c0-1.1,0.3-2.1,0.9-2.8
				c0.6-0.7,1.4-1.1,2.3-1.1c0.9,0,1.6,0.3,2.1,0.9s0.8,1.5,0.8,2.5c0,0,0,0.1,0,0.2c0,0.1,0,0.2,0,0.3h-5.2c0,1,0.2,1.7,0.7,2.3
				s1.1,0.8,1.8,0.8c0.5,0,0.9-0.1,1.3-0.2s0.7-0.3,1.1-0.5l0.1,0.6C533.2,356.3,532.3,356.5,531.4,356.5z M528.9,352h4.3
				c0-0.8-0.2-1.5-0.5-1.9s-0.9-0.7-1.5-0.7c-0.6,0-1.2,0.2-1.5,0.7S529,351.3,528.9,352z"/>
			<path fill="#4A4A4C" d="M535.8,356.4c0-4.4,0-6.9,0-7.5h0.7l0.1,1.5c0.3-0.4,0.6-0.8,1-1.1s0.8-0.4,1.3-0.4c0.2,0,0.4,0,0.6,0
				l-0.1,0.7c-0.2,0-0.3,0-0.5,0c-0.6,0-1.2,0.2-1.6,0.7c-0.4,0.5-0.6,1.1-0.6,1.8v4.3H535.8z"/>
		</g>
	</g>
	<g>
		<g>
			<path fill="#4A4A4C" d="M371,403.5c-0.7,0-1.3-0.2-1.7-0.5s-0.6-0.9-0.6-1.5c0-0.4,0.1-0.7,0.3-1s0.4-0.5,0.7-0.7
				c0.3-0.2,0.7-0.3,1.1-0.4c0.4-0.1,0.9-0.2,1.4-0.2c0.6,0,1-0.1,1.3-0.1v-0.8c0-0.6-0.1-1-0.4-1.3c-0.3-0.3-0.7-0.4-1.3-0.4
				c-0.8,0-1.5,0.2-2.2,0.6c0,0-0.1-0.1-0.1-0.3c-0.1-0.2-0.1-0.3-0.1-0.4c0.3-0.2,0.7-0.3,1.1-0.5s0.9-0.2,1.3-0.2
				c0.9,0,1.5,0.2,1.9,0.6s0.6,1.1,0.6,2v5h-0.7c0-0.1-0.1-0.3-0.1-0.6c0-0.3-0.1-0.5-0.1-0.5C373,403.1,372.1,403.5,371,403.5z
				 M371.1,402.9c0.6,0,1.1-0.2,1.6-0.5c0.5-0.3,0.8-0.8,0.9-1.4v-1.3c-0.7,0.1-1,0.1-1,0.1c-1.1,0.1-1.9,0.3-2.3,0.5
				s-0.6,0.7-0.6,1.2c0,0.5,0.1,0.8,0.4,1C370.2,402.7,370.6,402.9,371.1,402.9z"/>
			<path fill="#4A4A4C" d="M379.5,403.5c-0.7,0-1.4-0.2-1.9-0.5s-0.9-0.8-1.2-1.4c-0.3-0.6-0.4-1.2-0.4-1.9c0-0.5,0.1-1,0.2-1.5
				s0.4-0.9,0.7-1.3c0.3-0.4,0.7-0.7,1.1-0.9c0.4-0.2,0.9-0.3,1.5-0.3c0.4,0,0.7,0,1.1,0.1c0.4,0.1,0.6,0.2,0.8,0.3l-0.3,0.6
				c-0.5-0.3-1-0.4-1.7-0.4c-0.8,0-1.4,0.3-1.9,0.9s-0.7,1.4-0.7,2.3c0,0.9,0.2,1.7,0.7,2.3c0.5,0.6,1.1,0.9,1.9,0.9
				c0.5,0,1.1-0.1,1.8-0.4l0.1,0.6c-0.2,0.2-0.5,0.3-0.8,0.4S379.9,403.5,379.5,403.5z"/>
			<path fill="#4A4A4C" d="M385.1,403.5c-0.6,0-1.1-0.1-1.4-0.4c-0.3-0.3-0.4-0.7-0.4-1.4v-5.2h-1.1l0.1-0.5l1-0.1l0.2-1.7l0.6,0
				v1.7h2.2v0.6h-2.2v5c0,0.5,0.1,0.9,0.3,1.1c0.2,0.2,0.5,0.3,0.9,0.3c0.3,0,0.6-0.1,1.1-0.2l0,0.7
				C385.8,403.5,385.4,403.5,385.1,403.5z"/>
			<path fill="#4A4A4C" d="M390.7,403.5c-0.7,0-1.3-0.2-1.8-0.5c-0.5-0.3-0.9-0.8-1.2-1.4c-0.3-0.6-0.4-1.2-0.4-2
				c0-0.6,0.1-1.1,0.2-1.5c0.2-0.5,0.4-0.9,0.7-1.2s0.7-0.6,1.1-0.8s0.9-0.3,1.4-0.3c0.7,0,1.3,0.2,1.8,0.5s0.9,0.8,1.2,1.4
				c0.3,0.6,0.4,1.2,0.4,2c0,0.7-0.1,1.4-0.4,2c-0.3,0.6-0.7,1-1.2,1.4C392,403.4,391.4,403.5,390.7,403.5z M390.7,402.9
				c0.5,0,1-0.1,1.4-0.4c0.4-0.3,0.7-0.7,0.8-1.1c0.2-0.5,0.3-1,0.3-1.6c0-1-0.2-1.7-0.6-2.3s-1-0.9-1.9-0.9c-0.5,0-1,0.1-1.4,0.4
				c-0.4,0.3-0.7,0.7-0.8,1.2s-0.3,1-0.3,1.6c0,0.9,0.2,1.7,0.7,2.3C389.3,402.6,389.9,402.9,390.7,402.9z"/>
			<path fill="#4A4A4C" d="M395.8,403.4c0-4.4,0-6.9,0-7.5h0.7l0.1,1.5c0.3-0.4,0.6-0.8,1-1.1s0.8-0.4,1.3-0.4c0.2,0,0.4,0,0.6,0
				l-0.1,0.7c-0.2,0-0.3,0-0.5,0c-0.6,0-1.2,0.2-1.6,0.7c-0.4,0.5-0.6,1.1-0.6,1.8v4.3H395.8z"/>
			<path fill="#4A4A4C" d="M400.1,404.1v-0.7h6.2v0.7H400.1z"/>
			<path fill="#4A4A4C" d="M407.9,394.4v-1.1h0.8v1.1H407.9z M407.9,403.4v-7.5h0.9v7.5H407.9z"/>
			<path fill="#4A4A4C" d="M413.7,403.5c-1,0-1.8-0.3-2.3-1c-0.6-0.7-0.8-1.6-0.8-2.9c0-1.1,0.3-2.1,0.9-2.8
				c0.6-0.7,1.3-1.1,2.3-1.1c0.5,0,0.9,0.1,1.4,0.3s0.8,0.5,1.1,0.9v-0.2V393l0.8-0.1v10.5h-0.7l-0.1-1.1c-0.3,0.4-0.6,0.7-1.1,1
				C414.6,403.4,414.2,403.5,413.7,403.5z M413.7,402.9c0.4,0,0.8-0.1,1.1-0.2c0.3-0.2,0.6-0.4,0.8-0.7c0.2-0.3,0.3-0.6,0.4-1
				c0.1-0.4,0.1-0.8,0.1-1.2c0-2.2-0.8-3.3-2.5-3.3c-0.4,0-0.7,0.1-1,0.3s-0.5,0.4-0.7,0.7c-0.2,0.3-0.3,0.7-0.4,1s-0.1,0.8-0.1,1.2
				c0,0.4,0,0.7,0.1,1s0.1,0.6,0.2,0.9c0.1,0.3,0.3,0.5,0.4,0.7s0.4,0.4,0.6,0.5S413.4,402.9,413.7,402.9z"/>
		</g>
	</g>
	<g>
		<g>
			<path fill="#4A4A4C" d="M497.4,394.4v-1.1h0.8v1.1H497.4z M497.4,403.4v-7.5h0.9v7.5H497.4z"/>
			<path fill="#4A4A4C" d="M500.4,403.4v-7.5h0.7l0.1,1.2c0.3-0.4,0.6-0.7,1.1-0.9c0.5-0.2,0.9-0.3,1.5-0.3c0.9,0,1.5,0.2,1.9,0.7
				s0.6,1.2,0.6,2.3v4.6h-0.9v-5c0-0.7-0.2-1.1-0.4-1.4s-0.7-0.4-1.3-0.4c-0.7,0-1.2,0.2-1.7,0.5c-0.4,0.3-0.7,0.8-0.8,1.3
				c0,0.2,0,0.4,0,0.7v4.4H500.4z"/>
			<path fill="#4A4A4C" d="M510.3,403.5c-0.6,0-1.1-0.1-1.4-0.4c-0.3-0.3-0.4-0.7-0.4-1.4v-5.2h-1.1l0.1-0.5l1-0.1l0.2-1.7l0.6,0
				v1.7h2.2v0.6h-2.2v5c0,0.5,0.1,0.9,0.3,1.1c0.2,0.2,0.5,0.3,0.9,0.3c0.3,0,0.6-0.1,1.1-0.2l0,0.7
				C511.1,403.5,510.6,403.5,510.3,403.5z"/>
			<path fill="#4A4A4C" d="M515.9,403.5c-1,0-1.9-0.3-2.5-1c-0.6-0.7-0.9-1.6-0.9-2.8c0-1.1,0.3-2.1,0.9-2.8
				c0.6-0.7,1.4-1.1,2.3-1.1c0.9,0,1.6,0.3,2.1,0.9s0.8,1.5,0.8,2.5c0,0,0,0.1,0,0.2c0,0.1,0,0.2,0,0.3h-5.2c0,1,0.2,1.7,0.7,2.3
				c0.5,0.6,1.1,0.8,1.8,0.8c0.5,0,0.9-0.1,1.3-0.2c0.4-0.1,0.7-0.3,1.1-0.5l0.1,0.6C517.7,403.3,516.8,403.5,515.9,403.5z
				 M513.4,399h4.3c0-0.8-0.2-1.5-0.5-1.9s-0.9-0.7-1.5-0.7c-0.6,0-1.2,0.2-1.5,0.7S513.5,398.3,513.4,399z"/>
			<path fill="#4A4A4C" d="M521.5,406.9l-0.1-0.8h1.6c0.4,0,0.7,0,0.9-0.1s0.5-0.1,0.7-0.2c0.2-0.1,0.3-0.2,0.5-0.4
				c0.1-0.2,0.2-0.3,0.3-0.5c0.1-0.2,0.1-0.4,0.2-0.7c0-0.3,0.1-0.5,0.1-0.8c0-0.2,0-0.5,0-0.9c0,0.1,0,0,0,0l0-0.5
				c-0.3,0.4-0.6,0.8-1,1c-0.4,0.2-0.9,0.4-1.4,0.4c-0.4,0-0.9-0.1-1.2-0.2c-0.4-0.2-0.7-0.4-0.9-0.6c-0.2-0.3-0.4-0.5-0.6-0.9
				s-0.3-0.7-0.3-1s-0.1-0.6-0.1-1c0-0.4,0-0.8,0.1-1.1c0.1-0.4,0.2-0.7,0.3-1.1s0.4-0.6,0.6-0.9s0.6-0.5,1-0.6s0.8-0.2,1.3-0.2
				c0.5,0,0.9,0.1,1.3,0.3c0.4,0.2,0.7,0.5,1,0.9l0.1-1.1h0.8v6.9c0,0.3,0,0.5,0,0.7c0,0.2,0,0.4-0.1,0.8c0,0.3-0.1,0.6-0.2,0.8
				c-0.1,0.2-0.2,0.4-0.4,0.7s-0.4,0.4-0.6,0.6c-0.2,0.1-0.6,0.3-0.9,0.4c-0.4,0.1-0.8,0.2-1.3,0.2H521.5z M523.2,402.7
				c0.3,0,0.6-0.1,0.9-0.2c0.3-0.1,0.5-0.2,0.7-0.4c0.2-0.2,0.3-0.4,0.4-0.6c0.1-0.2,0.2-0.5,0.3-0.7s0.1-0.5,0.1-0.8v-0.8
				c0-0.4,0-0.7-0.1-1s-0.2-0.6-0.4-0.9c-0.2-0.3-0.4-0.5-0.7-0.6s-0.7-0.2-1.1-0.2c-0.3,0-0.6,0.1-0.9,0.2
				c-0.3,0.1-0.5,0.3-0.7,0.5s-0.3,0.5-0.4,0.8s-0.2,0.6-0.2,0.9c0,0.3-0.1,0.6-0.1,0.9c0,0.3,0,0.5,0.1,0.8c0,0.3,0.1,0.5,0.2,0.8
				c0.1,0.3,0.3,0.5,0.4,0.7s0.4,0.4,0.7,0.5C522.5,402.6,522.9,402.7,523.2,402.7z"/>
			<path fill="#4A4A4C" d="M531.4,403.5c-1,0-1.9-0.3-2.5-1c-0.6-0.7-0.9-1.6-0.9-2.8c0-1.1,0.3-2.1,0.9-2.8
				c0.6-0.7,1.4-1.1,2.3-1.1c0.9,0,1.6,0.3,2.1,0.9s0.8,1.5,0.8,2.5c0,0,0,0.1,0,0.2c0,0.1,0,0.2,0,0.3h-5.2c0,1,0.2,1.7,0.7,2.3
				c0.5,0.6,1.1,0.8,1.8,0.8c0.5,0,0.9-0.1,1.3-0.2c0.4-0.1,0.7-0.3,1.1-0.5l0.1,0.6C533.2,403.3,532.3,403.5,531.4,403.5z
				 M528.9,399h4.3c0-0.8-0.2-1.5-0.5-1.9s-0.9-0.7-1.5-0.7c-0.6,0-1.2,0.2-1.5,0.7S529,398.3,528.9,399z"/>
			<path fill="#4A4A4C" d="M535.8,403.4c0-4.4,0-6.9,0-7.5h0.7l0.1,1.5c0.3-0.4,0.6-0.8,1-1.1s0.8-0.4,1.3-0.4c0.2,0,0.4,0,0.6,0
				l-0.1,0.7c-0.2,0-0.3,0-0.5,0c-0.6,0-1.2,0.2-1.6,0.7c-0.4,0.5-0.6,1.1-0.6,1.8v4.3H535.8z"/>
		</g>
	</g>
	<line fill="none" stroke="#BCBEC0" stroke-miterlimit="10" x1="328" y1="330.1" x2="588" y2="330.1"/>
	<line fill="none" stroke="#BCBEC0" stroke-miterlimit="10" x1="328" y1="374.8" x2="588" y2="374.8"/>
	<rect x="328" y="270.1" fill="none" stroke="#BCBEC0" stroke-miterlimit="10" width="260" height="150.4"/>
	<line fill="none" stroke="#BCBEC0" stroke-miterlimit="10" x1="458" y1="330.1" x2="458" y2="420.5"/>
</g>
<g>
	<rect y="403" fill="#E6E7E8" width="260" height="60"/>
	<g>
		<path fill="#204056" d="M108.9,426.7l3.7-10h2l3.6,10h-1.9l-1-2.8h-3.5l-1,2.8H108.9z M112.3,422.5h2.6c-0.8-2.6-1.2-4-1.3-4.1
			L112.3,422.5z"/>
		<path fill="#204056" d="M122.4,426.9c-1.1,0-2-0.3-2.7-1c-0.6-0.7-1-1.7-1-2.9c0-1.2,0.3-2.2,1-2.9c0.7-0.7,1.6-1,2.7-1
			c0.9,0,1.6,0.2,2.2,0.6l-0.4,1.3c-0.6-0.3-1.2-0.5-1.7-0.5c-0.6,0-1.1,0.2-1.4,0.6c-0.3,0.4-0.5,1.1-0.5,1.9
			c0,0.8,0.2,1.5,0.5,1.9c0.3,0.4,0.8,0.7,1.5,0.7c0.7,0,1.3-0.2,1.9-0.6l0.2,1.4c-0.3,0.2-0.6,0.4-1,0.5
			C123.3,426.8,122.9,426.9,122.4,426.9z"/>
		<path fill="#204056" d="M129,426.8c-0.5,0-0.9-0.1-1.3-0.2c-0.3-0.1-0.6-0.3-0.8-0.6s-0.3-0.6-0.4-0.9c-0.1-0.4-0.1-0.8-0.1-1.3
			v-3.5h-1.2l0.1-1l1.3-0.1l0.6-2l1.1,0v2h1.9v1.1h-1.9v3.6c0,0.6,0.1,1,0.2,1.2c0.2,0.2,0.5,0.4,0.9,0.4c0.3,0,0.5,0,0.8-0.1l0,1.3
			c0,0-0.1,0-0.2,0c-0.1,0-0.2,0-0.3,0.1c-0.1,0-0.2,0-0.4,0S129.1,426.8,129,426.8z"/>
		<path fill="#204056" d="M134.7,426.9c-1.1,0-2-0.4-2.6-1.1c-0.6-0.7-1-1.7-1-2.8c0-1.2,0.3-2.2,1-2.9c0.6-0.7,1.5-1,2.7-1
			c1.1,0,2,0.4,2.6,1.1c0.6,0.7,1,1.7,1,2.8c0,1.2-0.3,2.2-1,2.9C136.7,426.5,135.8,426.9,134.7,426.9z M134.7,425.5
			c0.6,0,1.1-0.2,1.4-0.7c0.3-0.4,0.5-1.1,0.5-1.9c0-0.8-0.2-1.5-0.5-1.9s-0.8-0.7-1.4-0.7c-0.6,0-1.1,0.2-1.4,0.7
			c-0.3,0.4-0.5,1.1-0.5,1.9c0,0.8,0.2,1.5,0.5,1.9C133.6,425.3,134.1,425.5,134.7,425.5z"/>
		<path fill="#204056" d="M139.8,426.7v-7.5h1.5l0.2,1.1c0.5-0.8,1.2-1.2,2.1-1.2c0.2,0,0.4,0,0.5,0l0,1.5c-0.2,0-0.4,0-0.6,0
			c-0.7,0-1.2,0.2-1.5,0.5c-0.3,0.4-0.5,0.8-0.5,1.5v4.1H139.8z"/>
		<path fill="#204056" d="M147.7,426.9c-1.1,0-2-0.2-2.7-0.6l0.2-1.3c0.3,0.2,0.7,0.3,1.1,0.4s0.9,0.2,1.3,0.2
			c0.4,0,0.7-0.1,0.9-0.2c0.2-0.1,0.3-0.4,0.3-0.7c0-0.3-0.1-0.5-0.3-0.6c-0.2-0.2-0.6-0.3-1.2-0.6c-0.2-0.1-0.3-0.1-0.4-0.1
			c-0.7-0.3-1.2-0.6-1.5-0.9c-0.3-0.3-0.5-0.8-0.5-1.3c0-0.7,0.2-1.2,0.7-1.6c0.5-0.4,1.2-0.5,2.1-0.5c1,0,1.8,0.2,2.5,0.5l-0.4,1.2
			c-0.7-0.3-1.4-0.5-2-0.5c-0.4,0-0.6,0.1-0.8,0.2c-0.2,0.1-0.3,0.3-0.3,0.5c0,0.2,0.1,0.4,0.3,0.5s0.6,0.3,1.1,0.5
			c0,0,0.1,0,0.2,0.1c0.1,0,0.2,0.1,0.2,0.1c0.7,0.3,1.2,0.6,1.5,0.9s0.5,0.8,0.5,1.4c0,0.8-0.3,1.3-0.8,1.7
			S148.6,426.9,147.7,426.9z"/>
		<path fill="#4A4A4C" d="M91.9,443.5c0-4.5,0-7,0-7.5h0.7l0.1,1.1c0.2-0.4,0.5-0.7,1-0.9c0.4-0.2,0.9-0.4,1.4-0.4
			c1.2,0,2,0.5,2.3,1.4c0.5-0.9,1.4-1.4,2.5-1.4c0.8,0,1.4,0.2,1.8,0.7c0.4,0.5,0.6,1.2,0.6,2.1v4.8h-0.8v-3.7c0-0.3,0-0.6,0-0.9
			s0-0.5-0.1-0.8c0-0.3-0.1-0.5-0.2-0.7c-0.1-0.2-0.2-0.3-0.3-0.5c-0.1-0.2-0.3-0.3-0.4-0.3c-0.2-0.1-0.4-0.1-0.6-0.1
			c-0.6,0-1.1,0.2-1.5,0.5c-0.4,0.3-0.7,0.8-0.8,1.4c0,0.5,0,0.8,0,1.1v3.9h-0.8v-3.8c0-0.4,0-0.7,0-1c0-0.3-0.1-0.6-0.1-0.8
			s-0.2-0.5-0.3-0.7c-0.1-0.2-0.3-0.3-0.5-0.4c-0.2-0.1-0.4-0.2-0.7-0.2c-0.6,0-1.1,0.2-1.6,0.5c-0.4,0.3-0.7,0.8-0.8,1.3
			c0,0.2,0,0.5,0,0.8v4.3H91.9z"/>
		<path fill="#4A4A4C" d="M107.3,443.7c-0.7,0-1.3-0.2-1.8-0.5c-0.5-0.3-0.9-0.8-1.2-1.4c-0.3-0.6-0.4-1.2-0.4-2
			c0-0.6,0.1-1.1,0.2-1.5c0.2-0.5,0.4-0.9,0.7-1.2s0.7-0.6,1.1-0.8s0.9-0.3,1.4-0.3c0.7,0,1.3,0.2,1.8,0.5c0.5,0.3,0.9,0.8,1.2,1.4
			c0.3,0.6,0.4,1.2,0.4,2c0,0.7-0.1,1.4-0.4,2c-0.3,0.6-0.7,1-1.2,1.4C108.6,443.5,108,443.7,107.3,443.7z M107.3,443
			c0.5,0,1-0.1,1.4-0.4c0.4-0.3,0.7-0.7,0.8-1.1c0.2-0.5,0.3-1,0.3-1.6c0-1-0.2-1.7-0.6-2.3s-1-0.9-1.9-0.9c-0.5,0-1,0.1-1.4,0.4
			c-0.4,0.3-0.7,0.7-0.8,1.2c-0.2,0.5-0.3,1-0.3,1.6c0,0.9,0.2,1.7,0.7,2.3C105.9,442.7,106.5,443,107.3,443z"/>
		<path fill="#4A4A4C" d="M115.2,443.7c-1,0-1.8-0.3-2.3-1c-0.6-0.7-0.8-1.6-0.8-2.9c0-1.1,0.3-2.1,0.9-2.8c0.6-0.7,1.3-1.1,2.3-1.1
			c0.5,0,0.9,0.1,1.4,0.3c0.5,0.2,0.8,0.5,1.1,0.9v-0.2v-3.8l0.8-0.1v10.5h-0.7l-0.1-1.1c-0.3,0.4-0.6,0.7-1.1,1
			C116.1,443.6,115.6,443.7,115.2,443.7z M115.2,443c0.4,0,0.8-0.1,1.1-0.2c0.3-0.2,0.6-0.4,0.8-0.7c0.2-0.3,0.3-0.6,0.4-1
			c0.1-0.4,0.1-0.8,0.1-1.2c0-2.2-0.8-3.3-2.5-3.3c-0.4,0-0.7,0.1-1,0.3s-0.5,0.4-0.7,0.7c-0.2,0.3-0.3,0.7-0.4,1
			c-0.1,0.4-0.1,0.8-0.1,1.2c0,0.4,0,0.7,0.1,1s0.1,0.6,0.2,0.9c0.1,0.3,0.3,0.5,0.4,0.7s0.4,0.4,0.6,0.5S114.8,443,115.2,443z"/>
		<path fill="#4A4A4C" d="M123.5,443.7c-1,0-1.9-0.3-2.5-1c-0.6-0.7-0.9-1.6-0.9-2.8c0-1.1,0.3-2.1,0.9-2.8c0.6-0.7,1.4-1.1,2.3-1.1
			c0.9,0,1.6,0.3,2.1,0.9s0.8,1.5,0.8,2.5c0,0,0,0.1,0,0.2c0,0.1,0,0.2,0,0.3H121c0,1,0.2,1.7,0.7,2.3c0.5,0.6,1.1,0.8,1.8,0.8
			c0.5,0,0.9-0.1,1.3-0.2c0.4-0.1,0.7-0.3,1.1-0.5l0.1,0.6C125.3,443.5,124.4,443.7,123.5,443.7z M121,439.2h4.3
			c0-0.8-0.2-1.5-0.5-1.9s-0.9-0.7-1.5-0.7c-0.6,0-1.2,0.2-1.5,0.7C121.3,437.8,121.1,438.4,121,439.2z"/>
		<path fill="#4A4A4C" d="M129.8,443.7c-0.6,0-1.1-0.1-1.4-0.4c-0.3-0.3-0.4-0.7-0.4-1.4v-8.7l0.8-0.1v8.8c0,0.5,0.1,0.8,0.2,0.9
			c0.2,0.2,0.4,0.3,0.8,0.3c0.3,0,0.6-0.1,1-0.2l0,0.7C130.4,443.6,130.1,443.7,129.8,443.7z"/>
		<path fill="#4A4A4C" d="M132,437.2v-1.4h1.2v1.4H132z M132,443.8v-1.4h1.2v1.4H132z"/>
		<path fill="#4A4A4C" d="M140.5,443.7c-0.7,0-1.3-0.2-1.7-0.5s-0.6-0.9-0.6-1.5c0-0.4,0.1-0.7,0.3-1c0.2-0.3,0.4-0.5,0.7-0.7
			c0.3-0.2,0.7-0.3,1.1-0.4c0.4-0.1,0.9-0.2,1.4-0.2c0.6,0,1-0.1,1.3-0.1v-0.8c0-0.6-0.1-1-0.4-1.3c-0.3-0.3-0.7-0.4-1.3-0.4
			c-0.8,0-1.5,0.2-2.2,0.6c0,0-0.1-0.1-0.1-0.3c-0.1-0.2-0.1-0.3-0.1-0.4c0.3-0.2,0.7-0.3,1.1-0.5s0.9-0.2,1.3-0.2
			c0.9,0,1.5,0.2,1.9,0.6c0.4,0.4,0.6,1.1,0.6,2v5h-0.7c0-0.1-0.1-0.3-0.1-0.6c0-0.3-0.1-0.5-0.1-0.5
			C142.4,443.3,141.6,443.7,140.5,443.7z M140.6,443c0.6,0,1.1-0.2,1.6-0.5c0.5-0.3,0.8-0.8,0.9-1.4v-1.3c-0.7,0.1-1,0.1-1,0.1
			c-1.1,0.1-1.9,0.3-2.3,0.5c-0.4,0.3-0.6,0.7-0.6,1.2c0,0.5,0.1,0.8,0.4,1C139.7,442.9,140.1,443,140.6,443z"/>
		<path fill="#4A4A4C" d="M149,443.7c-0.7,0-1.4-0.2-1.9-0.5s-0.9-0.8-1.2-1.4c-0.3-0.6-0.4-1.2-0.4-1.9c0-0.5,0.1-1,0.2-1.5
			c0.2-0.5,0.4-0.9,0.7-1.3c0.3-0.4,0.7-0.7,1.1-0.9c0.4-0.2,0.9-0.3,1.5-0.3c0.4,0,0.7,0,1.1,0.1c0.4,0.1,0.6,0.2,0.8,0.3l-0.3,0.6
			c-0.5-0.3-1-0.4-1.7-0.4c-0.8,0-1.4,0.3-1.9,0.9c-0.5,0.6-0.7,1.4-0.7,2.3c0,0.9,0.2,1.7,0.7,2.3c0.5,0.6,1.1,0.9,1.9,0.9
			c0.5,0,1.1-0.1,1.8-0.4l0.1,0.6c-0.2,0.2-0.5,0.3-0.8,0.4S149.4,443.7,149,443.7z"/>
		<path fill="#4A4A4C" d="M154.6,443.7c-0.6,0-1.1-0.1-1.4-0.4c-0.3-0.3-0.4-0.7-0.4-1.4v-5.2h-1.1l0.1-0.5l1-0.1l0.2-1.7l0.6,0v1.7
			h2.2v0.6h-2.2v5c0,0.5,0.1,0.9,0.3,1.1c0.2,0.2,0.5,0.3,0.9,0.3c0.3,0,0.6-0.1,1.1-0.2l0,0.7C155.3,443.6,154.9,443.7,154.6,443.7
			z"/>
		<path fill="#4A4A4C" d="M160.2,443.7c-0.7,0-1.3-0.2-1.8-0.5c-0.5-0.3-0.9-0.8-1.2-1.4c-0.3-0.6-0.4-1.2-0.4-2
			c0-0.6,0.1-1.1,0.2-1.5c0.2-0.5,0.4-0.9,0.7-1.2s0.7-0.6,1.1-0.8s0.9-0.3,1.4-0.3c0.7,0,1.3,0.2,1.8,0.5c0.5,0.3,0.9,0.8,1.2,1.4
			c0.3,0.6,0.4,1.2,0.4,2c0,0.7-0.1,1.4-0.4,2c-0.3,0.6-0.7,1-1.2,1.4C161.5,443.5,160.9,443.7,160.2,443.7z M160.2,443
			c0.5,0,1-0.1,1.4-0.4c0.4-0.3,0.7-0.7,0.8-1.1c0.2-0.5,0.3-1,0.3-1.6c0-1-0.2-1.7-0.6-2.3s-1-0.9-1.9-0.9c-0.5,0-1,0.1-1.4,0.4
			c-0.4,0.3-0.7,0.7-0.8,1.2c-0.2,0.5-0.3,1-0.3,1.6c0,0.9,0.2,1.7,0.7,2.3C158.8,442.7,159.4,443,160.2,443z"/>
		<path fill="#4A4A4C" d="M165.3,443.5c0-4.4,0-6.9,0-7.5h0.7l0.1,1.5c0.3-0.4,0.6-0.8,1-1.1c0.4-0.3,0.8-0.4,1.3-0.4
			c0.2,0,0.4,0,0.6,0l-0.1,0.7c-0.2,0-0.3,0-0.5,0c-0.6,0-1.2,0.2-1.6,0.7c-0.4,0.5-0.6,1.1-0.6,1.8v4.3H165.3z"/>
	</g>
	<g>
		<g>
			<path fill="#4A4A4C" d="M60.5,480.3v-1.1h0.8v1.1H60.5z M60.5,489.3v-7.5h0.9v7.5H60.5z"/>
			<path fill="#4A4A4C" d="M66.3,489.5c-1,0-1.8-0.3-2.3-1c-0.6-0.7-0.8-1.6-0.8-2.9c0-1.1,0.3-2.1,0.9-2.8c0.6-0.7,1.3-1.1,2.3-1.1
				c0.5,0,0.9,0.1,1.4,0.3c0.5,0.2,0.8,0.5,1.1,0.9v-0.2v-3.8l0.8-0.1v10.5h-0.7l-0.1-1.1c-0.3,0.4-0.6,0.7-1.1,1
				C67.2,489.4,66.8,489.5,66.3,489.5z M66.3,488.8c0.4,0,0.8-0.1,1.1-0.2c0.3-0.2,0.6-0.4,0.8-0.7c0.2-0.3,0.3-0.6,0.4-1
				c0.1-0.4,0.1-0.8,0.1-1.2c0-2.2-0.8-3.3-2.5-3.3c-0.4,0-0.7,0.1-1,0.3s-0.5,0.4-0.7,0.7c-0.2,0.3-0.3,0.7-0.4,1
				c-0.1,0.4-0.1,0.8-0.1,1.2c0,0.4,0,0.7,0.1,1s0.1,0.6,0.2,0.9c0.1,0.3,0.3,0.5,0.4,0.7s0.4,0.4,0.6,0.5S66,488.8,66.3,488.8z"/>
		</g>
	</g>
	<g>
		<g>
			<path fill="#4A4A4C" d="M174.4,480.3v-1.1h0.8v1.1H174.4z M174.4,489.3v-7.5h0.9v7.5H174.4z"/>
			<path fill="#4A4A4C" d="M177.4,489.3v-7.5h0.7l0.1,1.2c0.3-0.4,0.6-0.7,1.1-0.9c0.5-0.2,0.9-0.3,1.5-0.3c0.9,0,1.5,0.2,1.9,0.7
				c0.4,0.5,0.6,1.2,0.6,2.3v4.6h-0.9v-5c0-0.7-0.2-1.1-0.4-1.4c-0.3-0.3-0.7-0.4-1.3-0.4c-0.7,0-1.2,0.2-1.7,0.5
				c-0.4,0.3-0.7,0.8-0.8,1.3c0,0.2,0,0.4,0,0.7v4.4H177.4z"/>
			<path fill="#4A4A4C" d="M187.3,489.5c-0.6,0-1.1-0.1-1.4-0.4c-0.3-0.3-0.4-0.7-0.4-1.4v-5.2h-1.1l0.1-0.5l1-0.1l0.2-1.7l0.6,0
				v1.7h2.2v0.6h-2.2v5c0,0.5,0.1,0.9,0.3,1.1c0.2,0.2,0.5,0.3,0.9,0.3c0.3,0,0.6-0.1,1.1-0.2l0,0.7
				C188.1,489.4,187.6,489.5,187.3,489.5z"/>
			<path fill="#4A4A4C" d="M192.9,489.5c-1,0-1.9-0.3-2.5-1c-0.6-0.7-0.9-1.6-0.9-2.8c0-1.1,0.3-2.1,0.9-2.8
				c0.6-0.7,1.4-1.1,2.3-1.1c0.9,0,1.6,0.3,2.1,0.9s0.8,1.5,0.8,2.5c0,0,0,0.1,0,0.2c0,0.1,0,0.2,0,0.3h-5.2c0,1,0.2,1.7,0.7,2.3
				c0.5,0.6,1.1,0.8,1.8,0.8c0.5,0,0.9-0.1,1.3-0.2c0.4-0.1,0.7-0.3,1.1-0.5l0.1,0.6C194.7,489.2,193.8,489.5,192.9,489.5z
				 M190.4,485h4.3c0-0.8-0.2-1.5-0.5-1.9s-0.9-0.7-1.5-0.7c-0.6,0-1.2,0.2-1.5,0.7C190.7,483.6,190.5,484.2,190.4,485z"/>
			<path fill="#4A4A4C" d="M198.5,492.8l-0.1-0.8h1.6c0.4,0,0.7,0,0.9-0.1s0.5-0.1,0.7-0.2c0.2-0.1,0.3-0.2,0.5-0.4
				c0.1-0.2,0.2-0.3,0.3-0.5c0.1-0.2,0.1-0.4,0.2-0.7c0-0.3,0.1-0.5,0.1-0.8c0-0.2,0-0.5,0-0.9c0,0.1,0,0,0,0l0-0.5
				c-0.3,0.4-0.6,0.8-1,1c-0.4,0.2-0.9,0.4-1.4,0.4c-0.4,0-0.9-0.1-1.2-0.2c-0.4-0.2-0.7-0.4-0.9-0.6c-0.2-0.3-0.4-0.5-0.6-0.9
				s-0.3-0.7-0.3-1c-0.1-0.3-0.1-0.6-0.1-1c0-0.4,0-0.8,0.1-1.1c0.1-0.4,0.2-0.7,0.3-1.1c0.2-0.3,0.4-0.6,0.6-0.9s0.6-0.5,1-0.6
				c0.4-0.2,0.8-0.2,1.3-0.2c0.5,0,0.9,0.1,1.3,0.3c0.4,0.2,0.7,0.5,1,0.9l0.1-1.1h0.8v6.9c0,0.3,0,0.5,0,0.7c0,0.2,0,0.4-0.1,0.8
				c0,0.3-0.1,0.6-0.2,0.8c-0.1,0.2-0.2,0.4-0.4,0.7s-0.4,0.4-0.6,0.6c-0.2,0.1-0.6,0.3-0.9,0.4c-0.4,0.1-0.8,0.2-1.3,0.2H198.5z
				 M200.2,488.6c0.3,0,0.6-0.1,0.9-0.2c0.3-0.1,0.5-0.2,0.7-0.4c0.2-0.2,0.3-0.4,0.4-0.6c0.1-0.2,0.2-0.5,0.3-0.7s0.1-0.5,0.1-0.8
				v-0.8c0-0.4,0-0.7-0.1-1s-0.2-0.6-0.4-0.9c-0.2-0.3-0.4-0.5-0.7-0.6c-0.3-0.2-0.7-0.2-1.1-0.2c-0.3,0-0.6,0.1-0.9,0.2
				c-0.3,0.1-0.5,0.3-0.7,0.5c-0.2,0.2-0.3,0.5-0.4,0.8s-0.2,0.6-0.2,0.9c0,0.3-0.1,0.6-0.1,0.9c0,0.3,0,0.5,0.1,0.8
				c0,0.3,0.1,0.5,0.2,0.8c0.1,0.3,0.3,0.5,0.4,0.7s0.4,0.4,0.7,0.5C199.5,488.5,199.9,488.6,200.2,488.6z"/>
			<path fill="#4A4A4C" d="M208.4,489.5c-1,0-1.9-0.3-2.5-1c-0.6-0.7-0.9-1.6-0.9-2.8c0-1.1,0.3-2.1,0.9-2.8
				c0.6-0.7,1.4-1.1,2.3-1.1c0.9,0,1.6,0.3,2.1,0.9s0.8,1.5,0.8,2.5c0,0,0,0.1,0,0.2c0,0.1,0,0.2,0,0.3h-5.2c0,1,0.2,1.7,0.7,2.3
				c0.5,0.6,1.1,0.8,1.8,0.8c0.5,0,0.9-0.1,1.3-0.2c0.4-0.1,0.7-0.3,1.1-0.5l0.1,0.6C210.2,489.2,209.3,489.5,208.4,489.5z
				 M205.9,485h4.3c0-0.8-0.2-1.5-0.5-1.9s-0.9-0.7-1.5-0.7c-0.6,0-1.2,0.2-1.5,0.7C206.2,483.6,206,484.2,205.9,485z"/>
			<path fill="#4A4A4C" d="M212.8,489.3c0-4.4,0-6.9,0-7.5h0.7l0.1,1.5c0.3-0.4,0.6-0.8,1-1.1c0.4-0.3,0.8-0.4,1.3-0.4
				c0.2,0,0.4,0,0.6,0l-0.1,0.7c-0.2,0-0.3,0-0.5,0c-0.6,0-1.2,0.2-1.6,0.7c-0.4,0.5-0.6,1.1-0.6,1.8v4.3H212.8z"/>
		</g>
	</g>
	<g>
		<g>
			<path fill="#4A4A4C" d="M33.6,536.3v-6.9h-1.1v-0.6h1.1c0-0.1,0-0.2,0-0.3c0-0.4,0-0.7,0.1-1s0.1-0.5,0.2-0.7
				c0.1-0.2,0.2-0.4,0.3-0.5c0.1-0.1,0.3-0.2,0.5-0.3c0.2-0.1,0.4-0.1,0.6-0.1c0.2,0,0.4,0,0.7,0h0.5l0.1,0.6h-0.7
				c-0.2,0-0.3,0-0.4,0c-0.1,0-0.2,0-0.3,0.1c-0.1,0-0.2,0.1-0.2,0.1c-0.1,0.1-0.1,0.1-0.2,0.2c0,0.1-0.1,0.2-0.1,0.3
				c0,0.1,0,0.2-0.1,0.4c0,0.2,0,0.3,0,0.5c0,0.2,0,0.4,0,0.6v0.1l0,0.1h4.1v7.5h-0.9v-6.9h-3.2v6.9H33.6z M37.7,527.3V526h0.9v1.2
				H37.7z"/>
			<path fill="#4A4A4C" d="M40.5,536.3c0-4.4,0-6.9,0-7.5h0.7l0.1,1.5c0.3-0.4,0.6-0.8,1-1.1c0.4-0.3,0.8-0.4,1.3-0.4
				c0.2,0,0.4,0,0.6,0l-0.1,0.7c-0.2,0-0.3,0-0.5,0c-0.6,0-1.2,0.2-1.6,0.7c-0.4,0.5-0.6,1.1-0.6,1.8v4.3H40.5z"/>
			<path fill="#4A4A4C" d="M47.5,536.5c-0.5,0-0.9-0.1-1.4-0.2c-0.4-0.1-0.8-0.3-1-0.4l0.1-0.7c0.8,0.4,1.5,0.6,2.2,0.6
				c1.2,0,1.9-0.5,1.9-1.4c0-0.4-0.1-0.7-0.4-0.9c-0.2-0.2-0.7-0.4-1.5-0.7c-0.4-0.1-0.6-0.2-0.6-0.2c-1.2-0.4-1.8-1-1.8-1.9
				c0-0.5,0.2-1,0.7-1.4c0.5-0.4,1.1-0.6,1.9-0.6s1.5,0.2,2.2,0.5l-0.3,0.6c-0.7-0.3-1.4-0.4-2-0.4c-0.5,0-0.9,0.1-1.2,0.4
				c-0.3,0.2-0.5,0.6-0.5,1c0,0.3,0.1,0.6,0.3,0.8c0.2,0.2,0.6,0.4,1.2,0.5c0.1,0,0.2,0.1,0.4,0.1c0.2,0.1,0.3,0.1,0.3,0.1
				c0.8,0.2,1.3,0.5,1.7,0.9c0.3,0.3,0.5,0.8,0.5,1.3c0,0.7-0.3,1.2-0.7,1.5C48.9,536.3,48.3,536.5,47.5,536.5z"/>
			<path fill="#4A4A4C" d="M53.9,536.5c-0.6,0-1.1-0.1-1.4-0.4c-0.3-0.3-0.4-0.7-0.4-1.4v-5.2H51l0.1-0.5l1-0.1l0.2-1.7l0.6,0v1.7
				h2.2v0.6h-2.2v5c0,0.5,0.1,0.9,0.3,1.1c0.2,0.2,0.5,0.3,0.9,0.3c0.3,0,0.6-0.1,1.1-0.2l0,0.7C54.6,536.4,54.2,536.5,53.9,536.5z"
				/>
			<path fill="#4A4A4C" d="M55.9,537v-0.7h6.2v0.7H55.9z"/>
			<path fill="#4A4A4C" d="M63.6,536.3v-7.5h0.7l0.1,1.2c0.3-0.4,0.6-0.7,1.1-0.9c0.5-0.2,0.9-0.3,1.5-0.3c0.9,0,1.5,0.2,1.9,0.7
				c0.4,0.5,0.6,1.2,0.6,2.3v4.6h-0.9v-5c0-0.7-0.2-1.1-0.4-1.4c-0.3-0.3-0.7-0.4-1.3-0.4c-0.7,0-1.2,0.2-1.7,0.5
				c-0.4,0.3-0.7,0.8-0.8,1.3c0,0.2,0,0.4,0,0.7v4.4H63.6z"/>
			<path fill="#4A4A4C" d="M73.5,536.5c-0.7,0-1.3-0.2-1.7-0.5s-0.6-0.9-0.6-1.5c0-0.4,0.1-0.7,0.3-1c0.2-0.3,0.4-0.5,0.7-0.7
				c0.3-0.2,0.7-0.3,1.1-0.4c0.4-0.1,0.9-0.2,1.4-0.2c0.6,0,1-0.1,1.3-0.1v-0.8c0-0.6-0.1-1-0.4-1.3c-0.3-0.3-0.7-0.4-1.3-0.4
				c-0.8,0-1.5,0.2-2.2,0.6c0,0-0.1-0.1-0.1-0.3c-0.1-0.2-0.1-0.3-0.1-0.4c0.3-0.2,0.7-0.3,1.1-0.5s0.9-0.2,1.3-0.2
				c0.9,0,1.5,0.2,1.9,0.6c0.4,0.4,0.6,1.1,0.6,2v5h-0.7c0-0.1-0.1-0.3-0.1-0.6c0-0.3-0.1-0.5-0.1-0.5
				C75.4,536,74.5,536.5,73.5,536.5z M73.5,535.8c0.6,0,1.1-0.2,1.6-0.5c0.5-0.3,0.8-0.8,0.9-1.4v-1.3c-0.7,0.1-1,0.1-1,0.1
				c-1.1,0.1-1.9,0.3-2.3,0.5c-0.4,0.3-0.6,0.7-0.6,1.2c0,0.5,0.1,0.8,0.4,1C72.7,535.7,73,535.8,73.5,535.8z"/>
			<path fill="#4A4A4C" d="M78.8,536.3c0-4.5,0-7,0-7.5h0.7l0.1,1.1c0.2-0.4,0.5-0.7,1-0.9c0.4-0.2,0.9-0.4,1.4-0.4
				c1.2,0,2,0.5,2.3,1.4c0.5-0.9,1.4-1.4,2.5-1.4c0.8,0,1.4,0.2,1.8,0.7c0.4,0.5,0.6,1.2,0.6,2.1v4.8h-0.8v-3.7c0-0.3,0-0.6,0-0.9
				s0-0.5-0.1-0.8c0-0.3-0.1-0.5-0.2-0.7c-0.1-0.2-0.2-0.3-0.3-0.5c-0.1-0.2-0.3-0.3-0.4-0.3c-0.2-0.1-0.4-0.1-0.6-0.1
				c-0.6,0-1.1,0.2-1.5,0.5c-0.4,0.3-0.7,0.8-0.8,1.4c0,0.5,0,0.8,0,1.1v3.9h-0.8v-3.8c0-0.4,0-0.7,0-1c0-0.3-0.1-0.6-0.1-0.8
				s-0.2-0.5-0.3-0.7c-0.1-0.2-0.3-0.3-0.5-0.4c-0.2-0.1-0.4-0.2-0.7-0.2c-0.6,0-1.1,0.2-1.6,0.5c-0.4,0.3-0.7,0.8-0.8,1.3
				c0,0.2,0,0.5,0,0.8v4.3H78.8z"/>
			<path fill="#4A4A4C" d="M94.2,536.5c-1,0-1.9-0.3-2.5-1c-0.6-0.7-0.9-1.6-0.9-2.8c0-1.1,0.3-2.1,0.9-2.8c0.6-0.7,1.4-1.1,2.3-1.1
				c0.9,0,1.6,0.3,2.1,0.9s0.8,1.5,0.8,2.5c0,0,0,0.1,0,0.2c0,0.1,0,0.2,0,0.3h-5.2c0,1,0.2,1.7,0.7,2.3c0.5,0.6,1.1,0.8,1.8,0.8
				c0.5,0,0.9-0.1,1.3-0.2c0.4-0.1,0.7-0.3,1.1-0.5l0.1,0.6C96,536.2,95.1,536.5,94.2,536.5z M91.7,532H96c0-0.8-0.2-1.5-0.5-1.9
				s-0.9-0.7-1.5-0.7c-0.6,0-1.2,0.2-1.5,0.7C92,530.6,91.8,531.2,91.7,532z"/>
		</g>
	</g>
	<g>
		<g>
			<path fill="#4A4A4C" d="M180.7,536.5c-0.5,0-0.9-0.1-1.4-0.2c-0.4-0.1-0.8-0.3-1-0.4l0.1-0.7c0.8,0.4,1.5,0.6,2.2,0.6
				c1.2,0,1.9-0.5,1.9-1.4c0-0.4-0.1-0.7-0.4-0.9c-0.2-0.2-0.7-0.4-1.5-0.7c-0.4-0.1-0.6-0.2-0.6-0.2c-1.2-0.4-1.8-1-1.8-1.9
				c0-0.5,0.2-1,0.7-1.4c0.5-0.4,1.1-0.6,1.9-0.6s1.5,0.2,2.2,0.5l-0.3,0.6c-0.7-0.3-1.4-0.4-2-0.4c-0.5,0-0.9,0.1-1.2,0.4
				c-0.3,0.2-0.5,0.6-0.5,1c0,0.3,0.1,0.6,0.3,0.8c0.2,0.2,0.6,0.4,1.2,0.5c0.1,0,0.2,0.1,0.4,0.1c0.2,0.1,0.3,0.1,0.3,0.1
				c0.8,0.2,1.3,0.5,1.7,0.9c0.3,0.3,0.5,0.8,0.5,1.3c0,0.7-0.3,1.2-0.7,1.5C182.2,536.3,181.5,536.5,180.7,536.5z"/>
			<path fill="#4A4A4C" d="M187.1,536.5c-0.6,0-1.1-0.1-1.4-0.4c-0.3-0.3-0.4-0.7-0.4-1.4v-5.2h-1.1l0.1-0.5l1-0.1l0.2-1.7l0.6,0
				v1.7h2.2v0.6h-2.2v5c0,0.5,0.1,0.9,0.3,1.1c0.2,0.2,0.5,0.3,0.9,0.3c0.3,0,0.6-0.1,1.1-0.2l0,0.7
				C187.8,536.4,187.4,536.5,187.1,536.5z"/>
			<path fill="#4A4A4C" d="M189.6,536.3c0-4.4,0-6.9,0-7.5h0.7l0.1,1.5c0.3-0.4,0.6-0.8,1-1.1c0.4-0.3,0.8-0.4,1.3-0.4
				c0.2,0,0.4,0,0.6,0l-0.1,0.7c-0.2,0-0.3,0-0.5,0c-0.6,0-1.2,0.2-1.6,0.7c-0.4,0.5-0.6,1.1-0.6,1.8v4.3H189.6z"/>
			<path fill="#4A4A4C" d="M194.6,527.3v-1.1h0.8v1.1H194.6z M194.6,536.3v-7.5h0.9v7.5H194.6z"/>
			<path fill="#4A4A4C" d="M197.6,536.3v-7.5h0.7l0.1,1.2c0.3-0.4,0.6-0.7,1.1-0.9c0.5-0.2,0.9-0.3,1.5-0.3c0.9,0,1.5,0.2,1.9,0.7
				c0.4,0.5,0.6,1.2,0.6,2.3v4.6h-0.9v-5c0-0.7-0.2-1.1-0.4-1.4c-0.3-0.3-0.7-0.4-1.3-0.4c-0.7,0-1.2,0.2-1.7,0.5
				c-0.4,0.3-0.7,0.8-0.8,1.3c0,0.2,0,0.4,0,0.7v4.4H197.6z"/>
			<path fill="#4A4A4C" d="M206.6,539.8l-0.1-0.8h1.6c0.4,0,0.7,0,0.9-0.1s0.5-0.1,0.7-0.2c0.2-0.1,0.3-0.2,0.5-0.4
				c0.1-0.2,0.2-0.3,0.3-0.5c0.1-0.2,0.1-0.4,0.2-0.7c0-0.3,0.1-0.5,0.1-0.8c0-0.2,0-0.5,0-0.9c0,0.1,0,0,0,0l0-0.5
				c-0.3,0.4-0.6,0.8-1,1c-0.4,0.2-0.9,0.4-1.4,0.4c-0.4,0-0.9-0.1-1.2-0.2c-0.4-0.2-0.7-0.4-0.9-0.6c-0.2-0.3-0.4-0.5-0.6-0.9
				s-0.3-0.7-0.3-1c-0.1-0.3-0.1-0.6-0.1-1c0-0.4,0-0.8,0.1-1.1c0.1-0.4,0.2-0.7,0.3-1.1c0.2-0.3,0.4-0.6,0.6-0.9s0.6-0.5,1-0.6
				c0.4-0.2,0.8-0.2,1.3-0.2c0.5,0,0.9,0.1,1.3,0.3c0.4,0.2,0.7,0.5,1,0.9l0.1-1.1h0.8v6.9c0,0.3,0,0.5,0,0.7c0,0.2,0,0.4-0.1,0.8
				c0,0.3-0.1,0.6-0.2,0.8c-0.1,0.2-0.2,0.4-0.4,0.7s-0.4,0.4-0.6,0.6c-0.2,0.1-0.6,0.3-0.9,0.4c-0.4,0.1-0.8,0.2-1.3,0.2H206.6z
				 M208.3,535.6c0.3,0,0.6-0.1,0.9-0.2c0.3-0.1,0.5-0.2,0.7-0.4c0.2-0.2,0.3-0.4,0.4-0.6c0.1-0.2,0.2-0.5,0.3-0.7s0.1-0.5,0.1-0.8
				v-0.8c0-0.4,0-0.7-0.1-1s-0.2-0.6-0.4-0.9c-0.2-0.3-0.4-0.5-0.7-0.6c-0.3-0.2-0.7-0.2-1.1-0.2c-0.3,0-0.6,0.1-0.9,0.2
				c-0.3,0.1-0.5,0.3-0.7,0.5c-0.2,0.2-0.3,0.5-0.4,0.8s-0.2,0.6-0.2,0.9c0,0.3-0.1,0.6-0.1,0.9c0,0.3,0,0.5,0.1,0.8
				c0,0.3,0.1,0.5,0.2,0.8c0.1,0.3,0.3,0.5,0.4,0.7s0.4,0.4,0.7,0.5C207.6,535.5,208,535.6,208.3,535.6z"/>
		</g>
	</g>
	<g>
		<g>
			<path fill="#4A4A4C" d="M35.6,584.5c-0.6,0-1.1-0.1-1.4-0.4c-0.3-0.3-0.4-0.7-0.4-1.4v-8.7l0.8-0.1v8.8c0,0.5,0.1,0.8,0.2,0.9
				c0.2,0.2,0.4,0.3,0.8,0.3c0.3,0,0.6-0.1,1-0.2l0,0.7C36.2,584.4,35.8,584.5,35.6,584.5z"/>
			<path fill="#4A4A4C" d="M39.7,584.5c-0.7,0-1.3-0.2-1.7-0.5s-0.6-0.9-0.6-1.5c0-0.4,0.1-0.7,0.3-1c0.2-0.3,0.4-0.5,0.7-0.7
				c0.3-0.2,0.7-0.3,1.1-0.4c0.4-0.1,0.9-0.2,1.4-0.2c0.6,0,1-0.1,1.3-0.1v-0.8c0-0.6-0.1-1-0.4-1.3c-0.3-0.3-0.7-0.4-1.3-0.4
				c-0.8,0-1.5,0.2-2.2,0.6c0,0-0.1-0.1-0.1-0.3c-0.1-0.2-0.1-0.3-0.1-0.4c0.3-0.2,0.7-0.3,1.1-0.5s0.9-0.2,1.3-0.2
				c0.9,0,1.5,0.2,1.9,0.6c0.4,0.4,0.6,1.1,0.6,2v5h-0.7c0-0.1-0.1-0.3-0.1-0.6c0-0.3-0.1-0.5-0.1-0.5
				C41.6,584,40.7,584.5,39.7,584.5z M39.7,583.8c0.6,0,1.1-0.2,1.6-0.5c0.5-0.3,0.8-0.8,0.9-1.4v-1.3c-0.7,0.1-1,0.1-1,0.1
				c-1.1,0.1-1.9,0.3-2.3,0.5c-0.4,0.3-0.6,0.7-0.6,1.2c0,0.5,0.1,0.8,0.4,1C38.9,583.7,39.2,583.8,39.7,583.8z"/>
			<path fill="#4A4A4C" d="M47.2,584.5c-0.5,0-0.9-0.1-1.4-0.2c-0.4-0.1-0.8-0.3-1-0.4l0.1-0.7c0.8,0.4,1.5,0.6,2.2,0.6
				c1.2,0,1.9-0.5,1.9-1.4c0-0.4-0.1-0.7-0.4-0.9c-0.2-0.2-0.7-0.4-1.5-0.7c-0.4-0.1-0.6-0.2-0.6-0.2c-1.2-0.4-1.8-1-1.8-1.9
				c0-0.5,0.2-1,0.7-1.4c0.5-0.4,1.1-0.6,1.9-0.6s1.5,0.2,2.2,0.5l-0.3,0.6c-0.7-0.3-1.4-0.4-2-0.4c-0.5,0-0.9,0.1-1.2,0.4
				c-0.3,0.2-0.5,0.6-0.5,1c0,0.3,0.1,0.6,0.3,0.8c0.2,0.2,0.6,0.4,1.2,0.5c0.1,0,0.2,0.1,0.4,0.1c0.2,0.1,0.3,0.1,0.3,0.1
				c0.8,0.2,1.3,0.5,1.7,0.9c0.3,0.3,0.5,0.8,0.5,1.3c0,0.7-0.3,1.2-0.7,1.5C48.6,584.3,48,584.5,47.2,584.5z"/>
			<path fill="#4A4A4C" d="M53.6,584.5c-0.6,0-1.1-0.1-1.4-0.4c-0.3-0.3-0.4-0.7-0.4-1.4v-5.2h-1.1l0.1-0.5l1-0.1l0.2-1.7l0.6,0v1.7
				h2.2v0.6h-2.2v5c0,0.5,0.1,0.9,0.3,1.1c0.2,0.2,0.5,0.3,0.9,0.3c0.3,0,0.6-0.1,1.1-0.2l0,0.7C54.3,584.4,53.9,584.5,53.6,584.5z"
				/>
			<path fill="#4A4A4C" d="M55.6,585v-0.7h6.2v0.7H55.6z"/>
			<path fill="#4A4A4C" d="M63.3,584.3v-7.5H64l0.1,1.2c0.3-0.4,0.6-0.7,1.1-0.9c0.5-0.2,0.9-0.3,1.5-0.3c0.9,0,1.5,0.2,1.9,0.7
				c0.4,0.5,0.6,1.2,0.6,2.3v4.6h-0.9v-5c0-0.7-0.2-1.1-0.4-1.4c-0.3-0.3-0.7-0.4-1.3-0.4c-0.7,0-1.2,0.2-1.7,0.5
				c-0.4,0.3-0.7,0.8-0.8,1.3c0,0.2,0,0.4,0,0.7v4.4H63.3z"/>
			<path fill="#4A4A4C" d="M73.2,584.5c-0.7,0-1.3-0.2-1.7-0.5s-0.6-0.9-0.6-1.5c0-0.4,0.1-0.7,0.3-1c0.2-0.3,0.4-0.5,0.7-0.7
				c0.3-0.2,0.7-0.3,1.1-0.4c0.4-0.1,0.9-0.2,1.4-0.2c0.6,0,1-0.1,1.3-0.1v-0.8c0-0.6-0.1-1-0.4-1.3c-0.3-0.3-0.7-0.4-1.3-0.4
				c-0.8,0-1.5,0.2-2.2,0.6c0,0-0.1-0.1-0.1-0.3c-0.1-0.2-0.1-0.3-0.1-0.4c0.3-0.2,0.7-0.3,1.1-0.5s0.9-0.2,1.3-0.2
				c0.9,0,1.5,0.2,1.9,0.6c0.4,0.4,0.6,1.1,0.6,2v5h-0.7c0-0.1-0.1-0.3-0.1-0.6c0-0.3-0.1-0.5-0.1-0.5
				C75.1,584,74.2,584.5,73.2,584.5z M73.2,583.8c0.6,0,1.1-0.2,1.6-0.5c0.5-0.3,0.8-0.8,0.9-1.4v-1.3c-0.7,0.1-1,0.1-1,0.1
				c-1.1,0.1-1.9,0.3-2.3,0.5c-0.4,0.3-0.6,0.7-0.6,1.2c0,0.5,0.1,0.8,0.4,1C72.4,583.7,72.7,583.8,73.2,583.8z"/>
			<path fill="#4A4A4C" d="M78.5,584.3c0-4.5,0-7,0-7.5h0.7l0.1,1.1c0.2-0.4,0.5-0.7,1-0.9c0.4-0.2,0.9-0.4,1.4-0.4
				c1.2,0,2,0.5,2.3,1.4c0.5-0.9,1.4-1.4,2.5-1.4c0.8,0,1.4,0.2,1.8,0.7c0.4,0.5,0.6,1.2,0.6,2.1v4.8h-0.8v-3.7c0-0.3,0-0.6,0-0.9
				s0-0.5-0.1-0.8c0-0.3-0.1-0.5-0.2-0.7c-0.1-0.2-0.2-0.3-0.3-0.5c-0.1-0.2-0.3-0.3-0.4-0.3c-0.2-0.1-0.4-0.1-0.6-0.1
				c-0.6,0-1.1,0.2-1.5,0.5c-0.4,0.3-0.7,0.8-0.8,1.4c0,0.5,0,0.8,0,1.1v3.9h-0.8v-3.8c0-0.4,0-0.7,0-1c0-0.3-0.1-0.6-0.1-0.8
				s-0.2-0.5-0.3-0.7c-0.1-0.2-0.3-0.3-0.5-0.4c-0.2-0.1-0.4-0.2-0.7-0.2c-0.6,0-1.1,0.2-1.6,0.5c-0.4,0.3-0.7,0.8-0.8,1.3
				c0,0.2,0,0.5,0,0.8v4.3H78.5z"/>
			<path fill="#4A4A4C" d="M93.9,584.5c-1,0-1.9-0.3-2.5-1c-0.6-0.7-0.9-1.6-0.9-2.8c0-1.1,0.3-2.1,0.9-2.8c0.6-0.7,1.4-1.1,2.3-1.1
				c0.9,0,1.6,0.3,2.1,0.9s0.8,1.5,0.8,2.5c0,0,0,0.1,0,0.2c0,0.1,0,0.2,0,0.3h-5.2c0,1,0.2,1.7,0.7,2.3c0.5,0.6,1.1,0.8,1.8,0.8
				c0.5,0,0.9-0.1,1.3-0.2c0.4-0.1,0.7-0.3,1.1-0.5l0.1,0.6C95.7,584.2,94.8,584.5,93.9,584.5z M91.4,580h4.3c0-0.8-0.2-1.5-0.5-1.9
				s-0.9-0.7-1.5-0.7c-0.6,0-1.2,0.2-1.5,0.7C91.8,578.6,91.5,579.2,91.4,580z"/>
		</g>
	</g>
	<g>
		<g>
			<path fill="#4A4A4C" d="M180.7,584.5c-0.5,0-0.9-0.1-1.4-0.2c-0.4-0.1-0.8-0.3-1-0.4l0.1-0.7c0.8,0.4,1.5,0.6,2.2,0.6
				c1.2,0,1.9-0.5,1.9-1.4c0-0.4-0.1-0.7-0.4-0.9c-0.2-0.2-0.7-0.4-1.5-0.7c-0.4-0.1-0.6-0.2-0.6-0.2c-1.2-0.4-1.8-1-1.8-1.9
				c0-0.5,0.2-1,0.7-1.4c0.5-0.4,1.1-0.6,1.9-0.6s1.5,0.2,2.2,0.5l-0.3,0.6c-0.7-0.3-1.4-0.4-2-0.4c-0.5,0-0.9,0.1-1.2,0.4
				c-0.3,0.2-0.5,0.6-0.5,1c0,0.3,0.1,0.6,0.3,0.8c0.2,0.2,0.6,0.4,1.2,0.5c0.1,0,0.2,0.1,0.4,0.1c0.2,0.1,0.3,0.1,0.3,0.1
				c0.8,0.2,1.3,0.5,1.7,0.9c0.3,0.3,0.5,0.8,0.5,1.3c0,0.7-0.3,1.2-0.7,1.5C182.2,584.3,181.5,584.5,180.7,584.5z"/>
			<path fill="#4A4A4C" d="M187.1,584.5c-0.6,0-1.1-0.1-1.4-0.4c-0.3-0.3-0.4-0.7-0.4-1.4v-5.2h-1.1l0.1-0.5l1-0.1l0.2-1.7l0.6,0
				v1.7h2.2v0.6h-2.2v5c0,0.5,0.1,0.9,0.3,1.1c0.2,0.2,0.5,0.3,0.9,0.3c0.3,0,0.6-0.1,1.1-0.2l0,0.7
				C187.8,584.4,187.4,584.5,187.1,584.5z"/>
			<path fill="#4A4A4C" d="M189.6,584.3c0-4.4,0-6.9,0-7.5h0.7l0.1,1.5c0.3-0.4,0.6-0.8,1-1.1c0.4-0.3,0.8-0.4,1.3-0.4
				c0.2,0,0.4,0,0.6,0l-0.1,0.7c-0.2,0-0.3,0-0.5,0c-0.6,0-1.2,0.2-1.6,0.7c-0.4,0.5-0.6,1.1-0.6,1.8v4.3H189.6z"/>
			<path fill="#4A4A4C" d="M194.6,575.3v-1.1h0.8v1.1H194.6z M194.6,584.3v-7.5h0.9v7.5H194.6z"/>
			<path fill="#4A4A4C" d="M197.6,584.3v-7.5h0.7l0.1,1.2c0.3-0.4,0.6-0.7,1.1-0.9c0.5-0.2,0.9-0.3,1.5-0.3c0.9,0,1.5,0.2,1.9,0.7
				c0.4,0.5,0.6,1.2,0.6,2.3v4.6h-0.9v-5c0-0.7-0.2-1.1-0.4-1.4c-0.3-0.3-0.7-0.4-1.3-0.4c-0.7,0-1.2,0.2-1.7,0.5
				c-0.4,0.3-0.7,0.8-0.8,1.3c0,0.2,0,0.4,0,0.7v4.4H197.6z"/>
			<path fill="#4A4A4C" d="M206.6,587.8l-0.1-0.8h1.6c0.4,0,0.7,0,0.9-0.1s0.5-0.1,0.7-0.2c0.2-0.1,0.3-0.2,0.5-0.4
				c0.1-0.2,0.2-0.3,0.3-0.5c0.1-0.2,0.1-0.4,0.2-0.7c0-0.3,0.1-0.5,0.1-0.8c0-0.2,0-0.5,0-0.9c0,0.1,0,0,0,0l0-0.5
				c-0.3,0.4-0.6,0.8-1,1c-0.4,0.2-0.9,0.4-1.4,0.4c-0.4,0-0.9-0.1-1.2-0.2c-0.4-0.2-0.7-0.4-0.9-0.6c-0.2-0.3-0.4-0.5-0.6-0.9
				s-0.3-0.7-0.3-1c-0.1-0.3-0.1-0.6-0.1-1c0-0.4,0-0.8,0.1-1.1c0.1-0.4,0.2-0.7,0.3-1.1c0.2-0.3,0.4-0.6,0.6-0.9s0.6-0.5,1-0.6
				c0.4-0.2,0.8-0.2,1.3-0.2c0.5,0,0.9,0.1,1.3,0.3c0.4,0.2,0.7,0.5,1,0.9l0.1-1.1h0.8v6.9c0,0.3,0,0.5,0,0.7c0,0.2,0,0.4-0.1,0.8
				c0,0.3-0.1,0.6-0.2,0.8c-0.1,0.2-0.2,0.4-0.4,0.7s-0.4,0.4-0.6,0.6c-0.2,0.1-0.6,0.3-0.9,0.4c-0.4,0.1-0.8,0.2-1.3,0.2H206.6z
				 M208.3,583.6c0.3,0,0.6-0.1,0.9-0.2c0.3-0.1,0.5-0.2,0.7-0.4c0.2-0.2,0.3-0.4,0.4-0.6c0.1-0.2,0.2-0.5,0.3-0.7s0.1-0.5,0.1-0.8
				v-0.8c0-0.4,0-0.7-0.1-1s-0.2-0.6-0.4-0.9c-0.2-0.3-0.4-0.5-0.7-0.6c-0.3-0.2-0.7-0.2-1.1-0.2c-0.3,0-0.6,0.1-0.9,0.2
				c-0.3,0.1-0.5,0.3-0.7,0.5c-0.2,0.2-0.3,0.5-0.4,0.8s-0.2,0.6-0.2,0.9c0,0.3-0.1,0.6-0.1,0.9c0,0.3,0,0.5,0.1,0.8
				c0,0.3,0.1,0.5,0.2,0.8c0.1,0.3,0.3,0.5,0.4,0.7s0.4,0.4,0.7,0.5C207.6,583.5,208,583.6,208.3,583.6z"/>
		</g>
	</g>
	<g>
		<g>
			<path fill="#4A4A4C" d="M47,617.3v-1.1h0.8v1.1H47z M47,626.3v-7.5h0.9v7.5H47z"/>
			<path fill="#4A4A4C" d="M50,626.3c0-4.5,0-7,0-7.5h0.7l0.1,1.1c0.2-0.4,0.5-0.7,1-0.9c0.4-0.2,0.9-0.4,1.4-0.4
				c1.2,0,2,0.5,2.3,1.4c0.5-0.9,1.4-1.4,2.5-1.4c0.8,0,1.4,0.2,1.8,0.7c0.4,0.5,0.6,1.2,0.6,2.1v4.8h-0.8v-3.7c0-0.3,0-0.6,0-0.9
				s0-0.5-0.1-0.8c0-0.3-0.1-0.5-0.2-0.7c-0.1-0.2-0.2-0.3-0.3-0.5c-0.1-0.2-0.3-0.3-0.4-0.3c-0.2-0.1-0.4-0.1-0.6-0.1
				c-0.6,0-1.1,0.2-1.5,0.5c-0.4,0.3-0.7,0.8-0.8,1.4c0,0.5,0,0.8,0,1.1v3.9h-0.8v-3.8c0-0.4,0-0.7,0-1c0-0.3-0.1-0.6-0.1-0.8
				s-0.2-0.5-0.3-0.7c-0.1-0.2-0.3-0.3-0.5-0.4c-0.2-0.1-0.4-0.2-0.7-0.2c-0.6,0-1.1,0.2-1.6,0.5c-0.4,0.3-0.7,0.8-0.8,1.3
				c0,0.2,0,0.5,0,0.8v4.3H50z"/>
			<path fill="#4A4A4C" d="M64.3,626.5c-0.7,0-1.3-0.2-1.7-0.5s-0.6-0.9-0.6-1.5c0-0.4,0.1-0.7,0.3-1c0.2-0.3,0.4-0.5,0.7-0.7
				c0.3-0.2,0.7-0.3,1.1-0.4c0.4-0.1,0.9-0.2,1.4-0.2c0.6,0,1-0.1,1.3-0.1v-0.8c0-0.6-0.1-1-0.4-1.3c-0.3-0.3-0.7-0.4-1.3-0.4
				c-0.8,0-1.5,0.2-2.2,0.6c0,0-0.1-0.1-0.1-0.3c-0.1-0.2-0.1-0.3-0.1-0.4c0.3-0.2,0.7-0.3,1.1-0.5s0.9-0.2,1.3-0.2
				c0.9,0,1.5,0.2,1.9,0.6c0.4,0.4,0.6,1.1,0.6,2v5h-0.7c0-0.1-0.1-0.3-0.1-0.6c0-0.3-0.1-0.5-0.1-0.5
				C66.2,626,65.3,626.5,64.3,626.5z M64.3,625.8c0.6,0,1.1-0.2,1.6-0.5c0.5-0.3,0.8-0.8,0.9-1.4v-1.3c-0.7,0.1-1,0.1-1,0.1
				c-1.1,0.1-1.9,0.3-2.3,0.5c-0.4,0.3-0.6,0.7-0.6,1.2c0,0.5,0.1,0.8,0.4,1C63.5,625.7,63.8,625.8,64.3,625.8z"/>
			<path fill="#4A4A4C" d="M70.8,629.8l-0.1-0.8h1.6c0.4,0,0.7,0,0.9-0.1s0.5-0.1,0.7-0.2c0.2-0.1,0.3-0.2,0.5-0.4
				c0.1-0.2,0.2-0.3,0.3-0.5c0.1-0.2,0.1-0.4,0.2-0.7c0-0.3,0.1-0.5,0.1-0.8c0-0.2,0-0.5,0-0.9c0,0.1,0,0,0,0l0-0.5
				c-0.3,0.4-0.6,0.8-1,1c-0.4,0.2-0.9,0.4-1.4,0.4c-0.4,0-0.9-0.1-1.2-0.2c-0.4-0.2-0.7-0.4-0.9-0.6c-0.2-0.3-0.4-0.5-0.6-0.9
				s-0.3-0.7-0.3-1c-0.1-0.3-0.1-0.6-0.1-1c0-0.4,0-0.8,0.1-1.1c0.1-0.4,0.2-0.7,0.3-1.1c0.2-0.3,0.4-0.6,0.6-0.9s0.6-0.5,1-0.6
				c0.4-0.2,0.8-0.2,1.3-0.2c0.5,0,0.9,0.1,1.3,0.3c0.4,0.2,0.7,0.5,1,0.9l0.1-1.1h0.8v6.9c0,0.3,0,0.5,0,0.7c0,0.2,0,0.4-0.1,0.8
				c0,0.3-0.1,0.6-0.2,0.8c-0.1,0.2-0.2,0.4-0.4,0.7s-0.4,0.4-0.6,0.6c-0.2,0.1-0.6,0.3-0.9,0.4c-0.4,0.1-0.8,0.2-1.3,0.2H70.8z
				 M72.5,625.6c0.3,0,0.6-0.1,0.9-0.2c0.3-0.1,0.5-0.2,0.7-0.4c0.2-0.2,0.3-0.4,0.4-0.6c0.1-0.2,0.2-0.5,0.3-0.7s0.1-0.5,0.1-0.8
				v-0.8c0-0.4,0-0.7-0.1-1s-0.2-0.6-0.4-0.9c-0.2-0.3-0.4-0.5-0.7-0.6c-0.3-0.2-0.7-0.2-1.1-0.2c-0.3,0-0.6,0.1-0.9,0.2
				c-0.3,0.1-0.5,0.3-0.7,0.5c-0.2,0.2-0.3,0.5-0.4,0.8s-0.2,0.6-0.2,0.9c0,0.3-0.1,0.6-0.1,0.9c0,0.3,0,0.5,0.1,0.8
				c0,0.3,0.1,0.5,0.2,0.8c0.1,0.3,0.3,0.5,0.4,0.7s0.4,0.4,0.7,0.5C71.8,625.5,72.2,625.6,72.5,625.6z"/>
			<path fill="#4A4A4C" d="M80.7,626.5c-1,0-1.9-0.3-2.5-1c-0.6-0.7-0.9-1.6-0.9-2.8c0-1.1,0.3-2.1,0.9-2.8c0.6-0.7,1.4-1.1,2.3-1.1
				c0.9,0,1.6,0.3,2.1,0.9s0.8,1.5,0.8,2.5c0,0,0,0.1,0,0.2c0,0.1,0,0.2,0,0.3h-5.2c0,1,0.2,1.7,0.7,2.3c0.5,0.6,1.1,0.8,1.8,0.8
				c0.5,0,0.9-0.1,1.3-0.2c0.4-0.1,0.7-0.3,1.1-0.5l0.1,0.6C82.5,626.2,81.6,626.5,80.7,626.5z M78.2,622h4.3c0-0.8-0.2-1.5-0.5-1.9
				s-0.9-0.7-1.5-0.7c-0.6,0-1.2,0.2-1.5,0.7C78.5,620.6,78.3,621.2,78.2,622z"/>
		</g>
	</g>
	<g>
		<g>
			<path fill="#4A4A4C" d="M180.7,626.5c-0.5,0-0.9-0.1-1.4-0.2c-0.4-0.1-0.8-0.3-1-0.4l0.1-0.7c0.8,0.4,1.5,0.6,2.2,0.6
				c1.2,0,1.9-0.5,1.9-1.4c0-0.4-0.1-0.7-0.4-0.9c-0.2-0.2-0.7-0.4-1.5-0.7c-0.4-0.1-0.6-0.2-0.6-0.2c-1.2-0.4-1.8-1-1.8-1.9
				c0-0.5,0.2-1,0.7-1.4c0.5-0.4,1.1-0.6,1.9-0.6s1.5,0.2,2.2,0.5l-0.3,0.6c-0.7-0.3-1.4-0.4-2-0.4c-0.5,0-0.9,0.1-1.2,0.4
				c-0.3,0.2-0.5,0.6-0.5,1c0,0.3,0.1,0.6,0.3,0.8c0.2,0.2,0.6,0.4,1.2,0.5c0.1,0,0.2,0.1,0.4,0.1c0.2,0.1,0.3,0.1,0.3,0.1
				c0.8,0.2,1.3,0.5,1.7,0.9c0.3,0.3,0.5,0.8,0.5,1.3c0,0.7-0.3,1.2-0.7,1.5C182.2,626.3,181.5,626.5,180.7,626.5z"/>
			<path fill="#4A4A4C" d="M187.1,626.5c-0.6,0-1.1-0.1-1.4-0.4c-0.3-0.3-0.4-0.7-0.4-1.4v-5.2h-1.1l0.1-0.5l1-0.1l0.2-1.7l0.6,0
				v1.7h2.2v0.6h-2.2v5c0,0.5,0.1,0.9,0.3,1.1c0.2,0.2,0.5,0.3,0.9,0.3c0.3,0,0.6-0.1,1.1-0.2l0,0.7
				C187.8,626.4,187.4,626.5,187.1,626.5z"/>
			<path fill="#4A4A4C" d="M189.6,626.3c0-4.4,0-6.9,0-7.5h0.7l0.1,1.5c0.3-0.4,0.6-0.8,1-1.1c0.4-0.3,0.8-0.4,1.3-0.4
				c0.2,0,0.4,0,0.6,0l-0.1,0.7c-0.2,0-0.3,0-0.5,0c-0.6,0-1.2,0.2-1.6,0.7c-0.4,0.5-0.6,1.1-0.6,1.8v4.3H189.6z"/>
			<path fill="#4A4A4C" d="M194.6,617.3v-1.1h0.8v1.1H194.6z M194.6,626.3v-7.5h0.9v7.5H194.6z"/>
			<path fill="#4A4A4C" d="M197.6,626.3v-7.5h0.7l0.1,1.2c0.3-0.4,0.6-0.7,1.1-0.9c0.5-0.2,0.9-0.3,1.5-0.3c0.9,0,1.5,0.2,1.9,0.7
				c0.4,0.5,0.6,1.2,0.6,2.3v4.6h-0.9v-5c0-0.7-0.2-1.1-0.4-1.4c-0.3-0.3-0.7-0.4-1.3-0.4c-0.7,0-1.2,0.2-1.7,0.5
				c-0.4,0.3-0.7,0.8-0.8,1.3c0,0.2,0,0.4,0,0.7v4.4H197.6z"/>
			<path fill="#4A4A4C" d="M206.6,629.8l-0.1-0.8h1.6c0.4,0,0.7,0,0.9-0.1s0.5-0.1,0.7-0.2c0.2-0.1,0.3-0.2,0.5-0.4
				c0.1-0.2,0.2-0.3,0.3-0.5c0.1-0.2,0.1-0.4,0.2-0.7c0-0.3,0.1-0.5,0.1-0.8c0-0.2,0-0.5,0-0.9c0,0.1,0,0,0,0l0-0.5
				c-0.3,0.4-0.6,0.8-1,1c-0.4,0.2-0.9,0.4-1.4,0.4c-0.4,0-0.9-0.1-1.2-0.2c-0.4-0.2-0.7-0.4-0.9-0.6c-0.2-0.3-0.4-0.5-0.6-0.9
				s-0.3-0.7-0.3-1c-0.1-0.3-0.1-0.6-0.1-1c0-0.4,0-0.8,0.1-1.1c0.1-0.4,0.2-0.7,0.3-1.1c0.2-0.3,0.4-0.6,0.6-0.9s0.6-0.5,1-0.6
				c0.4-0.2,0.8-0.2,1.3-0.2c0.5,0,0.9,0.1,1.3,0.3c0.4,0.2,0.7,0.5,1,0.9l0.1-1.1h0.8v6.9c0,0.3,0,0.5,0,0.7c0,0.2,0,0.4-0.1,0.8
				c0,0.3-0.1,0.6-0.2,0.8c-0.1,0.2-0.2,0.4-0.4,0.7s-0.4,0.4-0.6,0.6c-0.2,0.1-0.6,0.3-0.9,0.4c-0.4,0.1-0.8,0.2-1.3,0.2H206.6z
				 M208.3,625.6c0.3,0,0.6-0.1,0.9-0.2c0.3-0.1,0.5-0.2,0.7-0.4c0.2-0.2,0.3-0.4,0.4-0.6c0.1-0.2,0.2-0.5,0.3-0.7s0.1-0.5,0.1-0.8
				v-0.8c0-0.4,0-0.7-0.1-1s-0.2-0.6-0.4-0.9c-0.2-0.3-0.4-0.5-0.7-0.6c-0.3-0.2-0.7-0.2-1.1-0.2c-0.3,0-0.6,0.1-0.9,0.2
				c-0.3,0.1-0.5,0.3-0.7,0.5c-0.2,0.2-0.3,0.5-0.4,0.8s-0.2,0.6-0.2,0.9c0,0.3-0.1,0.6-0.1,0.9c0,0.3,0,0.5,0.1,0.8
				c0,0.3,0.1,0.5,0.2,0.8c0.1,0.3,0.3,0.5,0.4,0.7s0.4,0.4,0.7,0.5C207.6,625.5,208,625.6,208.3,625.6z"/>
		</g>
	</g>
	<g>
		<g>
			<path fill="#4A4A4C" d="M59.6,674.5c-1,0-1.8-0.4-2.4-1.3l-0.1,1.1h-0.7v-10.4l0.8-0.1v2.5c0,0.8,0,1.3,0,1.6
				c0.3-0.4,0.6-0.7,1.1-1c0.4-0.2,0.9-0.3,1.3-0.3c1,0,1.8,0.4,2.4,1.1c0.6,0.7,0.9,1.7,0.9,2.8c0,0.8-0.1,1.4-0.4,2
				c-0.2,0.6-0.6,1-1.1,1.4S60.3,674.5,59.6,674.5z M59.6,673.8c0.4,0,0.8-0.1,1.1-0.3c0.3-0.2,0.5-0.4,0.7-0.7
				c0.2-0.3,0.3-0.6,0.4-1c0.1-0.4,0.1-0.8,0.1-1.2c0-0.3,0-0.7-0.1-1c0-0.3-0.1-0.6-0.2-0.9c-0.1-0.3-0.3-0.5-0.4-0.7
				c-0.2-0.2-0.4-0.4-0.6-0.5c-0.3-0.1-0.6-0.2-0.9-0.2c-0.8,0-1.4,0.3-1.8,0.9c-0.4,0.6-0.6,1.4-0.6,2.4c0,0.5,0,0.9,0.1,1.3
				c0.1,0.4,0.2,0.7,0.4,1c0.2,0.3,0.4,0.5,0.8,0.7C58.8,673.7,59.2,673.8,59.6,673.8z"/>
			<path fill="#4A4A4C" d="M64.6,665.3v-1.1h0.8v1.1H64.6z M64.6,674.3v-7.5h0.9v7.5H64.6z"/>
			<path fill="#4A4A4C" d="M70.6,674.5c-0.7,0-1.3-0.2-1.8-0.5c-0.5-0.3-0.9-0.8-1.2-1.4c-0.3-0.6-0.4-1.2-0.4-2
				c0-0.6,0.1-1.1,0.2-1.5c0.2-0.5,0.4-0.9,0.7-1.2s0.7-0.6,1.1-0.8s0.9-0.3,1.4-0.3c0.7,0,1.3,0.2,1.8,0.5c0.5,0.3,0.9,0.8,1.2,1.4
				c0.3,0.6,0.4,1.2,0.4,2c0,0.7-0.1,1.4-0.4,2c-0.3,0.6-0.7,1-1.2,1.4C71.9,674.3,71.3,674.5,70.6,674.5z M70.6,673.8
				c0.5,0,1-0.1,1.4-0.4c0.4-0.3,0.7-0.7,0.8-1.1c0.2-0.5,0.3-1,0.3-1.6c0-1-0.2-1.7-0.6-2.3s-1-0.9-1.9-0.9c-0.5,0-1,0.1-1.4,0.4
				c-0.4,0.3-0.7,0.7-0.8,1.2c-0.2,0.5-0.3,1-0.3,1.6c0,0.9,0.2,1.7,0.7,2.3C69.2,673.5,69.8,673.8,70.6,673.8z"/>
		</g>
	</g>
	<g>
		<g>
			<path fill="#4A4A4C" d="M180.7,674.5c-0.5,0-0.9-0.1-1.4-0.2c-0.4-0.1-0.8-0.3-1-0.4l0.1-0.7c0.8,0.4,1.5,0.6,2.2,0.6
				c1.2,0,1.9-0.5,1.9-1.4c0-0.4-0.1-0.7-0.4-0.9c-0.2-0.2-0.7-0.4-1.5-0.7c-0.4-0.1-0.6-0.2-0.6-0.2c-1.2-0.4-1.8-1-1.8-1.9
				c0-0.5,0.2-1,0.7-1.4c0.5-0.4,1.1-0.6,1.9-0.6s1.5,0.2,2.2,0.5l-0.3,0.6c-0.7-0.3-1.4-0.4-2-0.4c-0.5,0-0.9,0.1-1.2,0.4
				c-0.3,0.2-0.5,0.6-0.5,1c0,0.3,0.1,0.6,0.3,0.8c0.2,0.2,0.6,0.4,1.2,0.5c0.1,0,0.2,0.1,0.4,0.1c0.2,0.1,0.3,0.1,0.3,0.1
				c0.8,0.2,1.3,0.5,1.7,0.9c0.3,0.3,0.5,0.8,0.5,1.3c0,0.7-0.3,1.2-0.7,1.5C182.2,674.3,181.5,674.5,180.7,674.5z"/>
			<path fill="#4A4A4C" d="M187.1,674.5c-0.6,0-1.1-0.1-1.4-0.4c-0.3-0.3-0.4-0.7-0.4-1.4v-5.2h-1.1l0.1-0.5l1-0.1l0.2-1.7l0.6,0
				v1.7h2.2v0.6h-2.2v5c0,0.5,0.1,0.9,0.3,1.1c0.2,0.2,0.5,0.3,0.9,0.3c0.3,0,0.6-0.1,1.1-0.2l0,0.7
				C187.8,674.4,187.4,674.5,187.1,674.5z"/>
			<path fill="#4A4A4C" d="M189.6,674.3c0-4.4,0-6.9,0-7.5h0.7l0.1,1.5c0.3-0.4,0.6-0.8,1-1.1c0.4-0.3,0.8-0.4,1.3-0.4
				c0.2,0,0.4,0,0.6,0l-0.1,0.7c-0.2,0-0.3,0-0.5,0c-0.6,0-1.2,0.2-1.6,0.7c-0.4,0.5-0.6,1.1-0.6,1.8v4.3H189.6z"/>
			<path fill="#4A4A4C" d="M194.6,665.3v-1.1h0.8v1.1H194.6z M194.6,674.3v-7.5h0.9v7.5H194.6z"/>
			<path fill="#4A4A4C" d="M197.6,674.3v-7.5h0.7l0.1,1.2c0.3-0.4,0.6-0.7,1.1-0.9c0.5-0.2,0.9-0.3,1.5-0.3c0.9,0,1.5,0.2,1.9,0.7
				c0.4,0.5,0.6,1.2,0.6,2.3v4.6h-0.9v-5c0-0.7-0.2-1.1-0.4-1.4c-0.3-0.3-0.7-0.4-1.3-0.4c-0.7,0-1.2,0.2-1.7,0.5
				c-0.4,0.3-0.7,0.8-0.8,1.3c0,0.2,0,0.4,0,0.7v4.4H197.6z"/>
			<path fill="#4A4A4C" d="M206.6,677.8l-0.1-0.8h1.6c0.4,0,0.7,0,0.9-0.1s0.5-0.1,0.7-0.2c0.2-0.1,0.3-0.2,0.5-0.4
				c0.1-0.2,0.2-0.3,0.3-0.5c0.1-0.2,0.1-0.4,0.2-0.7c0-0.3,0.1-0.5,0.1-0.8c0-0.2,0-0.5,0-0.9c0,0.1,0,0,0,0l0-0.5
				c-0.3,0.4-0.6,0.8-1,1c-0.4,0.2-0.9,0.4-1.4,0.4c-0.4,0-0.9-0.1-1.2-0.2c-0.4-0.2-0.7-0.4-0.9-0.6c-0.2-0.3-0.4-0.5-0.6-0.9
				s-0.3-0.7-0.3-1c-0.1-0.3-0.1-0.6-0.1-1c0-0.4,0-0.8,0.1-1.1c0.1-0.4,0.2-0.7,0.3-1.1c0.2-0.3,0.4-0.6,0.6-0.9s0.6-0.5,1-0.6
				c0.4-0.2,0.8-0.2,1.3-0.2c0.5,0,0.9,0.1,1.3,0.3c0.4,0.2,0.7,0.5,1,0.9l0.1-1.1h0.8v6.9c0,0.3,0,0.5,0,0.7c0,0.2,0,0.4-0.1,0.8
				c0,0.3-0.1,0.6-0.2,0.8c-0.1,0.2-0.2,0.4-0.4,0.7s-0.4,0.4-0.6,0.6c-0.2,0.1-0.6,0.3-0.9,0.4c-0.4,0.1-0.8,0.2-1.3,0.2H206.6z
				 M208.3,673.6c0.3,0,0.6-0.1,0.9-0.2c0.3-0.1,0.5-0.2,0.7-0.4c0.2-0.2,0.3-0.4,0.4-0.6c0.1-0.2,0.2-0.5,0.3-0.7s0.1-0.5,0.1-0.8
				v-0.8c0-0.4,0-0.7-0.1-1s-0.2-0.6-0.4-0.9c-0.2-0.3-0.4-0.5-0.7-0.6c-0.3-0.2-0.7-0.2-1.1-0.2c-0.3,0-0.6,0.1-0.9,0.2
				c-0.3,0.1-0.5,0.3-0.7,0.5c-0.2,0.2-0.3,0.5-0.4,0.8s-0.2,0.6-0.2,0.9c0,0.3-0.1,0.6-0.1,0.9c0,0.3,0,0.5,0.1,0.8
				c0,0.3,0.1,0.5,0.2,0.8c0.1,0.3,0.3,0.5,0.4,0.7s0.4,0.4,0.7,0.5C207.6,673.5,208,673.6,208.3,673.6z"/>
		</g>
	</g>
	<line fill="none" stroke="#BCBEC0" stroke-miterlimit="10" x1="0" y1="463" x2="260" y2="463"/>
	<line fill="none" stroke="#BCBEC0" stroke-miterlimit="10" x1="0" y1="644.9" x2="260" y2="644.9"/>
	<line fill="none" stroke="#BCBEC0" stroke-miterlimit="10" x1="0" y1="599.1" x2="260" y2="599.1"/>
	<line fill="none" stroke="#BCBEC0" stroke-miterlimit="10" x1="0" y1="553.4" x2="260" y2="553.4"/>
	<line fill="none" stroke="#BCBEC0" stroke-miterlimit="10" x1="0" y1="507.7" x2="260" y2="507.7"/>
	<rect y="403" fill="none" stroke="#BCBEC0" stroke-miterlimit="10" width="260" height="287.6"/>
	<line fill="none" stroke="#BCBEC0" stroke-miterlimit="10" x1="130" y1="463" x2="130" y2="690.6"/>
</g>
<g>
	<g>
		<polyline fill="none" stroke="#204056" stroke-miterlimit="10" points="261.1,158.7 294,158.7 294,354.4 328,354.4 		"/>
		<g>
			<polygon fill="#204056" points="264.4,162.8 265.1,162.1 261.5,158.7 265.1,155.4 264.4,154.6 260,158.7 			"/>
		</g>
	</g>
</g>
<g>
	<g>
		<polyline fill="none" stroke="#204056" stroke-miterlimit="10" points="328,401.4 294,401.4 294,561.7 261.1,561.7 		"/>
		<g>
			<polygon fill="#204056" points="264.4,557.6 265.1,558.4 261.5,561.7 265.1,565.1 264.4,565.8 260,561.7 			"/>
		</g>
	</g>
</g>
</svg>
